M48
;Layer_Color=9474304
;FILE_FORMAT=4:4
METRIC,LZ
;TYPE=PLATED
T01F00S00C0.1500
T02F00S00C0.2000
T03F00S00C0.3000
T05F00S00C0.6500
T06F00S00C1.0000
%
T01
X00264634Y00110269
X00268633
X00272633
X00276633
Y0011427
Y0011827
Y00122269
Y0012627
X00272633
X00268633
X00264634Y00122269
Y0011827
Y0011427
T02
X0024392Y00110269
X00250455Y0010519
X00253094Y00118142
X00250839Y00123091
X00234286Y00146052
X00290077Y0015029
X00295482Y00155839
X00291008Y00160532
X0017684Y00170745
X00172421Y00189879
X00171053Y00196212
X00049151Y00246667
T03
X0000749Y00021186
X00014917Y00025795
X0002459Y00050816
X00033144Y00075027
X000324Y00087601
X00032145Y00094453
X00032203Y00101731
X00011808Y00109377
X00053883Y00112077
X00081132Y00108427
X00095442Y00108602
X00096991Y00099928
X00103142Y00081342
X00127397Y00073779
X0013474Y00078113
X0013164Y00119944
X00126281Y00131013
X00092496Y00135947
X00059613Y00139296
X00049648Y00139353
X0003919Y00139965
X0005729Y00061688
X00072136Y00074985
X00086458Y00059366
X00087143Y00009434
X00070007Y00021145
X00057296Y00012437
X00043156Y00007918
X00117008Y0000819
X00130283Y00013024
X00117815Y00031014
X0014665Y00079572
X00164793Y00071464
X00174346Y00067823
X00190937Y00084443
X00196249Y00090373
X00216549Y00070402
X0024313Y00089286
X0024037Y00096067
X00251346Y00095492
X00231791Y00102122
X00225793Y0010863
X0022077Y0012293
X0021867Y00134474
X00236193Y00126121
X00241727Y00120627
X0025117Y00133872
X00263359Y00137588
X0027064Y00137387
X00294493Y0013862
X00294241Y0012852
X00298008Y00070483
X00285169Y00070277
X00264124Y0006963
X00265085Y00080728
X00275518Y0008253
X0027066Y00020873
X00297665Y00024811
X00241047Y00014537
X00169625Y00105182
X00169375Y00115322
X00157407Y00119311
X00165718Y00139092
X00176079Y00163608
X001617Y00181339
X0016319Y00214663
X00157832Y00220895
X00214456Y00213452
X00199081Y00196832
X00213857Y00167608
X00243747Y00171415
X00275278Y00197741
X00275816Y00233379
X00275371Y00262821
X00287821Y00263852
X00123394Y00256567
X00112893Y0026135
X00122076Y00217834
X00096373Y00201391
X00083405Y00201051
X00083497Y00224877
X00071691Y00220873
X00047Y00208
X00035943Y00211319
X00027129Y00205535
X00040538Y00194216
X0005412Y00186609
X00062698Y00186145
X00073547Y00181083
X00085683Y00167826
X00084543Y00146434
X00059498Y00149433
X00059441Y00159856
X00049476Y00159799
X00039626Y00159913
X00039248Y00150243
X00011402Y00175724
X0003997Y00241036
X00125797Y00164993
X00133981Y00169826
X00123447Y00148154
T05
X00139643Y00043954
X00152343
X00165043
X00177743
X00190443
T06
X0019253Y00014954
X00226266Y00015054
X00257295Y0001563
X00288422Y00016
M30
