G04*
G04 #@! TF.GenerationSoftware,Altium Limited,Altium Designer,25.8.1 (18)*
G04*
G04 Layer_Color=16711935*
%FSLAX25Y25*%
%MOIN*%
G70*
G04*
G04 #@! TF.SameCoordinates,758336D6-1982-4916-95B6-38615A689780*
G04*
G04*
G04 #@! TF.FilePolarity,Negative*
G04*
G01*
G75*
%ADD41R,0.02300X0.02200*%
%ADD52R,0.03162X0.03320*%
%ADD54R,0.03753X0.03162*%
%ADD55R,0.03320X0.03162*%
%ADD56R,0.03162X0.03753*%
%ADD57R,0.02769X0.03162*%
G04:AMPARAMS|DCode=62|XSize=33.2mil|YSize=31.62mil|CornerRadius=0mil|HoleSize=0mil|Usage=FLASHONLY|Rotation=225.000|XOffset=0mil|YOffset=0mil|HoleType=Round|Shape=Rectangle|*
%AMROTATEDRECTD62*
4,1,4,0.00056,0.02292,0.02292,0.00056,-0.00056,-0.02292,-0.02292,-0.00056,0.00056,0.02292,0.0*
%
%ADD62ROTATEDRECTD62*%

%ADD64R,0.03162X0.02769*%
%ADD65R,0.03950X0.03556*%
%ADD73R,0.04934X0.04934*%
%ADD74C,0.06800*%
G04:AMPARAMS|DCode=75|XSize=39.37mil|YSize=70.87mil|CornerRadius=19.68mil|HoleSize=0mil|Usage=FLASHONLY|Rotation=180.000|XOffset=0mil|YOffset=0mil|HoleType=Round|Shape=RoundedRectangle|*
%AMROUNDEDRECTD75*
21,1,0.03937,0.03150,0,0,180.0*
21,1,0.00000,0.07087,0,0,180.0*
1,1,0.03937,0.00000,0.01575*
1,1,0.03937,0.00000,0.01575*
1,1,0.03937,0.00000,-0.01575*
1,1,0.03937,0.00000,-0.01575*
%
%ADD75ROUNDEDRECTD75*%
G04:AMPARAMS|DCode=76|XSize=39.37mil|YSize=86.61mil|CornerRadius=19.68mil|HoleSize=0mil|Usage=FLASHONLY|Rotation=180.000|XOffset=0mil|YOffset=0mil|HoleType=Round|Shape=RoundedRectangle|*
%AMROUNDEDRECTD76*
21,1,0.03937,0.04724,0,0,180.0*
21,1,0.00000,0.08661,0,0,180.0*
1,1,0.03937,0.00000,0.02362*
1,1,0.03937,0.00000,0.02362*
1,1,0.03937,0.00000,-0.02362*
1,1,0.03937,0.00000,-0.02362*
%
%ADD76ROUNDEDRECTD76*%
%ADD77C,0.04934*%
%ADD78C,0.02769*%
%ADD79C,0.02375*%
%ADD80C,0.01784*%
%ADD81C,0.01981*%
%ADD103R,0.02200X0.02300*%
%ADD110R,0.10839X0.02769*%
%ADD111R,0.02690X0.02178*%
%ADD112R,0.02769X0.10839*%
%ADD113R,0.02572X0.02178*%
%ADD114R,0.02178X0.02572*%
%ADD115R,0.02178X0.02690*%
%ADD116R,0.02769X0.03871*%
%ADD117R,0.03871X0.02769*%
%ADD118R,0.04343X0.04737*%
%ADD119R,0.04737X0.04343*%
G04:AMPARAMS|DCode=120|XSize=37.92mil|YSize=34mil|CornerRadius=7.25mil|HoleSize=0mil|Usage=FLASHONLY|Rotation=0.000|XOffset=0mil|YOffset=0mil|HoleType=Round|Shape=RoundedRectangle|*
%AMROUNDEDRECTD120*
21,1,0.03792,0.01950,0,0,0.0*
21,1,0.02342,0.03400,0,0,0.0*
1,1,0.01450,0.01171,-0.00975*
1,1,0.01450,-0.01171,-0.00975*
1,1,0.01450,-0.01171,0.00975*
1,1,0.01450,0.01171,0.00975*
%
%ADD120ROUNDEDRECTD120*%
%ADD121R,0.05524X0.04737*%
%ADD122R,0.07493X0.04737*%
G36*
X60820Y59768D02*
X60871Y59757D01*
X60921Y59740D01*
X60968Y59717D01*
X61012Y59688D01*
X61051Y59654D01*
X61086Y59614D01*
X61115Y59570D01*
X61138Y59523D01*
X61155Y59474D01*
X61165Y59422D01*
X61169Y59370D01*
Y57087D01*
X61165Y57034D01*
X61155Y56983D01*
X61138Y56933D01*
X61115Y56886D01*
X61086Y56843D01*
X61051Y56803D01*
X61012Y56769D01*
X60968Y56739D01*
X60921Y56716D01*
X60871Y56699D01*
X60820Y56689D01*
X60768Y56686D01*
X60480D01*
Y54724D01*
X60476Y54672D01*
X60466Y54621D01*
X60449Y54571D01*
X60426Y54524D01*
X60397Y54480D01*
X60362Y54441D01*
X60323Y54406D01*
X60279Y54377D01*
X60232Y54354D01*
X60182Y54337D01*
X60131Y54327D01*
X60079Y54324D01*
X58110D01*
X58058Y54327D01*
X58007Y54337D01*
X57957Y54354D01*
X57910Y54377D01*
X57866Y54406D01*
X57827Y54441D01*
X57792Y54480D01*
X57763Y54524D01*
X57740Y54571D01*
X57723Y54621D01*
X57713Y54672D01*
X57709Y54724D01*
Y56686D01*
X57421D01*
X57369Y56689D01*
X57318Y56699D01*
X57268Y56716D01*
X57221Y56739D01*
X57177Y56769D01*
X57138Y56803D01*
X57103Y56843D01*
X57074Y56886D01*
X57051Y56933D01*
X57034Y56983D01*
X57024Y57034D01*
X57020Y57087D01*
Y59370D01*
X57024Y59422D01*
X57034Y59474D01*
X57051Y59523D01*
X57074Y59570D01*
X57103Y59614D01*
X57138Y59654D01*
X57177Y59688D01*
X57221Y59717D01*
X57268Y59740D01*
X57318Y59757D01*
X57369Y59768D01*
X57421Y59771D01*
X60768D01*
X60820Y59768D01*
D02*
G37*
G36*
X60131Y67720D02*
X60182Y67710D01*
X60232Y67693D01*
X60279Y67670D01*
X60323Y67641D01*
X60362Y67606D01*
X60397Y67567D01*
X60426Y67523D01*
X60449Y67476D01*
X60466Y67427D01*
X60476Y67375D01*
X60480Y67323D01*
Y65361D01*
X60768D01*
X60820Y65358D01*
X60871Y65348D01*
X60921Y65331D01*
X60968Y65308D01*
X61012Y65279D01*
X61051Y65244D01*
X61086Y65205D01*
X61115Y65161D01*
X61138Y65114D01*
X61155Y65064D01*
X61165Y65013D01*
X61169Y64961D01*
Y60827D01*
X61165Y60774D01*
X61155Y60723D01*
X61138Y60673D01*
X61115Y60626D01*
X61086Y60583D01*
X61051Y60543D01*
X61012Y60509D01*
X60968Y60480D01*
X60921Y60456D01*
X60871Y60440D01*
X60820Y60429D01*
X60768Y60426D01*
X57421D01*
X57369Y60429D01*
X57318Y60440D01*
X57268Y60456D01*
X57221Y60480D01*
X57177Y60509D01*
X57138Y60543D01*
X57103Y60583D01*
X57074Y60626D01*
X57051Y60673D01*
X57034Y60723D01*
X57024Y60774D01*
X57020Y60827D01*
Y64961D01*
X57024Y65013D01*
X57034Y65064D01*
X57051Y65114D01*
X57074Y65161D01*
X57103Y65205D01*
X57138Y65244D01*
X57177Y65279D01*
X57221Y65308D01*
X57268Y65331D01*
X57318Y65348D01*
X57369Y65358D01*
X57421Y65361D01*
X57709D01*
Y67323D01*
X57713Y67375D01*
X57723Y67427D01*
X57740Y67476D01*
X57763Y67523D01*
X57792Y67567D01*
X57827Y67606D01*
X57866Y67641D01*
X57910Y67670D01*
X57957Y67693D01*
X58007Y67710D01*
X58058Y67720D01*
X58110Y67724D01*
X60079D01*
X60131Y67720D01*
D02*
G37*
G36*
X75533Y47346D02*
X75584Y47336D01*
X75634Y47319D01*
X75681Y47296D01*
X75724Y47267D01*
X75764Y47232D01*
X75798Y47193D01*
X75827Y47149D01*
X75851Y47102D01*
X75867Y47053D01*
X75878Y47001D01*
X75881Y46949D01*
Y43602D01*
X75878Y43550D01*
X75867Y43499D01*
X75851Y43449D01*
X75827Y43402D01*
X75798Y43358D01*
X75764Y43319D01*
X75724Y43284D01*
X75681Y43255D01*
X75634Y43232D01*
X75584Y43215D01*
X75533Y43205D01*
X75480Y43202D01*
X73197D01*
X73145Y43205D01*
X73093Y43215D01*
X73043Y43232D01*
X72996Y43255D01*
X72953Y43284D01*
X72913Y43319D01*
X72879Y43358D01*
X72850Y43402D01*
X72826Y43449D01*
X72810Y43499D01*
X72799Y43550D01*
X72796Y43602D01*
Y43891D01*
X70835D01*
X70782Y43894D01*
X70731Y43904D01*
X70681Y43921D01*
X70634Y43944D01*
X70591Y43973D01*
X70551Y44008D01*
X70517Y44047D01*
X70487Y44091D01*
X70464Y44138D01*
X70447Y44188D01*
X70437Y44239D01*
X70434Y44291D01*
Y46260D01*
X70437Y46312D01*
X70447Y46364D01*
X70464Y46413D01*
X70487Y46460D01*
X70517Y46504D01*
X70551Y46543D01*
X70591Y46578D01*
X70634Y46607D01*
X70681Y46630D01*
X70731Y46647D01*
X70782Y46657D01*
X70835Y46661D01*
X72796D01*
Y46949D01*
X72799Y47001D01*
X72810Y47053D01*
X72826Y47102D01*
X72850Y47149D01*
X72879Y47193D01*
X72913Y47232D01*
X72953Y47267D01*
X72996Y47296D01*
X73043Y47319D01*
X73093Y47336D01*
X73145Y47346D01*
X73197Y47350D01*
X75480D01*
X75533Y47346D01*
D02*
G37*
G36*
X81123D02*
X81175Y47336D01*
X81224Y47319D01*
X81271Y47296D01*
X81315Y47267D01*
X81354Y47232D01*
X81389Y47193D01*
X81418Y47149D01*
X81441Y47102D01*
X81458Y47053D01*
X81468Y47001D01*
X81472Y46949D01*
Y46661D01*
X83433D01*
X83485Y46657D01*
X83537Y46647D01*
X83587Y46630D01*
X83634Y46607D01*
X83677Y46578D01*
X83716Y46543D01*
X83751Y46504D01*
X83780Y46460D01*
X83803Y46413D01*
X83820Y46364D01*
X83830Y46312D01*
X83834Y46260D01*
Y44291D01*
X83830Y44239D01*
X83820Y44188D01*
X83803Y44138D01*
X83780Y44091D01*
X83751Y44047D01*
X83716Y44008D01*
X83677Y43973D01*
X83634Y43944D01*
X83587Y43921D01*
X83537Y43904D01*
X83485Y43894D01*
X83433Y43891D01*
X81472D01*
Y43602D01*
X81468Y43550D01*
X81458Y43499D01*
X81441Y43449D01*
X81418Y43402D01*
X81389Y43358D01*
X81354Y43319D01*
X81315Y43284D01*
X81271Y43255D01*
X81224Y43232D01*
X81175Y43215D01*
X81123Y43205D01*
X81071Y43202D01*
X76937D01*
X76885Y43205D01*
X76833Y43215D01*
X76784Y43232D01*
X76737Y43255D01*
X76693Y43284D01*
X76654Y43319D01*
X76619Y43358D01*
X76590Y43402D01*
X76567Y43449D01*
X76550Y43499D01*
X76540Y43550D01*
X76536Y43602D01*
Y46949D01*
X76540Y47001D01*
X76550Y47053D01*
X76567Y47102D01*
X76590Y47149D01*
X76619Y47193D01*
X76654Y47232D01*
X76693Y47267D01*
X76737Y47296D01*
X76784Y47319D01*
X76833Y47336D01*
X76885Y47346D01*
X76937Y47350D01*
X81071D01*
X81123Y47346D01*
D02*
G37*
D41*
X64184Y5849D02*
D03*
X67984D02*
D03*
D52*
X58104Y27453D02*
D03*
X110062Y59208D02*
D03*
X84065Y80181D02*
D03*
X103434Y22232D02*
D03*
X99969D02*
D03*
X61569Y27453D02*
D03*
X87530Y80181D02*
D03*
X106597Y59208D02*
D03*
D54*
X87104Y12706D02*
D03*
X82576D02*
D03*
X40416Y23145D02*
D03*
X44944D02*
D03*
D55*
X87790Y21781D02*
D03*
X33541Y53407D02*
D03*
X112701Y50580D02*
D03*
X101258Y58008D02*
D03*
X96330Y58072D02*
D03*
X87790Y18317D02*
D03*
X101258Y61472D02*
D03*
X112701Y54045D02*
D03*
X96330Y61537D02*
D03*
X33541Y49942D02*
D03*
D56*
X109507Y39257D02*
D03*
X104516Y34435D02*
D03*
X78090Y86876D02*
D03*
X108422Y86057D02*
D03*
X113247Y94922D02*
D03*
X104516Y38963D02*
D03*
X99251Y17012D02*
D03*
Y12485D02*
D03*
X109507Y34730D02*
D03*
X28912Y66711D02*
D03*
X33902Y61337D02*
D03*
X28912Y71238D02*
D03*
X33902Y65864D02*
D03*
X108422Y81530D02*
D03*
X78090Y82349D02*
D03*
X113247Y99449D02*
D03*
D57*
X36791Y3618D02*
D03*
X40728D02*
D03*
D62*
X84846Y32358D02*
D03*
X82397Y34808D02*
D03*
X81368Y28773D02*
D03*
X78918Y31223D02*
D03*
D64*
X82440Y22071D02*
D03*
X99526Y31736D02*
D03*
X90292Y66946D02*
D03*
X99526Y27799D02*
D03*
X104333Y17196D02*
D03*
X90292Y63009D02*
D03*
X104333Y13259D02*
D03*
X82440Y18134D02*
D03*
D65*
X27728Y52228D02*
D03*
X20965Y51988D02*
D03*
X14266Y52542D02*
D03*
Y46833D02*
D03*
X27728Y46519D02*
D03*
X20965Y46280D02*
D03*
D73*
X54977Y17305D02*
D03*
D74*
X75799Y5887D02*
D03*
X101297Y6153D02*
D03*
X113552Y6299D02*
D03*
X89081Y5927D02*
D03*
D75*
X66957Y95866D02*
D03*
X32942D02*
D03*
D76*
X66957Y111614D02*
D03*
X32942D02*
D03*
D77*
X74977Y17305D02*
D03*
X59977D02*
D03*
X64977D02*
D03*
X69977D02*
D03*
D78*
X48601Y58328D02*
D03*
X86917Y48397D02*
D03*
X108472Y32492D02*
D03*
X112271Y27668D02*
D03*
X84196Y65987D02*
D03*
X103986Y27413D02*
D03*
X115843Y50599D02*
D03*
X115942Y54575D02*
D03*
X106559Y8218D02*
D03*
X94900Y5723D02*
D03*
X22558Y4896D02*
D03*
X12678Y40052D02*
D03*
X21214Y44125D02*
D03*
X28225Y86958D02*
D03*
X92238Y57501D02*
D03*
X92989Y49654D02*
D03*
X52748Y66861D02*
D03*
X40607Y32024D02*
D03*
X53048Y30753D02*
D03*
X31942Y42688D02*
D03*
X37576Y42757D02*
D03*
X64879Y28135D02*
D03*
X66781Y41410D02*
D03*
X66683Y45402D02*
D03*
X61971Y46973D02*
D03*
X65244Y54761D02*
D03*
X117326Y27749D02*
D03*
X95168Y47491D02*
D03*
X86091Y52943D02*
D03*
X91256Y40206D02*
D03*
X5873Y10155D02*
D03*
X46384Y12210D02*
D03*
X34038Y23372D02*
D03*
X12655Y37186D02*
D03*
X12756Y34489D02*
D03*
X32873Y88534D02*
D03*
X33285Y57651D02*
D03*
X50156Y29047D02*
D03*
X57736Y31328D02*
D03*
X98886Y52706D02*
D03*
X104364Y31783D02*
D03*
X106551Y54089D02*
D03*
X69323Y64413D02*
D03*
X84431Y84036D02*
D03*
X108589Y91881D02*
D03*
X95720Y35152D02*
D03*
X94634Y37822D02*
D03*
X98955Y37595D02*
D03*
X4649Y43062D02*
D03*
X14151Y83197D02*
D03*
X15960Y76463D02*
D03*
X10681Y80919D02*
D03*
X48580Y101011D02*
D03*
X44446Y102893D02*
D03*
X28400Y29522D02*
D03*
X36416Y53522D02*
D03*
X33734Y66073D02*
D03*
X28956Y71293D02*
D03*
X49527Y64958D02*
D03*
X95963Y67486D02*
D03*
X78378Y77493D02*
D03*
X63661Y71394D02*
D03*
X15736Y94896D02*
D03*
X21307Y73468D02*
D03*
X24684Y73286D02*
D03*
X103685Y54168D02*
D03*
X117191Y9768D02*
D03*
X68640Y26702D02*
D03*
X88895Y42768D02*
D03*
X75172Y33245D02*
D03*
X38185Y39342D02*
D03*
X77263Y35580D02*
D03*
X18504Y81890D02*
D03*
X108414Y103473D02*
D03*
X85255Y27717D02*
D03*
X48061Y85761D02*
D03*
X23402Y62935D02*
D03*
X23425Y58832D02*
D03*
X23470Y54841D02*
D03*
X19479Y62913D02*
D03*
X15452Y59151D02*
D03*
X15601Y62958D02*
D03*
X15429Y55105D02*
D03*
X19546Y54864D02*
D03*
X22555Y24286D02*
D03*
X27562Y8325D02*
D03*
X51293Y5127D02*
D03*
X46066Y3224D02*
D03*
X9681Y20007D02*
D03*
X2949Y8341D02*
D03*
X13049Y29538D02*
D03*
X16991Y3117D02*
D03*
X113315Y103879D02*
D03*
X108377Y77851D02*
D03*
X34308Y3714D02*
D03*
X62139Y86967D02*
D03*
X64248Y84513D02*
D03*
X37942Y79288D02*
D03*
X32837Y79154D02*
D03*
X4489Y69183D02*
D03*
X49717Y51580D02*
D03*
X51827Y47222D02*
D03*
D79*
X116332Y61354D02*
D03*
X114570Y63202D02*
D03*
X67882Y74756D02*
D03*
X67344Y77249D02*
D03*
X69622Y67222D02*
D03*
X114204Y59169D02*
D03*
X96031Y43413D02*
D03*
X98605Y41414D02*
D03*
X99643Y46513D02*
D03*
X19351Y97113D02*
D03*
D80*
X79134Y45276D02*
D03*
X59095Y63024D02*
D03*
X74134Y45276D02*
D03*
X59095Y58024D02*
D03*
X105761Y49712D02*
D03*
X108911Y43413D02*
D03*
Y46563D02*
D03*
X104186D02*
D03*
X107336Y43413D02*
D03*
X104186Y44988D02*
D03*
Y48138D02*
D03*
X108911D02*
D03*
X105761Y43413D02*
D03*
X108911Y44988D02*
D03*
X107336Y49712D02*
D03*
X108911D02*
D03*
X104186Y43413D02*
D03*
D81*
X98756Y48461D02*
D03*
D103*
X93505Y11270D02*
D03*
Y15070D02*
D03*
X113507Y15786D02*
D03*
Y11986D02*
D03*
D110*
X59449Y42520D02*
D03*
X59055Y74508D02*
D03*
X59449Y49409D02*
D03*
X59055Y81398D02*
D03*
D111*
X73925Y41732D02*
D03*
Y48819D02*
D03*
D112*
X38956Y61833D02*
D03*
X45846D02*
D03*
X71921Y64027D02*
D03*
X78811D02*
D03*
D113*
X80480Y41732D02*
D03*
Y48819D02*
D03*
D114*
X55551Y64370D02*
D03*
X62638D02*
D03*
D115*
X55551Y57815D02*
D03*
X62638D02*
D03*
D116*
X77134Y40512D02*
D03*
Y50039D02*
D03*
D117*
X54331Y61024D02*
D03*
X63858D02*
D03*
D118*
X28077Y81943D02*
D03*
X22762D02*
D03*
D119*
X23166Y63077D02*
D03*
X15508Y67332D02*
D03*
X23166Y68392D02*
D03*
X15508Y72647D02*
D03*
D120*
X49595Y38603D02*
D03*
Y44115D02*
D03*
D121*
X43191Y39582D02*
D03*
Y47456D02*
D03*
D122*
X29054Y4106D02*
D03*
X4250D02*
D03*
X29054Y19067D02*
D03*
X4250D02*
D03*
M02*
