%TF.GenerationSoftware,Altium Limited,Altium Designer,25.8.1 (18)*%
G04 Layer_Color=0*
%FSLAX45Y45*%
%MOMM*%
%TF.SameCoordinates,0F46F6EB-38F5-49E6-B003-B95780E70664*%
%TF.FilePolarity,Positive*%
%TF.FileFunction,Plated,1,4,PTH,Drill*%
%TF.Part,Single*%
G01*
G75*
%TA.AperFunction,ComponentDrill*%
%ADD133C,0.65000*%
%ADD134C,1.00000*%
%ADD135O,0.60000X1.40000*%
%ADD136O,0.60000X1.80000*%
%TA.AperFunction,ViaDrill,NotFilled*%
%ADD137C,0.30000*%
%ADD138C,0.20000*%
%ADD139C,0.15000*%
D133*
X1396426Y439541D02*
D03*
X1904426D02*
D03*
X1523426D02*
D03*
X1650426D02*
D03*
X1777426D02*
D03*
D134*
X1925295Y149536D02*
D03*
X2572947Y156296D02*
D03*
X2884218Y160000D02*
D03*
X2262656Y150541D02*
D03*
D135*
X1700721Y2435000D02*
D03*
X836721D02*
D03*
D136*
X1700721Y2835000D02*
D03*
X836721D02*
D03*
D137*
X1234473Y1481536D02*
D03*
X2207698Y1229298D02*
D03*
X2755184Y825298D02*
D03*
X2851694Y702769D02*
D03*
X2138568Y1676078D02*
D03*
X2641240Y696296D02*
D03*
X2942409Y1285204D02*
D03*
X2944929Y1386199D02*
D03*
X2706598Y208734D02*
D03*
X2410466Y145372D02*
D03*
X572961Y124368D02*
D03*
X322029Y1017311D02*
D03*
X538833Y1120768D02*
D03*
X716905Y2208732D02*
D03*
X2361930Y1261212D02*
D03*
X1339808Y1698264D02*
D03*
X1031420Y813420D02*
D03*
X1347405Y781130D02*
D03*
X811320Y1084271D02*
D03*
X954420Y1086023D02*
D03*
X1647934Y714643D02*
D03*
X1696248Y1051824D02*
D03*
X1693755Y1153220D02*
D03*
X1574074Y1193114D02*
D03*
X1657185Y1390920D02*
D03*
X2980084Y704834D02*
D03*
X2417269Y1206272D02*
D03*
X2186704Y1344742D02*
D03*
X2317913Y1021223D02*
D03*
X149174Y257949D02*
D03*
X1178146Y310142D02*
D03*
X864579Y593655D02*
D03*
X321448Y944531D02*
D03*
X323997Y876009D02*
D03*
X834969Y2248766D02*
D03*
X845434Y1464342D02*
D03*
X1273971Y737794D02*
D03*
X1466503Y795721D02*
D03*
X2511696Y1338720D02*
D03*
X2650852Y807279D02*
D03*
X2706403Y1373871D02*
D03*
X1760790Y1636079D02*
D03*
X2144559Y2134519D02*
D03*
X2758155Y2333788D02*
D03*
X2431297Y892863D02*
D03*
X2403696Y960669D02*
D03*
X2513461Y954915D02*
D03*
X118078Y1093770D02*
D03*
X359429Y2113191D02*
D03*
X405377Y1942157D02*
D03*
X271291Y2055349D02*
D03*
X1233942Y2565668D02*
D03*
X1128930Y2613496D02*
D03*
X721359Y749850D02*
D03*
X924964Y1359467D02*
D03*
X856834Y1678256D02*
D03*
X735469Y1810833D02*
D03*
X1257972Y1649935D02*
D03*
X2437469Y1714145D02*
D03*
X1990808Y1968324D02*
D03*
X1616997Y1813395D02*
D03*
X399704Y2410356D02*
D03*
X541199Y1866091D02*
D03*
X626982Y1861454D02*
D03*
X2633594Y1375880D02*
D03*
X2976650Y248105D02*
D03*
X1743462Y678229D02*
D03*
X2257934Y1086304D02*
D03*
X1909366Y844434D02*
D03*
X969906Y999281D02*
D03*
X1962491Y903734D02*
D03*
X470000Y2080000D02*
D03*
X2753711Y2628210D02*
D03*
X2165488Y704016D02*
D03*
X1220763Y2178340D02*
D03*
X594410Y1598558D02*
D03*
X594983Y1494328D02*
D03*
X596128Y1392961D02*
D03*
X494761Y1597986D02*
D03*
X392481Y1502427D02*
D03*
X396258Y1599131D02*
D03*
X391903Y1399655D02*
D03*
X496479Y1393534D02*
D03*
X572899Y616878D02*
D03*
X700073Y211454D02*
D03*
X1302834Y130236D02*
D03*
X1170085Y81898D02*
D03*
X245896Y508165D02*
D03*
X74895Y211862D02*
D03*
X331444Y750271D02*
D03*
X431564Y79175D02*
D03*
X2878209Y2638521D02*
D03*
X2752785Y1977414D02*
D03*
X871435Y94338D02*
D03*
X1578321Y2208953D02*
D03*
X1631900Y2146626D02*
D03*
X963731Y2013906D02*
D03*
X834052Y2010512D02*
D03*
X114017Y1757243D02*
D03*
X1262810Y1310135D02*
D03*
X1316401Y1199443D02*
D03*
D138*
X2954823Y1558388D02*
D03*
X2910084Y1605320D02*
D03*
X1724214Y1898789D02*
D03*
X2342858Y1460516D02*
D03*
X1710534Y1962121D02*
D03*
X2508393Y1230908D02*
D03*
X1768395Y1707449D02*
D03*
X2900771Y1502898D02*
D03*
X2439199Y1102689D02*
D03*
X2504553Y1051902D02*
D03*
X2530943Y1181421D02*
D03*
X491508Y2466673D02*
D03*
D139*
X2686335Y1262695D02*
D03*
X2766335Y1102695D02*
D03*
Y1182695D02*
D03*
X2646335D02*
D03*
X2726335Y1102695D02*
D03*
X2646335Y1142695D02*
D03*
Y1222695D02*
D03*
X2766335D02*
D03*
X2686335Y1102695D02*
D03*
X2766335Y1142695D02*
D03*
X2726335Y1262695D02*
D03*
X2766335D02*
D03*
X2646335Y1102695D02*
D03*
%TF.MD5,59967a3a15b568e0d362b8f91a5ef5cc*%
M02*
