%TF.GenerationSoftware,Altium Limited,Altium Designer,25.8.1 (18)*%
G04 Layer_Color=65535*
%FSLAX45Y45*%
%MOMM*%
%TF.SameCoordinates,0F46F6EB-38F5-49E6-B003-B95780E70664*%
%TF.FilePolarity,Positive*%
%TF.FileFunction,Legend,Top*%
%TF.Part,Single*%
G01*
G75*
%TA.AperFunction,NonConductor*%
%ADD75C,0.10000*%
%ADD76C,0.25000*%
%ADD77C,0.60000*%
%ADD78C,0.15240*%
%ADD79C,0.20000*%
%ADD80C,0.15000*%
%ADD81C,0.12700*%
%ADD82C,0.07620*%
%ADD83C,0.25400*%
G36*
X1610189Y852173D02*
X1583249Y879114D01*
X1565288Y861153D01*
X1592229Y834212D01*
X1610189Y852173D01*
D02*
G37*
G36*
X1355631Y1318467D02*
X1337670Y1336428D01*
X1310730Y1309487D01*
X1328690Y1291526D01*
X1355631Y1318467D01*
D02*
G37*
G36*
X2049543Y1133672D02*
X2067503Y1115711D01*
X2040563Y1088770D01*
X2022602Y1106731D01*
X2049543Y1133672D01*
D02*
G37*
G36*
X1794984Y1546085D02*
X1768044Y1573025D01*
X1786004Y1590986D01*
X1812945Y1564045D01*
X1794984Y1546085D01*
D02*
G37*
D75*
X2849335Y1031195D02*
G03*
X2849335Y1031195I-5000J0D01*
G01*
X1995839Y919932D02*
G03*
X1995839Y919932I-5000J0D01*
G01*
D76*
X1412500Y2065000D02*
G03*
X1412500Y2065000I-12500J0D01*
G01*
X493668Y238520D02*
G03*
X493668Y238520I-12500J0D01*
G01*
X1916154Y1834058D02*
G03*
X1916154Y1834058I-12500J0D01*
G01*
X532759Y2219469D02*
G03*
X532759Y2219469I-12500J0D01*
G01*
X1600721Y2262500D02*
G03*
X1600721Y2262500I-12500J0D01*
G01*
X1053006Y434203D02*
G03*
X1053006Y434203I-12500J0D01*
G01*
D77*
X2038154Y2069058D02*
G03*
X2038154Y2069058I-30000J0D01*
G01*
D78*
X135129Y1112848D02*
G03*
X135129Y1112848I-7620J0D01*
G01*
X310964Y930820D02*
G03*
X310964Y930820I-7620J0D01*
G01*
X1310150Y1212599D02*
X1341613Y1181136D01*
X1689117Y833632D02*
X1720580Y865096D01*
X2036620Y1244063D02*
X2068083Y1212599D01*
X1657653Y1560102D02*
X1689117Y1591566D01*
X1310150Y1212599D02*
X1341613Y1244063D01*
X1657653Y865096D02*
X1689117Y833632D01*
X2036620Y1181136D02*
X2068083Y1212599D01*
X1689117Y1591566D02*
X1720580Y1560102D01*
D79*
X1279926Y439541D02*
G03*
X1279926Y439541I-10000J0D01*
G01*
X330542Y1158248D02*
G03*
X330542Y1158248I-10000J0D01*
G01*
X2562178Y397816D02*
X2666177D01*
X2562178Y262816D02*
X2666177D01*
X1375000Y1935000D02*
Y1965000D01*
X1065000Y1935000D02*
Y1965000D01*
X1375000D01*
X1065000Y1935000D02*
X1375000D01*
X178668Y183520D02*
X443668D01*
X178668D02*
Y448520D01*
X443668D01*
Y183520D02*
Y448520D01*
X1908154Y1969058D02*
X2958154D01*
X1908154Y2649058D02*
X2958154D01*
X1908154Y1969058D02*
Y2649058D01*
X2958154Y1969058D02*
Y2649058D01*
X357759Y2749469D02*
X562759D01*
X250259Y2309469D02*
Y2601969D01*
X587759Y2309469D02*
X670259D01*
X250259D02*
X332759D01*
X670259D02*
Y2601969D01*
X811721Y2982500D02*
Y3055000D01*
Y2562500D02*
Y2687500D01*
Y3055000D02*
X1725721D01*
Y2982500D02*
Y3055000D01*
Y2562500D02*
Y2687500D01*
X639659Y662232D02*
Y702232D01*
X379659Y662232D02*
X639659D01*
X379659D02*
Y702232D01*
X639659Y762232D02*
Y802232D01*
X379659D02*
X639659D01*
X379659Y762232D02*
Y802232D01*
X509659Y662232D02*
Y802232D01*
X130856Y1426148D02*
X170856D01*
Y1166148D02*
Y1426148D01*
X130856Y1166148D02*
X170856D01*
X30856Y1426148D02*
X70856D01*
X30856Y1166148D02*
Y1426148D01*
Y1166148D02*
X70856D01*
X30856Y1296148D02*
X170856D01*
X1287139Y1528055D02*
Y1588054D01*
X1229807Y1392934D02*
Y1452933D01*
X2019123Y905789D02*
X2217113Y707799D01*
X2019123Y905789D02*
Y934074D01*
X2188829Y1103779D01*
X2217113Y707799D02*
X2400961Y891647D01*
X2188829Y1103779D02*
X2400961Y891647D01*
X708006Y204203D02*
Y354203D01*
X1103006Y204203D02*
Y354203D01*
D80*
X2353683Y368661D02*
X2455283D01*
X2442583Y468661D02*
X2455283D01*
Y268661D02*
Y468661D01*
X2442583Y268661D02*
X2455283D01*
X2353683D02*
X2366383D01*
X2353683D02*
Y468661D01*
X2366383D01*
X2215896Y496452D02*
X2228596D01*
X2215896Y267852D02*
Y496452D01*
Y267852D02*
X2228596D01*
X2304796D02*
X2317496D01*
Y496452D01*
X2304796D02*
X2317496D01*
X2215896Y382152D02*
X2317496D01*
X2651664Y506890D02*
Y526890D01*
X2451664Y506890D02*
X2651664D01*
X2451664D02*
Y526890D01*
Y586890D02*
Y606890D01*
X2651664D01*
Y586890D02*
Y606890D01*
X2260189Y1098786D02*
X2274331Y1112928D01*
X2118768Y1240208D02*
X2260189Y1098786D01*
X2118768Y1240208D02*
X2132910Y1254350D01*
X2175336Y1296776D02*
X2189478Y1310918D01*
X2330900Y1169497D01*
X2316758Y1155355D02*
X2330900Y1169497D01*
X1718338Y1842246D02*
X1738338D01*
Y1642246D02*
Y1842246D01*
X1718338Y1642246D02*
X1738338D01*
X1638338D02*
X1658338D01*
X1638338D02*
Y1842246D01*
X1658338D01*
X489579Y120660D02*
Y133360D01*
X260979D02*
X489579D01*
X260979Y120660D02*
Y133360D01*
Y31760D02*
Y44460D01*
Y31760D02*
X489579D01*
Y44460D01*
X375279Y31760D02*
Y133360D01*
X231143Y110908D02*
Y130908D01*
X31143D02*
X231143D01*
X31143Y110908D02*
Y130908D01*
Y30908D02*
Y50908D01*
Y30908D02*
X231143D01*
Y50908D01*
X612728Y72134D02*
X625428D01*
Y300734D01*
X612728D02*
X625428D01*
X523828D02*
X536528D01*
X523828Y72134D02*
Y300734D01*
Y72134D02*
X536528D01*
X523828Y186434D02*
X625428D01*
X523828Y450156D02*
X625428D01*
X523828Y335856D02*
X536528D01*
X523828D02*
Y564456D01*
X536528D01*
X612728D02*
X625428D01*
Y335856D02*
Y564456D01*
X612728Y335856D02*
X625428D01*
X105306Y156067D02*
X125306D01*
Y356067D01*
X105306D02*
X125306D01*
X25306D02*
X45306D01*
X25306Y156067D02*
Y356067D01*
Y156067D02*
X45306D01*
X28508Y581228D02*
X48508D01*
X28508Y381228D02*
Y581228D01*
Y381228D02*
X48508D01*
X108508D02*
X128508D01*
Y581228D01*
X108508D02*
X128508D01*
X657352Y121543D02*
Y141543D01*
X857352D01*
Y121543D02*
Y141543D01*
Y41543D02*
Y61543D01*
X657352Y41543D02*
X857352D01*
X657352D02*
Y61543D01*
X1104720Y41543D02*
Y61543D01*
X904720Y41543D02*
X1104720D01*
X904720D02*
Y61543D01*
Y121543D02*
Y141543D01*
X1104720D01*
Y121543D02*
Y141543D01*
X2751302Y398184D02*
X2852902D01*
X2840202Y512484D02*
X2852902D01*
Y283884D02*
Y512484D01*
X2840202Y283884D02*
X2852902D01*
X2751302D02*
X2764002D01*
X2751302D02*
Y512484D01*
X2764002D01*
X1118311Y612539D02*
Y625239D01*
Y612539D02*
X1318311D01*
Y625239D01*
Y701439D02*
Y714139D01*
X1118311D02*
X1318311D01*
X1118311Y701439D02*
Y714139D01*
X1218311Y612539D02*
Y714139D01*
X1093151Y711020D02*
Y723720D01*
X893151D02*
X1093151D01*
X893151Y711020D02*
Y723720D01*
Y622120D02*
Y634820D01*
Y622120D02*
X1093151D01*
Y634820D01*
X993151Y622120D02*
Y723720D01*
X2977075Y622482D02*
Y642482D01*
X2777075D02*
X2977075D01*
X2777075Y622482D02*
Y642482D01*
Y542482D02*
Y562482D01*
Y542482D02*
X2977075D01*
Y562482D01*
X2889224Y515512D02*
X2901924D01*
X2889224Y315512D02*
Y515512D01*
Y315512D02*
X2901924D01*
X2978124D02*
X2990824D01*
Y515512D01*
X2978124D02*
X2990824D01*
X2889224Y415512D02*
X2990824D01*
X786442Y2071731D02*
X888042D01*
X875342Y2186031D02*
X888042D01*
Y1957431D02*
Y2186031D01*
X875342Y1957431D02*
X888042D01*
X786442D02*
X799142D01*
X786442D02*
Y2186031D01*
X799142D01*
X915780Y2071888D02*
X1017380D01*
X1004680Y2186188D02*
X1017380D01*
Y1957588D02*
Y2186188D01*
X1004680Y1957588D02*
X1017380D01*
X915780D02*
X928480D01*
X915780D02*
Y2186188D01*
X928480D01*
X62550Y1580808D02*
X164150D01*
X151450Y1695108D02*
X164150D01*
Y1466508D02*
Y1695108D01*
X126050Y1466508D02*
X164150D01*
X62550D02*
X100650D01*
X62550D02*
Y1695108D01*
X75250D01*
X164150Y1453808D02*
Y1466508D01*
X126050Y1453808D02*
X164150D01*
X126050D02*
Y1466508D01*
X62550Y1453808D02*
Y1466508D01*
Y1453808D02*
X100650D01*
Y1466508D01*
X63217Y1929260D02*
X164817D01*
X63217Y1814960D02*
X75917D01*
X63217D02*
Y2043560D01*
X101317D01*
X126717D02*
X164817D01*
Y1814960D02*
Y2043560D01*
X152117Y1814960D02*
X164817D01*
X63217Y2043560D02*
Y2056260D01*
X101317D01*
Y2043560D02*
Y2056260D01*
X164817Y2043560D02*
Y2056260D01*
X126717D02*
X164817D01*
X126717Y2043560D02*
Y2056260D01*
X1503539Y1833088D02*
X1523539D01*
X1503539Y1633088D02*
Y1833088D01*
Y1633088D02*
X1523539D01*
X1583539D02*
X1603539D01*
Y1833088D01*
X1583539D02*
X1603539D01*
X2292074Y630505D02*
X2306216Y616363D01*
X2447637Y757784D01*
X2433495Y771926D02*
X2447637Y757784D01*
X2376927Y828495D02*
X2391069Y814353D01*
X2235505Y687073D02*
X2376927Y828495D01*
X2235505Y687073D02*
X2249648Y672931D01*
X2140513Y702856D02*
X2154655Y716998D01*
X2013233Y858420D02*
X2154655Y716998D01*
X1999091Y844277D02*
X2013233Y858420D01*
X1942523Y787709D02*
X1956665Y801851D01*
X1942523Y787709D02*
X2083944Y646288D01*
X2098086Y660430D01*
X1244966Y162192D02*
Y263792D01*
X1359266Y162192D02*
Y174892D01*
X1130666Y162192D02*
X1359266D01*
X1130666D02*
Y174892D01*
Y251092D02*
Y263792D01*
X1359266D01*
Y251092D02*
Y263792D01*
X1130666Y471124D02*
X1232266D01*
X1130666Y356824D02*
X1143366D01*
X1130666D02*
Y585424D01*
X1143366D01*
X1219566D02*
X1232266D01*
Y356824D02*
Y585424D01*
X1219566Y356824D02*
X1232266D01*
D81*
X1332926Y524041D02*
Y544541D01*
Y334540D02*
Y355041D01*
X1967926Y524041D02*
Y544541D01*
Y334540D02*
Y355041D01*
X1332926Y334540D02*
X1967926D01*
X1332926Y544541D02*
X1967926D01*
X245542Y1713748D02*
Y1743248D01*
X275042D01*
X716041D02*
X745542D01*
Y1713748D02*
Y1743248D01*
Y1243248D02*
Y1272748D01*
X716041Y1243248D02*
X745542D01*
X245542D02*
X275042D01*
X245542D02*
Y1272748D01*
D82*
X-338725Y1170497D02*
X-263914Y1095685D01*
X-233990D01*
X-204065Y1125610D01*
X-204065Y1155534D01*
X-278876Y1230346D01*
X-99329D02*
X-159178Y1170497D01*
Y1290195D01*
X-174140Y1305157D01*
X-204065Y1305157D01*
X-233990Y1275232D01*
Y1245308D01*
X-202284Y902988D02*
X-329243D01*
Y818349D01*
Y691390D02*
Y776029D01*
X-244604Y691390D01*
X-223444D01*
X-202284Y712550D01*
Y754869D01*
X-223444Y776029D01*
D83*
X3720297Y2446171D02*
X3821865D01*
X3771081D01*
Y2293821D01*
X3872648D02*
Y2446171D01*
X3948823D01*
X3974215Y2420780D01*
Y2369996D01*
X3948823Y2344604D01*
X3872648D01*
X4126566Y2293821D02*
X4024999D01*
X4126566Y2395388D01*
Y2420780D01*
X4101174Y2446171D01*
X4050391D01*
X4024999Y2420780D01*
%TF.MD5,a3ca6e7f7d50f43a6dd499cf307165e8*%
M02*
