%TF.GenerationSoftware,Altium Limited,Altium Designer,25.8.1 (18)*%
G04 Layer_Color=128*
%FSLAX45Y45*%
%MOMM*%
%TF.SameCoordinates,0F46F6EB-38F5-49E6-B003-B95780E70664*%
%TF.FilePolarity,Positive*%
%TF.FileFunction,Paste,Bot*%
%TF.Part,Single*%
G01*
G75*
%TA.AperFunction,SMDPad,CuDef*%
%ADD14R,0.60000X0.64000*%
%ADD16R,0.75000X0.60000*%
%ADD17R,0.64000X0.60000*%
%ADD18R,0.60000X0.75000*%
%ADD20R,0.50000X0.60000*%
G04:AMPARAMS|DCode=26|XSize=0.64mm|YSize=0.6mm|CornerRadius=0mm|HoleSize=0mm|Usage=FLASHONLY|Rotation=225.000|XOffset=0mm|YOffset=0mm|HoleType=Round|Shape=Rectangle|*
%AMROTATEDRECTD26*
4,1,4,0.01414,0.43841,0.43841,0.01414,-0.01414,-0.43841,-0.43841,-0.01414,0.01414,0.43841,0.0*
%
%ADD26ROTATEDRECTD26*%

%ADD28R,0.60000X0.50000*%
%ADD30R,0.80000X0.70000*%
%ADD31R,0.58420X0.55880*%
%ADD59R,2.55000X0.50000*%
%ADD60R,0.48000X0.35000*%
%ADD61R,0.50000X2.55000*%
%ADD62R,0.45000X0.35000*%
%ADD63C,0.25000*%
%ADD64R,0.35000X0.45000*%
%ADD65R,0.35000X0.48000*%
%ADD66R,0.50000X0.78000*%
%ADD67R,0.78000X0.50000*%
%ADD68R,0.55880X0.58420*%
%ADD69R,0.90000X1.00000*%
%ADD70R,1.00000X0.90000*%
G04:AMPARAMS|DCode=71|XSize=0.76mm|YSize=0.6604mm|CornerRadius=0.08255mm|HoleSize=0mm|Usage=FLASHONLY|Rotation=0.000|XOffset=0mm|YOffset=0mm|HoleType=Round|Shape=RoundedRectangle|*
%AMROUNDEDRECTD71*
21,1,0.76000,0.49530,0,0,0.0*
21,1,0.59490,0.66040,0,0,0.0*
1,1,0.16510,0.29745,-0.24765*
1,1,0.16510,-0.29745,-0.24765*
1,1,0.16510,-0.29745,0.24765*
1,1,0.16510,0.29745,0.24765*
%
%ADD71ROUNDEDRECTD71*%
%ADD72R,1.20000X1.00000*%
%ADD73R,1.70000X1.00000*%
G36*
X1543500Y1450000D02*
X1526000D01*
Y1390000D01*
X1476000D01*
Y1450000D01*
X1458500D01*
Y1508000D01*
X1543500D01*
Y1450000D01*
D02*
G37*
G36*
X1526000Y1650000D02*
X1543500D01*
Y1545000D01*
X1458500D01*
Y1650000D01*
X1476000D01*
Y1710000D01*
X1526000D01*
Y1650000D01*
D02*
G37*
G36*
X1917200Y1107500D02*
X1859200D01*
Y1125000D01*
X1799200D01*
Y1175000D01*
X1859200D01*
Y1192500D01*
X1917200D01*
Y1107500D01*
D02*
G37*
G36*
X2059200Y1175000D02*
X2119200D01*
Y1125000D01*
X2059200D01*
Y1107500D01*
X1954200D01*
Y1192500D01*
X2059200D01*
Y1175000D01*
D02*
G37*
D14*
X1475848Y697300D02*
D03*
X2795567Y1503890D02*
D03*
X2135262Y2036597D02*
D03*
X2627214Y564695D02*
D03*
X2539214D02*
D03*
X1563848Y697300D02*
D03*
X2223262Y2036597D02*
D03*
X2707567Y1503890D02*
D03*
D16*
X2212435Y322740D02*
D03*
X2097435D02*
D03*
X1026580Y587877D02*
D03*
X1141580D02*
D03*
D17*
X2229858Y553246D02*
D03*
X851946Y1356524D02*
D03*
X2862618Y1284730D02*
D03*
X2571953Y1473397D02*
D03*
X2446793Y1475033D02*
D03*
X2229858Y465245D02*
D03*
X2571953Y1561397D02*
D03*
X2862618Y1372730D02*
D03*
X2446793Y1563033D02*
D03*
X851946Y1268524D02*
D03*
D18*
X2781472Y997142D02*
D03*
X2654711Y874650D02*
D03*
X1983486Y2206663D02*
D03*
X2753929Y2185852D02*
D03*
X2876470Y2411014D02*
D03*
X2654711Y989650D02*
D03*
X2520977Y432116D02*
D03*
Y317116D02*
D03*
X2781472Y882141D02*
D03*
X734364Y1694445D02*
D03*
X861124Y1557954D02*
D03*
X734364Y1809445D02*
D03*
X861124Y1672954D02*
D03*
X2753929Y2070852D02*
D03*
X1983486Y2091663D02*
D03*
X2876470Y2526014D02*
D03*
D20*
X934499Y91888D02*
D03*
X1034498D02*
D03*
D26*
X2155097Y821895D02*
D03*
X2092872Y884120D02*
D03*
X2066739Y730828D02*
D03*
X2004514Y793054D02*
D03*
D28*
X2093975Y560595D02*
D03*
X2527952Y806088D02*
D03*
X2293417Y1700420D02*
D03*
X2527952Y706088D02*
D03*
X2650064Y436784D02*
D03*
X2293417Y1600420D02*
D03*
X2650064Y336785D02*
D03*
X2093975Y460595D02*
D03*
D30*
X704286Y1326584D02*
D03*
X532521Y1320502D02*
D03*
X362361Y1334557D02*
D03*
Y1189557D02*
D03*
X704286Y1181584D02*
D03*
X532521Y1175502D02*
D03*
D31*
X1630273Y148575D02*
D03*
X1726793D02*
D03*
D59*
X1510000Y1080000D02*
D03*
X1500000Y1892500D02*
D03*
X1510000Y1255000D02*
D03*
X1500000Y2067500D02*
D03*
D60*
X1877700Y1060000D02*
D03*
Y1240000D02*
D03*
D61*
X989496Y1570567D02*
D03*
X1164496D02*
D03*
X1826802Y1626279D02*
D03*
X2001802D02*
D03*
D62*
X2044200Y1060000D02*
D03*
Y1240000D02*
D03*
D63*
X2010000Y1150000D02*
D03*
X1501000Y1600800D02*
D03*
X1883000Y1150000D02*
D03*
X1501000Y1473800D02*
D03*
D64*
X1411000Y1635000D02*
D03*
X1591000D02*
D03*
D65*
X1411000Y1468500D02*
D03*
X1591000D02*
D03*
D66*
X1959200Y1029000D02*
D03*
Y1271000D02*
D03*
D67*
X1380000Y1550000D02*
D03*
X1622000D02*
D03*
D68*
X2375018Y286267D02*
D03*
Y382787D02*
D03*
X2883092Y400961D02*
D03*
Y304441D02*
D03*
D69*
X713156Y2081355D02*
D03*
X578156D02*
D03*
D70*
X588404Y1602156D02*
D03*
X393908Y1710226D02*
D03*
X588404Y1737156D02*
D03*
X393908Y1845226D02*
D03*
D71*
X1259700Y980514D02*
D03*
Y1120514D02*
D03*
D72*
X1097040Y1005373D02*
D03*
Y1205373D02*
D03*
D73*
X737963Y104303D02*
D03*
X107963D02*
D03*
X737963Y484303D02*
D03*
X107963D02*
D03*
%TF.MD5,2558fbddc4229b6f2979b8cd6bb49f46*%
M02*
