%TF.GenerationSoftware,Altium Limited,Altium Designer,25.8.1 (18)*%
G04 Layer_Color=16711935*
%FSLAX45Y45*%
%MOMM*%
%TF.SameCoordinates,0F46F6EB-38F5-49E6-B003-B95780E70664*%
%TF.FilePolarity,Negative*%
%TF.FileFunction,Soldermask,Bot*%
%TF.Part,Single*%
G01*
G75*
%TA.AperFunction,SMDPad,CuDef*%
%ADD31R,0.58420X0.55880*%
%TA.AperFunction,ComponentPad*%
G04:AMPARAMS|DCode=52|XSize=1mm|YSize=1.8mm|CornerRadius=0.5mm|HoleSize=0mm|Usage=FLASHONLY|Rotation=180.000|XOffset=0mm|YOffset=0mm|HoleType=Round|Shape=RoundedRectangle|*
%AMROUNDEDRECTD52*
21,1,1.00000,0.80000,0,0,180.0*
21,1,0.00000,1.80000,0,0,180.0*
1,1,1.00000,0.00000,0.40000*
1,1,1.00000,0.00000,0.40000*
1,1,1.00000,0.00000,-0.40000*
1,1,1.00000,0.00000,-0.40000*
%
%ADD52ROUNDEDRECTD52*%
G04:AMPARAMS|DCode=53|XSize=1mm|YSize=2.2mm|CornerRadius=0.5mm|HoleSize=0mm|Usage=FLASHONLY|Rotation=180.000|XOffset=0mm|YOffset=0mm|HoleType=Round|Shape=RoundedRectangle|*
%AMROUNDEDRECTD53*
21,1,1.00000,1.20000,0,0,180.0*
21,1,0.00000,2.20000,0,0,180.0*
1,1,1.00000,0.00000,0.60000*
1,1,1.00000,0.00000,0.60000*
1,1,1.00000,0.00000,-0.60000*
1,1,1.00000,0.00000,-0.60000*
%
%ADD53ROUNDEDRECTD53*%
%TA.AperFunction,SMDPad,CuDef*%
%ADD68R,0.55880X0.58420*%
%ADD89R,0.80320X0.84320*%
%ADD90R,0.95320X0.80320*%
%ADD91R,0.84320X0.80320*%
%ADD92R,0.80320X0.95320*%
%ADD93R,0.70320X0.80320*%
G04:AMPARAMS|DCode=98|XSize=0.8432mm|YSize=0.8032mm|CornerRadius=0mm|HoleSize=0mm|Usage=FLASHONLY|Rotation=225.000|XOffset=0mm|YOffset=0mm|HoleType=Round|Shape=Rectangle|*
%AMROTATEDRECTD98*
4,1,4,0.01414,0.58209,0.58209,0.01414,-0.01414,-0.58209,-0.58209,-0.01414,0.01414,0.58209,0.0*
%
%ADD98ROTATEDRECTD98*%

%ADD100R,0.80320X0.70320*%
%ADD101R,1.00320X0.90320*%
%TA.AperFunction,ComponentPad*%
%ADD107R,1.25320X1.25320*%
%ADD108C,1.72720*%
%ADD109C,1.25320*%
%TA.AperFunction,ViaPad*%
%ADD110C,0.70320*%
%ADD111C,0.60320*%
%ADD112C,0.45320*%
%ADD113C,0.50320*%
%TA.AperFunction,SMDPad,CuDef*%
%ADD114R,2.75320X0.70320*%
%ADD115R,0.68320X0.55320*%
%ADD116R,0.70320X2.75320*%
%ADD117R,0.65320X0.55320*%
%ADD118C,0.45320*%
%ADD119R,0.55320X0.65320*%
%ADD120R,0.55320X0.68320*%
%ADD121R,0.70320X0.98320*%
%ADD122R,0.98320X0.70320*%
%ADD123R,1.10320X1.20320*%
%ADD124R,1.20320X1.10320*%
G04:AMPARAMS|DCode=125|XSize=0.9632mm|YSize=0.8636mm|CornerRadius=0.18415mm|HoleSize=0mm|Usage=FLASHONLY|Rotation=0.000|XOffset=0mm|YOffset=0mm|HoleType=Round|Shape=RoundedRectangle|*
%AMROUNDEDRECTD125*
21,1,0.96320,0.49530,0,0,0.0*
21,1,0.59490,0.86360,0,0,0.0*
1,1,0.36830,0.29745,-0.24765*
1,1,0.36830,-0.29745,-0.24765*
1,1,0.36830,-0.29745,0.24765*
1,1,0.36830,0.29745,0.24765*
%
%ADD125ROUNDEDRECTD125*%
%ADD126R,1.40320X1.20320*%
%ADD127R,1.90320X1.20320*%
G36*
X1544829Y1518095D02*
X1546135Y1517835D01*
X1547396Y1517407D01*
X1548591Y1516818D01*
X1549698Y1516078D01*
X1550700Y1515200D01*
X1551578Y1514198D01*
X1552318Y1513091D01*
X1552907Y1511896D01*
X1553335Y1510635D01*
X1553595Y1509329D01*
X1553682Y1508000D01*
Y1450000D01*
X1553595Y1448671D01*
X1553335Y1447365D01*
X1552907Y1446104D01*
X1552318Y1444909D01*
X1551578Y1443802D01*
X1550700Y1442800D01*
X1549698Y1441922D01*
X1548591Y1441182D01*
X1547396Y1440593D01*
X1546135Y1440165D01*
X1544829Y1439905D01*
X1543500Y1439818D01*
X1536182D01*
Y1390000D01*
X1536095Y1388671D01*
X1535835Y1387365D01*
X1535407Y1386104D01*
X1534818Y1384909D01*
X1534078Y1383802D01*
X1533200Y1382800D01*
X1532198Y1381922D01*
X1531091Y1381182D01*
X1529896Y1380593D01*
X1528635Y1380165D01*
X1527329Y1379905D01*
X1526000Y1379818D01*
X1476000D01*
X1474671Y1379905D01*
X1473365Y1380165D01*
X1472104Y1380593D01*
X1470909Y1381182D01*
X1469802Y1381922D01*
X1468800Y1382800D01*
X1467922Y1383802D01*
X1467182Y1384909D01*
X1466593Y1386104D01*
X1466165Y1387365D01*
X1465905Y1388671D01*
X1465818Y1390000D01*
Y1439818D01*
X1458500D01*
X1457171Y1439905D01*
X1455865Y1440165D01*
X1454604Y1440593D01*
X1453409Y1441182D01*
X1452302Y1441922D01*
X1451300Y1442800D01*
X1450422Y1443802D01*
X1449682Y1444909D01*
X1449093Y1446104D01*
X1448665Y1447365D01*
X1448405Y1448671D01*
X1448318Y1450000D01*
Y1508000D01*
X1448405Y1509329D01*
X1448665Y1510635D01*
X1449093Y1511896D01*
X1449682Y1513091D01*
X1450422Y1514198D01*
X1451300Y1515200D01*
X1452302Y1516078D01*
X1453409Y1516818D01*
X1454604Y1517407D01*
X1455865Y1517835D01*
X1457171Y1518095D01*
X1458500Y1518182D01*
X1543500D01*
X1544829Y1518095D01*
D02*
G37*
G36*
X1527329Y1720095D02*
X1528635Y1719835D01*
X1529896Y1719407D01*
X1531091Y1718817D01*
X1532198Y1718078D01*
X1533200Y1717200D01*
X1534078Y1716198D01*
X1534818Y1715091D01*
X1535407Y1713896D01*
X1535835Y1712635D01*
X1536095Y1711329D01*
X1536182Y1710000D01*
Y1660182D01*
X1543500D01*
X1544829Y1660095D01*
X1546135Y1659835D01*
X1547396Y1659407D01*
X1548591Y1658818D01*
X1549698Y1658078D01*
X1550700Y1657200D01*
X1551578Y1656198D01*
X1552318Y1655091D01*
X1552907Y1653896D01*
X1553335Y1652635D01*
X1553595Y1651329D01*
X1553682Y1650000D01*
Y1545000D01*
X1553595Y1543671D01*
X1553335Y1542365D01*
X1552907Y1541104D01*
X1552318Y1539909D01*
X1551578Y1538802D01*
X1550700Y1537800D01*
X1549698Y1536922D01*
X1548591Y1536182D01*
X1547396Y1535593D01*
X1546135Y1535165D01*
X1544829Y1534905D01*
X1543500Y1534818D01*
X1458500D01*
X1457171Y1534905D01*
X1455865Y1535165D01*
X1454604Y1535593D01*
X1453409Y1536182D01*
X1452302Y1536922D01*
X1451300Y1537800D01*
X1450422Y1538802D01*
X1449682Y1539909D01*
X1449093Y1541104D01*
X1448665Y1542365D01*
X1448405Y1543671D01*
X1448318Y1545000D01*
Y1650000D01*
X1448405Y1651329D01*
X1448665Y1652635D01*
X1449093Y1653896D01*
X1449682Y1655091D01*
X1450422Y1656198D01*
X1451300Y1657200D01*
X1452302Y1658078D01*
X1453409Y1658818D01*
X1454604Y1659407D01*
X1455865Y1659835D01*
X1457171Y1660095D01*
X1458500Y1660182D01*
X1465818D01*
Y1710000D01*
X1465905Y1711329D01*
X1466165Y1712635D01*
X1466593Y1713896D01*
X1467182Y1715091D01*
X1467922Y1716198D01*
X1468800Y1717200D01*
X1469802Y1718078D01*
X1470909Y1718817D01*
X1472104Y1719407D01*
X1473365Y1719835D01*
X1474671Y1720095D01*
X1476000Y1720182D01*
X1526000D01*
X1527329Y1720095D01*
D02*
G37*
G36*
X1918529Y1202595D02*
X1919835Y1202335D01*
X1921096Y1201907D01*
X1922291Y1201318D01*
X1923398Y1200578D01*
X1924400Y1199700D01*
X1925278Y1198698D01*
X1926018Y1197591D01*
X1926607Y1196396D01*
X1927035Y1195135D01*
X1927295Y1193829D01*
X1927382Y1192500D01*
Y1107500D01*
X1927295Y1106171D01*
X1927035Y1104865D01*
X1926607Y1103604D01*
X1926018Y1102409D01*
X1925278Y1101302D01*
X1924400Y1100300D01*
X1923398Y1099422D01*
X1922291Y1098682D01*
X1921096Y1098093D01*
X1919835Y1097665D01*
X1918529Y1097405D01*
X1917200Y1097318D01*
X1859200D01*
X1857871Y1097405D01*
X1856565Y1097665D01*
X1855304Y1098093D01*
X1854109Y1098682D01*
X1853002Y1099422D01*
X1852000Y1100300D01*
X1851122Y1101302D01*
X1850382Y1102409D01*
X1849793Y1103604D01*
X1849365Y1104865D01*
X1849105Y1106171D01*
X1849018Y1107500D01*
Y1114818D01*
X1799200D01*
X1797871Y1114905D01*
X1796565Y1115165D01*
X1795304Y1115593D01*
X1794109Y1116182D01*
X1793002Y1116922D01*
X1792000Y1117800D01*
X1791122Y1118802D01*
X1790383Y1119909D01*
X1789793Y1121104D01*
X1789365Y1122365D01*
X1789105Y1123671D01*
X1789018Y1125000D01*
Y1175000D01*
X1789105Y1176329D01*
X1789365Y1177635D01*
X1789793Y1178896D01*
X1790383Y1180091D01*
X1791122Y1181198D01*
X1792000Y1182200D01*
X1793002Y1183078D01*
X1794109Y1183818D01*
X1795304Y1184407D01*
X1796565Y1184835D01*
X1797871Y1185095D01*
X1799200Y1185182D01*
X1849018D01*
Y1192500D01*
X1849105Y1193829D01*
X1849365Y1195135D01*
X1849793Y1196396D01*
X1850382Y1197591D01*
X1851122Y1198698D01*
X1852000Y1199700D01*
X1853002Y1200578D01*
X1854109Y1201318D01*
X1855304Y1201907D01*
X1856565Y1202335D01*
X1857871Y1202595D01*
X1859200Y1202682D01*
X1917200D01*
X1918529Y1202595D01*
D02*
G37*
G36*
X2060529D02*
X2061835Y1202335D01*
X2063096Y1201907D01*
X2064291Y1201318D01*
X2065398Y1200578D01*
X2066400Y1199700D01*
X2067278Y1198698D01*
X2068018Y1197591D01*
X2068607Y1196396D01*
X2069035Y1195135D01*
X2069295Y1193829D01*
X2069382Y1192500D01*
Y1185182D01*
X2119200D01*
X2120529Y1185095D01*
X2121835Y1184835D01*
X2123096Y1184407D01*
X2124291Y1183818D01*
X2125398Y1183078D01*
X2126400Y1182200D01*
X2127278Y1181198D01*
X2128018Y1180091D01*
X2128607Y1178896D01*
X2129035Y1177635D01*
X2129295Y1176329D01*
X2129382Y1175000D01*
Y1125000D01*
X2129295Y1123671D01*
X2129035Y1122365D01*
X2128607Y1121104D01*
X2128018Y1119909D01*
X2127278Y1118802D01*
X2126400Y1117800D01*
X2125398Y1116922D01*
X2124291Y1116182D01*
X2123096Y1115593D01*
X2121835Y1115165D01*
X2120529Y1114905D01*
X2119200Y1114818D01*
X2069382D01*
Y1107500D01*
X2069295Y1106171D01*
X2069035Y1104865D01*
X2068607Y1103604D01*
X2068018Y1102409D01*
X2067278Y1101302D01*
X2066400Y1100300D01*
X2065398Y1099422D01*
X2064291Y1098682D01*
X2063096Y1098093D01*
X2061835Y1097665D01*
X2060529Y1097405D01*
X2059200Y1097318D01*
X1954200D01*
X1952871Y1097405D01*
X1951565Y1097665D01*
X1950304Y1098093D01*
X1949109Y1098682D01*
X1948002Y1099422D01*
X1947000Y1100300D01*
X1946122Y1101302D01*
X1945382Y1102409D01*
X1944793Y1103604D01*
X1944365Y1104865D01*
X1944105Y1106171D01*
X1944018Y1107500D01*
Y1192500D01*
X1944105Y1193829D01*
X1944365Y1195135D01*
X1944793Y1196396D01*
X1945382Y1197591D01*
X1946122Y1198698D01*
X1947000Y1199700D01*
X1948002Y1200578D01*
X1949109Y1201318D01*
X1950304Y1201907D01*
X1951565Y1202335D01*
X1952871Y1202595D01*
X1954200Y1202682D01*
X2059200D01*
X2060529Y1202595D01*
D02*
G37*
D31*
X1630273Y148575D02*
D03*
X1726793D02*
D03*
D52*
X1700721Y2435000D02*
D03*
X836721D02*
D03*
D53*
X1700721Y2835000D02*
D03*
X836721D02*
D03*
D68*
X2375018Y286267D02*
D03*
Y382787D02*
D03*
X2883092Y400961D02*
D03*
Y304441D02*
D03*
D89*
X1475848Y697300D02*
D03*
X2795567Y1503890D02*
D03*
X2135262Y2036597D02*
D03*
X2627214Y564695D02*
D03*
X2539214D02*
D03*
X1563848Y697300D02*
D03*
X2223262Y2036597D02*
D03*
X2707567Y1503890D02*
D03*
D90*
X2212435Y322740D02*
D03*
X2097435D02*
D03*
X1026580Y587877D02*
D03*
X1141580D02*
D03*
D91*
X2229858Y553246D02*
D03*
X851946Y1356524D02*
D03*
X2862618Y1284730D02*
D03*
X2571953Y1473397D02*
D03*
X2446793Y1475033D02*
D03*
X2229858Y465245D02*
D03*
X2571953Y1561397D02*
D03*
X2862618Y1372730D02*
D03*
X2446793Y1563033D02*
D03*
X851946Y1268524D02*
D03*
D92*
X2781472Y997142D02*
D03*
X2654711Y874650D02*
D03*
X1983486Y2206663D02*
D03*
X2753929Y2185852D02*
D03*
X2876470Y2411014D02*
D03*
X2654711Y989650D02*
D03*
X2520977Y432116D02*
D03*
Y317116D02*
D03*
X2781472Y882141D02*
D03*
X734364Y1694445D02*
D03*
X861124Y1557954D02*
D03*
X734364Y1809445D02*
D03*
X861124Y1672954D02*
D03*
X2753929Y2070852D02*
D03*
X1983486Y2091663D02*
D03*
X2876470Y2526014D02*
D03*
D93*
X934499Y91888D02*
D03*
X1034498D02*
D03*
D98*
X2155097Y821895D02*
D03*
X2092872Y884120D02*
D03*
X2066739Y730828D02*
D03*
X2004514Y793054D02*
D03*
D100*
X2093975Y560595D02*
D03*
X2527952Y806088D02*
D03*
X2293417Y1700420D02*
D03*
X2527952Y706088D02*
D03*
X2650064Y436784D02*
D03*
X2293417Y1600420D02*
D03*
X2650064Y336785D02*
D03*
X2093975Y460595D02*
D03*
D101*
X704286Y1326584D02*
D03*
X532521Y1320502D02*
D03*
X362361Y1334557D02*
D03*
Y1189557D02*
D03*
X704286Y1181584D02*
D03*
X532521Y1175502D02*
D03*
D107*
X1396426Y439541D02*
D03*
D108*
X1925295Y149536D02*
D03*
X2572947Y156296D02*
D03*
X2884218Y160000D02*
D03*
X2262656Y150541D02*
D03*
D109*
X1904426Y439541D02*
D03*
X1523426D02*
D03*
X1650426D02*
D03*
X1777426D02*
D03*
D110*
X1234473Y1481536D02*
D03*
X2207698Y1229298D02*
D03*
X2755184Y825298D02*
D03*
X2851694Y702769D02*
D03*
X2138568Y1676078D02*
D03*
X2641240Y696296D02*
D03*
X2942409Y1285204D02*
D03*
X2944929Y1386199D02*
D03*
X2706598Y208734D02*
D03*
X2410466Y145372D02*
D03*
X572961Y124368D02*
D03*
X322029Y1017311D02*
D03*
X538833Y1120768D02*
D03*
X716905Y2208732D02*
D03*
X2342858Y1460516D02*
D03*
X2361930Y1261212D02*
D03*
X1339808Y1698264D02*
D03*
X1031420Y813420D02*
D03*
X1347405Y781130D02*
D03*
X811320Y1084271D02*
D03*
X954420Y1086023D02*
D03*
X1647934Y714643D02*
D03*
X1696248Y1051824D02*
D03*
X1693755Y1153220D02*
D03*
X1574074Y1193114D02*
D03*
X1657185Y1390920D02*
D03*
X2980084Y704834D02*
D03*
X2417269Y1206272D02*
D03*
X2186704Y1344742D02*
D03*
X2317913Y1021223D02*
D03*
X149174Y257949D02*
D03*
X1178146Y310142D02*
D03*
X864579Y593655D02*
D03*
X321448Y944531D02*
D03*
X323997Y876009D02*
D03*
X834969Y2248766D02*
D03*
X845434Y1464342D02*
D03*
X1273971Y737794D02*
D03*
X1466503Y795721D02*
D03*
X2511696Y1338720D02*
D03*
X2650852Y807279D02*
D03*
X2706403Y1373871D02*
D03*
X1760790Y1636079D02*
D03*
X2144559Y2134519D02*
D03*
X2758155Y2333788D02*
D03*
X2431297Y892863D02*
D03*
X2403696Y960669D02*
D03*
X2513461Y954915D02*
D03*
X118078Y1093770D02*
D03*
X359429Y2113191D02*
D03*
X405377Y1942157D02*
D03*
X271291Y2055349D02*
D03*
X1233942Y2565668D02*
D03*
X1128930Y2613496D02*
D03*
X721359Y749850D02*
D03*
X924964Y1359467D02*
D03*
X856834Y1678256D02*
D03*
X735469Y1810833D02*
D03*
X1257972Y1649935D02*
D03*
X2437469Y1714145D02*
D03*
X1990808Y1968324D02*
D03*
X1616997Y1813395D02*
D03*
X399704Y2410356D02*
D03*
X541199Y1866091D02*
D03*
X626982Y1861454D02*
D03*
X2633594Y1375880D02*
D03*
X2976650Y248105D02*
D03*
X1743462Y678229D02*
D03*
X2257934Y1086304D02*
D03*
X1909366Y844434D02*
D03*
X969906Y999281D02*
D03*
X1962491Y903734D02*
D03*
X470000Y2080000D02*
D03*
X2753711Y2628210D02*
D03*
X2165488Y704016D02*
D03*
X1220763Y2178340D02*
D03*
X594410Y1598558D02*
D03*
X594983Y1494328D02*
D03*
X596128Y1392961D02*
D03*
X494761Y1597986D02*
D03*
X392481Y1502427D02*
D03*
X396258Y1599131D02*
D03*
X391903Y1399655D02*
D03*
X496479Y1393534D02*
D03*
X572899Y616878D02*
D03*
X700073Y211454D02*
D03*
X1302834Y130236D02*
D03*
X1170085Y81898D02*
D03*
X245896Y508165D02*
D03*
X74895Y211862D02*
D03*
X331444Y750271D02*
D03*
X431564Y79175D02*
D03*
X2878209Y2638521D02*
D03*
X2752785Y1977414D02*
D03*
X871435Y94338D02*
D03*
X1578321Y2208953D02*
D03*
X1631900Y2146626D02*
D03*
X963731Y2013906D02*
D03*
X834052Y2010512D02*
D03*
X114017Y1757243D02*
D03*
X1262810Y1310135D02*
D03*
X1316401Y1199443D02*
D03*
D111*
X2954823Y1558388D02*
D03*
X2910084Y1605320D02*
D03*
X1724214Y1898789D02*
D03*
X1710534Y1962121D02*
D03*
X1768395Y1707449D02*
D03*
X2900771Y1502898D02*
D03*
X2439199Y1102689D02*
D03*
X2504553Y1051902D02*
D03*
X2530943Y1181421D02*
D03*
X491508Y2466673D02*
D03*
D112*
X2686335Y1262695D02*
D03*
X2766335Y1102695D02*
D03*
Y1182695D02*
D03*
X2646335D02*
D03*
X2726335Y1102695D02*
D03*
X2646335Y1142695D02*
D03*
Y1222695D02*
D03*
X2766335D02*
D03*
X2686335Y1102695D02*
D03*
X2766335Y1142695D02*
D03*
X2726335Y1262695D02*
D03*
X2766335D02*
D03*
X2646335Y1102695D02*
D03*
D113*
X2508393Y1230908D02*
D03*
D114*
X1510000Y1080000D02*
D03*
X1500000Y1892500D02*
D03*
X1510000Y1255000D02*
D03*
X1500000Y2067500D02*
D03*
D115*
X1877700Y1060000D02*
D03*
Y1240000D02*
D03*
D116*
X989496Y1570567D02*
D03*
X1164496D02*
D03*
X1826802Y1626279D02*
D03*
X2001802D02*
D03*
D117*
X2044200Y1060000D02*
D03*
Y1240000D02*
D03*
D118*
X2010000Y1150000D02*
D03*
X1501000Y1600800D02*
D03*
X1883000Y1150000D02*
D03*
X1501000Y1473800D02*
D03*
D119*
X1411000Y1635000D02*
D03*
X1591000D02*
D03*
D120*
X1411000Y1468500D02*
D03*
X1591000D02*
D03*
D121*
X1959200Y1029000D02*
D03*
Y1271000D02*
D03*
D122*
X1380000Y1550000D02*
D03*
X1622000D02*
D03*
D123*
X713156Y2081355D02*
D03*
X578156D02*
D03*
D124*
X588404Y1602156D02*
D03*
X393908Y1710226D02*
D03*
X588404Y1737156D02*
D03*
X393908Y1845226D02*
D03*
D125*
X1259700Y980514D02*
D03*
Y1120514D02*
D03*
D126*
X1097040Y1005373D02*
D03*
Y1205373D02*
D03*
D127*
X737963Y104303D02*
D03*
X107963D02*
D03*
X737963Y484303D02*
D03*
X107963D02*
D03*
%TF.MD5,e4b9812f62b8284b69436bc2514d754c*%
M02*
