%TF.GenerationSoftware,Altium Limited,Altium Designer,25.8.1 (18)*%
G04 Layer_Physical_Order=4*
G04 Layer_Color=16711680*
%FSLAX45Y45*%
%MOMM*%
%TF.SameCoordinates,0F46F6EB-38F5-49E6-B003-B95780E70664*%
%TF.FilePolarity,Positive*%
%TF.FileFunction,Copper,L4,Bot,Signal*%
%TF.Part,Single*%
G01*
G75*
%TA.AperFunction,Conductor*%
%ADD10C,0.20000*%
%TA.AperFunction,SMDPad,CuDef*%
%ADD14R,0.60000X0.64000*%
%ADD16R,0.75000X0.60000*%
%ADD17R,0.64000X0.60000*%
%ADD18R,0.60000X0.75000*%
%ADD20R,0.50000X0.60000*%
G04:AMPARAMS|DCode=26|XSize=0.64mm|YSize=0.6mm|CornerRadius=0mm|HoleSize=0mm|Usage=FLASHONLY|Rotation=225.000|XOffset=0mm|YOffset=0mm|HoleType=Round|Shape=Rectangle|*
%AMROTATEDRECTD26*
4,1,4,0.01414,0.43841,0.43841,0.01414,-0.01414,-0.43841,-0.43841,-0.01414,0.01414,0.43841,0.0*
%
%ADD26ROTATEDRECTD26*%

%ADD28R,0.60000X0.50000*%
%ADD30R,0.80000X0.70000*%
%ADD31R,0.58420X0.55880*%
%TA.AperFunction,Conductor*%
%ADD43C,0.30000*%
%ADD44C,0.15000*%
%ADD45C,0.50000*%
%ADD47C,0.20320*%
%TA.AperFunction,ComponentPad*%
%ADD50R,1.05000X1.05000*%
%ADD51C,1.52400*%
G04:AMPARAMS|DCode=52|XSize=1mm|YSize=1.8mm|CornerRadius=0.5mm|HoleSize=0mm|Usage=FLASHONLY|Rotation=180.000|XOffset=0mm|YOffset=0mm|HoleType=Round|Shape=RoundedRectangle|*
%AMROUNDEDRECTD52*
21,1,1.00000,0.80000,0,0,180.0*
21,1,0.00000,1.80000,0,0,180.0*
1,1,1.00000,0.00000,0.40000*
1,1,1.00000,0.00000,0.40000*
1,1,1.00000,0.00000,-0.40000*
1,1,1.00000,0.00000,-0.40000*
%
%ADD52ROUNDEDRECTD52*%
G04:AMPARAMS|DCode=53|XSize=1mm|YSize=2.2mm|CornerRadius=0.5mm|HoleSize=0mm|Usage=FLASHONLY|Rotation=180.000|XOffset=0mm|YOffset=0mm|HoleType=Round|Shape=RoundedRectangle|*
%AMROUNDEDRECTD53*
21,1,1.00000,1.20000,0,0,180.0*
21,1,0.00000,2.20000,0,0,180.0*
1,1,1.00000,0.00000,0.60000*
1,1,1.00000,0.00000,0.60000*
1,1,1.00000,0.00000,-0.60000*
1,1,1.00000,0.00000,-0.60000*
%
%ADD53ROUNDEDRECTD53*%
%ADD54C,1.05000*%
%TA.AperFunction,ViaPad*%
%ADD55C,0.50000*%
%ADD56C,0.40000*%
%ADD57C,0.25000*%
%ADD58C,0.30000*%
%TA.AperFunction,SMDPad,CuDef*%
%ADD59R,2.55000X0.50000*%
%ADD60R,0.48000X0.35000*%
%ADD61R,0.50000X2.55000*%
%ADD62R,0.45000X0.35000*%
%ADD63C,0.25000*%
%ADD64R,0.35000X0.45000*%
%ADD65R,0.35000X0.48000*%
%ADD66R,0.50000X0.78000*%
%ADD67R,0.78000X0.50000*%
%ADD68R,0.55880X0.58420*%
%ADD69R,0.90000X1.00000*%
%ADD70R,1.00000X0.90000*%
G04:AMPARAMS|DCode=71|XSize=0.76mm|YSize=0.6604mm|CornerRadius=0.08255mm|HoleSize=0mm|Usage=FLASHONLY|Rotation=0.000|XOffset=0mm|YOffset=0mm|HoleType=Round|Shape=RoundedRectangle|*
%AMROUNDEDRECTD71*
21,1,0.76000,0.49530,0,0,0.0*
21,1,0.59490,0.66040,0,0,0.0*
1,1,0.16510,0.29745,-0.24765*
1,1,0.16510,-0.29745,-0.24765*
1,1,0.16510,-0.29745,0.24765*
1,1,0.16510,0.29745,0.24765*
%
%ADD71ROUNDEDRECTD71*%
%ADD72R,1.20000X1.00000*%
%ADD73R,1.70000X1.00000*%
%TA.AperFunction,Conductor*%
%ADD74C,0.40000*%
G36*
X3030000Y277139D02*
X3020000Y275150D01*
X3019377Y276654D01*
X3005966Y290065D01*
Y364719D01*
X3004026Y374473D01*
X2998500Y382743D01*
X2962258Y418985D01*
X2953989Y424510D01*
X2944234Y426451D01*
X2936432D01*
Y455571D01*
X2895792D01*
Y400961D01*
X2883092D01*
Y388261D01*
X2829752D01*
Y346351D01*
X2836270D01*
X2845152Y343651D01*
Y265231D01*
X2853067D01*
Y240894D01*
X2850946Y240325D01*
X2831290Y228977D01*
X2815241Y212928D01*
X2803892Y193272D01*
X2798018Y171348D01*
Y148651D01*
X2803892Y126728D01*
X2815241Y107072D01*
X2831290Y91023D01*
X2850946Y79674D01*
X2872869Y73800D01*
X2895566D01*
X2917490Y79674D01*
X2937146Y91023D01*
X2953195Y107072D01*
X2964543Y126728D01*
X2970418Y148651D01*
Y171348D01*
X2965961Y187980D01*
X2972515Y197318D01*
X2973278Y197705D01*
X2986675D01*
X3005199Y205378D01*
X3019377Y219556D01*
X3020000Y221060D01*
X3030000Y219071D01*
Y0D01*
X0D01*
Y28903D01*
X95263D01*
Y104303D01*
X107963D01*
Y117003D01*
X218363D01*
Y179703D01*
X126951D01*
X120269Y189703D01*
X124187Y199162D01*
X25603D01*
X29522Y189703D01*
X22840Y179703D01*
X0D01*
Y3000000D01*
X3030000D01*
Y277139D01*
D02*
G37*
%LPC*%
G36*
X849421Y2969379D02*
Y2847700D01*
X912772D01*
Y2895000D01*
X910181Y2914684D01*
X902583Y2933026D01*
X890497Y2948776D01*
X874747Y2960862D01*
X856405Y2968460D01*
X849421Y2969379D01*
D02*
G37*
G36*
X1713421D02*
Y2847700D01*
X1776772D01*
Y2895000D01*
X1774181Y2914684D01*
X1766583Y2933026D01*
X1754497Y2948776D01*
X1738747Y2960862D01*
X1720405Y2968460D01*
X1713421Y2969379D01*
D02*
G37*
G36*
X824021D02*
X817038Y2968460D01*
X798696Y2960862D01*
X782946Y2948776D01*
X770860Y2933026D01*
X763262Y2914684D01*
X760671Y2895000D01*
Y2847700D01*
X824021D01*
Y2969379D01*
D02*
G37*
G36*
X1688021D02*
X1681038Y2968460D01*
X1662696Y2960862D01*
X1646945Y2948776D01*
X1634860Y2933026D01*
X1627262Y2914684D01*
X1624671Y2895000D01*
Y2847700D01*
X1688021D01*
Y2969379D01*
D02*
G37*
G36*
X1776772Y2822300D02*
X1713421D01*
Y2700621D01*
X1720405Y2701541D01*
X1738747Y2709138D01*
X1754497Y2721224D01*
X1766583Y2736975D01*
X1774181Y2755317D01*
X1776772Y2775000D01*
Y2822300D01*
D02*
G37*
G36*
X912772D02*
X849421D01*
Y2700621D01*
X856405Y2701541D01*
X874747Y2709138D01*
X890497Y2721224D01*
X902583Y2736975D01*
X910181Y2755317D01*
X912772Y2775000D01*
Y2822300D01*
D02*
G37*
G36*
X1688021D02*
X1624671D01*
Y2775000D01*
X1627262Y2755317D01*
X1634860Y2736975D01*
X1646945Y2721224D01*
X1662696Y2709138D01*
X1681038Y2701541D01*
X1688021Y2700621D01*
Y2822300D01*
D02*
G37*
G36*
X824021D02*
X760671D01*
Y2775000D01*
X763262Y2755317D01*
X770860Y2736975D01*
X782946Y2721224D01*
X798696Y2709138D01*
X817038Y2701541D01*
X824021Y2700621D01*
Y2822300D01*
D02*
G37*
G36*
X2766411Y2677502D02*
Y2640910D01*
X2803003D01*
X2796437Y2656759D01*
X2782260Y2670936D01*
X2766411Y2677502D01*
D02*
G37*
G36*
X2741011D02*
X2725161Y2670936D01*
X2710984Y2656759D01*
X2704419Y2640910D01*
X2741011D01*
Y2677502D01*
D02*
G37*
G36*
X1135892Y2648496D02*
X1121968D01*
X1109104Y2643167D01*
X1099258Y2633322D01*
X1098804Y2632226D01*
X744022D01*
X744021Y2632226D01*
X736155Y2630661D01*
X729486Y2626205D01*
X256757Y2153476D01*
X252301Y2146807D01*
X250736Y2138941D01*
X250736Y2138940D01*
Y2084291D01*
X241620Y2075175D01*
X236291Y2062311D01*
Y2048387D01*
X241620Y2035523D01*
X251465Y2025677D01*
X264329Y2020349D01*
X278253D01*
X291117Y2025677D01*
X300963Y2035523D01*
X306291Y2048387D01*
Y2062311D01*
X300963Y2075175D01*
X291846Y2084291D01*
Y2130427D01*
X331887Y2170467D01*
X336795Y2167961D01*
X340179Y2164795D01*
X338873Y2158234D01*
X338874Y2158233D01*
Y2142134D01*
X329757Y2133017D01*
X324429Y2120153D01*
Y2106229D01*
X329757Y2093365D01*
X339603Y2083520D01*
X352467Y2078191D01*
X366390D01*
X379255Y2083520D01*
X389100Y2093365D01*
X394428Y2106229D01*
Y2120153D01*
X389100Y2133017D01*
X379983Y2142134D01*
Y2149720D01*
X769193Y2538929D01*
X780623D01*
X783837Y2529460D01*
X782946Y2528776D01*
X770860Y2513025D01*
X763262Y2494684D01*
X760671Y2475000D01*
Y2447701D01*
X836721D01*
X912772D01*
Y2475000D01*
X910181Y2494684D01*
X902583Y2513025D01*
X890497Y2528776D01*
X889606Y2529460D01*
X892820Y2538929D01*
X1207198D01*
X1207199Y2538929D01*
X1209739Y2539434D01*
X1210679D01*
X1214116Y2535997D01*
X1226981Y2530668D01*
X1240904D01*
X1253768Y2535997D01*
X1263614Y2545842D01*
X1268942Y2558706D01*
Y2572630D01*
X1263614Y2585494D01*
X1253768Y2595340D01*
X1240904Y2600668D01*
X1226981D01*
X1214116Y2595340D01*
X1204271Y2585494D01*
X1202011Y2580039D01*
X1159113D01*
X1154971Y2590039D01*
X1158601Y2593670D01*
X1163930Y2606534D01*
Y2620458D01*
X1158601Y2633322D01*
X1148756Y2643167D01*
X1135892Y2648496D01*
D02*
G37*
G36*
X2803003Y2615510D02*
X2766411D01*
Y2578918D01*
X2782260Y2585483D01*
X2796437Y2599660D01*
X2803003Y2615510D01*
D02*
G37*
G36*
X2741011D02*
X2704419D01*
X2710984Y2599660D01*
X2725161Y2585483D01*
X2741011Y2578918D01*
Y2615510D01*
D02*
G37*
G36*
X2885171Y2673521D02*
X2871247D01*
X2858383Y2668193D01*
X2848537Y2658347D01*
X2843209Y2645483D01*
Y2631559D01*
X2848537Y2618695D01*
X2857817Y2609415D01*
Y2573514D01*
X2836470D01*
Y2478514D01*
X2916470D01*
Y2573514D01*
X2898601D01*
Y2609415D01*
X2907880Y2618695D01*
X2913209Y2631559D01*
Y2645483D01*
X2907880Y2658347D01*
X2898035Y2668193D01*
X2885171Y2673521D01*
D02*
G37*
G36*
X1713421Y2549379D02*
Y2447701D01*
X1776772D01*
Y2475000D01*
X1774181Y2494684D01*
X1766583Y2513025D01*
X1754497Y2528776D01*
X1738747Y2540862D01*
X1720405Y2548459D01*
X1713421Y2549379D01*
D02*
G37*
G36*
X1688021D02*
X1681038Y2548459D01*
X1662696Y2540862D01*
X1646945Y2528776D01*
X1634860Y2513025D01*
X1627262Y2494684D01*
X1624671Y2475000D01*
Y2447701D01*
X1688021D01*
Y2549379D01*
D02*
G37*
G36*
X497476Y2496673D02*
X485541D01*
X474652Y2492162D01*
X330272D01*
X320517Y2490222D01*
X312248Y2484697D01*
X36507Y2208956D01*
X30982Y2200686D01*
X29041Y2190932D01*
Y1025096D01*
X30982Y1015341D01*
X36507Y1007072D01*
X72043Y971536D01*
X80313Y966010D01*
X90067Y964070D01*
X170744D01*
X196923Y937891D01*
X193096Y928652D01*
X37339D01*
X29685Y925482D01*
X26515Y917828D01*
Y849248D01*
X29685Y841594D01*
X37339Y838424D01*
X217678D01*
X223314Y834658D01*
Y661556D01*
X225255Y651801D01*
X230780Y643532D01*
X593177Y281135D01*
X601446Y275610D01*
X611200Y273670D01*
X821669D01*
X954212Y141127D01*
X950385Y131888D01*
X899499D01*
Y128838D01*
X889499Y124739D01*
X878397Y129338D01*
X864473D01*
X858363Y126807D01*
X848363Y133489D01*
Y179703D01*
X752297D01*
X745615Y189703D01*
X749365Y198754D01*
X650781D01*
X654530Y189703D01*
X647848Y179703D01*
X627563D01*
Y117003D01*
X737963D01*
Y104303D01*
X750663D01*
Y28903D01*
X848363D01*
Y55187D01*
X858363Y61869D01*
X864473Y59338D01*
X878397D01*
X889499Y63936D01*
X895992Y61275D01*
X899499Y58762D01*
Y51888D01*
X969498D01*
Y112774D01*
X978737Y116601D01*
X999498Y95840D01*
Y51888D01*
X1069498D01*
Y131888D01*
X1035546D01*
X850251Y317183D01*
X841982Y322709D01*
X832227Y324649D01*
X621759D01*
X274294Y672114D01*
Y922058D01*
X272353Y931812D01*
X266828Y940081D01*
X199326Y1007583D01*
X191057Y1013109D01*
X181302Y1015049D01*
X100625D01*
X80021Y1035654D01*
Y1069264D01*
X82395Y1070589D01*
X90021Y1072330D01*
X90892Y1071459D01*
X92844Y1068536D01*
X95767Y1066583D01*
X98252Y1064098D01*
X101499Y1062753D01*
X104422Y1060801D01*
X107869Y1060115D01*
X111116Y1058770D01*
X114630D01*
X118078Y1058084D01*
X121526Y1058770D01*
X125040D01*
X128287Y1060115D01*
X128960Y1060249D01*
X308098D01*
X310088Y1050249D01*
X302203Y1046983D01*
X292357Y1037137D01*
X287029Y1024273D01*
Y1010349D01*
X292357Y997485D01*
X302203Y987640D01*
X305067Y986453D01*
Y975629D01*
X301622Y974203D01*
X291777Y964357D01*
X286448Y951493D01*
Y937569D01*
X291777Y924705D01*
X301622Y914859D01*
X301905Y914743D01*
X302261Y903771D01*
X294325Y895835D01*
X288997Y882971D01*
Y869048D01*
X294325Y856183D01*
X304171Y846338D01*
X317035Y841009D01*
X330958D01*
X343823Y846338D01*
X353668Y856183D01*
X358996Y869048D01*
Y882971D01*
X353668Y895835D01*
X343823Y905681D01*
X343540Y905798D01*
X343184Y916769D01*
X351120Y924705D01*
X356448Y937569D01*
Y951493D01*
X351120Y964357D01*
X341274Y974203D01*
X338410Y975389D01*
Y986213D01*
X341855Y987640D01*
X351700Y997485D01*
X357029Y1010349D01*
Y1024273D01*
X351700Y1037137D01*
X341855Y1046983D01*
X333970Y1050249D01*
X335959Y1060249D01*
X391310D01*
X420802Y1030757D01*
X432379Y1023021D01*
X446035Y1020305D01*
X487540D01*
Y840650D01*
X490710Y832997D01*
X498364Y829826D01*
X566944D01*
X574598Y832997D01*
X577768Y840650D01*
Y1012919D01*
X587768Y1017062D01*
X742023Y862806D01*
X753601Y855070D01*
X767257Y852354D01*
X866334D01*
X868143Y852714D01*
X869952Y852354D01*
X1007823D01*
X1010498Y845783D01*
X1010856Y842354D01*
X1001748Y833246D01*
X996420Y820382D01*
Y806458D01*
X1001748Y793594D01*
X1011594Y783749D01*
X1024458Y778420D01*
X1038382D01*
X1051246Y783749D01*
X1061091Y793594D01*
X1062286Y796478D01*
X1183351D01*
X1187178Y787239D01*
X1127161Y727221D01*
X1122740Y720606D01*
X1121188Y712802D01*
Y627877D01*
X1094080D01*
Y547877D01*
X1189080D01*
Y627877D01*
X1161972D01*
Y704355D01*
X1224095Y766478D01*
X1240092D01*
X1243826Y756478D01*
X1238971Y744755D01*
Y730832D01*
X1244299Y717968D01*
X1254145Y708122D01*
X1267009Y702794D01*
X1280933D01*
X1293797Y708122D01*
X1303642Y717968D01*
X1308971Y730832D01*
Y744755D01*
X1305574Y752955D01*
X1311013Y762646D01*
X1313312Y762686D01*
X1321273Y754480D01*
Y733197D01*
X1321137Y732992D01*
X1319584Y725188D01*
Y684794D01*
X1321137Y676990D01*
X1325557Y670375D01*
X1432962Y562970D01*
X1439578Y558549D01*
X1447381Y556997D01*
X1447382Y556997D01*
X1724802D01*
X1757034Y524765D01*
Y498743D01*
X1742022Y492526D01*
X1724441Y474944D01*
X1719338Y462624D01*
X1708514D01*
X1703411Y474944D01*
X1685829Y492526D01*
X1662858Y502041D01*
X1637994D01*
X1615022Y492526D01*
X1597441Y474944D01*
X1592338Y462624D01*
X1581514D01*
X1576411Y474944D01*
X1558830Y492526D01*
X1535858Y502041D01*
X1510994D01*
X1488023Y492526D01*
X1470441Y474944D01*
X1468926Y471286D01*
X1458926Y473275D01*
Y502041D01*
X1333926D01*
Y377041D01*
X1458926D01*
Y405806D01*
X1468926Y407795D01*
X1470441Y404137D01*
X1488023Y386556D01*
X1510994Y377041D01*
X1535858D01*
X1558830Y386556D01*
X1576411Y404137D01*
X1581514Y416457D01*
X1592338D01*
X1597441Y404137D01*
X1615022Y386556D01*
X1637994Y377041D01*
X1662858D01*
X1685829Y386556D01*
X1703411Y404137D01*
X1708514Y416457D01*
X1719338D01*
X1724441Y404137D01*
X1742022Y386556D01*
X1764994Y377041D01*
X1789858D01*
X1812829Y386556D01*
X1825946Y399672D01*
X1838115Y398595D01*
X1842091Y391709D01*
X1856594Y377205D01*
X1874358Y366949D01*
X1891726Y362296D01*
Y439541D01*
Y516786D01*
X1874358Y512132D01*
X1856594Y501876D01*
X1842091Y487372D01*
X1838115Y480486D01*
X1825946Y479409D01*
X1812829Y492526D01*
X1797818Y498743D01*
Y533211D01*
X1797818Y533212D01*
X1796265Y541015D01*
X1791845Y547631D01*
X1791844Y547632D01*
X1747668Y591808D01*
X1741052Y596229D01*
X1733249Y597781D01*
X1455828D01*
X1360368Y693241D01*
Y718869D01*
X1360505Y719074D01*
X1362057Y726877D01*
X1362057Y726879D01*
Y749315D01*
X1367231Y751458D01*
X1377077Y761304D01*
X1382405Y774168D01*
Y788092D01*
X1377077Y800956D01*
X1367231Y810801D01*
X1362774Y812648D01*
X1364763Y822648D01*
X1430866D01*
X1435630Y812648D01*
X1431503Y802683D01*
Y788759D01*
X1436831Y775895D01*
X1446111Y766615D01*
Y739300D01*
X1435848D01*
Y655300D01*
X1508448D01*
Y639900D01*
X1551148D01*
Y697300D01*
Y754700D01*
X1508448D01*
Y739300D01*
X1486895D01*
Y766615D01*
X1496174Y775895D01*
X1501503Y788759D01*
Y802683D01*
X1497375Y812648D01*
X1502139Y822648D01*
X1881655D01*
X1889540Y814762D01*
X1902404Y809434D01*
X1916328D01*
X1929192Y814762D01*
X1932732Y818302D01*
X1950067D01*
X1961630Y806738D01*
X1946531Y791639D01*
X1997867Y740303D01*
X1986978Y729414D01*
X2017171Y699221D01*
X2057759Y739809D01*
X2075719Y721848D01*
X2035132Y681260D01*
X2065325Y651067D01*
X2098199Y683941D01*
X2103399Y680466D01*
X2113154Y678526D01*
X2121494D01*
X2122761Y675466D01*
X2136939Y661289D01*
X2152788Y654724D01*
Y704016D01*
X2165488D01*
Y716716D01*
X2214780D01*
X2208215Y732565D01*
X2194038Y746742D01*
X2178762Y753070D01*
X2175204Y763655D01*
X2185291Y773741D01*
X2146117Y812915D01*
X2164077Y830875D01*
X2203251Y791701D01*
X2231960Y820411D01*
X2311931Y740440D01*
X2311932Y740439D01*
X2318547Y736019D01*
X2326351Y734467D01*
X2487952D01*
Y671088D01*
X2567952D01*
Y685036D01*
X2608021D01*
X2611569Y676470D01*
X2621289Y666750D01*
X2621276Y666030D01*
X2619123Y656750D01*
X2451640D01*
X2451639Y656750D01*
X2443835Y655198D01*
X2437220Y650777D01*
X2368099Y581657D01*
X2271858D01*
Y593245D01*
X2187858D01*
Y580986D01*
X2133975D01*
Y595594D01*
X2053976D01*
Y525595D01*
X2133975D01*
Y540203D01*
X2187858D01*
Y515246D01*
X2187857Y513246D01*
Y505245D01*
X2187858Y503245D01*
Y488410D01*
X2133975D01*
Y495595D01*
X2053976D01*
Y425595D01*
X2133975D01*
Y437430D01*
X2186945D01*
Y362740D01*
X2164935D01*
Y282740D01*
X2259935D01*
Y362740D01*
X2237925D01*
Y425246D01*
X2271858D01*
Y503245D01*
X2271858Y505245D01*
Y513246D01*
X2271858Y515246D01*
Y540873D01*
X2376546D01*
X2384350Y542425D01*
X2390965Y546845D01*
X2460086Y615966D01*
X2497456D01*
X2499214Y606694D01*
X2499214Y605966D01*
Y522695D01*
X2510306D01*
Y479616D01*
X2480978D01*
Y384616D01*
X2560882D01*
Y364616D01*
X2480978D01*
Y269616D01*
X2495488D01*
Y234616D01*
X2497428Y224861D01*
X2502954Y216592D01*
X2507146Y212400D01*
X2503970Y209224D01*
X2492621Y189568D01*
X2486747Y167644D01*
Y144947D01*
X2492621Y123024D01*
X2503970Y103368D01*
X2520019Y87319D01*
X2539675Y75970D01*
X2561598Y70096D01*
X2584295D01*
X2606219Y75970D01*
X2625875Y87319D01*
X2641924Y103368D01*
X2653272Y123024D01*
X2659147Y144947D01*
Y167644D01*
X2658004Y171909D01*
X2666970Y177085D01*
X2678048Y166007D01*
X2693898Y159442D01*
Y208734D01*
Y258026D01*
X2678048Y251461D01*
X2663871Y237283D01*
X2656198Y218759D01*
Y204501D01*
X2646198Y201821D01*
X2641924Y209224D01*
X2625875Y225273D01*
X2606219Y236621D01*
X2584295Y242496D01*
X2561598D01*
X2554579Y240615D01*
X2546467Y247435D01*
Y269616D01*
X2560977D01*
Y330258D01*
X2570977Y334401D01*
X2583012Y322366D01*
X2583013Y322365D01*
X2589628Y317945D01*
X2597432Y316393D01*
X2597433Y316393D01*
X2610064D01*
Y301785D01*
X2690064D01*
Y371785D01*
X2610064D01*
X2601666Y375652D01*
Y395705D01*
X2601666Y397784D01*
X2601668Y397788D01*
X2601670Y397791D01*
X2601879Y398141D01*
X2611066Y401784D01*
X2617976Y401785D01*
X2690064D01*
Y471784D01*
X2670456D01*
Y490553D01*
X2670456Y490554D01*
X2668903Y498358D01*
X2664483Y504974D01*
X2656762Y512695D01*
X2660904Y522695D01*
X2667214D01*
Y546303D01*
X2713145D01*
X2720948Y547855D01*
X2727564Y552276D01*
X2801907Y626618D01*
X2806327Y633234D01*
X2807879Y641037D01*
X2807879Y641039D01*
Y685210D01*
X2809797Y686327D01*
X2822023Y682943D01*
X2831868Y673098D01*
X2844732Y667770D01*
X2858656D01*
X2871520Y673098D01*
X2881366Y682944D01*
X2881559Y683410D01*
X2952011D01*
X2960258Y675163D01*
X2973122Y669834D01*
X2987046D01*
X2999910Y675163D01*
X3009755Y685008D01*
X3015084Y697872D01*
Y711796D01*
X3009755Y724660D01*
X2999910Y734506D01*
X2987046Y739834D01*
X2973122D01*
X2960258Y734506D01*
X2950412Y724660D01*
X2950219Y724194D01*
X2879767D01*
X2871520Y732441D01*
X2863722Y735671D01*
X2860918Y747008D01*
X2975636Y861727D01*
X2975637Y861728D01*
X2980058Y868343D01*
X2981610Y876147D01*
Y1178001D01*
X2980058Y1185805D01*
X2975637Y1192421D01*
X2930944Y1237114D01*
X2924328Y1241534D01*
X2916525Y1243087D01*
X2913937D01*
X2904618Y1244730D01*
Y1262312D01*
X2914617Y1263499D01*
X2922583Y1255533D01*
X2935447Y1250205D01*
X2949371D01*
X2962235Y1255533D01*
X2972081Y1265378D01*
X2977409Y1278243D01*
Y1292166D01*
X2972081Y1305030D01*
X2962235Y1314876D01*
X2949371Y1320204D01*
X2935447D01*
X2930018Y1317955D01*
X2921276Y1323796D01*
Y1332512D01*
X2929528Y1338026D01*
X2932229Y1336907D01*
Y1386199D01*
Y1435491D01*
X2916380Y1428926D01*
X2915583Y1428130D01*
X2875318D01*
Y1372730D01*
X2849918D01*
Y1428130D01*
X2819479D01*
X2814134Y1438130D01*
X2814406Y1438538D01*
X2815959Y1446341D01*
X2815959Y1446343D01*
Y1461890D01*
X2835567D01*
Y1530907D01*
X2844806Y1534734D01*
X2870771Y1508768D01*
Y1496930D01*
X2875339Y1485904D01*
X2883778Y1477465D01*
X2894804Y1472898D01*
X2906739D01*
X2917765Y1477465D01*
X2926204Y1485904D01*
X2930771Y1496930D01*
Y1508865D01*
X2926204Y1519892D01*
X2917765Y1528331D01*
X2906739Y1532898D01*
X2897109D01*
X2838973Y1591033D01*
X2833185Y1594901D01*
X2826357Y1596259D01*
X2780611D01*
X2576034Y1800837D01*
X2580176Y1810837D01*
X2679333D01*
X2880084Y1610086D01*
Y1599352D01*
X2884651Y1588326D01*
X2893090Y1579887D01*
X2904116Y1575320D01*
X2916051D01*
X2919057Y1576565D01*
X2926710Y1568911D01*
X2924823Y1564355D01*
Y1552420D01*
X2929390Y1541394D01*
X2937830Y1532955D01*
X2948856Y1528388D01*
X2960791D01*
X2971817Y1532955D01*
X2980256Y1541394D01*
X2984823Y1552420D01*
Y1564355D01*
X2980256Y1575381D01*
X2972666Y1582971D01*
Y1652043D01*
X2971308Y1658871D01*
X2967440Y1664660D01*
X2869584Y1762516D01*
X2869584Y1762516D01*
X2734166Y1897934D01*
X2728378Y1901802D01*
X2721550Y1903160D01*
X2021102D01*
X2000176Y1924086D01*
X2002938Y1935466D01*
X2010634Y1938653D01*
X2020479Y1948499D01*
X2025808Y1961363D01*
Y1975286D01*
X2020479Y1988150D01*
X2011200Y1997430D01*
Y2044163D01*
X2023486D01*
Y2139163D01*
X1943486D01*
Y2044163D01*
X1970416D01*
Y1997430D01*
X1961136Y1988150D01*
X1957949Y1980455D01*
X1946569Y1977693D01*
X1844145Y2080117D01*
X1838356Y2083985D01*
X1831528Y2085343D01*
X1637500D01*
Y2101626D01*
X1637500Y2102389D01*
X1637577Y2102912D01*
X1639236Y2111781D01*
X1651726Y2116955D01*
X1661572Y2126800D01*
X1666900Y2139664D01*
Y2153588D01*
X1661572Y2166452D01*
X1651726Y2176298D01*
X1638862Y2181626D01*
X1624938D01*
X1612074Y2176298D01*
X1604866Y2169089D01*
X1601027Y2169650D01*
X1599192Y2175788D01*
X1598929Y2180063D01*
X1607993Y2189127D01*
X1613321Y2201991D01*
Y2215915D01*
X1607993Y2228779D01*
X1598147Y2238624D01*
X1585283Y2243953D01*
X1572391D01*
X1493351Y2322992D01*
X1486682Y2327448D01*
X1478816Y2329013D01*
X1478815Y2329013D01*
X1018458D01*
X1018457Y2329013D01*
X1010591Y2327448D01*
X1003923Y2322992D01*
X1003922Y2322992D01*
X819518Y2138587D01*
X815062Y2131919D01*
X813497Y2124053D01*
X813497Y2124051D01*
Y2039454D01*
X804381Y2030338D01*
X799052Y2017473D01*
Y2003550D01*
X804381Y1990686D01*
X814226Y1980840D01*
X827090Y1975512D01*
X841014D01*
X853878Y1980840D01*
X863724Y1990686D01*
X869052Y2003550D01*
Y2017473D01*
X863724Y2030338D01*
X854607Y2039454D01*
Y2115538D01*
X933176Y2194107D01*
X943176Y2189965D01*
Y2042849D01*
X934059Y2033732D01*
X928731Y2020868D01*
Y2006944D01*
X934059Y1994080D01*
X943905Y1984235D01*
X956769Y1978906D01*
X970692D01*
X983557Y1984235D01*
X993402Y1994080D01*
X998731Y2006944D01*
Y2020868D01*
X993402Y2033732D01*
X984286Y2042849D01*
Y2189431D01*
X1028085Y2233230D01*
X1195448D01*
X1197438Y2223230D01*
X1192214Y2221066D01*
X1178036Y2206889D01*
X1171471Y2191040D01*
X1270055D01*
X1263490Y2206889D01*
X1249312Y2221066D01*
X1244089Y2223230D01*
X1246078Y2233230D01*
X1430939D01*
X1532078Y2132091D01*
X1538747Y2127636D01*
X1546613Y2126071D01*
X1546614Y2126071D01*
X1602958D01*
X1612074Y2116955D01*
X1622829Y2112500D01*
X1620840Y2102500D01*
X1362500D01*
Y2032500D01*
X1354088Y2028667D01*
X1225775D01*
X1218947Y2027309D01*
X1213158Y2023441D01*
X976879Y1787162D01*
X973011Y1781373D01*
X971653Y1774545D01*
Y1708067D01*
X954496D01*
X950454Y1716393D01*
Y1782346D01*
X948513Y1792101D01*
X942988Y1800371D01*
X783178Y1960180D01*
X774908Y1965706D01*
X765154Y1967646D01*
X429384D01*
X425203Y1971828D01*
X412339Y1977157D01*
X398415D01*
X385551Y1971828D01*
X375705Y1961983D01*
X370377Y1949119D01*
Y1935195D01*
X375705Y1922331D01*
X379887Y1918149D01*
Y1900226D01*
X333908D01*
Y1797902D01*
X290307D01*
X282503Y1796349D01*
X275888Y1791929D01*
X261594Y1777635D01*
X143122D01*
X133843Y1786915D01*
X120978Y1792243D01*
X107055D01*
X94191Y1786915D01*
X90021Y1782745D01*
X80021Y1786887D01*
Y2180374D01*
X338199Y2438553D01*
X347408Y2437879D01*
X352946Y2429175D01*
X350412Y2423056D01*
X448996D01*
X445629Y2431183D01*
X452311Y2441183D01*
X474652D01*
X485541Y2436673D01*
X497476D01*
X508502Y2441240D01*
X516941Y2449679D01*
X521508Y2460705D01*
Y2472640D01*
X516941Y2483666D01*
X508502Y2492106D01*
X497476Y2496673D01*
D02*
G37*
G36*
X448996Y2397656D02*
X412404D01*
Y2361064D01*
X428253Y2367629D01*
X442430Y2381807D01*
X448996Y2397656D01*
D02*
G37*
G36*
X387004D02*
X350412D01*
X356977Y2381807D01*
X371154Y2367629D01*
X387004Y2361064D01*
Y2397656D01*
D02*
G37*
G36*
X1776772Y2422301D02*
X1713421D01*
Y2320621D01*
X1720405Y2321541D01*
X1738747Y2329139D01*
X1754497Y2341224D01*
X1766583Y2356975D01*
X1774181Y2375317D01*
X1776772Y2395000D01*
Y2422301D01*
D02*
G37*
G36*
X912772D02*
X849421D01*
Y2320621D01*
X856405Y2321541D01*
X874747Y2329139D01*
X890497Y2341224D01*
X902583Y2356975D01*
X910181Y2375317D01*
X912772Y2395000D01*
Y2422301D01*
D02*
G37*
G36*
X1688021D02*
X1624671D01*
Y2395000D01*
X1627262Y2375317D01*
X1634860Y2356975D01*
X1646945Y2341224D01*
X1662696Y2329139D01*
X1681038Y2321541D01*
X1688021Y2320621D01*
Y2422301D01*
D02*
G37*
G36*
X824021D02*
X760671D01*
Y2395000D01*
X763262Y2375317D01*
X770860Y2356975D01*
X782946Y2341224D01*
X798696Y2329139D01*
X817038Y2321541D01*
X824021Y2320621D01*
Y2422301D01*
D02*
G37*
G36*
X729605Y2258024D02*
Y2221432D01*
X766197D01*
X759632Y2237281D01*
X745455Y2251459D01*
X729605Y2258024D01*
D02*
G37*
G36*
X704205D02*
X688356Y2251459D01*
X674178Y2237281D01*
X667613Y2221432D01*
X704205D01*
Y2258024D01*
D02*
G37*
G36*
X841931Y2283766D02*
X828007D01*
X815143Y2278437D01*
X805298Y2268592D01*
X799969Y2255728D01*
Y2241804D01*
X805298Y2228940D01*
X815143Y2219094D01*
X828007Y2213766D01*
X841931D01*
X854795Y2219094D01*
X864641Y2228940D01*
X869969Y2241804D01*
Y2255728D01*
X864641Y2268592D01*
X854795Y2278437D01*
X841931Y2283766D01*
D02*
G37*
G36*
X2916470Y2458514D02*
X2836470D01*
Y2403906D01*
X2807881D01*
X2800077Y2402354D01*
X2793462Y2397933D01*
X2793461Y2397933D01*
X2764316Y2368788D01*
X2751193D01*
X2738329Y2363460D01*
X2728483Y2353614D01*
X2723155Y2340750D01*
Y2326826D01*
X2728483Y2313962D01*
X2737763Y2304682D01*
Y2233352D01*
X2713930D01*
Y2138352D01*
X2793929D01*
Y2233352D01*
X2778547D01*
Y2304682D01*
X2787827Y2313962D01*
X2793155Y2326826D01*
Y2339949D01*
X2816328Y2363122D01*
X2856470D01*
X2858441Y2363514D01*
X2916470D01*
Y2458514D01*
D02*
G37*
G36*
X1270055Y2165640D02*
X1233463D01*
Y2129048D01*
X1249312Y2135613D01*
X1263490Y2149790D01*
X1270055Y2165640D01*
D02*
G37*
G36*
X1208063D02*
X1171471D01*
X1178036Y2149790D01*
X1192214Y2135613D01*
X1208063Y2129048D01*
Y2165640D01*
D02*
G37*
G36*
X2235962Y2093997D02*
Y2049297D01*
X2278662D01*
Y2093997D01*
X2235962D01*
D02*
G37*
G36*
X783555Y2068655D02*
X725856D01*
Y2005955D01*
X783555D01*
Y2068655D01*
D02*
G37*
G36*
X766197Y2196032D02*
X667613D01*
X674178Y2180182D01*
X687606Y2166755D01*
X687237Y2163282D01*
X684555Y2156755D01*
X642756D01*
Y2142321D01*
X633155Y2141355D01*
X632755Y2141355D01*
X523156D01*
Y2118342D01*
X472657D01*
X459001Y2115626D01*
X447423Y2107890D01*
X444766Y2105234D01*
X442814Y2102311D01*
X440329Y2099826D01*
X438984Y2096578D01*
X437031Y2093656D01*
X436345Y2090209D01*
X435000Y2086962D01*
Y2083447D01*
X434314Y2080000D01*
X435000Y2076552D01*
Y2073038D01*
X436345Y2069791D01*
X437031Y2066344D01*
X438984Y2063421D01*
X440329Y2060174D01*
X442814Y2057689D01*
X444766Y2054766D01*
X447689Y2052814D01*
X450174Y2050328D01*
X453421Y2048983D01*
X456344Y2047031D01*
X459791Y2046345D01*
X463038Y2045000D01*
X466553D01*
X470000Y2044314D01*
X473448Y2045000D01*
X476962D01*
X480209Y2046345D01*
X483356Y2046971D01*
X523156D01*
Y2021355D01*
X632755D01*
X633155Y2021355D01*
X642756Y2020390D01*
Y2005955D01*
X700456D01*
Y2081355D01*
X713156D01*
Y2094055D01*
X783555D01*
Y2156755D01*
X749255D01*
X746574Y2163282D01*
X746205Y2166755D01*
X759632Y2180182D01*
X766197Y2196032D01*
D02*
G37*
G36*
X2278662Y2023897D02*
X2235962D01*
Y1979197D01*
X2278662D01*
Y2023897D01*
D02*
G37*
G36*
X2023486Y2254163D02*
X1943486D01*
Y2159163D01*
X2023486D01*
Y2186271D01*
X2069459D01*
X2110932Y2144798D01*
X2109559Y2141481D01*
Y2127558D01*
X2114887Y2114694D01*
X2124167Y2105414D01*
Y2078597D01*
X2095262D01*
Y1994597D01*
X2167862D01*
Y1979197D01*
X2210562D01*
Y2036597D01*
Y2093997D01*
X2167862D01*
X2164950Y2102791D01*
Y2105414D01*
X2174230Y2114694D01*
X2179559Y2127558D01*
Y2141481D01*
X2174230Y2154345D01*
X2164385Y2164191D01*
X2151520Y2169519D01*
X2143888D01*
X2092325Y2221082D01*
X2085710Y2225502D01*
X2077906Y2227054D01*
X2023486D01*
Y2254163D01*
D02*
G37*
G36*
X2793929Y2118352D02*
X2713930D01*
Y2023352D01*
X2732393D01*
Y2006520D01*
X2723113Y1997240D01*
X2717785Y1984376D01*
Y1970452D01*
X2723113Y1957588D01*
X2732959Y1947743D01*
X2745823Y1942414D01*
X2759747D01*
X2772611Y1947743D01*
X2782456Y1957588D01*
X2787785Y1970452D01*
Y1984376D01*
X2782456Y1997240D01*
X2773177Y2006520D01*
Y2023352D01*
X2793929D01*
Y2118352D01*
D02*
G37*
G36*
X2957629Y1435491D02*
Y1398899D01*
X2994221D01*
X2987656Y1414749D01*
X2973479Y1428926D01*
X2957629Y1435491D01*
D02*
G37*
G36*
X2994221Y1373499D02*
X2957629D01*
Y1336907D01*
X2973479Y1343473D01*
X2987656Y1357650D01*
X2994221Y1373499D01*
D02*
G37*
G36*
X338406Y785270D02*
X324482D01*
X311618Y779942D01*
X301773Y770097D01*
X296444Y757232D01*
Y743309D01*
X301773Y730445D01*
X311618Y720599D01*
X324482Y715271D01*
X338406D01*
X351270Y720599D01*
X355242Y724571D01*
X697141D01*
X701533Y720179D01*
X714397Y714850D01*
X728321D01*
X741185Y720179D01*
X751031Y730024D01*
X756359Y742889D01*
Y756812D01*
X751031Y769676D01*
X741185Y779522D01*
X728321Y784850D01*
X714397D01*
X701533Y779522D01*
X697561Y775550D01*
X355662D01*
X351270Y779942D01*
X338406Y785270D01*
D02*
G37*
G36*
X1756162Y727521D02*
Y690929D01*
X1792754D01*
X1786188Y706778D01*
X1772011Y720956D01*
X1756162Y727521D01*
D02*
G37*
G36*
X1635234Y763935D02*
X1619385Y757370D01*
X1616716Y754700D01*
X1576548D01*
Y697300D01*
Y639900D01*
X1619248D01*
Y661149D01*
X1629248Y667830D01*
X1635234Y665351D01*
Y714643D01*
Y763935D01*
D02*
G37*
G36*
X2214780Y691316D02*
X2178188D01*
Y654724D01*
X2194038Y661289D01*
X2208215Y675466D01*
X2214780Y691316D01*
D02*
G37*
G36*
X585599Y666170D02*
Y629578D01*
X622191D01*
X615626Y645428D01*
X601449Y659605D01*
X585599Y666170D01*
D02*
G37*
G36*
X560199D02*
X544350Y659605D01*
X530172Y645428D01*
X523607Y629578D01*
X560199D01*
Y666170D01*
D02*
G37*
G36*
X1792754Y665529D02*
X1756162D01*
Y628937D01*
X1772011Y635502D01*
X1786188Y649679D01*
X1792754Y665529D01*
D02*
G37*
G36*
X1660634Y763935D02*
Y714643D01*
Y665351D01*
X1676484Y671916D01*
X1683062Y678494D01*
X1693062Y674352D01*
Y668204D01*
X1700735Y649679D01*
X1714912Y635502D01*
X1730762Y628937D01*
Y678229D01*
Y727521D01*
X1714912Y720956D01*
X1708334Y714378D01*
X1698334Y718520D01*
Y724668D01*
X1690661Y743192D01*
X1676484Y757370D01*
X1660634Y763935D01*
D02*
G37*
G36*
X622191Y604178D02*
X585599D01*
Y567586D01*
X601449Y574152D01*
X615626Y588329D01*
X622191Y604178D01*
D02*
G37*
G36*
X560199D02*
X523607D01*
X530172Y588329D01*
X544350Y574152D01*
X560199Y567586D01*
Y604178D01*
D02*
G37*
G36*
X871541Y628655D02*
X857617D01*
X844753Y623326D01*
X834908Y613481D01*
X829579Y600617D01*
Y586693D01*
X834908Y573829D01*
X844753Y563983D01*
X857617Y558655D01*
X871541D01*
X884405Y563983D01*
X894251Y573829D01*
X899579Y586693D01*
Y600617D01*
X894251Y613481D01*
X884405Y623326D01*
X871541Y628655D01*
D02*
G37*
G36*
X233196Y557457D02*
X217346Y550891D01*
X212317Y545863D01*
X202963Y544303D01*
X202963Y544303D01*
X202963Y544302D01*
X12964D01*
Y424303D01*
X202963D01*
Y465679D01*
X212963Y469821D01*
X217346Y465438D01*
X233196Y458873D01*
Y508165D01*
Y557457D01*
D02*
G37*
G36*
X258596D02*
Y520865D01*
X295188D01*
X288622Y536714D01*
X274445Y550891D01*
X258596Y557457D01*
D02*
G37*
G36*
X1074080Y627877D02*
X979080D01*
Y547877D01*
X1004951D01*
X1005676Y537878D01*
X972493Y504694D01*
X832963D01*
Y544302D01*
X642963D01*
Y424303D01*
X832963D01*
Y463911D01*
X980939D01*
X988743Y465463D01*
X995359Y469883D01*
X1040999Y515524D01*
X1045420Y522139D01*
X1046972Y529943D01*
X1046972Y529944D01*
Y547877D01*
X1074080D01*
Y627877D01*
D02*
G37*
G36*
X295188Y495465D02*
X258596D01*
Y458873D01*
X274445Y465438D01*
X288622Y479615D01*
X295188Y495465D01*
D02*
G37*
G36*
X1917126Y516786D02*
Y452241D01*
X1981671D01*
X1977017Y469609D01*
X1966761Y487372D01*
X1952258Y501876D01*
X1934494Y512132D01*
X1917126Y516786D01*
D02*
G37*
G36*
X2870392Y455571D02*
X2829752D01*
Y413661D01*
X2870392D01*
Y455571D01*
D02*
G37*
G36*
X2428358Y437397D02*
X2387718D01*
Y395488D01*
X2428358D01*
Y437397D01*
D02*
G37*
G36*
X2362318D02*
X2321678D01*
Y395488D01*
X2362318D01*
Y437397D01*
D02*
G37*
G36*
X1981671Y426841D02*
X1917126D01*
Y362296D01*
X1934494Y366949D01*
X1952258Y377205D01*
X1966761Y391709D01*
X1977017Y409472D01*
X1981671Y426841D01*
D02*
G37*
G36*
X1185108Y345142D02*
X1171184D01*
X1158320Y339813D01*
X1148474Y329968D01*
X1143146Y317104D01*
Y303180D01*
X1148474Y290316D01*
X1158320Y280470D01*
X1171184Y275142D01*
X1185108D01*
X1197972Y280470D01*
X1207817Y290316D01*
X1213146Y303180D01*
Y317104D01*
X1207817Y329968D01*
X1197972Y339813D01*
X1185108Y345142D01*
D02*
G37*
G36*
X156136Y292949D02*
X142212D01*
X129348Y287621D01*
X119502Y277775D01*
X114174Y264911D01*
Y258002D01*
X104174Y253860D01*
X103445Y254589D01*
X87595Y261154D01*
Y224562D01*
X131078D01*
X131298Y224764D01*
X134327Y226215D01*
X142212Y222949D01*
X156136D01*
X169000Y228278D01*
X178845Y238123D01*
X184174Y250987D01*
Y264911D01*
X178845Y277775D01*
X169000Y287621D01*
X156136Y292949D01*
D02*
G37*
G36*
X62195Y261154D02*
X46346Y254589D01*
X32169Y240412D01*
X25603Y224562D01*
X62195D01*
Y261154D01*
D02*
G37*
G36*
X712773Y260746D02*
Y224154D01*
X749365D01*
X742800Y240003D01*
X728622Y254181D01*
X712773Y260746D01*
D02*
G37*
G36*
X687373D02*
X671523Y254181D01*
X657346Y240003D01*
X650781Y224154D01*
X687373D01*
Y260746D01*
D02*
G37*
G36*
X2719298Y258026D02*
Y221434D01*
X2755890D01*
X2749324Y237283D01*
X2735147Y251461D01*
X2719298Y258026D01*
D02*
G37*
G36*
X2144935Y362740D02*
X2049935D01*
Y282740D01*
X2072218D01*
Y220088D01*
X2035936Y183806D01*
X2005044D01*
X1994272Y202464D01*
X1978223Y218513D01*
X1958567Y229862D01*
X1936643Y235736D01*
X1913946D01*
X1892023Y229862D01*
X1872367Y218513D01*
X1856318Y202464D01*
X1844969Y182808D01*
X1842755Y174545D01*
X1766003D01*
Y186514D01*
X1687584Y186515D01*
X1684883Y195396D01*
Y201915D01*
X1642973D01*
Y148575D01*
Y95235D01*
X1684883D01*
Y101753D01*
X1687584Y110634D01*
X1694884Y110635D01*
X1766003D01*
Y123566D01*
X1843013D01*
X1844969Y116264D01*
X1856318Y96608D01*
X1872367Y80559D01*
X1892023Y69211D01*
X1913946Y63336D01*
X1936643D01*
X1958567Y69211D01*
X1978223Y80559D01*
X1994272Y96608D01*
X2005620Y116264D01*
X2010058Y132827D01*
X2046495D01*
X2056249Y134767D01*
X2064518Y140293D01*
X2115732Y191506D01*
X2121257Y199776D01*
X2123197Y209530D01*
Y282740D01*
X2144935D01*
Y362740D01*
D02*
G37*
G36*
X1617573Y201915D02*
X1575663D01*
Y161275D01*
X1617573D01*
Y201915D01*
D02*
G37*
G36*
X2755890Y196034D02*
X2719298D01*
Y159442D01*
X2735147Y166007D01*
X2749324Y180184D01*
X2755890Y196034D01*
D02*
G37*
G36*
X2428358Y370088D02*
X2375018D01*
X2321678D01*
Y328177D01*
X2328196D01*
X2337078Y325477D01*
Y275789D01*
X2336588Y273327D01*
Y260521D01*
X2302905Y226838D01*
X2295928Y230866D01*
X2274004Y236741D01*
X2251307D01*
X2229384Y230866D01*
X2209728Y219518D01*
X2193679Y203469D01*
X2182330Y183813D01*
X2176456Y161889D01*
Y139193D01*
X2182330Y117269D01*
X2193679Y97613D01*
X2209728Y81564D01*
X2229384Y70216D01*
X2251307Y64341D01*
X2274004D01*
X2295928Y70216D01*
X2315584Y81564D01*
X2331633Y97613D01*
X2342981Y117269D01*
X2348856Y139193D01*
Y161889D01*
X2342981Y183813D01*
X2338953Y190790D01*
X2380101Y231939D01*
X2385627Y240208D01*
X2386989Y247057D01*
X2401468D01*
Y195772D01*
X2400441D01*
X2381917Y188099D01*
X2367739Y173921D01*
X2361174Y158072D01*
X2459758D01*
X2453193Y173921D01*
X2452447Y174667D01*
Y329577D01*
X2450507Y339332D01*
X2444981Y347601D01*
X2428358Y364225D01*
Y370088D01*
D02*
G37*
G36*
X1315534Y179528D02*
Y142936D01*
X1352126D01*
X1345561Y158785D01*
X1331383Y172963D01*
X1315534Y179528D01*
D02*
G37*
G36*
X1290134D02*
X1274284Y172963D01*
X1260107Y158785D01*
X1253542Y142936D01*
X1290134D01*
Y179528D01*
D02*
G37*
G36*
X2459758Y132672D02*
X2423166D01*
Y96080D01*
X2439015Y102645D01*
X2453193Y116823D01*
X2459758Y132672D01*
D02*
G37*
G36*
X2397766D02*
X2361174D01*
X2367739Y116823D01*
X2381917Y102645D01*
X2397766Y96080D01*
Y132672D01*
D02*
G37*
G36*
X1617573Y135875D02*
X1575663D01*
Y95235D01*
X1617573D01*
Y135875D01*
D02*
G37*
G36*
X1182785Y131190D02*
Y94598D01*
X1219377D01*
X1212812Y110447D01*
X1198635Y124625D01*
X1182785Y131190D01*
D02*
G37*
G36*
X1157385D02*
X1141536Y124625D01*
X1127358Y110447D01*
X1120793Y94598D01*
X1157385D01*
Y131190D01*
D02*
G37*
G36*
X579923Y159367D02*
X565999D01*
X553135Y154039D01*
X543290Y144194D01*
X537961Y131329D01*
Y117406D01*
X543290Y104542D01*
X553135Y94696D01*
X565999Y89368D01*
X579923D01*
X592787Y94696D01*
X602633Y104542D01*
X607961Y117406D01*
Y131329D01*
X602633Y144194D01*
X592787Y154039D01*
X579923Y159367D01*
D02*
G37*
G36*
X1352126Y117536D02*
X1315534D01*
Y80944D01*
X1331383Y87509D01*
X1345561Y101687D01*
X1352126Y117536D01*
D02*
G37*
G36*
X1290134D02*
X1253542D01*
X1260107Y101687D01*
X1274284Y87509D01*
X1290134Y80944D01*
Y117536D01*
D02*
G37*
G36*
X438526Y114175D02*
X424602D01*
X411738Y108846D01*
X401893Y99001D01*
X396564Y86136D01*
Y72213D01*
X401893Y59349D01*
X411738Y49503D01*
X424602Y44175D01*
X438526D01*
X451390Y49503D01*
X461236Y59349D01*
X466564Y72213D01*
Y86136D01*
X461236Y99001D01*
X451390Y108846D01*
X438526Y114175D01*
D02*
G37*
G36*
X1219377Y69198D02*
X1182785D01*
Y32606D01*
X1198635Y39171D01*
X1212812Y53348D01*
X1219377Y69198D01*
D02*
G37*
G36*
X1157385D02*
X1120793D01*
X1127358Y53348D01*
X1141536Y39171D01*
X1157385Y32606D01*
Y69198D01*
D02*
G37*
G36*
X725263Y91603D02*
X627563D01*
Y28903D01*
X725263D01*
Y91603D01*
D02*
G37*
G36*
X218363D02*
X120663D01*
Y28903D01*
X218363D01*
Y91603D01*
D02*
G37*
%LPD*%
G36*
X1678651Y1982982D02*
X1678338Y1982513D01*
X1310212D01*
X1310210Y1982513D01*
X1302407Y1980961D01*
X1295791Y1976540D01*
X1032289Y1713038D01*
X1024495Y1708067D01*
Y1708067D01*
X1024495Y1708067D01*
X1007338D01*
Y1767154D01*
X1233166Y1992982D01*
X1673306D01*
X1678651Y1982982D01*
D02*
G37*
G36*
X899474Y1771788D02*
Y1720454D01*
X821124D01*
Y1669405D01*
X820457Y1668406D01*
X818905Y1660602D01*
X820457Y1652799D01*
X821124Y1651800D01*
Y1625454D01*
X813030Y1620854D01*
X805724D01*
Y1570654D01*
X861124D01*
Y1545254D01*
X805724D01*
Y1495054D01*
X812506D01*
X816648Y1485054D01*
X815763Y1484168D01*
X810434Y1471304D01*
Y1457380D01*
X815763Y1444516D01*
X825043Y1435237D01*
Y1396524D01*
X809946D01*
Y1323924D01*
X794546D01*
Y1281224D01*
X851946D01*
Y1255824D01*
X794546D01*
Y1213124D01*
X843511D01*
X847338Y1203885D01*
X797143Y1153690D01*
X792723Y1147074D01*
X791171Y1139271D01*
Y1113619D01*
X781649Y1104097D01*
X776320Y1091233D01*
Y1077309D01*
X781649Y1064445D01*
X791494Y1054599D01*
X804358Y1049271D01*
X818282D01*
X829364Y1053861D01*
X839364Y1049751D01*
Y923725D01*
X782039D01*
X624540Y1081224D01*
X612963Y1088959D01*
X599306Y1091676D01*
X572304D01*
X568477Y1100915D01*
X568504Y1100942D01*
X573833Y1113807D01*
Y1127730D01*
X575685Y1130502D01*
X582521D01*
Y1164692D01*
X654286D01*
Y1136584D01*
X754286D01*
Y1226584D01*
X654286D01*
Y1215672D01*
X582521D01*
Y1220502D01*
X482521D01*
Y1215008D01*
X412361D01*
Y1234557D01*
X312361D01*
Y1215047D01*
X218312D01*
X139506Y1293852D01*
Y1733235D01*
X143122Y1736851D01*
X270040D01*
X277844Y1738403D01*
X284460Y1742824D01*
X298754Y1757118D01*
X318508D01*
Y1722926D01*
X469308D01*
Y1757118D01*
X485021D01*
X492825Y1758670D01*
X499441Y1763090D01*
X511156Y1774806D01*
X511156Y1774806D01*
X515577Y1781422D01*
X517129Y1789226D01*
X517129Y1789227D01*
Y1811109D01*
X537111Y1831091D01*
X548161D01*
X561025Y1836420D01*
X570871Y1846265D01*
X576199Y1859129D01*
Y1873053D01*
X570871Y1885917D01*
X561025Y1895763D01*
X548161Y1901091D01*
X534237D01*
X521373Y1895763D01*
X511528Y1885917D01*
X506199Y1873053D01*
Y1859129D01*
X506572Y1858229D01*
X482318Y1833975D01*
X477897Y1827360D01*
X476345Y1819556D01*
Y1797902D01*
X453908D01*
Y1900226D01*
X430866D01*
Y1916667D01*
X754596D01*
X899474Y1771788D01*
D02*
G37*
G36*
X1362500Y1857500D02*
X1575684D01*
X1579826Y1847500D01*
X1574270Y1841945D01*
X1567705Y1826095D01*
X1616997D01*
Y1813395D01*
X1629697D01*
Y1764103D01*
X1631769Y1764962D01*
X1640084Y1759406D01*
Y1714317D01*
X1593267Y1667500D01*
X1563500D01*
Y1660490D01*
X1544307D01*
X1543500Y1660824D01*
X1536824D01*
Y1710000D01*
X1533654Y1717654D01*
X1526000Y1720824D01*
X1476000D01*
X1468346Y1717654D01*
X1465176Y1710000D01*
Y1660824D01*
X1458500D01*
X1457693Y1660490D01*
X1438500D01*
Y1667500D01*
X1383500D01*
Y1602500D01*
X1438500D01*
Y1602500D01*
X1447676Y1600511D01*
Y1585468D01*
X1437676Y1583479D01*
X1437396Y1584155D01*
X1429742Y1587326D01*
X1342054D01*
X1342054Y1587326D01*
X1336439Y1585000D01*
X1331000D01*
Y1515651D01*
X1273490Y1458142D01*
X1265013Y1463806D01*
X1269473Y1474574D01*
Y1488498D01*
X1264145Y1501362D01*
X1254299Y1511208D01*
X1241435Y1516536D01*
X1227511D01*
X1214647Y1511208D01*
X1209495Y1506056D01*
X1199495Y1510198D01*
Y1633277D01*
X1209495Y1635266D01*
X1215245Y1621385D01*
X1229423Y1607208D01*
X1245272Y1600643D01*
Y1649935D01*
Y1699227D01*
X1229423Y1692662D01*
X1215245Y1678484D01*
X1209495Y1664603D01*
X1199495Y1666592D01*
Y1708067D01*
X1184887D01*
Y1765533D01*
X1291462Y1872108D01*
X1362500D01*
Y1857500D01*
D02*
G37*
G36*
X2001095Y1872700D02*
X2006883Y1868832D01*
X2013711Y1867474D01*
X2714159D01*
X2844350Y1737284D01*
X2844350Y1737283D01*
X2936980Y1644653D01*
Y1634992D01*
X2927077Y1630753D01*
X2916051Y1635320D01*
X2905317D01*
X2699341Y1841296D01*
X2693552Y1845164D01*
X2686724Y1846522D01*
X2004475D01*
X1827556Y2023441D01*
X1821767Y2027309D01*
X1814939Y2028667D01*
X1645912D01*
X1637500Y2032500D01*
Y2049657D01*
X1824138D01*
X2001095Y1872700D01*
D02*
G37*
G36*
X1526000Y1650000D02*
X1543500D01*
Y1545000D01*
X1458500D01*
Y1650000D01*
X1476000D01*
Y1710000D01*
X1526000D01*
Y1650000D01*
D02*
G37*
G36*
X1643481Y1577415D02*
X1643482Y1524741D01*
X1643177Y1525046D01*
X1591112D01*
X1548486Y1482420D01*
Y1445274D01*
X1547878Y1444665D01*
X1526000D01*
Y1390000D01*
X1476000D01*
Y1444665D01*
X1454405D01*
X1454100Y1444969D01*
Y1489727D01*
X1423043Y1520783D01*
X1342359D01*
Y1576197D01*
X1342054Y1576502D01*
X1429742D01*
Y1549708D01*
X1462929Y1516520D01*
X1542092D01*
X1575280Y1549708D01*
Y1577719D01*
X1643177D01*
X1643481Y1577415D01*
D02*
G37*
G36*
X1982902Y1782273D02*
X1988690Y1778405D01*
X1995518Y1777047D01*
X2549357D01*
X2755114Y1571289D01*
X2750972Y1561289D01*
X2720267D01*
Y1503890D01*
X2707567D01*
Y1491190D01*
X2652167D01*
Y1446490D01*
X2662807D01*
X2665365Y1436490D01*
X2651777Y1422901D01*
X2646294Y1425172D01*
Y1375880D01*
X2620894D01*
Y1425172D01*
X2605045Y1418607D01*
X2600339Y1413901D01*
X2591100Y1417728D01*
Y1433397D01*
X2613953D01*
Y1505997D01*
X2629353D01*
Y1548697D01*
X2571953D01*
Y1561397D01*
X2559253D01*
Y1616797D01*
X2514553D01*
Y1587704D01*
X2504193D01*
Y1618433D01*
X2466786D01*
Y1672185D01*
X2480196Y1685596D01*
X2486761Y1701445D01*
X2388177D01*
X2394742Y1685596D01*
X2408920Y1671418D01*
X2415806Y1668566D01*
Y1618433D01*
X2389393D01*
Y1575733D01*
X2446793D01*
Y1550333D01*
X2389393D01*
Y1507633D01*
X2404794D01*
Y1435033D01*
X2424546D01*
Y1381042D01*
X2426098Y1373239D01*
X2430519Y1366623D01*
X2467100Y1330042D01*
X2467101Y1330041D01*
X2473716Y1325621D01*
X2473808Y1324129D01*
X2464612Y1314188D01*
X2443960D01*
X2342632Y1415516D01*
X2346774Y1425516D01*
X2349820D01*
X2362684Y1430844D01*
X2372529Y1440690D01*
X2377858Y1453554D01*
Y1467478D01*
X2372529Y1480342D01*
X2362684Y1490188D01*
X2349820Y1495516D01*
X2335896D01*
X2327216Y1491921D01*
X2318094Y1501043D01*
X2315434Y1502820D01*
X2311260Y1506994D01*
Y1565420D01*
X2333417D01*
Y1635420D01*
X2253417D01*
Y1565420D01*
X2275574D01*
Y1499604D01*
X2276291Y1496000D01*
X2267075Y1491073D01*
X2212552Y1545597D01*
X2206763Y1549465D01*
X2199935Y1550823D01*
X2036802D01*
Y1763779D01*
X1968316D01*
Y1775067D01*
X1966958Y1781895D01*
X1963090Y1787683D01*
X1885825Y1864949D01*
X1887068Y1873830D01*
X1888396Y1876089D01*
X1888932Y1876243D01*
X1982902Y1782273D01*
D02*
G37*
G36*
X1144104Y1754110D02*
Y1708067D01*
X1129496D01*
Y1433067D01*
X1199495D01*
Y1452874D01*
X1209495Y1457017D01*
X1214647Y1451865D01*
X1227511Y1446536D01*
X1241435D01*
X1252203Y1450997D01*
X1257868Y1442519D01*
X1203017Y1387668D01*
X1089667D01*
X1077962Y1385340D01*
X1068039Y1378709D01*
X1068038Y1378709D01*
X1063126Y1373797D01*
X1053887Y1377624D01*
Y1676960D01*
X1134865Y1757937D01*
X1144104Y1754110D01*
D02*
G37*
G36*
X2059200Y1175000D02*
X2119200D01*
Y1125000D01*
X2059200D01*
Y1107500D01*
X1954200D01*
Y1192500D01*
X2059200D01*
Y1175000D01*
D02*
G37*
G36*
X90467Y1273540D02*
X95993Y1265271D01*
X189730Y1171533D01*
X197999Y1166008D01*
X207754Y1164068D01*
X312361D01*
Y1144557D01*
X412361D01*
Y1164028D01*
X482521D01*
Y1130502D01*
X501980D01*
X503833Y1127730D01*
Y1113807D01*
X509161Y1100942D01*
X509189Y1100915D01*
X505362Y1091676D01*
X460817D01*
X431325Y1121168D01*
X419747Y1128904D01*
X406091Y1131620D01*
X120243D01*
X106586Y1128904D01*
X98671Y1123615D01*
X98252Y1123441D01*
X97931Y1123121D01*
X95009Y1121168D01*
X92844Y1119003D01*
X90892Y1116081D01*
X90021Y1115210D01*
X82395Y1116951D01*
X80021Y1118276D01*
Y1274800D01*
X90021Y1275784D01*
X90467Y1273540D01*
D02*
G37*
G36*
X1986055Y1224189D02*
X1959261D01*
X1926074Y1191001D01*
Y1111839D01*
X1959261Y1078651D01*
X1987273D01*
Y1010754D01*
X1986968Y1010449D01*
X1934294Y1010449D01*
X1934599Y1010753D01*
Y1062819D01*
X1891973Y1105444D01*
X1854827D01*
X1854218Y1106053D01*
Y1125000D01*
X1799200D01*
Y1175000D01*
X1854218D01*
Y1199526D01*
X1854523Y1199831D01*
X1899280D01*
X1930336Y1230887D01*
Y1311572D01*
X1985750D01*
X1986055Y1311877D01*
Y1224189D01*
D02*
G37*
G36*
X1383500Y1468570D02*
Y1434500D01*
X1390608D01*
Y1377002D01*
X1392160Y1369199D01*
X1396581Y1362583D01*
X1437772Y1321392D01*
X1437773Y1321391D01*
X1444389Y1316970D01*
X1452192Y1315418D01*
X1452193Y1315418D01*
X1664251D01*
X1668487Y1307339D01*
X1668708Y1305733D01*
X1656371Y1293396D01*
X1647500Y1290000D01*
Y1290000D01*
X1647499Y1290000D01*
X1372500D01*
Y1220000D01*
X1521658D01*
X1527214Y1211685D01*
X1524782Y1205814D01*
X1574074D01*
Y1180414D01*
X1524782D01*
X1531347Y1164564D01*
X1545524Y1150387D01*
X1557941Y1145244D01*
X1563987Y1138570D01*
X1563902Y1132774D01*
X1563311Y1129800D01*
Y1115000D01*
X1372500D01*
Y1045000D01*
X1645848D01*
Y1041799D01*
X1653521Y1023274D01*
X1667698Y1009097D01*
X1683548Y1002532D01*
Y1051824D01*
X1696248D01*
Y1064524D01*
X1745540D01*
X1738975Y1080373D01*
X1724797Y1094551D01*
X1717372Y1097626D01*
Y1108450D01*
X1722304Y1110493D01*
X1736481Y1124671D01*
X1741433Y1136624D01*
X1751433Y1134635D01*
Y1089805D01*
X1752985Y1082001D01*
X1757405Y1075386D01*
X1787211Y1045581D01*
X1793826Y1041160D01*
X1801630Y1039608D01*
X1843700D01*
Y1032500D01*
X1911700D01*
Y1047563D01*
X1921700Y1052908D01*
X1923775Y1051522D01*
Y1030311D01*
X1923708Y1029975D01*
X1817458Y923725D01*
X1319635D01*
X1317947Y925936D01*
X1315206Y933725D01*
X1321147Y942617D01*
X1323759Y955749D01*
Y967814D01*
X1259700D01*
Y980514D01*
X1247000D01*
Y1039593D01*
X1229955D01*
X1216824Y1036981D01*
X1207666Y1030862D01*
X1182440D01*
Y1080773D01*
X1109740D01*
Y1005373D01*
X1084340D01*
Y1080773D01*
X1012629D01*
X1006258Y1088543D01*
X1063088Y1145373D01*
X1167040D01*
Y1214883D01*
X1193048D01*
X1202803Y1216824D01*
X1211072Y1222349D01*
X1263858Y1275135D01*
X1269772D01*
X1282636Y1280463D01*
X1292481Y1290309D01*
X1297810Y1303173D01*
Y1317097D01*
X1292481Y1329961D01*
X1282636Y1339806D01*
X1269772Y1345135D01*
X1261141D01*
X1256999Y1355135D01*
X1374261Y1472397D01*
X1383500Y1468570D01*
D02*
G37*
G36*
X2609985Y1115395D02*
X2646335D01*
Y1089995D01*
X2610573D01*
X2614205Y1081226D01*
X2624866Y1070565D01*
X2638796Y1064795D01*
X2647305D01*
X2647818Y1064538D01*
X2654813Y1055184D01*
X2654320Y1052703D01*
Y1037150D01*
X2614712D01*
Y942150D01*
X2694711D01*
Y1007679D01*
X2695103Y1009650D01*
Y1034619D01*
X2695943Y1035180D01*
X2705943Y1029835D01*
Y1021203D01*
X2707495Y1013400D01*
X2711915Y1006784D01*
X2734901Y983798D01*
X2741472Y979408D01*
Y949642D01*
X2733377Y945042D01*
X2726072D01*
Y894841D01*
X2781472D01*
Y869441D01*
X2726072D01*
Y867462D01*
X2712457Y853847D01*
X2705892Y837998D01*
X2755184D01*
Y812598D01*
X2705892D01*
X2712457Y796748D01*
X2723955Y785250D01*
X2720165Y775250D01*
X2682463D01*
X2678320Y785250D01*
X2680523Y787453D01*
X2685852Y800317D01*
Y814241D01*
X2684647Y817149D01*
X2691329Y827150D01*
X2694711D01*
Y922150D01*
X2614712D01*
Y827150D01*
X2614711Y827150D01*
X2614711D01*
X2617056Y817150D01*
X2615852Y814241D01*
Y800317D01*
X2621180Y787453D01*
X2623383Y785250D01*
X2619241Y775250D01*
X2567952D01*
Y841087D01*
X2547286D01*
Y854633D01*
X2585915Y893261D01*
X2589782Y899049D01*
X2591141Y905877D01*
Y1124852D01*
X2603666D01*
X2609985Y1115395D01*
D02*
G37*
G36*
X2250425Y878444D02*
X2257041Y874023D01*
X2264844Y872471D01*
X2264846Y872471D01*
X2402192D01*
X2411471Y863192D01*
X2424335Y857863D01*
X2438259D01*
X2451123Y863192D01*
X2460969Y873037D01*
X2466297Y885901D01*
Y899825D01*
X2460969Y912689D01*
X2451123Y922535D01*
X2438259Y927863D01*
X2434530D01*
X2430388Y937863D01*
X2433368Y940843D01*
X2438696Y953707D01*
Y961861D01*
X2448696Y966003D01*
X2468463Y946237D01*
X2468463Y946236D01*
X2475079Y941816D01*
X2481535Y940532D01*
X2483789Y935089D01*
X2493635Y925244D01*
X2506499Y919915D01*
X2520422D01*
X2533287Y925244D01*
X2543132Y935089D01*
X2545455Y940698D01*
X2555455Y938709D01*
Y913268D01*
X2516827Y874640D01*
X2512959Y868851D01*
X2511601Y862023D01*
Y841087D01*
X2487952D01*
Y775250D01*
X2334797D01*
X2080223Y1029825D01*
X2080071Y1030534D01*
X2080876Y1033850D01*
X2091921Y1036948D01*
X2250425Y878444D01*
D02*
G37*
%LPC*%
G36*
X774364Y1856945D02*
X694364D01*
Y1767346D01*
X694364Y1761946D01*
X686270Y1757345D01*
X678964D01*
Y1707145D01*
X789764D01*
Y1757345D01*
X782459D01*
X774364Y1761946D01*
X774364Y1767346D01*
Y1856945D01*
D02*
G37*
G36*
X789764Y1681745D02*
X747064D01*
Y1631545D01*
X789764D01*
Y1681745D01*
D02*
G37*
G36*
X721664D02*
X678964D01*
Y1631545D01*
X721664D01*
Y1681745D01*
D02*
G37*
G36*
X633944Y1896454D02*
X620020D01*
X607156Y1891126D01*
X597311Y1881280D01*
X591982Y1868416D01*
Y1854492D01*
X597311Y1841628D01*
X597915Y1841024D01*
Y1792155D01*
X528405D01*
Y1682556D01*
X528404Y1682156D01*
X527439Y1672555D01*
X513005D01*
Y1653877D01*
X507461Y1650173D01*
Y1597986D01*
X482061D01*
Y1647278D01*
X477623Y1645439D01*
X469308Y1650995D01*
Y1697526D01*
X318508D01*
Y1639826D01*
X352610D01*
X356437Y1630587D01*
X353531Y1627681D01*
X346966Y1611831D01*
X396258D01*
Y1586431D01*
X346966D01*
X353531Y1570582D01*
X366904Y1557209D01*
X367329Y1546561D01*
X363931Y1545154D01*
X349754Y1530976D01*
X343189Y1515127D01*
X392481D01*
Y1489727D01*
X343189D01*
X349754Y1473878D01*
X363931Y1459700D01*
X371482Y1456573D01*
Y1445749D01*
X363354Y1442382D01*
X349176Y1428204D01*
X341503Y1409680D01*
Y1394957D01*
X296961D01*
Y1347257D01*
X362361D01*
X427761D01*
Y1364237D01*
X434630Y1371106D01*
X437511Y1378062D01*
X448336D01*
X453752Y1364985D01*
X467121Y1351616D01*
Y1333202D01*
X532521D01*
X597921D01*
Y1342561D01*
X606153D01*
X624677Y1350235D01*
X628886Y1354443D01*
X638886Y1350301D01*
Y1339284D01*
X691586D01*
Y1386984D01*
X646528D01*
Y1402987D01*
X638855Y1421511D01*
X624677Y1435688D01*
X617962Y1438470D01*
Y1449294D01*
X623532Y1451601D01*
X637710Y1465779D01*
X644275Y1481628D01*
X594983D01*
Y1507028D01*
X644275D01*
X638174Y1521756D01*
X641897Y1531756D01*
X663804D01*
Y1589456D01*
X588404D01*
Y1614856D01*
X663804D01*
Y1672555D01*
X649370D01*
X648405Y1682156D01*
X648404Y1682556D01*
Y1764692D01*
X648894Y1767156D01*
Y1833869D01*
X656654Y1841628D01*
X661982Y1854492D01*
Y1868416D01*
X656654Y1881280D01*
X646808Y1891126D01*
X633944Y1896454D01*
D02*
G37*
G36*
X769686Y1386984D02*
X716986D01*
Y1339284D01*
X769686D01*
Y1386984D01*
D02*
G37*
G36*
X427761Y1321857D02*
X375061D01*
Y1274157D01*
X427761D01*
Y1321857D01*
D02*
G37*
G36*
X349661D02*
X296961D01*
Y1274157D01*
X349661D01*
Y1321857D01*
D02*
G37*
G36*
X769686Y1313884D02*
X716986D01*
Y1266184D01*
X769686D01*
Y1313884D01*
D02*
G37*
G36*
X691586D02*
X638886D01*
Y1266184D01*
X691586D01*
Y1313884D01*
D02*
G37*
G36*
X597921Y1307802D02*
X545221D01*
Y1260102D01*
X597921D01*
Y1307802D01*
D02*
G37*
G36*
X519821D02*
X467121D01*
Y1260102D01*
X519821D01*
Y1307802D01*
D02*
G37*
G36*
X1604297Y1800695D02*
X1567705D01*
X1574270Y1784846D01*
X1588448Y1770669D01*
X1604297Y1764103D01*
Y1800695D01*
D02*
G37*
G36*
X1346770Y1733264D02*
X1332846D01*
X1319982Y1727936D01*
X1310137Y1718090D01*
X1304808Y1705226D01*
Y1691302D01*
X1306778Y1686547D01*
X1298300Y1680883D01*
X1286521Y1692662D01*
X1270672Y1699227D01*
Y1662635D01*
X1307264D01*
X1304058Y1670375D01*
X1312535Y1676040D01*
X1319982Y1668593D01*
X1332846Y1663264D01*
X1346770D01*
X1359634Y1668593D01*
X1369480Y1678438D01*
X1374808Y1691302D01*
Y1705226D01*
X1369480Y1718090D01*
X1359634Y1727936D01*
X1346770Y1733264D01*
D02*
G37*
G36*
X1307264Y1637235D02*
X1270672D01*
Y1600643D01*
X1286521Y1607208D01*
X1300699Y1621385D01*
X1307264Y1637235D01*
D02*
G37*
G36*
X2450169Y1763437D02*
Y1726845D01*
X2486761D01*
X2480196Y1742695D01*
X2466019Y1756872D01*
X2450169Y1763437D01*
D02*
G37*
G36*
X2424769D02*
X2408920Y1756872D01*
X2394742Y1742695D01*
X2388177Y1726845D01*
X2424769D01*
Y1763437D01*
D02*
G37*
G36*
X2333417Y1735420D02*
X2253417D01*
Y1720812D01*
X2168323D01*
X2168322Y1720812D01*
X2160518Y1719259D01*
X2153903Y1714839D01*
X2153902Y1714838D01*
X2148791Y1709727D01*
X2145530Y1711078D01*
X2131606D01*
X2118742Y1705749D01*
X2108897Y1695904D01*
X2103568Y1683040D01*
Y1669116D01*
X2108897Y1656252D01*
X2118742Y1646406D01*
X2131606Y1641078D01*
X2145530D01*
X2158394Y1646406D01*
X2168240Y1656252D01*
X2173568Y1669116D01*
Y1676827D01*
X2176769Y1680028D01*
X2253417D01*
Y1665420D01*
X2333417D01*
Y1735420D01*
D02*
G37*
G36*
X2629353Y1616797D02*
X2584653D01*
Y1574097D01*
X2629353D01*
Y1616797D01*
D02*
G37*
G36*
X2694867Y1561289D02*
X2652167D01*
Y1516590D01*
X2694867D01*
Y1561289D01*
D02*
G37*
G36*
X1323363Y1234443D02*
X1309439D01*
X1296575Y1229114D01*
X1286729Y1219269D01*
X1281401Y1206405D01*
Y1193281D01*
X1258661Y1170541D01*
X1254241Y1163926D01*
X1254234Y1163892D01*
X1229955D01*
X1222832Y1162475D01*
X1216794Y1158440D01*
X1212759Y1152402D01*
X1211343Y1145279D01*
Y1095749D01*
X1212759Y1088626D01*
X1216794Y1082588D01*
X1222832Y1078553D01*
X1229955Y1077137D01*
X1289445D01*
X1296568Y1078553D01*
X1302606Y1082588D01*
X1306641Y1088626D01*
X1308058Y1095749D01*
Y1145279D01*
X1306641Y1152402D01*
X1303259Y1157463D01*
X1310239Y1164443D01*
X1323363D01*
X1336227Y1169771D01*
X1346072Y1179617D01*
X1351401Y1192481D01*
Y1206405D01*
X1346072Y1219269D01*
X1336227Y1229114D01*
X1323363Y1234443D01*
D02*
G37*
G36*
X1745540Y1039124D02*
X1708948D01*
Y1002532D01*
X1724797Y1009097D01*
X1738975Y1023274D01*
X1745540Y1039124D01*
D02*
G37*
G36*
X1289445Y1039593D02*
X1272400D01*
Y993214D01*
X1323759D01*
Y1005279D01*
X1321147Y1018410D01*
X1313709Y1029543D01*
X1302577Y1036981D01*
X1289445Y1039593D01*
D02*
G37*
%LPD*%
D10*
X2141968Y1222942D02*
X2170169Y1194741D01*
X2066806Y1361877D02*
X2141968Y1286714D01*
Y1222942D02*
Y1286714D01*
X2038423Y1331877D02*
X2108493Y1261806D01*
Y1213991D02*
X2140169Y1182315D01*
X2108493Y1213991D02*
Y1261806D01*
X2170169Y1103532D02*
Y1194741D01*
X2191974Y1421877D02*
X2252698Y1361153D01*
Y1157925D02*
X2394884Y1015739D01*
X2252698Y1157925D02*
Y1361153D01*
X2170169Y1103532D02*
X2252329Y1021372D01*
X2140169Y1091106D02*
Y1182315D01*
X2913462Y873166D02*
Y1141986D01*
X2731906Y691610D02*
X2913462Y873166D01*
X2731906Y658503D02*
Y691610D01*
X2787487Y702416D02*
X2961218Y876147D01*
X2787487Y641037D02*
Y702416D01*
X2961218Y876147D02*
Y1178001D01*
X2748384Y754859D02*
X2803818Y810293D01*
X2803993D02*
X2859426Y865726D01*
Y1105845D01*
X2803818Y810293D02*
X2803993D01*
X2326351Y754859D02*
X2748384D01*
X2713145Y566695D02*
X2787487Y641037D01*
X2627214Y566695D02*
X2713145D01*
X2451639Y636358D02*
X2709761D01*
X2731906Y658503D01*
X2851694Y702769D02*
X2852727Y703802D01*
X2979052D01*
X2980084Y704834D01*
X2059183Y1022026D02*
X2326351Y754859D01*
X2143980Y1676078D02*
X2168322Y1700420D01*
X2138568Y1676078D02*
X2143980D01*
X2168322Y1700420D02*
X2293417D01*
X2376546Y561265D02*
X2451639Y636358D01*
X2635828Y696296D02*
X2641240D01*
X2626696Y705428D02*
X2635828Y696296D01*
X2528611Y705428D02*
X2626696D01*
X2941934Y1284730D02*
X2942409Y1285204D01*
X2862618Y1284730D02*
X2941934D01*
X2570708Y1382288D02*
Y1475196D01*
X2530981Y1349888D02*
X2538309D01*
X2509928Y1340488D02*
X2521581D01*
X2538309Y1349888D02*
X2570708Y1382288D01*
X2521581Y1340488D02*
X2530981Y1349888D01*
X2444938Y1381042D02*
X2481520Y1344460D01*
X2444938Y1381042D02*
Y1479580D01*
X2505955Y1344460D02*
X2511696Y1338720D01*
X2481520Y1344460D02*
X2505955D01*
X1907972Y843040D02*
X1909366Y844434D01*
X1345676Y843040D02*
X1907972D01*
X1319506Y816870D02*
X1345676Y843040D01*
X1034869Y816870D02*
X1319506D01*
X1031420Y813420D02*
X1034869Y816870D01*
X1141580Y712802D02*
X1215648Y786870D01*
X1341665D01*
X1347405Y781130D01*
X1339976Y684794D02*
Y725188D01*
X1341665Y726877D01*
Y775390D02*
X1347405Y781130D01*
X1341665Y726877D02*
Y775390D01*
X1339976Y684794D02*
X1447381Y577389D01*
X811563Y1084513D02*
Y1139271D01*
X811320Y1084271D02*
X811563Y1084513D01*
Y1139271D02*
X1033496Y1361204D01*
Y1685406D01*
X1310210Y1962121D01*
X1710534D01*
X1164496Y1773980D02*
X1283015Y1892500D01*
X1500000D01*
X1714656Y1383093D02*
Y1748214D01*
X1667373Y1335810D02*
X1714656Y1383093D01*
X1452192Y1335810D02*
X1667373D01*
X2093975Y560595D02*
X2222509D01*
X2229858Y553246D01*
X2237877Y561265D01*
X2376546D01*
X2872752Y1182695D02*
X2913462Y1141986D01*
X2766335Y1182695D02*
X2872752D01*
X1845779Y1391877D02*
X2139570D01*
X2186704Y1344742D01*
X1510000Y1080000D02*
X1568703D01*
X1583703Y1095000D01*
Y1129800D01*
X1845779Y1391877D01*
X1801630Y1060000D02*
X1877700D01*
X1771825Y1089805D02*
X1801630Y1060000D01*
X1771825Y1089805D02*
Y1254503D01*
X1879198Y1361877D02*
X2066806D01*
X1771825Y1254503D02*
X1879198Y1361877D01*
X2317764Y1021372D02*
X2317913Y1021223D01*
X2252329Y1021372D02*
X2317764D01*
X2726335Y1021203D02*
X2749320Y998217D01*
X2726335Y1021203D02*
Y1101342D01*
X1822500Y1430686D02*
Y1550000D01*
X1164496Y1570567D02*
Y1773980D01*
X1768395Y1707449D02*
X1811802D01*
X1826802Y1692449D01*
Y1626279D02*
Y1692449D01*
X1518971Y1263971D02*
X1655784D01*
X1822500Y1430686D01*
X1510000Y1255000D02*
X1518971Y1263971D01*
X845434Y1363035D02*
Y1464342D01*
Y1363035D02*
X851946Y1356524D01*
X1466503Y706646D02*
Y795721D01*
Y706646D02*
X1475848Y697300D01*
X2077906Y2206663D02*
X2144559Y2140010D01*
X1983486Y2206663D02*
X2077906D01*
X2135262Y2036597D02*
X2144559Y2045894D01*
Y2134519D01*
Y2140010D01*
X2706403Y1373871D02*
X2708940D01*
X2753634Y1418564D01*
X2767789D02*
X2795567Y1446341D01*
X2753634Y1418564D02*
X2767789D01*
X2795567Y1446341D02*
Y1503890D01*
X2753929Y2185852D02*
X2758155Y2190078D01*
Y2333788D02*
X2807881Y2383514D01*
X2758155Y2190078D02*
Y2333788D01*
X2807881Y2383514D02*
X2856470D01*
X2876470Y2403514D02*
Y2411014D01*
X2856470Y2383514D02*
X2876470Y2403514D01*
X2527952Y706088D02*
X2528611Y705428D01*
X2650852Y807279D02*
Y878115D01*
X2655833Y883096D01*
X2627214Y513404D02*
X2650064Y490554D01*
Y436784D02*
Y490554D01*
X2916525Y1222695D02*
X2961218Y1178001D01*
X2766335Y1222695D02*
X2916525D01*
X2627214Y513404D02*
Y566695D01*
X2098948Y1058759D02*
Y1146926D01*
Y1058759D02*
X2264844Y892863D01*
X2431297D01*
X2685378Y1063369D02*
Y1101738D01*
X2686335Y1102695D01*
X2674711Y1052703D02*
X2685378Y1063369D01*
X2674711Y1009650D02*
Y1052703D01*
X2654711Y989650D02*
X2674711Y1009650D01*
X2140169Y1091106D02*
X2274029Y957246D01*
X1877700Y1240000D02*
Y1287220D01*
X1922357Y1331877D01*
X2038423D01*
X2400273Y957246D02*
X2403696Y960669D01*
X2274029Y957246D02*
X2400273D01*
X1411000Y1377002D02*
Y1468500D01*
Y1377002D02*
X1452192Y1335810D01*
X1882568Y1477906D02*
X1938597Y1421877D01*
X2191974D01*
X1714656Y1748214D02*
X1755629Y1789187D01*
X1882568Y1477906D02*
Y1755850D01*
X1755629Y1789187D02*
X1849230D01*
X1882568Y1755850D01*
X2394884Y1015739D02*
X2427800D01*
X2482883Y960655D01*
X2507720D02*
X2513461Y954915D01*
X2482883Y960655D02*
X2507720D01*
X1987068Y1022026D02*
X2059183D01*
X2766335Y1142695D02*
X2822576D01*
X2859426Y1105845D01*
X2597432Y336785D02*
X2650064D01*
X2581274Y352943D02*
X2597432Y336785D01*
X2581274Y352943D02*
Y397785D01*
X2569558Y409501D02*
X2581274Y397785D01*
X2540977Y409501D02*
X2569558D01*
X2520977Y429501D02*
X2540977Y409501D01*
X2520977Y429501D02*
Y432116D01*
X485021Y1777510D02*
X496737Y1789226D01*
Y1819556D01*
X541199Y1864018D01*
X290307Y1777510D02*
X485021D01*
X541199Y1864018D02*
Y1866091D01*
X856834Y1678256D02*
X858778D01*
X841124Y1660602D02*
X863245Y1682723D01*
X839297Y1660602D02*
X841124D01*
X858778Y1678256D02*
X863245Y1682723D01*
X734364Y1809728D02*
X735469Y1810833D01*
X734364Y1809445D02*
Y1809728D01*
X1141580Y587877D02*
Y712802D01*
X1026580Y529943D02*
Y587877D01*
X980939Y484303D02*
X1026580Y529943D01*
X737963Y484303D02*
X980939D01*
X1983486Y2091663D02*
X1990808Y2084341D01*
Y1968324D02*
Y2084341D01*
X2633594Y1375880D02*
X2687567Y1429852D01*
Y1483890D01*
X2707567Y1503890D01*
X1909366Y844434D02*
X1915106Y838694D01*
X1958513D02*
X2004153Y793054D01*
X1915106Y838694D02*
X1958513D01*
X2004153Y793054D02*
X2004514D01*
X2091457Y882706D02*
X2092872Y884120D01*
X2063173Y882706D02*
X2091457D01*
X2042145Y903734D02*
X2063173Y882706D01*
X1962491Y903734D02*
X2042145D01*
X1273080Y1156122D02*
X1316401Y1199443D01*
X1273080Y1099335D02*
Y1156122D01*
X2878209Y2527753D02*
Y2638521D01*
X2876470Y2526014D02*
X2878209Y2527753D01*
X2752785Y1977414D02*
Y2069708D01*
X2753929Y2070852D01*
X1447381Y577389D02*
X1733249D01*
X1777426Y533212D01*
Y439541D02*
Y533212D01*
X270040Y1757243D02*
X290307Y1777510D01*
X114017Y1757243D02*
X270040D01*
D14*
X1475848Y697300D02*
D03*
X2795567Y1503890D02*
D03*
X2135262Y2036597D02*
D03*
X2627214Y564695D02*
D03*
X2539214D02*
D03*
X1563848Y697300D02*
D03*
X2223262Y2036597D02*
D03*
X2707567Y1503890D02*
D03*
D16*
X2212435Y322740D02*
D03*
X2097435D02*
D03*
X1026580Y587877D02*
D03*
X1141580D02*
D03*
D17*
X2229858Y553246D02*
D03*
X851946Y1356524D02*
D03*
X2862618Y1284730D02*
D03*
X2571953Y1473397D02*
D03*
X2446793Y1475033D02*
D03*
X2229858Y465245D02*
D03*
X2571953Y1561397D02*
D03*
X2862618Y1372730D02*
D03*
X2446793Y1563033D02*
D03*
X851946Y1268524D02*
D03*
D18*
X2781472Y997142D02*
D03*
X2654711Y874650D02*
D03*
X1983486Y2206663D02*
D03*
X2753929Y2185852D02*
D03*
X2876470Y2411014D02*
D03*
X2654711Y989650D02*
D03*
X2520977Y432116D02*
D03*
Y317116D02*
D03*
X2781472Y882141D02*
D03*
X734364Y1694445D02*
D03*
X861124Y1557954D02*
D03*
X734364Y1809445D02*
D03*
X861124Y1672954D02*
D03*
X2753929Y2070852D02*
D03*
X1983486Y2091663D02*
D03*
X2876470Y2526014D02*
D03*
D20*
X934499Y91888D02*
D03*
X1034498D02*
D03*
D26*
X2155097Y821895D02*
D03*
X2092872Y884120D02*
D03*
X2066739Y730828D02*
D03*
X2004514Y793054D02*
D03*
D28*
X2093975Y560595D02*
D03*
X2527952Y806088D02*
D03*
X2293417Y1700420D02*
D03*
X2527952Y706088D02*
D03*
X2650064Y436784D02*
D03*
X2293417Y1600420D02*
D03*
X2650064Y336785D02*
D03*
X2093975Y460595D02*
D03*
D30*
X704286Y1326584D02*
D03*
X532521Y1320502D02*
D03*
X362361Y1334557D02*
D03*
Y1189557D02*
D03*
X704286Y1181584D02*
D03*
X532521Y1175502D02*
D03*
D31*
X1630273Y148575D02*
D03*
X1726793D02*
D03*
D43*
X2755184Y830710D02*
X2766472Y841998D01*
Y860416D01*
X2755184Y825298D02*
Y830710D01*
X2766472Y860416D02*
X2772142Y866087D01*
X74895Y137371D02*
X107963Y104303D01*
X74895Y137371D02*
Y211862D01*
X735073Y104303D02*
X737963D01*
X700073Y139303D02*
X735073Y104303D01*
X700073Y139303D02*
Y211454D01*
X2872260Y1382373D02*
X2941103D01*
X2944185Y1386944D02*
X2944929Y1386199D01*
X2941103Y1382373D02*
X2944929Y1386199D01*
X54531Y2190932D02*
X330272Y2466673D01*
X54531Y1025096D02*
X90067Y989560D01*
X54531Y1025096D02*
Y2190932D01*
X2375018Y381517D02*
Y382787D01*
Y381517D02*
X2426958Y329577D01*
Y167276D02*
Y329577D01*
X2410466Y150784D02*
X2426958Y167276D01*
X2410466Y145372D02*
Y150784D01*
X532521Y1189479D02*
X535677Y1186323D01*
Y1123924D02*
Y1186323D01*
Y1123924D02*
X538833Y1120768D01*
X713156Y2081355D02*
X716905Y2085105D01*
Y2208732D01*
X2571135Y1562215D02*
X2571953Y1561397D01*
X2447612Y1562215D02*
X2571135D01*
X2446793Y1563033D02*
X2447612Y1562215D01*
X2441296Y1568530D02*
X2446793Y1563033D01*
X2441296Y1568530D02*
Y1710318D01*
X2437469Y1714145D02*
X2441296Y1710318D01*
X958247Y1089850D02*
X971517D01*
X1122040Y1240373D02*
X1193048D01*
X971517Y1089850D02*
X1122040Y1240373D01*
X954420Y1086023D02*
X958247Y1089850D01*
X1644107Y710816D02*
X1647934Y714643D01*
X1563848Y697300D02*
X1577364Y710816D01*
X1644107D01*
X2042108Y1060000D02*
X2044200D01*
X2039608Y1062500D02*
X2042108Y1060000D01*
X2039608Y1062500D02*
Y1208177D01*
Y1237500D02*
X2042108Y1240000D01*
X2044200D01*
X2039608Y1208177D02*
Y1237500D01*
Y1208177D02*
Y1209202D01*
X1411000Y1635000D02*
X1591000D01*
X2862618Y1372730D02*
X2872260Y1382373D01*
X1924814Y149056D02*
X1925295Y149536D01*
X1727274Y149056D02*
X1924814D01*
X1726793Y148575D02*
X1727274Y149056D01*
X405377Y1942157D02*
X765154D01*
X405377Y1856695D02*
Y1942157D01*
X393908Y1845226D02*
X405377Y1856695D01*
X2227532Y462920D02*
X2229858Y465245D01*
X2096301Y462920D02*
X2227532D01*
X2093975Y460595D02*
X2096301Y462920D01*
X2212435Y322740D02*
Y447823D01*
X2097435Y322740D02*
X2097708Y322467D01*
Y209530D02*
Y322467D01*
X2046495Y158317D02*
X2097708Y209530D01*
X1934075Y158317D02*
X2046495D01*
X1925295Y149536D02*
X1934075Y158317D01*
X2362078Y273327D02*
X2375018Y286267D01*
X2362078Y249963D02*
Y273327D01*
X2262656Y150541D02*
X2362078Y249963D01*
X2535795Y561275D02*
X2539214Y564695D01*
X2535795Y446934D02*
Y561275D01*
X2520977Y432116D02*
X2535795Y446934D01*
X2572947Y156296D02*
Y182646D01*
X2520977Y234616D02*
X2572947Y182646D01*
X2520977Y234616D02*
Y317116D01*
X721149Y750060D02*
X721359Y749850D01*
X331444Y750271D02*
X331654Y750060D01*
X721149D01*
X924964Y1359467D02*
Y1782346D01*
X765154Y1942157D02*
X924964Y1782346D01*
X623405Y1857877D02*
X626982Y1861454D01*
X181302Y989560D02*
X248804Y922058D01*
Y661556D02*
Y922058D01*
Y661556D02*
X611200Y299159D01*
X832227D01*
X90067Y989560D02*
X181302D01*
X330272Y2466673D02*
X491508D01*
X623405Y1767156D02*
Y1857877D01*
X593404Y1737156D02*
X623405Y1767156D01*
X588404Y1737156D02*
X593404D01*
X2944234Y400961D02*
X2980477Y364719D01*
X2883092Y400961D02*
X2944234D01*
X2980477Y251932D02*
Y364719D01*
X2976650Y248105D02*
X2980477Y251932D01*
X1254720Y980514D02*
X1259700D01*
X1229861Y1005373D02*
X1254720Y980514D01*
X1097040Y1005373D02*
X1229861D01*
X1090948Y999281D02*
X1097040Y1005373D01*
X969906Y999281D02*
X1090948D01*
X1193048Y1240373D02*
X1262810Y1310135D01*
X2066739Y730828D02*
X2086341D01*
X2113154Y704016D02*
X2165488D01*
X2086341Y730828D02*
X2113154Y704016D01*
X832227Y299159D02*
X1034498Y96888D01*
Y91888D02*
Y96888D01*
X114017Y1283294D02*
Y1757243D01*
Y1283294D02*
X207754Y1189557D01*
X362361D01*
X362400Y1189518D01*
X532482D01*
X532521Y1189479D01*
X533224Y1190182D02*
X701978D01*
X532521Y1189479D02*
X533224Y1190182D01*
D44*
X2954823Y1558388D02*
Y1652043D01*
X1997084Y1828680D02*
X2686724D01*
X2910084Y1605320D01*
X1506289Y1898789D02*
X1891619D01*
X1500000Y1892500D02*
X1506289Y1898789D01*
X1891619D02*
X1995518Y1794890D01*
X2293417Y1499604D02*
X2304595Y1488426D01*
X2305477D02*
X2333387Y1460516D01*
X2342858D01*
X2304595Y1488426D02*
X2305477D01*
X2293417Y1499604D02*
Y1600420D01*
X2436570Y1296345D02*
X2493967D01*
X1952863Y1457028D02*
X2205177D01*
X2311356Y1192166D02*
Y1386203D01*
X2019302Y1532980D02*
X2199935D01*
X2436570Y1296345D01*
X2215532Y1482028D02*
X2311356Y1386203D01*
X2205177Y1457028D02*
X2281113Y1381092D01*
X1970219Y1482028D02*
X2215532D01*
X2281113Y1179746D02*
Y1381092D01*
X2311356Y1192166D02*
X2396699Y1106823D01*
X2361930Y1187033D02*
X2406268Y1142695D01*
X2361930Y1187033D02*
Y1261212D01*
X2584295Y1262695D02*
X2686335D01*
X2583268Y1263721D02*
X2584295Y1262695D01*
X2474718Y1263721D02*
X2583268D01*
X2417269Y1206272D02*
X2474718Y1263721D01*
X2643909Y1182695D02*
X2646335D01*
X2595382Y1231221D02*
X2643909Y1182695D01*
X2508706Y1231221D02*
X2595382D01*
X2508393Y1230908D02*
X2508706Y1231221D01*
X989496Y1570567D02*
Y1774545D01*
X1225775Y2010825D01*
X1814939D01*
X1997084Y1828680D01*
X2527952Y806088D02*
X2529444Y807580D01*
Y862023D01*
X2573298Y905877D01*
Y1139406D01*
X2406268Y1142695D02*
X2570009D01*
X2573298Y1139406D01*
X2570009Y1142695D02*
X2646335D01*
X2556747Y1794890D02*
X2773221Y1578416D01*
X1995518Y1794890D02*
X2556747D01*
X2900771Y1502898D02*
Y1504002D01*
X2773221Y1578416D02*
X2826357D01*
X2900771Y1504002D01*
X1500000Y2067500D02*
X1831528D01*
X2013711Y1885317D01*
X2721550D01*
X2856967Y1749900D01*
Y1749899D02*
X2954823Y1652043D01*
X2856967Y1749899D02*
Y1749900D01*
X1591000Y1635000D02*
Y1640000D01*
X1657927Y1706926D01*
X1950473Y1513929D02*
X1960302Y1504100D01*
Y1491945D02*
Y1504100D01*
Y1491945D02*
X1970219Y1482028D01*
X1657927Y1706926D02*
Y1778972D01*
X1733790Y1854836D01*
X1870704D01*
X1950473Y1775067D01*
Y1513929D02*
Y1775067D01*
X2396699Y1106823D02*
X2435065D01*
X2439199Y1102689D01*
X2726335Y1262695D02*
Y1265121D01*
X2004222Y1548060D02*
X2019302Y1532980D01*
X2004222Y1548060D02*
Y1567177D01*
X2695111Y1296345D02*
X2726335Y1265121D01*
X2493967Y1296345D02*
X2494092Y1296220D01*
X2529299D02*
X2529424Y1296345D01*
X2695111D01*
X2494092Y1296220D02*
X2529299D01*
X1591000Y1468500D02*
X1631000D01*
X1682927Y1520426D01*
X1914657Y1495233D02*
X1952863Y1457028D01*
X1682927Y1520426D02*
Y1768617D01*
X1856765Y1820543D02*
X1914657Y1762652D01*
X1682927Y1768617D02*
X1734853Y1820543D01*
X1914657Y1495233D02*
Y1762652D01*
X1734853Y1820543D02*
X1856765D01*
X2281113Y1179746D02*
X2408957Y1051902D01*
X2504553D01*
D45*
X446035Y1055990D02*
X599306D01*
X406091Y1095934D02*
X446035Y1055990D01*
X599306D02*
X767257Y888040D01*
X120243Y1095934D02*
X406091D01*
X1959200Y1015000D02*
Y1029000D01*
X118078Y1093770D02*
X120243Y1095934D01*
X767257Y888040D02*
X866334D01*
X869952D02*
X1832240D01*
X1959200Y1015000D01*
X470000Y2080000D02*
X472657Y2082657D01*
X559457Y2081355D02*
X578156D01*
X472657Y2082657D02*
X558155D01*
X559457Y2081355D01*
D47*
X359429Y2113191D02*
Y2158234D01*
X760678Y2559484D01*
X271291Y2138941D02*
X744021Y2611671D01*
X1127105D01*
X271291Y2055349D02*
Y2138941D01*
X760678Y2559484D02*
X1207199D01*
X1207704Y2559989D02*
X1228263D01*
X1233942Y2565668D01*
X1207199Y2559484D02*
X1207704Y2559989D01*
X1127105Y2611671D02*
X1128930Y2613496D01*
X1018457Y2308458D02*
X1478816D01*
X834052Y2124053D02*
X1018457Y2308458D01*
X834052Y2010512D02*
Y2124053D01*
X871435Y94338D02*
X872660Y93113D01*
X933274D01*
X934499Y91888D01*
X1546613Y2146626D02*
X1631900D01*
X1439454Y2253785D02*
X1546613Y2146626D01*
X1019570Y2253785D02*
X1439454D01*
X963731Y2197945D02*
X1019570Y2253785D01*
X963731Y2013906D02*
Y2197945D01*
X1478816Y2308458D02*
X1578321Y2208953D01*
D50*
X1396426Y439541D02*
D03*
D51*
X1925295Y149536D02*
D03*
X2572947Y156296D02*
D03*
X2884218Y160000D02*
D03*
X2262656Y150541D02*
D03*
D52*
X1700721Y2435000D02*
D03*
X836721D02*
D03*
D53*
X1700721Y2835000D02*
D03*
X836721D02*
D03*
D54*
X1904426Y439541D02*
D03*
X1523426D02*
D03*
X1650426D02*
D03*
X1777426D02*
D03*
D55*
X1234473Y1481536D02*
D03*
X2207698Y1229298D02*
D03*
X2755184Y825298D02*
D03*
X2851694Y702769D02*
D03*
X2138568Y1676078D02*
D03*
X2641240Y696296D02*
D03*
X2942409Y1285204D02*
D03*
X2944929Y1386199D02*
D03*
X2706598Y208734D02*
D03*
X2410466Y145372D02*
D03*
X572961Y124368D02*
D03*
X322029Y1017311D02*
D03*
X538833Y1120768D02*
D03*
X716905Y2208732D02*
D03*
X2342858Y1460516D02*
D03*
X2361930Y1261212D02*
D03*
X1339808Y1698264D02*
D03*
X1031420Y813420D02*
D03*
X1347405Y781130D02*
D03*
X811320Y1084271D02*
D03*
X954420Y1086023D02*
D03*
X1647934Y714643D02*
D03*
X1696248Y1051824D02*
D03*
X1693755Y1153220D02*
D03*
X1574074Y1193114D02*
D03*
X1657185Y1390920D02*
D03*
X2980084Y704834D02*
D03*
X2417269Y1206272D02*
D03*
X2186704Y1344742D02*
D03*
X2317913Y1021223D02*
D03*
X149174Y257949D02*
D03*
X1178146Y310142D02*
D03*
X864579Y593655D02*
D03*
X321448Y944531D02*
D03*
X323997Y876009D02*
D03*
X834969Y2248766D02*
D03*
X845434Y1464342D02*
D03*
X1273971Y737794D02*
D03*
X1466503Y795721D02*
D03*
X2511696Y1338720D02*
D03*
X2650852Y807279D02*
D03*
X2706403Y1373871D02*
D03*
X1760790Y1636079D02*
D03*
X2144559Y2134519D02*
D03*
X2758155Y2333788D02*
D03*
X2431297Y892863D02*
D03*
X2403696Y960669D02*
D03*
X2513461Y954915D02*
D03*
X118078Y1093770D02*
D03*
X359429Y2113191D02*
D03*
X405377Y1942157D02*
D03*
X271291Y2055349D02*
D03*
X1233942Y2565668D02*
D03*
X1128930Y2613496D02*
D03*
X721359Y749850D02*
D03*
X924964Y1359467D02*
D03*
X856834Y1678256D02*
D03*
X735469Y1810833D02*
D03*
X1257972Y1649935D02*
D03*
X2437469Y1714145D02*
D03*
X1990808Y1968324D02*
D03*
X1616997Y1813395D02*
D03*
X399704Y2410356D02*
D03*
X541199Y1866091D02*
D03*
X626982Y1861454D02*
D03*
X2633594Y1375880D02*
D03*
X2976650Y248105D02*
D03*
X1743462Y678229D02*
D03*
X2257934Y1086304D02*
D03*
X1909366Y844434D02*
D03*
X969906Y999281D02*
D03*
X1962491Y903734D02*
D03*
X470000Y2080000D02*
D03*
X2753711Y2628210D02*
D03*
X2165488Y704016D02*
D03*
X1220763Y2178340D02*
D03*
X594410Y1598558D02*
D03*
X594983Y1494328D02*
D03*
X596128Y1392961D02*
D03*
X494761Y1597986D02*
D03*
X392481Y1502427D02*
D03*
X396258Y1599131D02*
D03*
X391903Y1399655D02*
D03*
X496479Y1393534D02*
D03*
X572899Y616878D02*
D03*
X700073Y211454D02*
D03*
X1302834Y130236D02*
D03*
X1170085Y81898D02*
D03*
X245896Y508165D02*
D03*
X74895Y211862D02*
D03*
X331444Y750271D02*
D03*
X431564Y79175D02*
D03*
X2878209Y2638521D02*
D03*
X2752785Y1977414D02*
D03*
X871435Y94338D02*
D03*
X1578321Y2208953D02*
D03*
X1631900Y2146626D02*
D03*
X963731Y2013906D02*
D03*
X834052Y2010512D02*
D03*
X114017Y1757243D02*
D03*
X1262810Y1310135D02*
D03*
X1316401Y1199443D02*
D03*
D56*
X2954823Y1558388D02*
D03*
X2910084Y1605320D02*
D03*
X1724214Y1898789D02*
D03*
X1710534Y1962121D02*
D03*
X1768395Y1707449D02*
D03*
X2900771Y1502898D02*
D03*
X2439199Y1102689D02*
D03*
X2504553Y1051902D02*
D03*
X2530943Y1181421D02*
D03*
X491508Y2466673D02*
D03*
D57*
X2686335Y1262695D02*
D03*
X2766335Y1102695D02*
D03*
Y1182695D02*
D03*
X2646335D02*
D03*
X2726335Y1102695D02*
D03*
X2646335Y1142695D02*
D03*
Y1222695D02*
D03*
X2766335D02*
D03*
X2686335Y1102695D02*
D03*
X2766335Y1142695D02*
D03*
X2726335Y1262695D02*
D03*
X2766335D02*
D03*
X2646335Y1102695D02*
D03*
D58*
X2508393Y1230908D02*
D03*
D59*
X1510000Y1080000D02*
D03*
X1500000Y1892500D02*
D03*
X1510000Y1255000D02*
D03*
X1500000Y2067500D02*
D03*
D60*
X1877700Y1060000D02*
D03*
Y1240000D02*
D03*
D61*
X989496Y1570567D02*
D03*
X1164496D02*
D03*
X1826802Y1626279D02*
D03*
X2001802D02*
D03*
D62*
X2044200Y1060000D02*
D03*
Y1240000D02*
D03*
D63*
X2010000Y1150000D02*
D03*
X1501000Y1600800D02*
D03*
X1883000Y1150000D02*
D03*
X1501000Y1473800D02*
D03*
D64*
X1411000Y1635000D02*
D03*
X1591000D02*
D03*
D65*
X1411000Y1468500D02*
D03*
X1591000D02*
D03*
D66*
X1959200Y1029000D02*
D03*
Y1271000D02*
D03*
D67*
X1380000Y1550000D02*
D03*
X1622000D02*
D03*
D68*
X2375018Y286267D02*
D03*
Y382787D02*
D03*
X2883092Y400961D02*
D03*
Y304441D02*
D03*
D69*
X713156Y2081355D02*
D03*
X578156D02*
D03*
D70*
X588404Y1602156D02*
D03*
X393908Y1710226D02*
D03*
X588404Y1737156D02*
D03*
X393908Y1845226D02*
D03*
D71*
X1259700Y980514D02*
D03*
Y1120514D02*
D03*
D72*
X1097040Y1005373D02*
D03*
Y1205373D02*
D03*
D73*
X737963Y104303D02*
D03*
X107963D02*
D03*
X737963Y484303D02*
D03*
X107963D02*
D03*
D74*
X1372358Y1545000D02*
X1377358Y1550000D01*
X1215687Y1357081D02*
X1372358Y1513752D01*
X1089667Y1357081D02*
X1215687D01*
X1377358Y1550000D02*
X1380000D01*
X1372358Y1513752D02*
Y1545000D01*
X869952Y884422D02*
Y1137365D01*
X1089667Y1357081D01*
X2883655Y160112D02*
X2884218Y159549D01*
X2883655Y160112D02*
Y303878D01*
X2883092Y304441D02*
X2883655Y303878D01*
%TF.MD5,aeaac997f057c7dededd0b8cf64724a8*%
M02*
