%TF.GenerationSoftware,Altium Limited,Altium Designer,25.8.1 (18)*%
G04 Layer_Physical_Order=3*
G04 Layer_Color=16440176*
%FSLAX45Y45*%
%MOMM*%
%TF.SameCoordinates,0F46F6EB-38F5-49E6-B003-B95780E70664*%
%TF.FilePolarity,Positive*%
%TF.FileFunction,Copper,L3,Inr,Signal*%
%TF.Part,Single*%
G01*
G75*
%TA.AperFunction,ComponentPad*%
%ADD51C,1.52400*%
G04:AMPARAMS|DCode=52|XSize=1mm|YSize=1.8mm|CornerRadius=0.5mm|HoleSize=0mm|Usage=FLASHONLY|Rotation=180.000|XOffset=0mm|YOffset=0mm|HoleType=Round|Shape=RoundedRectangle|*
%AMROUNDEDRECTD52*
21,1,1.00000,0.80000,0,0,180.0*
21,1,0.00000,1.80000,0,0,180.0*
1,1,1.00000,0.00000,0.40000*
1,1,1.00000,0.00000,0.40000*
1,1,1.00000,0.00000,-0.40000*
1,1,1.00000,0.00000,-0.40000*
%
%ADD52ROUNDEDRECTD52*%
G04:AMPARAMS|DCode=53|XSize=1mm|YSize=2.2mm|CornerRadius=0.5mm|HoleSize=0mm|Usage=FLASHONLY|Rotation=180.000|XOffset=0mm|YOffset=0mm|HoleType=Round|Shape=RoundedRectangle|*
%AMROUNDEDRECTD53*
21,1,1.00000,1.20000,0,0,180.0*
21,1,0.00000,2.20000,0,0,180.0*
1,1,1.00000,0.00000,0.60000*
1,1,1.00000,0.00000,0.60000*
1,1,1.00000,0.00000,-0.60000*
1,1,1.00000,0.00000,-0.60000*
%
%ADD53ROUNDEDRECTD53*%
%ADD54C,1.05000*%
%TA.AperFunction,ViaPad*%
%ADD55C,0.50000*%
%ADD56C,0.40000*%
%ADD57C,0.25000*%
%ADD58C,0.30000*%
G36*
X3030000Y0D02*
X0D01*
Y3000000D01*
X3030000D01*
Y0D01*
D02*
G37*
%LPC*%
G36*
X1700721Y2956176D02*
X1677310Y2951519D01*
X1657464Y2938258D01*
X1644202Y2918411D01*
X1639546Y2895000D01*
Y2775000D01*
X1644202Y2751589D01*
X1657464Y2731743D01*
X1677310Y2718481D01*
X1700721Y2713825D01*
X1724132Y2718481D01*
X1743979Y2731743D01*
X1757240Y2751589D01*
X1761897Y2775000D01*
Y2895000D01*
X1757240Y2918411D01*
X1743979Y2938258D01*
X1724132Y2951519D01*
X1700721Y2956176D01*
D02*
G37*
G36*
X836721D02*
X813311Y2951519D01*
X793464Y2938258D01*
X780203Y2918411D01*
X775546Y2895000D01*
Y2775000D01*
X780203Y2751589D01*
X793464Y2731743D01*
X813311Y2718481D01*
X836721Y2713825D01*
X860132Y2718481D01*
X879979Y2731743D01*
X893240Y2751589D01*
X897897Y2775000D01*
Y2895000D01*
X893240Y2918411D01*
X879979Y2938258D01*
X860132Y2951519D01*
X836721Y2956176D01*
D02*
G37*
G36*
X2885171Y2673521D02*
X2871247D01*
X2858383Y2668193D01*
X2848537Y2658347D01*
X2843209Y2645483D01*
Y2631559D01*
X2848537Y2618695D01*
X2858383Y2608849D01*
X2871247Y2603521D01*
X2885171D01*
X2898035Y2608849D01*
X2907880Y2618695D01*
X2913209Y2631559D01*
Y2645483D01*
X2907880Y2658347D01*
X2898035Y2668193D01*
X2885171Y2673521D01*
D02*
G37*
G36*
X2760672Y2663210D02*
X2746749D01*
X2733885Y2657881D01*
X2724039Y2648036D01*
X2718711Y2635172D01*
Y2621248D01*
X2724039Y2608384D01*
X2733885Y2598538D01*
X2746749Y2593210D01*
X2760672D01*
X2773536Y2598538D01*
X2783382Y2608384D01*
X2788710Y2621248D01*
Y2635172D01*
X2783382Y2648036D01*
X2773536Y2657881D01*
X2760672Y2663210D01*
D02*
G37*
G36*
X1135892Y2648496D02*
X1121968D01*
X1109104Y2643167D01*
X1099258Y2633322D01*
X1093930Y2620458D01*
Y2606534D01*
X1099258Y2593670D01*
X1109104Y2583824D01*
X1121968Y2578496D01*
X1135892D01*
X1148756Y2583824D01*
X1158601Y2593670D01*
X1163930Y2606534D01*
Y2620458D01*
X1158601Y2633322D01*
X1148756Y2643167D01*
X1135892Y2648496D01*
D02*
G37*
G36*
X1240904Y2600668D02*
X1226981D01*
X1214116Y2595340D01*
X1204271Y2585494D01*
X1198942Y2572630D01*
Y2558706D01*
X1204271Y2545842D01*
X1214116Y2535997D01*
X1226981Y2530668D01*
X1240904D01*
X1253768Y2535997D01*
X1263614Y2545842D01*
X1268942Y2558706D01*
Y2572630D01*
X1263614Y2585494D01*
X1253768Y2595340D01*
X1240904Y2600668D01*
D02*
G37*
G36*
X497476Y2496673D02*
X485541D01*
X474515Y2492106D01*
X466076Y2483666D01*
X461508Y2472640D01*
Y2460705D01*
X466076Y2449679D01*
X474515Y2441240D01*
X485541Y2436673D01*
X497476D01*
X508502Y2441240D01*
X516941Y2449679D01*
X521508Y2460705D01*
Y2472640D01*
X516941Y2483666D01*
X508502Y2492106D01*
X497476Y2496673D01*
D02*
G37*
G36*
X406665Y2445356D02*
X392742D01*
X379878Y2440027D01*
X370032Y2430182D01*
X364704Y2417318D01*
Y2403394D01*
X370032Y2390530D01*
X379878Y2380684D01*
X392742Y2375356D01*
X406665D01*
X419530Y2380684D01*
X429375Y2390530D01*
X434703Y2403394D01*
Y2417318D01*
X429375Y2430182D01*
X419530Y2440027D01*
X406665Y2445356D01*
D02*
G37*
G36*
X2770855Y2383080D02*
Y2346488D01*
X2807447D01*
X2800882Y2362337D01*
X2786704Y2376515D01*
X2770855Y2383080D01*
D02*
G37*
G36*
X2745455D02*
X2729606Y2376515D01*
X2715428Y2362337D01*
X2708863Y2346488D01*
X2745455D01*
Y2383080D01*
D02*
G37*
G36*
X1700721Y2536176D02*
X1677310Y2531519D01*
X1657464Y2518258D01*
X1644202Y2498411D01*
X1639546Y2475000D01*
Y2395000D01*
X1644202Y2371589D01*
X1657464Y2351743D01*
X1677310Y2338481D01*
X1700721Y2333825D01*
X1724132Y2338481D01*
X1743979Y2351743D01*
X1757240Y2371589D01*
X1761897Y2395000D01*
Y2475000D01*
X1757240Y2498411D01*
X1743979Y2518258D01*
X1724132Y2531519D01*
X1700721Y2536176D01*
D02*
G37*
G36*
X836721D02*
X813311Y2531519D01*
X793464Y2518258D01*
X780203Y2498411D01*
X775546Y2475000D01*
Y2395000D01*
X780203Y2371589D01*
X793464Y2351743D01*
X813311Y2338481D01*
X836721Y2333825D01*
X860132Y2338481D01*
X879979Y2351743D01*
X893240Y2371589D01*
X897897Y2395000D01*
Y2475000D01*
X893240Y2498411D01*
X879979Y2518258D01*
X860132Y2531519D01*
X836721Y2536176D01*
D02*
G37*
G36*
X2807447Y2321088D02*
X2770855D01*
Y2284496D01*
X2786704Y2291061D01*
X2800882Y2305239D01*
X2807447Y2321088D01*
D02*
G37*
G36*
X2745455D02*
X2708863D01*
X2715428Y2305239D01*
X2729606Y2291061D01*
X2745455Y2284496D01*
Y2321088D01*
D02*
G37*
G36*
X847669Y2298058D02*
Y2261466D01*
X884261D01*
X877696Y2277315D01*
X863518Y2291492D01*
X847669Y2298058D01*
D02*
G37*
G36*
X822269D02*
X806420Y2291492D01*
X792242Y2277315D01*
X785677Y2261466D01*
X822269D01*
Y2298058D01*
D02*
G37*
G36*
X884261Y2236066D02*
X847669D01*
Y2199474D01*
X863518Y2206039D01*
X877696Y2220216D01*
X884261Y2236066D01*
D02*
G37*
G36*
X822269D02*
X785677D01*
X792242Y2220216D01*
X806420Y2206039D01*
X822269Y2199474D01*
Y2236066D01*
D02*
G37*
G36*
X1585283Y2243953D02*
X1571359D01*
X1558495Y2238624D01*
X1548650Y2228779D01*
X1543321Y2215915D01*
Y2201991D01*
X1548650Y2189127D01*
X1558495Y2179281D01*
X1571359Y2173953D01*
X1585283D01*
X1598147Y2179281D01*
X1607993Y2189127D01*
X1613321Y2201991D01*
Y2215915D01*
X1607993Y2228779D01*
X1598147Y2238624D01*
X1585283Y2243953D01*
D02*
G37*
G36*
X723867Y2243732D02*
X709943D01*
X697079Y2238403D01*
X687234Y2228558D01*
X681905Y2215694D01*
Y2201770D01*
X687234Y2188906D01*
X697079Y2179060D01*
X709943Y2173732D01*
X723867D01*
X736731Y2179060D01*
X746577Y2188906D01*
X751905Y2201770D01*
Y2215694D01*
X746577Y2228558D01*
X736731Y2238403D01*
X723867Y2243732D01*
D02*
G37*
G36*
X2157259Y2183811D02*
Y2147219D01*
X2193851D01*
X2187285Y2163069D01*
X2173108Y2177246D01*
X2157259Y2183811D01*
D02*
G37*
G36*
X2131859D02*
X2116009Y2177246D01*
X2101832Y2163069D01*
X2095267Y2147219D01*
X2131859D01*
Y2183811D01*
D02*
G37*
G36*
X1227725Y2213339D02*
X1213801D01*
X1200937Y2208011D01*
X1191092Y2198166D01*
X1185763Y2185301D01*
Y2171378D01*
X1191092Y2158514D01*
X1200937Y2148668D01*
X1213801Y2143340D01*
X1227725D01*
X1240589Y2148668D01*
X1250435Y2158514D01*
X1255763Y2171378D01*
Y2185301D01*
X1250435Y2198166D01*
X1240589Y2208011D01*
X1227725Y2213339D01*
D02*
G37*
G36*
X1638862Y2181626D02*
X1624938D01*
X1612074Y2176298D01*
X1602229Y2166452D01*
X1596900Y2153588D01*
Y2139664D01*
X1602229Y2126800D01*
X1612074Y2116955D01*
X1624938Y2111626D01*
X1638862D01*
X1651726Y2116955D01*
X1661572Y2126800D01*
X1666900Y2139664D01*
Y2153588D01*
X1661572Y2166452D01*
X1651726Y2176298D01*
X1638862Y2181626D01*
D02*
G37*
G36*
X2193851Y2121819D02*
X2157259D01*
Y2085227D01*
X2173108Y2091793D01*
X2187285Y2105970D01*
X2193851Y2121819D01*
D02*
G37*
G36*
X2131859D02*
X2095267D01*
X2101832Y2105970D01*
X2116009Y2091793D01*
X2131859Y2085227D01*
Y2121819D01*
D02*
G37*
G36*
X366390Y2148191D02*
X352467D01*
X339603Y2142863D01*
X329757Y2133017D01*
X324429Y2120153D01*
Y2106229D01*
X329757Y2093365D01*
X339603Y2083520D01*
X352467Y2078191D01*
X366390D01*
X379255Y2083520D01*
X389100Y2093365D01*
X394428Y2106229D01*
Y2120153D01*
X389100Y2133017D01*
X379255Y2142863D01*
X366390Y2148191D01*
D02*
G37*
G36*
X476962Y2115000D02*
X463038D01*
X450174Y2109671D01*
X440329Y2099826D01*
X435000Y2086962D01*
Y2073038D01*
X440329Y2060174D01*
X450174Y2050328D01*
X463038Y2045000D01*
X476962D01*
X489826Y2050328D01*
X499672Y2060174D01*
X505000Y2073038D01*
Y2086962D01*
X499672Y2099826D01*
X489826Y2109671D01*
X476962Y2115000D01*
D02*
G37*
G36*
X278253Y2090349D02*
X264329D01*
X251465Y2085020D01*
X241620Y2075175D01*
X236291Y2062311D01*
Y2048387D01*
X241620Y2035523D01*
X251465Y2025677D01*
X264329Y2020349D01*
X278253D01*
X291117Y2025677D01*
X300963Y2035523D01*
X306291Y2048387D01*
Y2062311D01*
X300963Y2075175D01*
X291117Y2085020D01*
X278253Y2090349D01*
D02*
G37*
G36*
X970692Y2048906D02*
X956769D01*
X943905Y2043578D01*
X934059Y2033732D01*
X928731Y2020868D01*
Y2006944D01*
X934059Y1994080D01*
X943905Y1984235D01*
X956769Y1978906D01*
X970692D01*
X983557Y1984235D01*
X993402Y1994080D01*
X998731Y2006944D01*
Y2020868D01*
X993402Y2033732D01*
X983557Y2043578D01*
X970692Y2048906D01*
D02*
G37*
G36*
X841014Y2045512D02*
X827090D01*
X814226Y2040183D01*
X804381Y2030338D01*
X799052Y2017473D01*
Y2003550D01*
X804381Y1990686D01*
X814226Y1980840D01*
X827090Y1975512D01*
X841014D01*
X853878Y1980840D01*
X863724Y1990686D01*
X869052Y2003550D01*
Y2017473D01*
X863724Y2030338D01*
X853878Y2040183D01*
X841014Y2045512D01*
D02*
G37*
G36*
X2759747Y2012414D02*
X2745823D01*
X2732959Y2007086D01*
X2723113Y1997240D01*
X2717785Y1984376D01*
Y1970452D01*
X2723113Y1957588D01*
X2732959Y1947743D01*
X2745823Y1942414D01*
X2759747D01*
X2772611Y1947743D01*
X2782456Y1957588D01*
X2787785Y1970452D01*
Y1984376D01*
X2782456Y1997240D01*
X2772611Y2007086D01*
X2759747Y2012414D01*
D02*
G37*
G36*
X1997770Y2003324D02*
X1983846D01*
X1970982Y1997996D01*
X1961136Y1988150D01*
X1955808Y1975286D01*
Y1961363D01*
X1961136Y1948499D01*
X1970982Y1938653D01*
X1983846Y1933325D01*
X1997770D01*
X2010634Y1938653D01*
X2020479Y1948499D01*
X2025808Y1961363D01*
Y1975286D01*
X2020479Y1988150D01*
X2010634Y1997996D01*
X1997770Y2003324D01*
D02*
G37*
G36*
X412339Y1977157D02*
X398415D01*
X385551Y1971828D01*
X375705Y1961983D01*
X370377Y1949119D01*
Y1935195D01*
X375705Y1922331D01*
X385551Y1912485D01*
X398415Y1907157D01*
X412339D01*
X425203Y1912485D01*
X435048Y1922331D01*
X440377Y1935195D01*
Y1949119D01*
X435048Y1961983D01*
X425203Y1971828D01*
X412339Y1977157D01*
D02*
G37*
G36*
X1716501Y1992121D02*
X1704566D01*
X1693540Y1987554D01*
X1685101Y1979115D01*
X1680534Y1968089D01*
Y1956154D01*
X1685101Y1945127D01*
X1693540Y1936688D01*
X1702790Y1932857D01*
X1703813Y1930862D01*
X1704859Y1926825D01*
X1705120Y1922121D01*
X1698781Y1915783D01*
X1694214Y1904757D01*
Y1892822D01*
X1698781Y1881796D01*
X1707220Y1873356D01*
X1718247Y1868789D01*
X1730181D01*
X1741208Y1873356D01*
X1749647Y1881796D01*
X1754214Y1892822D01*
Y1904757D01*
X1749647Y1915783D01*
X1741208Y1924222D01*
X1731958Y1928053D01*
X1730935Y1930048D01*
X1729889Y1934085D01*
X1729628Y1938789D01*
X1735966Y1945127D01*
X1740533Y1956154D01*
Y1968089D01*
X1735966Y1979115D01*
X1727527Y1987554D01*
X1716501Y1992121D01*
D02*
G37*
G36*
X548161Y1901091D02*
X534237D01*
X521373Y1895763D01*
X511528Y1885917D01*
X506199Y1873053D01*
Y1859129D01*
X511528Y1846265D01*
X521373Y1836420D01*
X534237Y1831091D01*
X548161D01*
X561025Y1836420D01*
X570871Y1846265D01*
X576199Y1859129D01*
Y1873053D01*
X570871Y1885917D01*
X561025Y1895763D01*
X548161Y1901091D01*
D02*
G37*
G36*
X633944Y1896454D02*
X620020D01*
X607156Y1891126D01*
X597311Y1881280D01*
X591982Y1868416D01*
Y1854492D01*
X597311Y1841628D01*
X607156Y1831783D01*
X620020Y1826454D01*
X633944D01*
X646808Y1831783D01*
X656654Y1841628D01*
X661982Y1854492D01*
Y1868416D01*
X656654Y1881280D01*
X646808Y1891126D01*
X633944Y1896454D01*
D02*
G37*
G36*
X1623959Y1848395D02*
X1610035D01*
X1597171Y1843067D01*
X1587326Y1833221D01*
X1581997Y1820357D01*
Y1806434D01*
X1587326Y1793569D01*
X1597171Y1783724D01*
X1610035Y1778395D01*
X1623959D01*
X1636823Y1783724D01*
X1646669Y1793569D01*
X1651997Y1806434D01*
Y1820357D01*
X1646669Y1833221D01*
X1636823Y1843067D01*
X1623959Y1848395D01*
D02*
G37*
G36*
X742431Y1845833D02*
X728507D01*
X715643Y1840505D01*
X705798Y1830659D01*
X700469Y1817795D01*
Y1803871D01*
X705798Y1791007D01*
X715643Y1781162D01*
X728507Y1775833D01*
X742431D01*
X755295Y1781162D01*
X765141Y1791007D01*
X770469Y1803871D01*
Y1817795D01*
X765141Y1830659D01*
X755295Y1840505D01*
X742431Y1845833D01*
D02*
G37*
G36*
X120978Y1792243D02*
X107055D01*
X94191Y1786915D01*
X84345Y1777069D01*
X79017Y1764205D01*
Y1750281D01*
X84345Y1737417D01*
X94191Y1727572D01*
X107055Y1722243D01*
X120978D01*
X133843Y1727572D01*
X143688Y1737417D01*
X149016Y1750281D01*
Y1764205D01*
X143688Y1777069D01*
X133843Y1786915D01*
X120978Y1792243D01*
D02*
G37*
G36*
X1352508Y1747556D02*
Y1710964D01*
X1389100D01*
X1382535Y1726814D01*
X1368358Y1740991D01*
X1352508Y1747556D01*
D02*
G37*
G36*
X1327108D02*
X1311259Y1740991D01*
X1297081Y1726814D01*
X1290516Y1710964D01*
X1327108D01*
Y1747556D01*
D02*
G37*
G36*
X2151268Y1725370D02*
Y1688778D01*
X2187860D01*
X2181295Y1704627D01*
X2167118Y1718805D01*
X2151268Y1725370D01*
D02*
G37*
G36*
X2125868D02*
X2110019Y1718805D01*
X2095841Y1704627D01*
X2089276Y1688778D01*
X2125868D01*
Y1725370D01*
D02*
G37*
G36*
X2444431Y1749145D02*
X2430507D01*
X2417643Y1743817D01*
X2407798Y1733971D01*
X2402469Y1721107D01*
Y1707183D01*
X2407798Y1694319D01*
X2417643Y1684474D01*
X2430507Y1679145D01*
X2444431D01*
X2457295Y1684474D01*
X2467141Y1694319D01*
X2472469Y1707183D01*
Y1721107D01*
X2467141Y1733971D01*
X2457295Y1743817D01*
X2444431Y1749145D01*
D02*
G37*
G36*
X1327108Y1685564D02*
X1290516D01*
X1293723Y1677824D01*
X1285245Y1672159D01*
X1277798Y1679606D01*
X1264934Y1684935D01*
X1251010D01*
X1238146Y1679606D01*
X1228301Y1669761D01*
X1222972Y1656897D01*
Y1642973D01*
X1228301Y1630109D01*
X1238146Y1620263D01*
X1251010Y1614935D01*
X1264934D01*
X1277798Y1620263D01*
X1287644Y1630109D01*
X1292972Y1642973D01*
Y1656897D01*
X1291002Y1661652D01*
X1299480Y1667316D01*
X1311259Y1655537D01*
X1327108Y1648972D01*
Y1685564D01*
D02*
G37*
G36*
X1389100D02*
X1352508D01*
Y1648972D01*
X1368358Y1655537D01*
X1382535Y1669715D01*
X1389100Y1685564D01*
D02*
G37*
G36*
X1774363Y1737449D02*
X1762428D01*
X1751402Y1732882D01*
X1742962Y1724443D01*
X1738395Y1713417D01*
Y1701482D01*
X1742962Y1690456D01*
X1741400Y1682600D01*
X1732241Y1678806D01*
X1718064Y1664628D01*
X1711498Y1648779D01*
X1810082D01*
X1803517Y1664628D01*
X1789340Y1678806D01*
X1791929Y1688557D01*
X1793828Y1690456D01*
X1798395Y1701482D01*
Y1713417D01*
X1793828Y1724443D01*
X1785389Y1732882D01*
X1774363Y1737449D01*
D02*
G37*
G36*
X863796Y1713256D02*
X849873D01*
X837008Y1707928D01*
X827163Y1698082D01*
X821835Y1685218D01*
Y1671295D01*
X827163Y1658431D01*
X837008Y1648585D01*
X849873Y1643257D01*
X863796D01*
X876660Y1648585D01*
X886506Y1658431D01*
X891834Y1671295D01*
Y1685218D01*
X886506Y1698082D01*
X876660Y1707928D01*
X863796Y1713256D01*
D02*
G37*
G36*
X2187860Y1663378D02*
X2151268D01*
Y1626786D01*
X2167118Y1633351D01*
X2181295Y1647529D01*
X2187860Y1663378D01*
D02*
G37*
G36*
X2125868D02*
X2089276D01*
X2095841Y1647529D01*
X2110019Y1633351D01*
X2125868Y1626786D01*
Y1663378D01*
D02*
G37*
G36*
X1810082Y1623379D02*
X1773490D01*
Y1586787D01*
X1789340Y1593352D01*
X1803517Y1607530D01*
X1810082Y1623379D01*
D02*
G37*
G36*
X1748090D02*
X1711498D01*
X1718064Y1607530D01*
X1732241Y1593352D01*
X1748090Y1586787D01*
Y1623379D01*
D02*
G37*
G36*
X403220Y1634131D02*
X389296D01*
X376432Y1628803D01*
X366586Y1618957D01*
X361258Y1606093D01*
Y1592169D01*
X366586Y1579305D01*
X376432Y1569460D01*
X389296Y1564131D01*
X403220D01*
X416084Y1569460D01*
X425929Y1579305D01*
X431258Y1592169D01*
Y1606093D01*
X425929Y1618957D01*
X416084Y1628803D01*
X403220Y1634131D01*
D02*
G37*
G36*
X601372Y1633558D02*
X587448D01*
X574584Y1628230D01*
X564739Y1618384D01*
X559410Y1605520D01*
Y1591597D01*
X564739Y1578732D01*
X574584Y1568887D01*
X587448Y1563558D01*
X601372D01*
X614236Y1568887D01*
X624082Y1578732D01*
X629410Y1591597D01*
Y1605520D01*
X624082Y1618384D01*
X614236Y1628230D01*
X601372Y1633558D01*
D02*
G37*
G36*
X501723Y1632986D02*
X487799D01*
X474935Y1627657D01*
X465090Y1617812D01*
X459761Y1604948D01*
Y1591024D01*
X465090Y1578160D01*
X474935Y1568314D01*
X487799Y1562986D01*
X501723D01*
X514587Y1568314D01*
X524433Y1578160D01*
X529761Y1591024D01*
Y1604948D01*
X524433Y1617812D01*
X514587Y1627657D01*
X501723Y1632986D01*
D02*
G37*
G36*
X2916051Y1635320D02*
X2904116D01*
X2893090Y1630753D01*
X2884651Y1622313D01*
X2880084Y1611287D01*
Y1599352D01*
X2884651Y1588326D01*
X2893090Y1579887D01*
X2904116Y1575320D01*
X2916051D01*
X2919057Y1576565D01*
X2926710Y1568911D01*
X2924823Y1564355D01*
Y1552420D01*
X2929390Y1541394D01*
X2937830Y1532955D01*
X2948856Y1528388D01*
X2960791D01*
X2971817Y1532955D01*
X2980256Y1541394D01*
X2984823Y1552420D01*
Y1564355D01*
X2980256Y1575381D01*
X2971817Y1583821D01*
X2960791Y1588388D01*
X2948856D01*
X2945850Y1587143D01*
X2938196Y1594797D01*
X2940084Y1599352D01*
Y1611287D01*
X2935516Y1622313D01*
X2927077Y1630753D01*
X2916051Y1635320D01*
D02*
G37*
G36*
X1247173Y1530828D02*
Y1494236D01*
X1283765D01*
X1277200Y1510086D01*
X1263023Y1524263D01*
X1247173Y1530828D01*
D02*
G37*
G36*
X1221773D02*
X1205924Y1524263D01*
X1191746Y1510086D01*
X1185181Y1494236D01*
X1221773D01*
Y1530828D01*
D02*
G37*
G36*
X858134Y1513634D02*
Y1477042D01*
X894726D01*
X888161Y1492892D01*
X873984Y1507069D01*
X858134Y1513634D01*
D02*
G37*
G36*
X832734D02*
X816885Y1507069D01*
X802708Y1492892D01*
X796142Y1477042D01*
X832734D01*
Y1513634D01*
D02*
G37*
G36*
X2906739Y1532898D02*
X2894804D01*
X2883778Y1528331D01*
X2875339Y1519892D01*
X2870771Y1508865D01*
Y1496930D01*
X2875339Y1485904D01*
X2883778Y1477465D01*
X2894804Y1472898D01*
X2906739D01*
X2917765Y1477465D01*
X2926204Y1485904D01*
X2930771Y1496930D01*
Y1508865D01*
X2926204Y1519892D01*
X2917765Y1528331D01*
X2906739Y1532898D01*
D02*
G37*
G36*
X399442Y1537427D02*
X385519D01*
X372655Y1532099D01*
X362809Y1522253D01*
X357481Y1509389D01*
Y1495465D01*
X362809Y1482601D01*
X372655Y1472755D01*
X385519Y1467427D01*
X399442D01*
X412307Y1472755D01*
X422152Y1482601D01*
X427480Y1495465D01*
Y1509389D01*
X422152Y1522253D01*
X412307Y1532099D01*
X399442Y1537427D01*
D02*
G37*
G36*
X601945Y1529328D02*
X588021D01*
X575157Y1524000D01*
X565311Y1514154D01*
X559983Y1501290D01*
Y1487366D01*
X565311Y1474502D01*
X575157Y1464657D01*
X588021Y1459328D01*
X601945D01*
X614809Y1464657D01*
X624654Y1474502D01*
X629983Y1487366D01*
Y1501290D01*
X624654Y1514154D01*
X614809Y1524000D01*
X601945Y1529328D01*
D02*
G37*
G36*
X1283765Y1468836D02*
X1247173D01*
Y1432244D01*
X1263023Y1438809D01*
X1277200Y1452987D01*
X1283765Y1468836D01*
D02*
G37*
G36*
X1221773D02*
X1185181D01*
X1191746Y1452987D01*
X1205924Y1438809D01*
X1221773Y1432244D01*
Y1468836D01*
D02*
G37*
G36*
X2349820Y1495516D02*
X2335896D01*
X2323032Y1490188D01*
X2313186Y1480342D01*
X2307858Y1467478D01*
Y1453554D01*
X2313186Y1440690D01*
X2323032Y1430844D01*
X2335896Y1425516D01*
X2349820D01*
X2362684Y1430844D01*
X2372529Y1440690D01*
X2377858Y1453554D01*
Y1467478D01*
X2372529Y1480342D01*
X2362684Y1490188D01*
X2349820Y1495516D01*
D02*
G37*
G36*
X894726Y1451642D02*
X858134D01*
Y1415050D01*
X873984Y1421615D01*
X888161Y1435793D01*
X894726Y1451642D01*
D02*
G37*
G36*
X832734D02*
X796142D01*
X802708Y1435793D01*
X816885Y1421615D01*
X832734Y1415050D01*
Y1451642D01*
D02*
G37*
G36*
X2693703Y1423163D02*
X2677853Y1416598D01*
X2667184Y1405929D01*
X2654518Y1404453D01*
X2653420Y1405551D01*
X2640556Y1410880D01*
X2626632D01*
X2613768Y1405551D01*
X2603922Y1395706D01*
X2598594Y1382842D01*
Y1368918D01*
X2603922Y1356054D01*
X2613768Y1346208D01*
X2626632Y1340880D01*
X2640556D01*
X2653420Y1346208D01*
X2654382Y1347170D01*
X2663676Y1345321D01*
X2677853Y1331144D01*
X2693703Y1324579D01*
Y1373871D01*
Y1423163D01*
D02*
G37*
G36*
X2719103D02*
Y1386571D01*
X2755695D01*
X2749129Y1402420D01*
X2734952Y1416598D01*
X2719103Y1423163D01*
D02*
G37*
G36*
X398865Y1434655D02*
X384941D01*
X372077Y1429327D01*
X362232Y1419481D01*
X356903Y1406617D01*
Y1392693D01*
X362232Y1379829D01*
X372077Y1369984D01*
X384941Y1364655D01*
X398865D01*
X411729Y1369984D01*
X421575Y1379829D01*
X426903Y1392693D01*
Y1406617D01*
X421575Y1419481D01*
X411729Y1429327D01*
X398865Y1434655D01*
D02*
G37*
G36*
X503441Y1428534D02*
X489517D01*
X476653Y1423205D01*
X466808Y1413360D01*
X461479Y1400496D01*
Y1386572D01*
X466808Y1373708D01*
X476653Y1363862D01*
X489517Y1358534D01*
X503441D01*
X516305Y1363862D01*
X526151Y1373708D01*
X531479Y1386572D01*
Y1400496D01*
X526151Y1413360D01*
X516305Y1423205D01*
X503441Y1428534D01*
D02*
G37*
G36*
X603090Y1427961D02*
X589166D01*
X576302Y1422633D01*
X566457Y1412787D01*
X561128Y1399923D01*
Y1386000D01*
X566457Y1373135D01*
X576302Y1363290D01*
X589166Y1357961D01*
X603090D01*
X615954Y1363290D01*
X625800Y1373135D01*
X631128Y1386000D01*
Y1399923D01*
X625800Y1412787D01*
X615954Y1422633D01*
X603090Y1427961D01*
D02*
G37*
G36*
X1664147Y1425920D02*
X1650224D01*
X1637359Y1420591D01*
X1627514Y1410746D01*
X1622185Y1397882D01*
Y1383958D01*
X1627514Y1371094D01*
X1637359Y1361248D01*
X1650224Y1355920D01*
X1664147D01*
X1677011Y1361248D01*
X1686857Y1371094D01*
X1692185Y1383958D01*
Y1397882D01*
X1686857Y1410746D01*
X1677011Y1420591D01*
X1664147Y1425920D01*
D02*
G37*
G36*
X2524396Y1388012D02*
Y1351420D01*
X2560988D01*
X2554422Y1367270D01*
X2540245Y1381447D01*
X2524396Y1388012D01*
D02*
G37*
G36*
X2498996D02*
X2483146Y1381447D01*
X2468969Y1367270D01*
X2462404Y1351420D01*
X2498996D01*
Y1388012D01*
D02*
G37*
G36*
X2951891Y1421199D02*
X2937967D01*
X2925103Y1415871D01*
X2915258Y1406025D01*
X2909929Y1393161D01*
Y1379238D01*
X2915258Y1366373D01*
X2925103Y1356528D01*
X2937967Y1351199D01*
X2951891D01*
X2964755Y1356528D01*
X2974601Y1366373D01*
X2979929Y1379238D01*
Y1393161D01*
X2974601Y1406025D01*
X2964755Y1415871D01*
X2951891Y1421199D01*
D02*
G37*
G36*
X2755695Y1361171D02*
X2719103D01*
Y1324579D01*
X2734952Y1331144D01*
X2749129Y1345322D01*
X2755695Y1361171D01*
D02*
G37*
G36*
X931926Y1394467D02*
X918002D01*
X905138Y1389138D01*
X895292Y1379293D01*
X889964Y1366429D01*
Y1352505D01*
X895292Y1339641D01*
X905138Y1329795D01*
X918002Y1324467D01*
X931926D01*
X944790Y1329795D01*
X954635Y1339641D01*
X959964Y1352505D01*
Y1366429D01*
X954635Y1379293D01*
X944790Y1389138D01*
X931926Y1394467D01*
D02*
G37*
G36*
X2193666Y1379742D02*
X2179742D01*
X2166878Y1374414D01*
X2157032Y1364568D01*
X2151704Y1351704D01*
Y1337780D01*
X2157032Y1324916D01*
X2166878Y1315071D01*
X2179742Y1309742D01*
X2193666D01*
X2206530Y1315071D01*
X2216375Y1324916D01*
X2221704Y1337780D01*
Y1351704D01*
X2216375Y1364568D01*
X2206530Y1374414D01*
X2193666Y1379742D01*
D02*
G37*
G36*
X2955109Y1334496D02*
Y1297904D01*
X2991701D01*
X2985136Y1313754D01*
X2970958Y1327931D01*
X2955109Y1334496D01*
D02*
G37*
G36*
X2929709D02*
X2913860Y1327931D01*
X2899682Y1313754D01*
X2893117Y1297904D01*
X2929709D01*
Y1334496D01*
D02*
G37*
G36*
X2560988Y1326020D02*
X2524396D01*
Y1289428D01*
X2540245Y1295993D01*
X2554422Y1310171D01*
X2560988Y1326020D01*
D02*
G37*
G36*
X2498996D02*
X2462404D01*
X2468969Y1310171D01*
X2483146Y1295993D01*
X2498996Y1289428D01*
Y1326020D01*
D02*
G37*
G36*
X2770810Y1285195D02*
X2761859D01*
X2753590Y1281769D01*
X2752868Y1281047D01*
X2746335Y1276136D01*
X2739802Y1281047D01*
X2739080Y1281769D01*
X2730810Y1285195D01*
X2721859D01*
X2713590Y1281769D01*
X2712868Y1281047D01*
X2706335Y1276136D01*
X2699802Y1281047D01*
X2699080Y1281769D01*
X2690810Y1285195D01*
X2681859D01*
X2673590Y1281769D01*
X2667260Y1275440D01*
X2663835Y1267171D01*
X2659035Y1264002D01*
Y1222695D01*
X2646335D01*
Y1209995D01*
X2610573D01*
X2614205Y1201226D01*
X2624866Y1190565D01*
X2625054Y1190112D01*
X2623835Y1187170D01*
Y1178219D01*
X2627260Y1169950D01*
X2627983Y1169228D01*
X2632894Y1162695D01*
X2627983Y1156162D01*
X2627260Y1155440D01*
X2623835Y1147170D01*
Y1138219D01*
X2627260Y1129950D01*
X2627983Y1129228D01*
X2632894Y1122695D01*
X2627983Y1116162D01*
X2627260Y1115440D01*
X2623835Y1107170D01*
Y1098219D01*
X2627260Y1089950D01*
X2633590Y1083620D01*
X2641859Y1080195D01*
X2650810D01*
X2659080Y1083620D01*
X2659802Y1084343D01*
X2666335Y1089254D01*
X2672868Y1084343D01*
X2673590Y1083620D01*
X2681859Y1080195D01*
X2690810D01*
X2699080Y1083620D01*
X2699802Y1084343D01*
X2706335Y1089254D01*
X2712868Y1084343D01*
X2713590Y1083620D01*
X2721859Y1080195D01*
X2730810D01*
X2739080Y1083620D01*
X2739802Y1084343D01*
X2746335Y1089254D01*
X2752868Y1084343D01*
X2753590Y1083620D01*
X2761859Y1080195D01*
X2770810D01*
X2779080Y1083620D01*
X2785409Y1089950D01*
X2788835Y1098219D01*
Y1107170D01*
X2785409Y1115440D01*
X2784687Y1116162D01*
X2779776Y1122695D01*
X2784687Y1129228D01*
X2785409Y1129950D01*
X2788835Y1138219D01*
Y1147170D01*
X2785409Y1155440D01*
X2784687Y1156162D01*
X2779776Y1162695D01*
X2784687Y1169228D01*
X2785409Y1169950D01*
X2788835Y1178219D01*
Y1187170D01*
X2785409Y1195440D01*
X2784687Y1196162D01*
X2779776Y1202695D01*
X2784687Y1209228D01*
X2785409Y1209950D01*
X2788835Y1218219D01*
Y1227170D01*
X2785409Y1235440D01*
X2784687Y1236162D01*
X2779776Y1242695D01*
X2784687Y1249228D01*
X2785409Y1249950D01*
X2788835Y1258219D01*
Y1267170D01*
X2785409Y1275440D01*
X2779080Y1281769D01*
X2770810Y1285195D01*
D02*
G37*
G36*
X1269772Y1345135D02*
X1255848D01*
X1242984Y1339806D01*
X1233138Y1329961D01*
X1227810Y1317097D01*
Y1303173D01*
X1233138Y1290309D01*
X1242984Y1280463D01*
X1255848Y1275135D01*
X1269772D01*
X1282636Y1280463D01*
X1292481Y1290309D01*
X1297810Y1303173D01*
Y1317097D01*
X1292481Y1329961D01*
X1282636Y1339806D01*
X1269772Y1345135D01*
D02*
G37*
G36*
X2220398Y1278590D02*
Y1241998D01*
X2256990D01*
X2250425Y1257847D01*
X2236247Y1272024D01*
X2220398Y1278590D01*
D02*
G37*
G36*
X2194998D02*
X2179149Y1272024D01*
X2164971Y1257847D01*
X2158406Y1241998D01*
X2194998D01*
Y1278590D01*
D02*
G37*
G36*
X2991701Y1272504D02*
X2955109D01*
Y1235912D01*
X2970958Y1242478D01*
X2985136Y1256655D01*
X2991701Y1272504D01*
D02*
G37*
G36*
X2929709D02*
X2893117D01*
X2899682Y1256655D01*
X2913860Y1242478D01*
X2929709Y1235912D01*
Y1272504D01*
D02*
G37*
G36*
X2633635Y1258457D02*
X2624866Y1254825D01*
X2614205Y1244163D01*
X2610573Y1235395D01*
X2633635D01*
Y1258457D01*
D02*
G37*
G36*
X2256990Y1216598D02*
X2220398D01*
Y1180006D01*
X2236247Y1186571D01*
X2250425Y1200748D01*
X2256990Y1216598D01*
D02*
G37*
G36*
X2194998D02*
X2158406D01*
X2164971Y1200748D01*
X2179149Y1186571D01*
X2194998Y1180006D01*
Y1216598D01*
D02*
G37*
G36*
X2368892Y1296212D02*
X2354968D01*
X2342104Y1290883D01*
X2332259Y1281038D01*
X2326930Y1268174D01*
Y1254250D01*
X2332259Y1241386D01*
X2342104Y1231540D01*
X2354968Y1226212D01*
X2368892D01*
X2378714Y1230280D01*
X2386338Y1223056D01*
X2382269Y1213234D01*
Y1199310D01*
X2387598Y1186446D01*
X2397443Y1176601D01*
X2410307Y1171272D01*
X2424231D01*
X2437095Y1176601D01*
X2446941Y1186446D01*
X2452269Y1199310D01*
Y1213234D01*
X2446941Y1226098D01*
X2437095Y1235944D01*
X2424231Y1241272D01*
X2410307D01*
X2400485Y1237204D01*
X2392862Y1244428D01*
X2396930Y1254250D01*
Y1268174D01*
X2391602Y1281038D01*
X2381756Y1290883D01*
X2368892Y1296212D01*
D02*
G37*
G36*
X1323363Y1234443D02*
X1309439D01*
X1296575Y1229114D01*
X1286729Y1219269D01*
X1281401Y1206405D01*
Y1192481D01*
X1286729Y1179617D01*
X1296575Y1169771D01*
X1309439Y1164443D01*
X1323363D01*
X1336227Y1169771D01*
X1346072Y1179617D01*
X1351401Y1192481D01*
Y1206405D01*
X1346072Y1219269D01*
X1336227Y1229114D01*
X1323363Y1234443D01*
D02*
G37*
G36*
X1581035Y1228114D02*
X1567112D01*
X1554248Y1222785D01*
X1544402Y1212940D01*
X1539074Y1200076D01*
Y1186152D01*
X1544402Y1173288D01*
X1554248Y1163442D01*
X1567112Y1158114D01*
X1581035D01*
X1593900Y1163442D01*
X1603745Y1173288D01*
X1609073Y1186152D01*
Y1200076D01*
X1603745Y1212940D01*
X1593900Y1222785D01*
X1581035Y1228114D01*
D02*
G37*
G36*
X2513366Y1255908D02*
X2503420D01*
X2494231Y1252102D01*
X2487199Y1245069D01*
X2483393Y1235881D01*
Y1225935D01*
X2487199Y1216747D01*
X2494231Y1209714D01*
X2500197Y1207243D01*
X2503933Y1201036D01*
X2504472Y1195908D01*
X2500943Y1187389D01*
Y1175454D01*
X2505511Y1164427D01*
X2513950Y1155988D01*
X2524976Y1151421D01*
X2536911D01*
X2547937Y1155988D01*
X2556376Y1164427D01*
X2560943Y1175454D01*
Y1187389D01*
X2556376Y1198415D01*
X2547937Y1206854D01*
X2537312Y1211255D01*
X2536960Y1211505D01*
X2536788Y1211650D01*
X2531523Y1221421D01*
X2533393Y1225935D01*
Y1235881D01*
X2529587Y1245069D01*
X2522554Y1252102D01*
X2513366Y1255908D01*
D02*
G37*
G36*
X1700716Y1188220D02*
X1686793D01*
X1673929Y1182891D01*
X1664083Y1173046D01*
X1658755Y1160182D01*
Y1146258D01*
X1664083Y1133394D01*
X1673929Y1123548D01*
X1686793Y1118220D01*
X1700716D01*
X1713581Y1123548D01*
X1723426Y1133394D01*
X1728754Y1146258D01*
Y1160182D01*
X1723426Y1173046D01*
X1713581Y1182891D01*
X1700716Y1188220D01*
D02*
G37*
G36*
X545795Y1155768D02*
X531871D01*
X519007Y1150440D01*
X509161Y1140594D01*
X503833Y1127730D01*
Y1113807D01*
X509161Y1100942D01*
X519007Y1091097D01*
X531871Y1085768D01*
X545795D01*
X558659Y1091097D01*
X568504Y1100942D01*
X573833Y1113807D01*
Y1127730D01*
X568504Y1140594D01*
X558659Y1150440D01*
X545795Y1155768D01*
D02*
G37*
G36*
X2445167Y1132689D02*
X2433232D01*
X2422205Y1128122D01*
X2413766Y1119683D01*
X2409199Y1108656D01*
Y1096721D01*
X2413766Y1085695D01*
X2422205Y1077256D01*
X2433232Y1072689D01*
X2445167D01*
X2456193Y1077256D01*
X2464632Y1085695D01*
X2469199Y1096721D01*
Y1108656D01*
X2464632Y1119683D01*
X2456193Y1128122D01*
X2445167Y1132689D01*
D02*
G37*
G36*
X125040Y1128770D02*
X111116D01*
X98252Y1123441D01*
X88406Y1113596D01*
X83078Y1100732D01*
Y1086808D01*
X88406Y1073944D01*
X98252Y1064098D01*
X111116Y1058770D01*
X125040D01*
X137904Y1064098D01*
X147750Y1073944D01*
X153078Y1086808D01*
Y1100732D01*
X147750Y1113596D01*
X137904Y1123441D01*
X125040Y1128770D01*
D02*
G37*
G36*
X2264895Y1121304D02*
X2250972D01*
X2238108Y1115976D01*
X2228262Y1106130D01*
X2222934Y1093266D01*
Y1079342D01*
X2228262Y1066478D01*
X2238108Y1056633D01*
X2250972Y1051304D01*
X2264895D01*
X2277759Y1056633D01*
X2287605Y1066478D01*
X2292933Y1079342D01*
Y1093266D01*
X2287605Y1106130D01*
X2277759Y1115976D01*
X2264895Y1121304D01*
D02*
G37*
G36*
X961382Y1121023D02*
X947459D01*
X934595Y1115695D01*
X924749Y1105849D01*
X919421Y1092985D01*
Y1079061D01*
X924749Y1066197D01*
X934595Y1056352D01*
X947459Y1051023D01*
X961382D01*
X974246Y1056352D01*
X984092Y1066197D01*
X989420Y1079061D01*
Y1092985D01*
X984092Y1105849D01*
X974246Y1115695D01*
X961382Y1121023D01*
D02*
G37*
G36*
X818282Y1119271D02*
X804358D01*
X791494Y1113942D01*
X781649Y1104097D01*
X776320Y1091233D01*
Y1077309D01*
X781649Y1064445D01*
X791494Y1054599D01*
X804358Y1049271D01*
X818282D01*
X831146Y1054599D01*
X840992Y1064445D01*
X846320Y1077309D01*
Y1091233D01*
X840992Y1104097D01*
X831146Y1113942D01*
X818282Y1119271D01*
D02*
G37*
G36*
X334729Y1066603D02*
Y1030011D01*
X371321D01*
X364756Y1045860D01*
X350578Y1060038D01*
X334729Y1066603D01*
D02*
G37*
G36*
X309329D02*
X293479Y1060038D01*
X279302Y1045860D01*
X272737Y1030011D01*
X309329D01*
Y1066603D01*
D02*
G37*
G36*
X2510521Y1081902D02*
X2498586D01*
X2487560Y1077335D01*
X2479121Y1068896D01*
X2474553Y1057870D01*
Y1045935D01*
X2479121Y1034909D01*
X2487560Y1026469D01*
X2498586Y1021902D01*
X2510521D01*
X2521547Y1026469D01*
X2529986Y1034909D01*
X2534553Y1045935D01*
Y1057870D01*
X2529986Y1068896D01*
X2521547Y1077335D01*
X2510521Y1081902D01*
D02*
G37*
G36*
X1703210Y1086824D02*
X1689286D01*
X1676422Y1081495D01*
X1666576Y1071650D01*
X1661248Y1058786D01*
Y1044862D01*
X1666576Y1031998D01*
X1676422Y1022152D01*
X1689286Y1016824D01*
X1703210D01*
X1716074Y1022152D01*
X1725919Y1031998D01*
X1731248Y1044862D01*
Y1058786D01*
X1725919Y1071650D01*
X1716074Y1081495D01*
X1703210Y1086824D01*
D02*
G37*
G36*
X2324875Y1056223D02*
X2310951D01*
X2298087Y1050895D01*
X2288242Y1041049D01*
X2282913Y1028185D01*
Y1014261D01*
X2288242Y1001397D01*
X2298087Y991551D01*
X2310951Y986223D01*
X2324875D01*
X2337739Y991551D01*
X2347585Y1001397D01*
X2352913Y1014261D01*
Y1028185D01*
X2347585Y1041049D01*
X2337739Y1050895D01*
X2324875Y1056223D01*
D02*
G37*
G36*
X976867Y1034281D02*
X962944D01*
X950080Y1028953D01*
X940234Y1019107D01*
X934906Y1006243D01*
Y992319D01*
X940234Y979455D01*
X950080Y969610D01*
X962944Y964281D01*
X976867D01*
X989732Y969610D01*
X999577Y979455D01*
X1004906Y992319D01*
Y1006243D01*
X999577Y1019107D01*
X989732Y1028953D01*
X976867Y1034281D01*
D02*
G37*
G36*
X371321Y1004611D02*
X272737D01*
X279302Y988762D01*
X286852Y981211D01*
X278722Y973080D01*
X272156Y957231D01*
X370740D01*
X364175Y973080D01*
X356625Y980631D01*
X364756Y988762D01*
X371321Y1004611D01*
D02*
G37*
G36*
X2520422Y989915D02*
X2506499D01*
X2493635Y984587D01*
X2483789Y974741D01*
X2478461Y961877D01*
Y947953D01*
X2483789Y935089D01*
X2493635Y925244D01*
X2506499Y919915D01*
X2520422D01*
X2533287Y925244D01*
X2543132Y935089D01*
X2548460Y947953D01*
Y961877D01*
X2543132Y974741D01*
X2533287Y984587D01*
X2520422Y989915D01*
D02*
G37*
G36*
X370740Y931831D02*
X272156D01*
X278722Y915982D01*
X285707Y908996D01*
X281270Y904559D01*
X274705Y888709D01*
X373289D01*
X366723Y904559D01*
X359738Y911544D01*
X364175Y915982D01*
X370740Y931831D01*
D02*
G37*
G36*
X1969453Y938734D02*
X1955529D01*
X1942665Y933405D01*
X1932819Y923560D01*
X1927491Y910696D01*
Y896772D01*
X1932819Y883908D01*
X1935047Y881680D01*
X1929192Y874105D01*
X1916328Y879434D01*
X1902404D01*
X1889540Y874105D01*
X1879695Y864260D01*
X1874366Y851396D01*
Y837472D01*
X1879695Y824608D01*
X1889540Y814762D01*
X1902404Y809434D01*
X1916328D01*
X1929192Y814762D01*
X1939038Y824608D01*
X1944366Y837472D01*
Y851396D01*
X1939038Y864260D01*
X1936810Y866487D01*
X1942665Y874062D01*
X1955529Y868734D01*
X1969453D01*
X1982317Y874062D01*
X1992162Y883908D01*
X1997491Y896772D01*
Y910696D01*
X1992162Y923560D01*
X1982317Y933405D01*
X1969453Y938734D01*
D02*
G37*
G36*
X2410658Y995669D02*
X2396735D01*
X2383871Y990341D01*
X2374025Y980495D01*
X2368697Y967631D01*
Y953707D01*
X2374025Y940843D01*
X2383871Y930998D01*
X2396735Y925669D01*
X2400464D01*
X2404606Y915669D01*
X2401626Y912689D01*
X2396297Y899825D01*
Y885901D01*
X2401626Y873037D01*
X2411471Y863192D01*
X2424335Y857863D01*
X2438259D01*
X2451123Y863192D01*
X2460969Y873037D01*
X2466297Y885901D01*
Y899825D01*
X2460969Y912689D01*
X2451123Y922535D01*
X2438259Y927863D01*
X2434530D01*
X2430388Y937863D01*
X2433368Y940843D01*
X2438696Y953707D01*
Y967631D01*
X2433368Y980495D01*
X2423522Y990341D01*
X2410658Y995669D01*
D02*
G37*
G36*
X217679Y928652D02*
X37339D01*
X29685Y925482D01*
X26515Y917828D01*
Y849248D01*
X29685Y841594D01*
X37339Y838424D01*
X217679D01*
X225332Y841594D01*
X228502Y849248D01*
Y917828D01*
X225332Y925482D01*
X217679Y928652D01*
D02*
G37*
G36*
X566944Y1031814D02*
X498364D01*
X490710Y1028644D01*
X487540Y1020990D01*
Y840650D01*
X490710Y832997D01*
X498364Y829826D01*
X566944D01*
X574598Y832997D01*
X577768Y840650D01*
Y1020990D01*
X574598Y1028644D01*
X566944Y1031814D01*
D02*
G37*
G36*
X373289Y863309D02*
X336697D01*
Y826717D01*
X352546Y833283D01*
X366723Y847460D01*
X373289Y863309D01*
D02*
G37*
G36*
X311297D02*
X274705D01*
X281270Y847460D01*
X295447Y833283D01*
X311297Y826717D01*
Y863309D01*
D02*
G37*
G36*
X2663552Y856571D02*
Y819979D01*
X2700144D01*
X2693579Y835829D01*
X2679401Y850006D01*
X2663552Y856571D01*
D02*
G37*
G36*
X2638152D02*
X2622302Y850006D01*
X2608125Y835829D01*
X2601560Y819979D01*
X2638152D01*
Y856571D01*
D02*
G37*
G36*
X1479203Y845013D02*
Y808421D01*
X1515795D01*
X1509230Y824270D01*
X1495052Y838448D01*
X1479203Y845013D01*
D02*
G37*
G36*
X1453803D02*
X1437953Y838448D01*
X1423776Y824270D01*
X1417211Y808421D01*
X1453803D01*
Y845013D01*
D02*
G37*
G36*
X2762146Y860297D02*
X2748222D01*
X2735358Y854969D01*
X2725512Y845124D01*
X2720184Y832259D01*
Y818336D01*
X2725512Y805472D01*
X2735358Y795626D01*
X2748222Y790298D01*
X2762146D01*
X2775010Y795626D01*
X2784855Y805472D01*
X2790184Y818336D01*
Y832259D01*
X2784855Y845124D01*
X2775010Y854969D01*
X2762146Y860297D01*
D02*
G37*
G36*
X1354367Y816130D02*
X1340444D01*
X1327580Y810801D01*
X1317734Y800956D01*
X1312406Y788092D01*
Y784777D01*
X1302520Y780520D01*
X1286671Y787086D01*
Y737794D01*
Y688502D01*
X1302520Y695067D01*
X1316698Y709244D01*
X1324371Y727768D01*
Y741963D01*
X1333957Y748816D01*
X1340444Y746130D01*
X1354367D01*
X1367231Y751458D01*
X1377077Y761304D01*
X1382405Y774168D01*
Y788092D01*
X1377077Y800956D01*
X1367231Y810801D01*
X1354367Y816130D01*
D02*
G37*
G36*
X1038382Y848420D02*
X1024458D01*
X1011594Y843092D01*
X1001748Y833246D01*
X996420Y820382D01*
Y806458D01*
X1001748Y793594D01*
X1011594Y783749D01*
X1024458Y778420D01*
X1038382D01*
X1051246Y783749D01*
X1061091Y793594D01*
X1066420Y806458D01*
Y820382D01*
X1061091Y833246D01*
X1051246Y843092D01*
X1038382Y848420D01*
D02*
G37*
G36*
X2700144Y794579D02*
X2663552D01*
Y757987D01*
X2679401Y764552D01*
X2693579Y778730D01*
X2700144Y794579D01*
D02*
G37*
G36*
X2638152D02*
X2601560D01*
X2608125Y778730D01*
X2622302Y764552D01*
X2638152Y757987D01*
Y794579D01*
D02*
G37*
G36*
X1261271Y787086D02*
X1245421Y780520D01*
X1231244Y766343D01*
X1224679Y750494D01*
X1261271D01*
Y787086D01*
D02*
G37*
G36*
X1515795Y783021D02*
X1479203D01*
Y746429D01*
X1495052Y752994D01*
X1509230Y767172D01*
X1515795Y783021D01*
D02*
G37*
G36*
X1453803D02*
X1417211D01*
X1423776Y767172D01*
X1437953Y752994D01*
X1453803Y746429D01*
Y783021D01*
D02*
G37*
G36*
X338406Y785270D02*
X324482D01*
X311618Y779942D01*
X301773Y770097D01*
X296444Y757232D01*
Y743309D01*
X301773Y730445D01*
X311618Y720599D01*
X324482Y715271D01*
X338406D01*
X351270Y720599D01*
X361116Y730445D01*
X366444Y743309D01*
Y757232D01*
X361116Y770097D01*
X351270Y779942D01*
X338406Y785270D01*
D02*
G37*
G36*
X728321Y784850D02*
X714397D01*
X701533Y779522D01*
X691687Y769676D01*
X686359Y756812D01*
Y742889D01*
X691687Y730024D01*
X701533Y720179D01*
X714397Y714850D01*
X728321D01*
X741185Y720179D01*
X751031Y730024D01*
X756359Y742889D01*
Y756812D01*
X751031Y769676D01*
X741185Y779522D01*
X728321Y784850D01*
D02*
G37*
G36*
X2653940Y745588D02*
Y708996D01*
X2690532D01*
X2683967Y724845D01*
X2669790Y739023D01*
X2653940Y745588D01*
D02*
G37*
G36*
X2628540D02*
X2612691Y739023D01*
X2598513Y724845D01*
X2591948Y708996D01*
X2628540D01*
Y745588D01*
D02*
G37*
G36*
X1261271Y725094D02*
X1224679D01*
X1231244Y709244D01*
X1245421Y695067D01*
X1261271Y688502D01*
Y725094D01*
D02*
G37*
G36*
X1654896Y749643D02*
X1640972D01*
X1628108Y744314D01*
X1618263Y734469D01*
X1612934Y721605D01*
Y707681D01*
X1618263Y694817D01*
X1628108Y684971D01*
X1640972Y679643D01*
X1654896D01*
X1667760Y684971D01*
X1677606Y694817D01*
X1682934Y707681D01*
Y721605D01*
X1677606Y734469D01*
X1667760Y744314D01*
X1654896Y749643D01*
D02*
G37*
G36*
X2987046Y739834D02*
X2973122D01*
X2960258Y734506D01*
X2950412Y724660D01*
X2945084Y711796D01*
Y697872D01*
X2950412Y685008D01*
X2960258Y675163D01*
X2973122Y669834D01*
X2987046D01*
X2999910Y675163D01*
X3009755Y685008D01*
X3015084Y697872D01*
Y711796D01*
X3009755Y724660D01*
X2999910Y734506D01*
X2987046Y739834D01*
D02*
G37*
G36*
X2172450Y739016D02*
X2158526D01*
X2145662Y733687D01*
X2135817Y723842D01*
X2130488Y710977D01*
Y697054D01*
X2135817Y684190D01*
X2145662Y674344D01*
X2158526Y669016D01*
X2172450D01*
X2185314Y674344D01*
X2195160Y684190D01*
X2200488Y697054D01*
Y710977D01*
X2195160Y723842D01*
X2185314Y733687D01*
X2172450Y739016D01*
D02*
G37*
G36*
X2858656Y737769D02*
X2844732D01*
X2831868Y732441D01*
X2822023Y722595D01*
X2816694Y709731D01*
Y695808D01*
X2822023Y682944D01*
X2831868Y673098D01*
X2844732Y667770D01*
X2858656D01*
X2871520Y673098D01*
X2881366Y682944D01*
X2886694Y695808D01*
Y709731D01*
X2881366Y722595D01*
X2871520Y732441D01*
X2858656Y737769D01*
D02*
G37*
G36*
X2690532Y683596D02*
X2653940D01*
Y647004D01*
X2669790Y653569D01*
X2683967Y667747D01*
X2690532Y683596D01*
D02*
G37*
G36*
X2628540D02*
X2591948D01*
X2598513Y667747D01*
X2612691Y653569D01*
X2628540Y647004D01*
Y683596D01*
D02*
G37*
G36*
X1750423Y713229D02*
X1736500D01*
X1723636Y707900D01*
X1713790Y698055D01*
X1708462Y685191D01*
Y671267D01*
X1713790Y658403D01*
X1723636Y648557D01*
X1736500Y643229D01*
X1750423D01*
X1763288Y648557D01*
X1773133Y658403D01*
X1778462Y671267D01*
Y685191D01*
X1773133Y698055D01*
X1763288Y707900D01*
X1750423Y713229D01*
D02*
G37*
G36*
X877279Y642947D02*
Y606355D01*
X913871D01*
X907306Y622204D01*
X893129Y636382D01*
X877279Y642947D01*
D02*
G37*
G36*
X851879D02*
X836030Y636382D01*
X821852Y622204D01*
X815287Y606355D01*
X851879D01*
Y642947D01*
D02*
G37*
G36*
X579861Y651878D02*
X565937D01*
X553073Y646550D01*
X543228Y636704D01*
X537899Y623840D01*
Y609916D01*
X543228Y597052D01*
X553073Y587207D01*
X565937Y581878D01*
X579861D01*
X592725Y587207D01*
X602571Y597052D01*
X607899Y609916D01*
Y623840D01*
X602571Y636704D01*
X592725Y646550D01*
X579861Y651878D01*
D02*
G37*
G36*
X913871Y580955D02*
X877279D01*
Y544363D01*
X893129Y550928D01*
X907306Y565105D01*
X913871Y580955D01*
D02*
G37*
G36*
X851879D02*
X815287D01*
X821852Y565105D01*
X836030Y550928D01*
X851879Y544363D01*
Y580955D01*
D02*
G37*
G36*
X252858Y543165D02*
X238934D01*
X226070Y537836D01*
X216224Y527991D01*
X210896Y515126D01*
Y501203D01*
X216224Y488339D01*
X226070Y478493D01*
X238934Y473165D01*
X252858D01*
X265722Y478493D01*
X275567Y488339D01*
X280896Y501203D01*
Y515126D01*
X275567Y527991D01*
X265722Y537836D01*
X252858Y543165D01*
D02*
G37*
G36*
X1383726Y516786D02*
X1366358Y512132D01*
X1348594Y501876D01*
X1334091Y487372D01*
X1323835Y469609D01*
X1319181Y452241D01*
X1383726D01*
Y516786D01*
D02*
G37*
G36*
X1409126D02*
Y439541D01*
Y362296D01*
X1426494Y366949D01*
X1444258Y377205D01*
X1458761Y391709D01*
X1462737Y398595D01*
X1474906Y399672D01*
X1488023Y386556D01*
X1510994Y377041D01*
X1535858D01*
X1558830Y386556D01*
X1576411Y404137D01*
X1581514Y416457D01*
X1592338D01*
X1597441Y404137D01*
X1615022Y386556D01*
X1637994Y377041D01*
X1662858D01*
X1685829Y386556D01*
X1703411Y404137D01*
X1708514Y416457D01*
X1719338D01*
X1724441Y404137D01*
X1742022Y386556D01*
X1764994Y377041D01*
X1789858D01*
X1812829Y386556D01*
X1830411Y404137D01*
X1835514Y416457D01*
X1846338D01*
X1851441Y404137D01*
X1869022Y386556D01*
X1891994Y377041D01*
X1916858D01*
X1939829Y386556D01*
X1957411Y404137D01*
X1966926Y427109D01*
Y451973D01*
X1957411Y474944D01*
X1939829Y492526D01*
X1916858Y502041D01*
X1891994D01*
X1869022Y492526D01*
X1851441Y474944D01*
X1846338Y462624D01*
X1835514D01*
X1830411Y474944D01*
X1812829Y492526D01*
X1789858Y502041D01*
X1764994D01*
X1742022Y492526D01*
X1724441Y474944D01*
X1719338Y462624D01*
X1708514D01*
X1703411Y474944D01*
X1685829Y492526D01*
X1662858Y502041D01*
X1637994D01*
X1615022Y492526D01*
X1597441Y474944D01*
X1592338Y462624D01*
X1581514D01*
X1576411Y474944D01*
X1558830Y492526D01*
X1535858Y502041D01*
X1510994D01*
X1488023Y492526D01*
X1474906Y479409D01*
X1462737Y480486D01*
X1458761Y487372D01*
X1444258Y501876D01*
X1426494Y512132D01*
X1409126Y516786D01*
D02*
G37*
G36*
X1383726Y426841D02*
X1319181D01*
X1323835Y409472D01*
X1334091Y391709D01*
X1348594Y377205D01*
X1366358Y366949D01*
X1383726Y362296D01*
Y426841D01*
D02*
G37*
G36*
X1190846Y359434D02*
Y322842D01*
X1227438D01*
X1220873Y338691D01*
X1206695Y352868D01*
X1190846Y359434D01*
D02*
G37*
G36*
X1165446D02*
X1149596Y352868D01*
X1135419Y338691D01*
X1128854Y322842D01*
X1165446D01*
Y359434D01*
D02*
G37*
G36*
X161874Y307241D02*
Y270649D01*
X198466D01*
X191901Y286499D01*
X177723Y300676D01*
X161874Y307241D01*
D02*
G37*
G36*
X136474D02*
X120625Y300676D01*
X106447Y286499D01*
X99882Y270649D01*
X136474D01*
Y307241D01*
D02*
G37*
G36*
X1227438Y297442D02*
X1190846D01*
Y260850D01*
X1206695Y267415D01*
X1220873Y281592D01*
X1227438Y297442D01*
D02*
G37*
G36*
X1165446D02*
X1128854D01*
X1135419Y281592D01*
X1149596Y267415D01*
X1165446Y260850D01*
Y297442D01*
D02*
G37*
G36*
X2983612Y283105D02*
X2969688D01*
X2956824Y277776D01*
X2946978Y267931D01*
X2941650Y255067D01*
Y241143D01*
X2943666Y236276D01*
X2940645Y232895D01*
X2935463Y229948D01*
X2917490Y240325D01*
X2895566Y246200D01*
X2872869D01*
X2850946Y240325D01*
X2831290Y228977D01*
X2815241Y212928D01*
X2803892Y193272D01*
X2798018Y171348D01*
Y148651D01*
X2803892Y126728D01*
X2815241Y107072D01*
X2831290Y91023D01*
X2850946Y79674D01*
X2872869Y73800D01*
X2895566D01*
X2917490Y79674D01*
X2937146Y91023D01*
X2953195Y107072D01*
X2964543Y126728D01*
X2970418Y148651D01*
Y171348D01*
X2964543Y193272D01*
X2956090Y207913D01*
X2963053Y215853D01*
X2969688Y213105D01*
X2983612D01*
X2996476Y218433D01*
X3006321Y228279D01*
X3011650Y241143D01*
Y255067D01*
X3006321Y267931D01*
X2996476Y277776D01*
X2983612Y283105D01*
D02*
G37*
G36*
X198466Y245249D02*
X161874D01*
Y208657D01*
X177723Y215222D01*
X191901Y229400D01*
X198466Y245249D01*
D02*
G37*
G36*
X81857Y246862D02*
X67934D01*
X55069Y241534D01*
X45224Y231688D01*
X39896Y218824D01*
Y204901D01*
X45224Y192036D01*
X55069Y182191D01*
X67934Y176862D01*
X81857D01*
X94721Y182191D01*
X104567Y192036D01*
X109895Y204901D01*
Y211809D01*
X119895Y215952D01*
X120625Y215222D01*
X136474Y208657D01*
Y245249D01*
X92991D01*
X92771Y245048D01*
X89743Y243596D01*
X81857Y246862D01*
D02*
G37*
G36*
X707035Y246454D02*
X693111D01*
X680247Y241126D01*
X670401Y231280D01*
X665073Y218416D01*
Y204492D01*
X670401Y191628D01*
X680247Y181782D01*
X693111Y176454D01*
X707035D01*
X719899Y181782D01*
X729744Y191628D01*
X735073Y204492D01*
Y218416D01*
X729744Y231280D01*
X719899Y241126D01*
X707035Y246454D01*
D02*
G37*
G36*
X2713559Y243734D02*
X2699636D01*
X2686772Y238405D01*
X2676926Y228560D01*
X2671598Y215696D01*
Y201772D01*
X2676926Y188908D01*
X2686772Y179062D01*
X2699636Y173734D01*
X2713559D01*
X2726424Y179062D01*
X2736269Y188908D01*
X2741598Y201772D01*
Y215696D01*
X2736269Y228560D01*
X2726424Y238405D01*
X2713559Y243734D01*
D02*
G37*
G36*
X585661Y173660D02*
Y137068D01*
X622253D01*
X615688Y152917D01*
X601511Y167094D01*
X585661Y173660D01*
D02*
G37*
G36*
X560261D02*
X544412Y167094D01*
X530234Y152917D01*
X523669Y137068D01*
X560261D01*
Y173660D01*
D02*
G37*
G36*
X2417428Y180372D02*
X2403504D01*
X2390640Y175044D01*
X2380795Y165198D01*
X2375466Y152334D01*
Y138410D01*
X2380795Y125546D01*
X2390640Y115701D01*
X2403504Y110372D01*
X2417428D01*
X2430292Y115701D01*
X2440138Y125546D01*
X2445466Y138410D01*
Y152334D01*
X2440138Y165198D01*
X2430292Y175044D01*
X2417428Y180372D01*
D02*
G37*
G36*
X1309796Y165236D02*
X1295872D01*
X1283008Y159907D01*
X1273162Y150062D01*
X1267834Y137198D01*
Y123274D01*
X1273162Y110410D01*
X1283008Y100564D01*
X1295872Y95236D01*
X1309796D01*
X1322660Y100564D01*
X1332505Y110410D01*
X1337834Y123274D01*
Y137198D01*
X1332505Y150062D01*
X1322660Y159907D01*
X1309796Y165236D01*
D02*
G37*
G36*
X622253Y111668D02*
X585661D01*
Y75076D01*
X601511Y81641D01*
X615688Y95818D01*
X622253Y111668D01*
D02*
G37*
G36*
X560261D02*
X523669D01*
X530234Y95818D01*
X544412Y81641D01*
X560261Y75076D01*
Y111668D01*
D02*
G37*
G36*
X2584295Y242496D02*
X2561598D01*
X2539675Y236621D01*
X2520019Y225273D01*
X2503970Y209224D01*
X2492621Y189568D01*
X2486747Y167644D01*
Y144947D01*
X2492621Y123024D01*
X2503970Y103368D01*
X2520019Y87319D01*
X2539675Y75970D01*
X2561598Y70096D01*
X2584295D01*
X2606219Y75970D01*
X2625875Y87319D01*
X2641924Y103368D01*
X2653272Y123024D01*
X2659147Y144947D01*
Y167644D01*
X2653272Y189568D01*
X2641924Y209224D01*
X2625875Y225273D01*
X2606219Y236621D01*
X2584295Y242496D01*
D02*
G37*
G36*
X2274004Y236741D02*
X2251307D01*
X2229384Y230866D01*
X2209728Y219518D01*
X2193679Y203469D01*
X2182330Y183813D01*
X2176456Y161889D01*
Y139193D01*
X2182330Y117269D01*
X2193679Y97613D01*
X2209728Y81564D01*
X2229384Y70216D01*
X2251307Y64341D01*
X2274004D01*
X2295928Y70216D01*
X2315584Y81564D01*
X2331633Y97613D01*
X2342981Y117269D01*
X2348856Y139193D01*
Y161889D01*
X2342981Y183813D01*
X2331633Y203469D01*
X2315584Y219518D01*
X2295928Y230866D01*
X2274004Y236741D01*
D02*
G37*
G36*
X1936643Y235736D02*
X1913946D01*
X1892023Y229862D01*
X1872367Y218513D01*
X1856318Y202464D01*
X1844969Y182808D01*
X1839095Y160885D01*
Y138188D01*
X1844969Y116264D01*
X1856318Y96608D01*
X1872367Y80559D01*
X1892023Y69211D01*
X1913946Y63336D01*
X1936643D01*
X1958567Y69211D01*
X1978223Y80559D01*
X1994272Y96608D01*
X2005620Y116264D01*
X2011495Y138188D01*
Y160885D01*
X2005620Y182808D01*
X1994272Y202464D01*
X1978223Y218513D01*
X1958567Y229862D01*
X1936643Y235736D01*
D02*
G37*
G36*
X878397Y129338D02*
X864473D01*
X851609Y124009D01*
X841764Y114164D01*
X836435Y101300D01*
Y87376D01*
X841764Y74512D01*
X851609Y64666D01*
X864473Y59338D01*
X878397D01*
X891261Y64666D01*
X901107Y74512D01*
X906435Y87376D01*
Y101300D01*
X901107Y114164D01*
X891261Y124009D01*
X878397Y129338D01*
D02*
G37*
G36*
X1177047Y116898D02*
X1163123D01*
X1150259Y111569D01*
X1140414Y101724D01*
X1135085Y88860D01*
Y74936D01*
X1140414Y62072D01*
X1150259Y52226D01*
X1163123Y46898D01*
X1177047D01*
X1189911Y52226D01*
X1199757Y62072D01*
X1205085Y74936D01*
Y88860D01*
X1199757Y101724D01*
X1189911Y111569D01*
X1177047Y116898D01*
D02*
G37*
G36*
X438526Y114175D02*
X424602D01*
X411738Y108846D01*
X401893Y99001D01*
X396564Y86136D01*
Y72213D01*
X401893Y59349D01*
X411738Y49503D01*
X424602Y44175D01*
X438526D01*
X451390Y49503D01*
X461236Y59349D01*
X466564Y72213D01*
Y86136D01*
X461236Y99001D01*
X451390Y108846D01*
X438526Y114175D01*
D02*
G37*
%LPD*%
D51*
X1925295Y149536D02*
D03*
X2572947Y156296D02*
D03*
X2884218Y160000D02*
D03*
X2262656Y150541D02*
D03*
D52*
X1700721Y2435000D02*
D03*
X836721D02*
D03*
D53*
X1700721Y2835000D02*
D03*
X836721D02*
D03*
D54*
X1396426Y439541D02*
D03*
X1904426D02*
D03*
X1523426D02*
D03*
X1650426D02*
D03*
X1777426D02*
D03*
D55*
X1234473Y1481536D02*
D03*
X2207698Y1229298D02*
D03*
X2755184Y825298D02*
D03*
X2851694Y702769D02*
D03*
X2138568Y1676078D02*
D03*
X2641240Y696296D02*
D03*
X2942409Y1285204D02*
D03*
X2944929Y1386199D02*
D03*
X2706598Y208734D02*
D03*
X2410466Y145372D02*
D03*
X572961Y124368D02*
D03*
X322029Y1017311D02*
D03*
X538833Y1120768D02*
D03*
X716905Y2208732D02*
D03*
X2342858Y1460516D02*
D03*
X2361930Y1261212D02*
D03*
X1339808Y1698264D02*
D03*
X1031420Y813420D02*
D03*
X1347405Y781130D02*
D03*
X811320Y1084271D02*
D03*
X954420Y1086023D02*
D03*
X1647934Y714643D02*
D03*
X1696248Y1051824D02*
D03*
X1693755Y1153220D02*
D03*
X1574074Y1193114D02*
D03*
X1657185Y1390920D02*
D03*
X2980084Y704834D02*
D03*
X2417269Y1206272D02*
D03*
X2186704Y1344742D02*
D03*
X2317913Y1021223D02*
D03*
X149174Y257949D02*
D03*
X1178146Y310142D02*
D03*
X864579Y593655D02*
D03*
X321448Y944531D02*
D03*
X323997Y876009D02*
D03*
X834969Y2248766D02*
D03*
X845434Y1464342D02*
D03*
X1273971Y737794D02*
D03*
X1466503Y795721D02*
D03*
X2511696Y1338720D02*
D03*
X2650852Y807279D02*
D03*
X2706403Y1373871D02*
D03*
X1760790Y1636079D02*
D03*
X2144559Y2134519D02*
D03*
X2758155Y2333788D02*
D03*
X2431297Y892863D02*
D03*
X2403696Y960669D02*
D03*
X2513461Y954915D02*
D03*
X118078Y1093770D02*
D03*
X359429Y2113191D02*
D03*
X405377Y1942157D02*
D03*
X271291Y2055349D02*
D03*
X1233942Y2565668D02*
D03*
X1128930Y2613496D02*
D03*
X721359Y749850D02*
D03*
X924964Y1359467D02*
D03*
X856834Y1678256D02*
D03*
X735469Y1810833D02*
D03*
X1257972Y1649935D02*
D03*
X2437469Y1714145D02*
D03*
X1990808Y1968324D02*
D03*
X1616997Y1813395D02*
D03*
X399704Y2410356D02*
D03*
X541199Y1866091D02*
D03*
X626982Y1861454D02*
D03*
X2633594Y1375880D02*
D03*
X2976650Y248105D02*
D03*
X1743462Y678229D02*
D03*
X2257934Y1086304D02*
D03*
X1909366Y844434D02*
D03*
X969906Y999281D02*
D03*
X1962491Y903734D02*
D03*
X470000Y2080000D02*
D03*
X2753711Y2628210D02*
D03*
X2165488Y704016D02*
D03*
X1220763Y2178340D02*
D03*
X594410Y1598558D02*
D03*
X594983Y1494328D02*
D03*
X596128Y1392961D02*
D03*
X494761Y1597986D02*
D03*
X392481Y1502427D02*
D03*
X396258Y1599131D02*
D03*
X391903Y1399655D02*
D03*
X496479Y1393534D02*
D03*
X572899Y616878D02*
D03*
X700073Y211454D02*
D03*
X1302834Y130236D02*
D03*
X1170085Y81898D02*
D03*
X245896Y508165D02*
D03*
X74895Y211862D02*
D03*
X331444Y750271D02*
D03*
X431564Y79175D02*
D03*
X2878209Y2638521D02*
D03*
X2752785Y1977414D02*
D03*
X871435Y94338D02*
D03*
X1578321Y2208953D02*
D03*
X1631900Y2146626D02*
D03*
X963731Y2013906D02*
D03*
X834052Y2010512D02*
D03*
X114017Y1757243D02*
D03*
X1262810Y1310135D02*
D03*
X1316401Y1199443D02*
D03*
D56*
X2954823Y1558388D02*
D03*
X2910084Y1605320D02*
D03*
X1724214Y1898789D02*
D03*
X1710534Y1962121D02*
D03*
X1768395Y1707449D02*
D03*
X2900771Y1502898D02*
D03*
X2439199Y1102689D02*
D03*
X2504553Y1051902D02*
D03*
X2530943Y1181421D02*
D03*
X491508Y2466673D02*
D03*
D57*
X2686335Y1262695D02*
D03*
X2766335Y1102695D02*
D03*
Y1182695D02*
D03*
X2646335D02*
D03*
X2726335Y1102695D02*
D03*
X2646335Y1142695D02*
D03*
Y1222695D02*
D03*
X2766335D02*
D03*
X2686335Y1102695D02*
D03*
X2766335Y1142695D02*
D03*
X2726335Y1262695D02*
D03*
X2766335D02*
D03*
X2646335Y1102695D02*
D03*
D58*
X2508393Y1230908D02*
D03*
%TF.MD5,ccadd881c1e1889d93fa7ca278f100bc*%
M02*
