G04*
G04 #@! TF.GenerationSoftware,Altium Limited,Altium Designer,25.8.1 (18)*
G04*
G04 Layer_Color=16711935*
%FSLAX25Y25*%
%MOIN*%
G70*
G04*
G04 #@! TF.SameCoordinates,8D017E76-4C46-4B26-B624-8DBC2D326FCC*
G04*
G04*
G04 #@! TF.FilePolarity,Negative*
G04*
G01*
G75*
%ADD42R,0.02300X0.02200*%
%ADD56R,0.02441X0.02598*%
%ADD58R,0.03032X0.02441*%
%ADD59R,0.02598X0.02441*%
%ADD60R,0.02441X0.03032*%
%ADD61R,0.02047X0.02441*%
G04:AMPARAMS|DCode=64|XSize=25.98mil|YSize=24.41mil|CornerRadius=0mil|HoleSize=0mil|Usage=FLASHONLY|Rotation=225.000|XOffset=0mil|YOffset=0mil|HoleType=Round|Shape=Rectangle|*
%AMROTATEDRECTD64*
4,1,4,0.00056,0.01782,0.01782,0.00056,-0.00056,-0.01782,-0.01782,-0.00056,0.00056,0.01782,0.0*
%
%ADD64ROTATEDRECTD64*%

%ADD66R,0.02441X0.02047*%
%ADD67R,0.03228X0.02835*%
%ADD74R,0.04213X0.04213*%
%ADD75C,0.06079*%
G04:AMPARAMS|DCode=76|XSize=39.37mil|YSize=70.87mil|CornerRadius=19.68mil|HoleSize=0mil|Usage=FLASHONLY|Rotation=180.000|XOffset=0mil|YOffset=0mil|HoleType=Round|Shape=RoundedRectangle|*
%AMROUNDEDRECTD76*
21,1,0.03937,0.03150,0,0,180.0*
21,1,0.00000,0.07087,0,0,180.0*
1,1,0.03937,0.00000,0.01575*
1,1,0.03937,0.00000,0.01575*
1,1,0.03937,0.00000,-0.01575*
1,1,0.03937,0.00000,-0.01575*
%
%ADD76ROUNDEDRECTD76*%
G04:AMPARAMS|DCode=77|XSize=39.37mil|YSize=86.61mil|CornerRadius=19.68mil|HoleSize=0mil|Usage=FLASHONLY|Rotation=180.000|XOffset=0mil|YOffset=0mil|HoleType=Round|Shape=RoundedRectangle|*
%AMROUNDEDRECTD77*
21,1,0.03937,0.04724,0,0,180.0*
21,1,0.00000,0.08661,0,0,180.0*
1,1,0.03937,0.00000,0.02362*
1,1,0.03937,0.00000,0.02362*
1,1,0.03937,0.00000,-0.02362*
1,1,0.03937,0.00000,-0.02362*
%
%ADD77ROUNDEDRECTD77*%
%ADD78C,0.04213*%
%ADD79C,0.02047*%
%ADD80C,0.01654*%
%ADD81C,0.01063*%
%ADD82C,0.01260*%
%ADD104R,0.02200X0.02300*%
%ADD111R,0.10118X0.02047*%
%ADD112R,0.01968X0.01457*%
%ADD113R,0.02047X0.10118*%
%ADD114R,0.01850X0.01457*%
%ADD115R,0.01457X0.01850*%
%ADD116R,0.01457X0.01968*%
%ADD117R,0.02047X0.03150*%
%ADD118R,0.03150X0.02047*%
%ADD119R,0.03622X0.04016*%
%ADD120R,0.04016X0.03622*%
G04:AMPARAMS|DCode=121|XSize=30.71mil|YSize=26.79mil|CornerRadius=3.64mil|HoleSize=0mil|Usage=FLASHONLY|Rotation=0.000|XOffset=0mil|YOffset=0mil|HoleType=Round|Shape=RoundedRectangle|*
%AMROUNDEDRECTD121*
21,1,0.03071,0.01950,0,0,0.0*
21,1,0.02342,0.02679,0,0,0.0*
1,1,0.00729,0.01171,-0.00975*
1,1,0.00729,-0.01171,-0.00975*
1,1,0.00729,-0.01171,0.00975*
1,1,0.00729,0.01171,0.00975*
%
%ADD121ROUNDEDRECTD121*%
%ADD122R,0.04803X0.04016*%
%ADD123R,0.06772X0.04016*%
G36*
X60783Y59407D02*
X60796Y59399D01*
X60805Y59385D01*
X60808Y59370D01*
Y57087D01*
X60805Y57071D01*
X60796Y57058D01*
X60783Y57050D01*
X60768Y57047D01*
X60119D01*
Y54724D01*
X60116Y54709D01*
X60107Y54696D01*
X60094Y54687D01*
X60079Y54684D01*
X58110D01*
X58095Y54687D01*
X58082Y54696D01*
X58073Y54709D01*
X58070Y54724D01*
Y57047D01*
X57421D01*
X57406Y57050D01*
X57393Y57058D01*
X57384Y57071D01*
X57381Y57087D01*
Y59370D01*
X57384Y59385D01*
X57393Y59399D01*
X57406Y59407D01*
X57421Y59410D01*
X60768D01*
X60783Y59407D01*
D02*
G37*
G36*
X60094Y67360D02*
X60107Y67351D01*
X60116Y67338D01*
X60119Y67323D01*
Y65001D01*
X60768D01*
X60783Y64998D01*
X60796Y64989D01*
X60805Y64976D01*
X60808Y64961D01*
Y60827D01*
X60805Y60811D01*
X60796Y60798D01*
X60783Y60790D01*
X60768Y60787D01*
X57421D01*
X57406Y60790D01*
X57393Y60798D01*
X57384Y60811D01*
X57381Y60827D01*
Y64961D01*
X57384Y64976D01*
X57393Y64989D01*
X57406Y64998D01*
X57421Y65001D01*
X58070D01*
Y67323D01*
X58073Y67338D01*
X58082Y67351D01*
X58095Y67360D01*
X58110Y67363D01*
X60079D01*
X60094Y67360D01*
D02*
G37*
G36*
X75496Y46986D02*
X75509Y46977D01*
X75517Y46964D01*
X75520Y46949D01*
Y43602D01*
X75517Y43587D01*
X75509Y43574D01*
X75496Y43565D01*
X75480Y43562D01*
X73197D01*
X73181Y43565D01*
X73168Y43574D01*
X73160Y43587D01*
X73157Y43602D01*
Y44251D01*
X70835D01*
X70819Y44254D01*
X70806Y44263D01*
X70798Y44276D01*
X70794Y44291D01*
Y46260D01*
X70798Y46275D01*
X70806Y46288D01*
X70819Y46297D01*
X70835Y46300D01*
X73157D01*
Y46949D01*
X73160Y46964D01*
X73168Y46977D01*
X73181Y46986D01*
X73197Y46989D01*
X75480D01*
X75496Y46986D01*
D02*
G37*
G36*
X81086D02*
X81099Y46977D01*
X81108Y46964D01*
X81111Y46949D01*
Y46300D01*
X83433D01*
X83448Y46297D01*
X83461Y46288D01*
X83470Y46275D01*
X83473Y46260D01*
Y44291D01*
X83470Y44276D01*
X83461Y44263D01*
X83448Y44254D01*
X83433Y44251D01*
X81111D01*
Y43602D01*
X81108Y43587D01*
X81099Y43574D01*
X81086Y43565D01*
X81071Y43562D01*
X76937D01*
X76922Y43565D01*
X76909Y43574D01*
X76900Y43587D01*
X76897Y43602D01*
Y46949D01*
X76900Y46964D01*
X76909Y46977D01*
X76922Y46986D01*
X76937Y46989D01*
X81071D01*
X81086Y46986D01*
D02*
G37*
D42*
X64184Y5849D02*
D03*
X67984D02*
D03*
D56*
X58104Y27453D02*
D03*
X110062Y59208D02*
D03*
X84065Y80181D02*
D03*
X103434Y22232D02*
D03*
X99969D02*
D03*
X61569Y27453D02*
D03*
X87530Y80181D02*
D03*
X106597Y59208D02*
D03*
D58*
X87104Y12706D02*
D03*
X82576D02*
D03*
X40416Y23145D02*
D03*
X44944D02*
D03*
D59*
X87790Y21781D02*
D03*
X33541Y53407D02*
D03*
X112701Y50580D02*
D03*
X101258Y58008D02*
D03*
X96330Y58072D02*
D03*
X87790Y18317D02*
D03*
X101258Y61472D02*
D03*
X112701Y54045D02*
D03*
X96330Y61537D02*
D03*
X33541Y49942D02*
D03*
D60*
X109507Y39257D02*
D03*
X104516Y34435D02*
D03*
X78090Y86876D02*
D03*
X108458Y86489D02*
D03*
X113247Y94922D02*
D03*
X104516Y38963D02*
D03*
X99251Y17012D02*
D03*
Y12485D02*
D03*
X109507Y34730D02*
D03*
X28912Y66711D02*
D03*
X33902Y61337D02*
D03*
X28912Y71238D02*
D03*
X33902Y65864D02*
D03*
X108458Y81962D02*
D03*
X78090Y82349D02*
D03*
X113247Y99449D02*
D03*
D61*
X36791Y3618D02*
D03*
X40728D02*
D03*
D64*
X84846Y32358D02*
D03*
X82397Y34808D02*
D03*
X81368Y28773D02*
D03*
X78918Y31223D02*
D03*
D66*
X82440Y22071D02*
D03*
X99526Y31736D02*
D03*
X90292Y66946D02*
D03*
X99526Y27799D02*
D03*
X104333Y17196D02*
D03*
X90292Y63009D02*
D03*
X104333Y13259D02*
D03*
X82440Y18134D02*
D03*
D67*
X27728Y52228D02*
D03*
X20965Y51988D02*
D03*
X14266Y52542D02*
D03*
Y46833D02*
D03*
X27728Y46519D02*
D03*
X20965Y46280D02*
D03*
D74*
X54977Y17305D02*
D03*
D75*
X75799Y5887D02*
D03*
X101297Y6153D02*
D03*
X113552Y6299D02*
D03*
X89081Y5927D02*
D03*
D76*
X66957Y95866D02*
D03*
X32942D02*
D03*
D77*
X66957Y111614D02*
D03*
X32942D02*
D03*
D78*
X74977Y17305D02*
D03*
X59977D02*
D03*
X64977D02*
D03*
X69977D02*
D03*
D79*
X104332Y31440D02*
D03*
X61160Y46538D02*
D03*
X61270Y69778D02*
D03*
X78332Y78258D02*
D03*
X108402Y78915D02*
D03*
X48601Y58328D02*
D03*
X86917Y48397D02*
D03*
X108472Y32492D02*
D03*
X112271Y27668D02*
D03*
X84196Y65987D02*
D03*
X103986Y27413D02*
D03*
X115843Y50599D02*
D03*
X115942Y54575D02*
D03*
X106559Y8218D02*
D03*
X94900Y5723D02*
D03*
X22558Y4896D02*
D03*
X12678Y40052D02*
D03*
X21214Y44125D02*
D03*
X28225Y86958D02*
D03*
X92238Y57501D02*
D03*
X92989Y49654D02*
D03*
X52748Y66861D02*
D03*
X40607Y32024D02*
D03*
X53048Y30753D02*
D03*
X31942Y42688D02*
D03*
X37576Y42757D02*
D03*
X64879Y28135D02*
D03*
X66781Y41410D02*
D03*
X66683Y45402D02*
D03*
X65244Y54761D02*
D03*
X117326Y27749D02*
D03*
X95168Y47491D02*
D03*
X86091Y52943D02*
D03*
X91256Y40206D02*
D03*
X5873Y10155D02*
D03*
X46384Y12210D02*
D03*
X34038Y23372D02*
D03*
X12655Y37186D02*
D03*
X12756Y34489D02*
D03*
X32873Y88534D02*
D03*
X33285Y57651D02*
D03*
X50156Y29047D02*
D03*
X57736Y31328D02*
D03*
X98886Y52706D02*
D03*
X106551Y54089D02*
D03*
X69323Y64413D02*
D03*
X84431Y84036D02*
D03*
X108589Y91881D02*
D03*
X95720Y35152D02*
D03*
X94634Y37822D02*
D03*
X98955Y37595D02*
D03*
X4649Y43062D02*
D03*
X14151Y83197D02*
D03*
X15960Y76463D02*
D03*
X10681Y80919D02*
D03*
X48580Y101011D02*
D03*
X44446Y102893D02*
D03*
X28400Y29522D02*
D03*
X36416Y53522D02*
D03*
X33734Y66073D02*
D03*
X28956Y71293D02*
D03*
X49527Y64958D02*
D03*
X95963Y67486D02*
D03*
X15736Y94896D02*
D03*
X21307Y73468D02*
D03*
X24684Y73286D02*
D03*
X103685Y54168D02*
D03*
X117191Y9768D02*
D03*
X68640Y26702D02*
D03*
X88895Y42768D02*
D03*
X75172Y33245D02*
D03*
X38185Y39342D02*
D03*
X77263Y35580D02*
D03*
X18504Y81890D02*
D03*
X108414Y103473D02*
D03*
X85255Y27717D02*
D03*
X48061Y85761D02*
D03*
X23402Y62935D02*
D03*
X23425Y58832D02*
D03*
X23470Y54841D02*
D03*
X19479Y62913D02*
D03*
X15452Y59151D02*
D03*
X15601Y62958D02*
D03*
X15429Y55105D02*
D03*
X19546Y54864D02*
D03*
X22555Y24286D02*
D03*
X27562Y8325D02*
D03*
X51293Y5127D02*
D03*
X46066Y3224D02*
D03*
X9681Y20007D02*
D03*
X2949Y8341D02*
D03*
X13049Y29538D02*
D03*
X16991Y3117D02*
D03*
X113315Y103879D02*
D03*
X34308Y3714D02*
D03*
X62139Y86967D02*
D03*
X64248Y84513D02*
D03*
X37942Y79288D02*
D03*
X32837Y79154D02*
D03*
X4489Y69183D02*
D03*
X49717Y51580D02*
D03*
X51827Y47222D02*
D03*
D80*
X116332Y61354D02*
D03*
X114570Y63202D02*
D03*
X67882Y74756D02*
D03*
X67344Y77249D02*
D03*
X69622Y67222D02*
D03*
X114204Y59169D02*
D03*
X96031Y43413D02*
D03*
X98605Y41414D02*
D03*
X99643Y46513D02*
D03*
X19351Y97113D02*
D03*
D81*
X79134Y45276D02*
D03*
X59095Y63024D02*
D03*
X74134Y45276D02*
D03*
X59095Y58024D02*
D03*
X105761Y49712D02*
D03*
X108911Y43413D02*
D03*
Y46563D02*
D03*
X104186D02*
D03*
X107336Y43413D02*
D03*
X104186Y44988D02*
D03*
Y48138D02*
D03*
X108911D02*
D03*
X105761Y43413D02*
D03*
X108911Y44988D02*
D03*
X107336Y49712D02*
D03*
X108911D02*
D03*
X104186Y43413D02*
D03*
D82*
X98756Y48461D02*
D03*
D104*
X93505Y11270D02*
D03*
Y15070D02*
D03*
X113507Y15786D02*
D03*
Y11986D02*
D03*
D111*
X59449Y42520D02*
D03*
X59055Y74508D02*
D03*
X59449Y49409D02*
D03*
X59055Y81398D02*
D03*
D112*
X73925Y41732D02*
D03*
Y48819D02*
D03*
D113*
X38956Y61833D02*
D03*
X45846D02*
D03*
X71921Y64027D02*
D03*
X78811D02*
D03*
D114*
X80480Y41732D02*
D03*
Y48819D02*
D03*
D115*
X55551Y64370D02*
D03*
X62638D02*
D03*
D116*
X55551Y57815D02*
D03*
X62638D02*
D03*
D117*
X77134Y40512D02*
D03*
Y50039D02*
D03*
D118*
X54331Y61024D02*
D03*
X63858D02*
D03*
D119*
X28077Y81943D02*
D03*
X22762D02*
D03*
D120*
X23166Y63077D02*
D03*
X15508Y67332D02*
D03*
X23166Y68392D02*
D03*
X15508Y72647D02*
D03*
D121*
X49595Y38603D02*
D03*
Y44115D02*
D03*
D122*
X43191Y39582D02*
D03*
Y47456D02*
D03*
D123*
X29054Y4106D02*
D03*
X4250D02*
D03*
X29054Y19067D02*
D03*
X4250D02*
D03*
M02*
