G04*
G04 #@! TF.GenerationSoftware,Altium Limited,Altium Designer,25.8.1 (18)*
G04*
G04 Layer_Color=32896*
%FSLAX25Y25*%
%MOIN*%
G70*
G04*
G04 #@! TF.SameCoordinates,8D017E76-4C46-4B26-B624-8DBC2D326FCC*
G04*
G04*
G04 #@! TF.FilePolarity,Positive*
G04*
G01*
G75*
%ADD10C,0.00394*%
%ADD11C,0.00787*%
%ADD12C,0.00984*%
%ADD16C,0.00591*%
%ADD124R,0.01500X0.02000*%
%ADD125R,0.04500X0.01000*%
%ADD126R,0.02000X0.01500*%
%ADD127R,0.01000X0.04500*%
D10*
X65748Y73622D02*
G03*
X65748Y73622I-197J0D01*
G01*
X46929Y68329D02*
G03*
X46929Y68329I-197J0D01*
G01*
X71232Y57531D02*
G03*
X71232Y57531I-197J0D01*
G01*
X53150Y50295D02*
G03*
X53150Y50295I-197J0D01*
G01*
D11*
X96162Y11123D02*
Y15218D01*
X90847Y11123D02*
Y15218D01*
X9172Y17886D02*
X12715Y21429D01*
X20589D02*
X24132Y17886D01*
X20589Y1744D02*
X24132Y5288D01*
X9172D02*
X12715Y1744D01*
X6810Y7650D02*
Y15524D01*
X12715Y1744D02*
X20589D01*
X12715Y21429D02*
X20589D01*
X26495Y7650D02*
Y15524D01*
X11510Y49687D02*
X17022D01*
X15447Y44569D02*
X17022D01*
Y54805D01*
X15447D02*
X17022D01*
X11510Y44569D02*
X13085D01*
X11510D02*
Y54805D01*
X13085D01*
X24972Y54492D02*
X26547D01*
X24972Y44255D02*
Y54492D01*
Y44255D02*
X26547D01*
X28909Y54492D02*
X30484D01*
Y44255D02*
Y54492D01*
X28909Y44255D02*
X30484D01*
X24972Y49373D02*
X30484D01*
X18210Y49134D02*
X23721D01*
X22147Y44016D02*
X23721D01*
Y54252D01*
X22147D02*
X23721D01*
X18210Y44016D02*
X19784D01*
X18210D02*
Y54252D01*
X19784D01*
X39942Y43519D02*
X46439D01*
X44470Y50605D02*
X46439D01*
Y36432D02*
Y50605D01*
X44470Y36432D02*
X46439D01*
X39942Y50605D02*
X41911D01*
X39942Y36432D02*
Y50605D01*
Y36432D02*
X41911D01*
X48413Y41359D02*
X50776D01*
X110850Y11839D02*
Y15933D01*
X116165Y11839D02*
Y15933D01*
X64037Y3192D02*
X68131D01*
X64037Y8507D02*
X68131D01*
D12*
X4743Y23201D02*
G03*
X4743Y23201I-492J0D01*
G01*
D16*
X100751Y19249D02*
X101251D01*
Y10249D02*
Y19249D01*
X100751Y10249D02*
X101251D01*
X97251D02*
X97751D01*
X97251D02*
Y19249D01*
X97751D01*
X97251Y14749D02*
X101251D01*
X102333Y15228D02*
X106333D01*
X102333Y19165D02*
X102833D01*
X102333Y11291D02*
Y19165D01*
Y11291D02*
X102833D01*
X105833D02*
X106333D01*
Y19165D01*
X105833D02*
X106333D01*
X105638Y23413D02*
Y24201D01*
X97764D02*
X105638D01*
X97764Y23413D02*
Y24201D01*
Y20264D02*
Y21051D01*
Y20264D02*
X105638D01*
Y21051D01*
X101026Y33704D02*
X101526D01*
Y25830D02*
Y33704D01*
X101026Y25830D02*
X101526D01*
X97526D02*
X98026D01*
X97526D02*
Y33704D01*
X98026D01*
X97526Y29767D02*
X101526D01*
X89340Y10706D02*
Y11206D01*
X80340Y10706D02*
X89340D01*
X80340D02*
Y11206D01*
Y14206D02*
Y14706D01*
X89340D01*
Y14206D02*
Y14706D01*
X84840Y10706D02*
Y14706D01*
X85821Y23986D02*
X86609D01*
X85821Y16112D02*
Y23986D01*
Y16112D02*
X86609D01*
X88971D02*
X89758D01*
Y23986D01*
X88971D02*
X89758D01*
X80440Y20102D02*
X84440D01*
X80440Y24039D02*
X80940D01*
X80440Y16165D02*
Y24039D01*
Y16165D02*
X80940D01*
X83940D02*
X84440D01*
Y24039D01*
X83940D02*
X84440D01*
X88292Y61040D02*
X88792D01*
X88292D02*
Y68914D01*
X88792D01*
X91792D02*
X92292D01*
Y61040D02*
Y68914D01*
X91792Y61040D02*
X92292D01*
X88292Y64977D02*
X92292D01*
X38180Y24645D02*
Y25145D01*
X47180D01*
Y24645D02*
Y25145D01*
Y21145D02*
Y21645D01*
X38180Y21145D02*
X47180D01*
X38180D02*
Y21645D01*
X42680Y21145D02*
Y25145D01*
X63774Y28634D02*
Y29421D01*
X55900D02*
X63774D01*
X55900Y28634D02*
Y29421D01*
Y25484D02*
Y26272D01*
Y25484D02*
X63774D01*
Y26272D01*
X87240Y31634D02*
X87797Y32191D01*
X82230Y37759D02*
X87797Y32191D01*
X81673Y37202D02*
X82230Y37759D01*
X79446Y34975D02*
X80002Y35532D01*
X79446Y34975D02*
X85013Y29407D01*
X85570Y29964D01*
X107507Y32494D02*
X108007D01*
X107507D02*
Y41494D01*
X108007D01*
X111007D02*
X111507D01*
Y32494D02*
Y41494D01*
X111007Y32494D02*
X111507D01*
X107507Y36994D02*
X111507D01*
X83762Y28049D02*
X84319Y28606D01*
X78751Y34174D02*
X84319Y28606D01*
X78194Y33617D02*
X78751Y34174D01*
X75967Y31390D02*
X76524Y31946D01*
X75967Y31390D02*
X81535Y25822D01*
X82091Y26379D01*
X99290Y63677D02*
X100077D01*
X99290Y55803D02*
Y63677D01*
Y55803D02*
X100077D01*
X102439D02*
X103226D01*
Y63677D01*
X102439D02*
X103226D01*
X34722Y47737D02*
X35510D01*
Y55611D01*
X34722D02*
X35510D01*
X31573D02*
X32360D01*
X31573Y47737D02*
Y55611D01*
Y47737D02*
X32360D01*
X38760Y1618D02*
Y5618D01*
X42697Y5118D02*
Y5618D01*
X34823D02*
X42697D01*
X34823Y5118D02*
Y5618D01*
Y1618D02*
Y2118D01*
Y1618D02*
X42697D01*
Y2118D01*
X26912Y64474D02*
X27412D01*
X26912D02*
Y73474D01*
X27412D01*
X30412D02*
X30912D01*
Y64474D02*
Y73474D01*
X30412Y64474D02*
X30912D01*
X26912Y68974D02*
X30912D01*
X20410Y60223D02*
X21591D01*
X20410D02*
Y71246D01*
X21591D01*
X24740D02*
X25921D01*
Y60223D02*
Y71246D01*
X24740Y60223D02*
X25921D01*
X20410Y65734D02*
X25921D01*
X12752Y69989D02*
X18264D01*
X17083Y64477D02*
X18264D01*
Y75501D01*
X17083D02*
X18264D01*
X12752D02*
X13933D01*
X12752Y64477D02*
Y75501D01*
Y64477D02*
X13933D01*
X89735Y81362D02*
Y82149D01*
X81861D02*
X89735D01*
X81861Y81362D02*
Y82149D01*
Y78212D02*
Y79000D01*
Y78212D02*
X89735D01*
Y79000D01*
X106016Y41199D02*
X106516D01*
Y32199D02*
Y41199D01*
X106016Y32199D02*
X106516D01*
X102516D02*
X103016D01*
X102516D02*
Y41199D01*
X103016D01*
X102516Y36699D02*
X106516D01*
X31903Y59101D02*
X32403D01*
X31903D02*
Y68101D01*
X32403D01*
X35403D02*
X35903D01*
Y59101D02*
Y68101D01*
X35403Y59101D02*
X35903D01*
X31903Y63600D02*
X35903D01*
X106458Y79725D02*
X106958D01*
X106458D02*
Y88725D01*
X106958D01*
X109958D02*
X110458D01*
Y79725D02*
Y88725D01*
X109958Y79725D02*
X110458D01*
X106458Y84225D02*
X110458D01*
X76090Y80113D02*
X76590D01*
X76090D02*
Y89113D01*
X76590D01*
X79590D02*
X80090D01*
Y80113D02*
Y89113D01*
X79590Y80113D02*
X80090D01*
X76090Y84613D02*
X80090D01*
X94362Y63741D02*
X95149D01*
X94362Y55867D02*
Y63741D01*
Y55867D02*
X95149D01*
X97512D02*
X98299D01*
Y63741D01*
X97512D02*
X98299D01*
X104392Y57240D02*
Y58027D01*
Y57240D02*
X112266D01*
Y58027D01*
Y60389D02*
Y61177D01*
X104392D02*
X112266D01*
X104392Y60389D02*
Y61177D01*
X110733Y56249D02*
X111520D01*
X110733Y48375D02*
Y56249D01*
Y48375D02*
X111520D01*
X113883D02*
X114670D01*
Y56249D01*
X113883D02*
X114670D01*
X111247Y92686D02*
X111747D01*
X111247D02*
Y101686D01*
X111747D01*
X114747D02*
X115247D01*
Y92686D02*
Y101686D01*
X114747Y92686D02*
X115247D01*
X111247Y97186D02*
X115247D01*
X30931Y79187D02*
Y80368D01*
X19908Y79187D02*
X30931D01*
X19908D02*
Y80368D01*
Y83518D02*
Y84699D01*
X30931D01*
Y83518D02*
Y84699D01*
X25420Y79187D02*
Y84699D01*
D124*
X59306Y77452D02*
D03*
X59199Y46464D02*
D03*
D125*
X59306Y78452D02*
D03*
X59199Y45463D02*
D03*
D126*
X42901Y62083D02*
D03*
X74866Y63777D02*
D03*
D127*
X41901Y62083D02*
D03*
X75866Y63777D02*
D03*
M02*
