G04*
G04 #@! TF.GenerationSoftware,Altium Limited,Altium Designer,25.8.1 (18)*
G04*
G04 Layer_Physical_Order=4*
G04 Layer_Color=16711680*
%FSLAX25Y25*%
%MOIN*%
G70*
G04*
G04 #@! TF.SameCoordinates,7F66DBA8-FC42-4FC2-AADA-9854A9E9CDB9*
G04*
G04*
G04 #@! TF.FilePolarity,Positive*
G04*
G01*
G75*
%ADD11C,0.00787*%
%ADD16C,0.00591*%
%ADD26R,0.02362X0.02520*%
%ADD27R,0.02953X0.02362*%
%ADD28R,0.02520X0.02362*%
%ADD29R,0.02362X0.02953*%
%ADD31R,0.01968X0.02362*%
G04:AMPARAMS|DCode=35|XSize=25.2mil|YSize=23.62mil|CornerRadius=0mil|HoleSize=0mil|Usage=FLASHONLY|Rotation=225.000|XOffset=0mil|YOffset=0mil|HoleType=Round|Shape=Rectangle|*
%AMROTATEDRECTD35*
4,1,4,0.00056,0.01726,0.01726,0.00056,-0.00056,-0.01726,-0.01726,-0.00056,0.00056,0.01726,0.0*
%
%ADD35ROTATEDRECTD35*%

%ADD37R,0.02362X0.01968*%
%ADD39R,0.03150X0.02756*%
%ADD40R,0.02300X0.02200*%
G04:AMPARAMS|DCode=74|XSize=39.37mil|YSize=70.87mil|CornerRadius=19.68mil|HoleSize=0mil|Usage=FLASHONLY|Rotation=180.000|XOffset=0mil|YOffset=0mil|HoleType=Round|Shape=RoundedRectangle|*
%AMROUNDEDRECTD74*
21,1,0.03937,0.03150,0,0,180.0*
21,1,0.00000,0.07087,0,0,180.0*
1,1,0.03937,0.00000,0.01575*
1,1,0.03937,0.00000,0.01575*
1,1,0.03937,0.00000,-0.01575*
1,1,0.03937,0.00000,-0.01575*
%
%ADD74ROUNDEDRECTD74*%
G04:AMPARAMS|DCode=75|XSize=39.37mil|YSize=86.61mil|CornerRadius=19.68mil|HoleSize=0mil|Usage=FLASHONLY|Rotation=180.000|XOffset=0mil|YOffset=0mil|HoleType=Round|Shape=RoundedRectangle|*
%AMROUNDEDRECTD75*
21,1,0.03937,0.04724,0,0,180.0*
21,1,0.00000,0.08661,0,0,180.0*
1,1,0.03937,0.00000,0.02362*
1,1,0.03937,0.00000,0.02362*
1,1,0.03937,0.00000,-0.02362*
1,1,0.03937,0.00000,-0.02362*
%
%ADD75ROUNDEDRECTD75*%
%ADD82C,0.00800*%
%ADD83C,0.01181*%
%ADD84C,0.01968*%
%ADD85C,0.01000*%
%ADD88R,0.04134X0.04134*%
%ADD89C,0.06000*%
%ADD90C,0.04134*%
%ADD91C,0.01968*%
%ADD92C,0.01575*%
%ADD93C,0.00984*%
%ADD94C,0.01181*%
%ADD95R,0.10039X0.01968*%
%ADD96R,0.01890X0.01378*%
%ADD97R,0.01968X0.10039*%
%ADD98R,0.01772X0.01378*%
%ADD99R,0.01378X0.01772*%
%ADD100R,0.01378X0.01890*%
%ADD101R,0.01968X0.03071*%
%ADD102R,0.03071X0.01968*%
%ADD103R,0.02200X0.02300*%
%ADD104R,0.03543X0.03937*%
%ADD105R,0.03937X0.03543*%
G04:AMPARAMS|DCode=106|XSize=29.92mil|YSize=26mil|CornerRadius=3.25mil|HoleSize=0mil|Usage=FLASHONLY|Rotation=0.000|XOffset=0mil|YOffset=0mil|HoleType=Round|Shape=RoundedRectangle|*
%AMROUNDEDRECTD106*
21,1,0.02992,0.01950,0,0,0.0*
21,1,0.02342,0.02600,0,0,0.0*
1,1,0.00650,0.01171,-0.00975*
1,1,0.00650,-0.01171,-0.00975*
1,1,0.00650,-0.01171,0.00975*
1,1,0.00650,0.01171,0.00975*
%
%ADD106ROUNDEDRECTD106*%
%ADD107R,0.04724X0.03937*%
%ADD108R,0.06693X0.03937*%
%ADD109C,0.01575*%
G36*
X119291Y10911D02*
X118898Y10833D01*
X118873Y10892D01*
X118345Y11420D01*
Y14359D01*
X118269Y14743D01*
X118051Y15069D01*
X116624Y16496D01*
X116299Y16713D01*
X115915Y16789D01*
X115608D01*
Y17936D01*
X114007D01*
Y15786D01*
X113507D01*
Y15286D01*
X111407D01*
Y13636D01*
X111664D01*
X112014Y13530D01*
Y10442D01*
X112326D01*
Y9484D01*
X112242Y9462D01*
X111468Y9015D01*
X110836Y8383D01*
X110389Y7609D01*
X110158Y6746D01*
Y5852D01*
X110389Y4989D01*
X110836Y4215D01*
X111468Y3584D01*
X112242Y3137D01*
X113105Y2905D01*
X113999D01*
X114862Y3137D01*
X115636Y3584D01*
X116268Y4215D01*
X116714Y4989D01*
X116946Y5852D01*
Y6746D01*
X116770Y7401D01*
X117028Y7768D01*
X117058Y7784D01*
X117586D01*
X118315Y8086D01*
X118873Y8644D01*
X118898Y8703D01*
X119291Y8625D01*
Y0D01*
X0D01*
Y1138D01*
X3751D01*
Y4106D01*
X4250D01*
Y4606D01*
X8597D01*
Y7075D01*
X4998D01*
X4735Y7469D01*
X4889Y7841D01*
X1008D01*
X1162Y7469D01*
X899Y7075D01*
X0D01*
Y118110D01*
X119291D01*
Y10911D01*
D02*
G37*
%LPC*%
G36*
X33442Y116905D02*
Y112114D01*
X35936D01*
Y113976D01*
X35834Y114751D01*
X35535Y115473D01*
X35059Y116094D01*
X34439Y116569D01*
X33717Y116868D01*
X33442Y116905D01*
D02*
G37*
G36*
X67457D02*
Y112114D01*
X69952D01*
Y113976D01*
X69850Y114751D01*
X69551Y115473D01*
X69075Y116094D01*
X68455Y116569D01*
X67733Y116868D01*
X67457Y116905D01*
D02*
G37*
G36*
X32442D02*
X32167Y116868D01*
X31445Y116569D01*
X30825Y116094D01*
X30349Y115473D01*
X30050Y114751D01*
X29948Y113976D01*
Y112114D01*
X32442D01*
Y116905D01*
D02*
G37*
G36*
X66457D02*
X66183Y116868D01*
X65460Y116569D01*
X64840Y116094D01*
X64364Y115473D01*
X64065Y114751D01*
X63963Y113976D01*
Y112114D01*
X66457D01*
Y116905D01*
D02*
G37*
G36*
X69952Y111114D02*
X67457D01*
Y106324D01*
X67733Y106360D01*
X68455Y106659D01*
X69075Y107135D01*
X69551Y107755D01*
X69850Y108477D01*
X69952Y109252D01*
Y111114D01*
D02*
G37*
G36*
X35936D02*
X33442D01*
Y106324D01*
X33717Y106360D01*
X34439Y106659D01*
X35059Y107135D01*
X35535Y107755D01*
X35834Y108477D01*
X35936Y109252D01*
Y111114D01*
D02*
G37*
G36*
X66457D02*
X63963D01*
Y109252D01*
X64065Y108477D01*
X64364Y107755D01*
X64840Y107135D01*
X65460Y106659D01*
X66183Y106360D01*
X66457Y106324D01*
Y111114D01*
D02*
G37*
G36*
X32442D02*
X29948D01*
Y109252D01*
X30050Y108477D01*
X30349Y107755D01*
X30825Y107135D01*
X31445Y106659D01*
X32167Y106360D01*
X32442Y106324D01*
Y111114D01*
D02*
G37*
G36*
X108914Y105413D02*
Y103973D01*
X110354D01*
X110096Y104597D01*
X109538Y105155D01*
X108914Y105413D01*
D02*
G37*
G36*
X107914D02*
X107290Y105155D01*
X106732Y104597D01*
X106473Y103973D01*
X107914D01*
Y105413D01*
D02*
G37*
G36*
X44720Y104271D02*
X44172D01*
X43666Y104062D01*
X43278Y103674D01*
X43260Y103631D01*
X29292D01*
X29292Y103631D01*
X28982Y103569D01*
X28720Y103394D01*
X10108Y84782D01*
X9933Y84520D01*
X9871Y84210D01*
X9871Y84210D01*
Y82059D01*
X9513Y81700D01*
X9303Y81193D01*
Y80645D01*
X9513Y80139D01*
X9900Y79751D01*
X10407Y79541D01*
X10955D01*
X11461Y79751D01*
X11849Y80139D01*
X12059Y80645D01*
Y81193D01*
X11849Y81700D01*
X11490Y82059D01*
Y83875D01*
X13066Y85452D01*
X13260Y85353D01*
X13393Y85228D01*
X13341Y84970D01*
X13341Y84970D01*
Y84336D01*
X12983Y83977D01*
X12773Y83471D01*
Y82922D01*
X12983Y82416D01*
X13370Y82028D01*
X13877Y81819D01*
X14425D01*
X14931Y82028D01*
X15319Y82416D01*
X15529Y82922D01*
Y83471D01*
X15319Y83977D01*
X14960Y84336D01*
Y84635D01*
X30283Y99958D01*
X30733D01*
X30860Y99585D01*
X30825Y99558D01*
X30349Y98938D01*
X30050Y98216D01*
X29948Y97441D01*
Y96366D01*
X32942D01*
X35936D01*
Y97441D01*
X35834Y98216D01*
X35535Y98938D01*
X35059Y99558D01*
X35024Y99585D01*
X35150Y99958D01*
X47528D01*
X47528Y99958D01*
X47627Y99978D01*
X47664D01*
X47800Y99842D01*
X48306Y99633D01*
X48855D01*
X49361Y99842D01*
X49749Y100230D01*
X49958Y100736D01*
Y101285D01*
X49749Y101791D01*
X49361Y102179D01*
X48855Y102389D01*
X48306D01*
X47800Y102179D01*
X47412Y101791D01*
X47323Y101576D01*
X45634D01*
X45471Y101970D01*
X45614Y102113D01*
X45824Y102620D01*
Y103168D01*
X45614Y103674D01*
X45227Y104062D01*
X44720Y104271D01*
D02*
G37*
G36*
X110354Y102973D02*
X108914D01*
Y101532D01*
X109538Y101791D01*
X110096Y102349D01*
X110354Y102973D01*
D02*
G37*
G36*
X107914D02*
X106473D01*
X106732Y102349D01*
X107290Y101791D01*
X107914Y101532D01*
Y102973D01*
D02*
G37*
G36*
X113589Y105257D02*
X113041D01*
X112535Y105047D01*
X112147Y104659D01*
X111937Y104153D01*
Y103605D01*
X112147Y103098D01*
X112513Y102733D01*
Y101320D01*
X111672D01*
Y97579D01*
X114822D01*
Y101320D01*
X114118D01*
Y102733D01*
X114483Y103098D01*
X114693Y103605D01*
Y104153D01*
X114483Y104659D01*
X114096Y105047D01*
X113589Y105257D01*
D02*
G37*
G36*
X67457Y100369D02*
Y96366D01*
X69952D01*
Y97441D01*
X69850Y98216D01*
X69551Y98938D01*
X69075Y99558D01*
X68455Y100034D01*
X67733Y100333D01*
X67457Y100369D01*
D02*
G37*
G36*
X66457D02*
X66183Y100333D01*
X65460Y100034D01*
X64840Y99558D01*
X64364Y98938D01*
X64065Y98216D01*
X63963Y97441D01*
Y96366D01*
X66457D01*
Y100369D01*
D02*
G37*
G36*
X19586Y98294D02*
X19116D01*
X18687Y98117D01*
X13003D01*
X12619Y98040D01*
X12293Y97823D01*
X1437Y86967D01*
X1220Y86641D01*
X1143Y86257D01*
Y40358D01*
X1220Y39974D01*
X1437Y39649D01*
X2836Y38249D01*
X3162Y38032D01*
X3546Y37955D01*
X6722D01*
X7753Y36925D01*
X7602Y36561D01*
X1470D01*
X1169Y36436D01*
X1044Y36135D01*
Y33435D01*
X1169Y33134D01*
X1470Y33009D01*
X8570D01*
X8792Y32861D01*
Y26046D01*
X8868Y25662D01*
X9086Y25336D01*
X23353Y11068D01*
X23679Y10851D01*
X24063Y10774D01*
X32349D01*
X37567Y5556D01*
X37417Y5192D01*
X35413D01*
Y5072D01*
X35020Y4911D01*
X34583Y5092D01*
X34034D01*
X33794Y4992D01*
X33400Y5255D01*
Y7075D01*
X29618D01*
X29355Y7469D01*
X29503Y7825D01*
X25621D01*
X25769Y7469D01*
X25506Y7075D01*
X24707D01*
Y4606D01*
X29054D01*
Y4106D01*
X29554D01*
Y1138D01*
X33400D01*
Y2173D01*
X33794Y2436D01*
X34034Y2336D01*
X34583D01*
X35020Y2517D01*
X35275Y2412D01*
X35413Y2313D01*
Y2043D01*
X38169D01*
Y4440D01*
X38533Y4591D01*
X39350Y3773D01*
Y2043D01*
X42106D01*
Y5192D01*
X40769D01*
X33474Y12488D01*
X33149Y12705D01*
X32765Y12781D01*
X24479D01*
X10799Y26461D01*
Y36301D01*
X10723Y36685D01*
X10505Y37011D01*
X7847Y39669D01*
X7522Y39886D01*
X7138Y39963D01*
X3962D01*
X3150Y40774D01*
Y42097D01*
X3244Y42149D01*
X3544Y42218D01*
X3578Y42183D01*
X3655Y42068D01*
X3770Y41991D01*
X3868Y41894D01*
X3996Y41841D01*
X4111Y41764D01*
X4247Y41737D01*
X4375Y41684D01*
X4513D01*
X4649Y41657D01*
X4784Y41684D01*
X4923D01*
X5051Y41737D01*
X5077Y41742D01*
X12130D01*
X12208Y41348D01*
X11898Y41220D01*
X11510Y40832D01*
X11300Y40326D01*
Y39777D01*
X11510Y39271D01*
X11898Y38883D01*
X12010Y38837D01*
Y38411D01*
X11875Y38354D01*
X11487Y37967D01*
X11277Y37460D01*
Y36912D01*
X11487Y36406D01*
X11875Y36018D01*
X11886Y36013D01*
X11900Y35581D01*
X11588Y35269D01*
X11378Y34763D01*
Y34214D01*
X11588Y33708D01*
X11975Y33320D01*
X12482Y33111D01*
X13030D01*
X13536Y33320D01*
X13924Y33708D01*
X14134Y34214D01*
Y34763D01*
X13924Y35269D01*
X13536Y35657D01*
X13525Y35661D01*
X13511Y36093D01*
X13824Y36406D01*
X14033Y36912D01*
Y37460D01*
X13824Y37967D01*
X13436Y38354D01*
X13323Y38401D01*
Y38827D01*
X13459Y38883D01*
X13847Y39271D01*
X14056Y39777D01*
Y40326D01*
X13847Y40832D01*
X13459Y41220D01*
X13148Y41348D01*
X13227Y41742D01*
X15406D01*
X16567Y40581D01*
X17023Y40276D01*
X17560Y40170D01*
X19195D01*
Y33097D01*
X19319Y32795D01*
X19621Y32670D01*
X22321D01*
X22622Y32795D01*
X22747Y33097D01*
Y39879D01*
X23141Y40042D01*
X29214Y33969D01*
X29669Y33664D01*
X30207Y33557D01*
X34108D01*
X34179Y33571D01*
X34250Y33557D01*
X39678D01*
X39783Y33299D01*
X39797Y33163D01*
X39439Y32805D01*
X39229Y32298D01*
Y31750D01*
X39439Y31244D01*
X39827Y30856D01*
X40333Y30646D01*
X40881D01*
X41114Y30743D01*
X41249Y30653D01*
X41556Y30592D01*
X41556Y30592D01*
X49257D01*
X49354Y30285D01*
X49359Y30198D01*
X48988Y29827D01*
X48778Y29321D01*
Y28773D01*
X48988Y28266D01*
X49376Y27879D01*
X49882Y27669D01*
X50430D01*
X50755Y27803D01*
X50978Y27470D01*
X47456Y23948D01*
X46814D01*
Y24720D01*
X43074D01*
Y21570D01*
X46814D01*
Y22342D01*
X47788D01*
X48096Y22403D01*
X48356Y22577D01*
X52112Y26333D01*
X52539Y26203D01*
X52557Y26109D01*
X52731Y25849D01*
X56416Y22164D01*
X56416Y22164D01*
X56676Y21990D01*
X56984Y21929D01*
X56984Y21929D01*
X67906D01*
X69175Y20660D01*
Y19636D01*
X68584Y19391D01*
X67891Y18699D01*
X67690Y18214D01*
X67264D01*
X67063Y18699D01*
X66371Y19391D01*
X65467Y19765D01*
X64488D01*
X63584Y19391D01*
X62891Y18699D01*
X62691Y18214D01*
X62264D01*
X62063Y18699D01*
X61371Y19391D01*
X60467Y19765D01*
X59488D01*
X58584Y19391D01*
X57891Y18699D01*
X57832Y18555D01*
X57438Y18633D01*
Y19765D01*
X52517D01*
Y14844D01*
X57438D01*
Y15977D01*
X57832Y16055D01*
X57891Y15911D01*
X58584Y15219D01*
X59488Y14844D01*
X60467D01*
X61371Y15219D01*
X62063Y15911D01*
X62264Y16396D01*
X62691D01*
X62891Y15911D01*
X63584Y15219D01*
X64488Y14844D01*
X65467D01*
X66371Y15219D01*
X67063Y15911D01*
X67264Y16396D01*
X67690D01*
X67891Y15911D01*
X68584Y15219D01*
X69488Y14844D01*
X70467D01*
X71371Y15219D01*
X71888Y15735D01*
X72367Y15693D01*
X72523Y15422D01*
X73094Y14851D01*
X73794Y14447D01*
X74477Y14264D01*
Y17305D01*
Y20346D01*
X73794Y20163D01*
X73094Y19759D01*
X72523Y19188D01*
X72367Y18917D01*
X71888Y18874D01*
X71371Y19391D01*
X70780Y19636D01*
Y20992D01*
X70780Y20993D01*
X70719Y21300D01*
X70545Y21560D01*
X70545Y21560D01*
X68806Y23300D01*
X68545Y23474D01*
X68238Y23535D01*
X57316D01*
X54102Y26749D01*
Y27510D01*
X54393Y27801D01*
X54603Y28308D01*
Y28856D01*
X54393Y29362D01*
X54006Y29750D01*
X53499Y29960D01*
X52951D01*
X52445Y29750D01*
X52057Y29362D01*
X51928Y29051D01*
X51534Y29129D01*
Y29321D01*
X51324Y29827D01*
X50954Y30198D01*
X50959Y30285D01*
X51055Y30592D01*
X72646D01*
X72953Y30653D01*
X73213Y30827D01*
X74442Y32056D01*
X74898Y31868D01*
X75446D01*
X75952Y32077D01*
X76092Y32217D01*
X76774D01*
X77229Y31761D01*
X76635Y31167D01*
X78656Y29146D01*
X78228Y28717D01*
X79416Y27528D01*
X81014Y29126D01*
X81721Y28419D01*
X80123Y26821D01*
X81312Y25633D01*
X82606Y26927D01*
X82811Y26790D01*
X83195Y26714D01*
X83523D01*
X83573Y26593D01*
X84131Y26035D01*
X84755Y25776D01*
Y27717D01*
X85255D01*
Y28217D01*
X87196D01*
X86938Y28841D01*
X86379Y29399D01*
X85778Y29648D01*
X85638Y30065D01*
X86035Y30462D01*
X84493Y32004D01*
X85200Y32712D01*
X86742Y31169D01*
X87872Y32300D01*
X91072Y29100D01*
X91332Y28926D01*
X91639Y28865D01*
X91639Y28865D01*
X97951D01*
Y26421D01*
X101101D01*
Y26970D01*
X102678D01*
X102818Y26633D01*
X103200Y26250D01*
X103200Y26222D01*
X103115Y25856D01*
X96521D01*
X96521Y25856D01*
X96214Y25795D01*
X95954Y25621D01*
X93232Y22900D01*
X89443D01*
Y23356D01*
X86136D01*
Y22873D01*
X84015D01*
Y23449D01*
X80865D01*
Y20693D01*
X84015D01*
Y21268D01*
X86136D01*
Y20285D01*
X86136Y20207D01*
Y19892D01*
X86136Y19813D01*
Y19229D01*
X84015D01*
Y19512D01*
X80865D01*
Y16756D01*
X84015D01*
Y17222D01*
X86100D01*
Y14281D01*
X85234D01*
Y11131D01*
X88974D01*
Y14281D01*
X88107D01*
Y16742D01*
X89443D01*
Y19813D01*
X89443Y19892D01*
Y20207D01*
X89443Y20285D01*
Y21294D01*
X93565D01*
X93872Y21355D01*
X94133Y21529D01*
X96854Y24251D01*
X98325D01*
X98394Y23886D01*
X98394Y23857D01*
Y20579D01*
X98831D01*
Y18882D01*
X97676D01*
Y15142D01*
X100822D01*
Y14355D01*
X97676D01*
Y10615D01*
X98248D01*
Y9237D01*
X98324Y8853D01*
X98541Y8527D01*
X98707Y8362D01*
X98581Y8237D01*
X98135Y7463D01*
X97903Y6600D01*
Y5707D01*
X98135Y4843D01*
X98581Y4070D01*
X99213Y3438D01*
X99987Y2991D01*
X100850Y2760D01*
X101744D01*
X102607Y2991D01*
X103381Y3438D01*
X104013Y4070D01*
X104460Y4843D01*
X104691Y5707D01*
Y6600D01*
X104646Y6768D01*
X104999Y6972D01*
X105435Y6536D01*
X106059Y6277D01*
Y8218D01*
Y10159D01*
X105435Y9900D01*
X104877Y9342D01*
X104575Y8613D01*
Y8051D01*
X104181Y7946D01*
X104013Y8237D01*
X103381Y8869D01*
X102607Y9316D01*
X101744Y9547D01*
X100850D01*
X100574Y9473D01*
X100255Y9742D01*
Y10615D01*
X100826D01*
Y13002D01*
X101220Y13165D01*
X101693Y12692D01*
X101693Y12691D01*
X101954Y12517D01*
X102261Y12456D01*
X102261Y12456D01*
X102758D01*
Y11881D01*
X105908D01*
Y14637D01*
X102758D01*
X102428Y14789D01*
Y15579D01*
X102428Y15661D01*
X102428Y15661D01*
X102428Y15661D01*
X102436Y15675D01*
X102798Y15818D01*
X103070Y15818D01*
X105908D01*
Y18574D01*
X105136D01*
Y19313D01*
X105136Y19313D01*
X105075Y19620D01*
X104901Y19881D01*
X104597Y20185D01*
X104760Y20579D01*
X105008D01*
Y21508D01*
X106817D01*
X107124Y21569D01*
X107384Y21743D01*
X110311Y24670D01*
X110485Y24930D01*
X110546Y25238D01*
X110546Y25238D01*
Y26977D01*
X110622Y27021D01*
X111103Y26888D01*
X111491Y26500D01*
X111997Y26290D01*
X112546D01*
X113052Y26500D01*
X113440Y26888D01*
X113447Y26906D01*
X116221D01*
X116546Y26581D01*
X117052Y26371D01*
X117600D01*
X118107Y26581D01*
X118494Y26969D01*
X118704Y27475D01*
Y28023D01*
X118494Y28530D01*
X118107Y28918D01*
X117600Y29127D01*
X117052D01*
X116546Y28918D01*
X116158Y28530D01*
X116150Y28512D01*
X113377D01*
X113052Y28836D01*
X112745Y28963D01*
X112635Y29410D01*
X117151Y33926D01*
X117151Y33926D01*
X117325Y34187D01*
X117386Y34494D01*
Y46378D01*
X117325Y46685D01*
X117151Y46946D01*
X115392Y48705D01*
X115131Y48879D01*
X114824Y48940D01*
X114722D01*
X114355Y49005D01*
Y49697D01*
X114749Y49744D01*
X115062Y49430D01*
X115569Y49221D01*
X116117D01*
X116623Y49430D01*
X117011Y49818D01*
X117221Y50324D01*
Y50873D01*
X117011Y51379D01*
X116623Y51767D01*
X116117Y51977D01*
X115569D01*
X115355Y51888D01*
X115011Y52118D01*
Y52461D01*
X115336Y52678D01*
X115442Y52634D01*
Y54575D01*
Y56515D01*
X114818Y56257D01*
X114787Y56226D01*
X113201D01*
Y54045D01*
X112201D01*
Y56226D01*
X111003D01*
X110793Y56619D01*
X110803Y56635D01*
X110864Y56943D01*
X110864Y56943D01*
Y57555D01*
X111636D01*
Y60862D01*
X108778D01*
Y61468D01*
X107097D01*
Y59208D01*
X106597D01*
Y58708D01*
X104416D01*
Y56948D01*
X104835D01*
X104936Y56555D01*
X104401Y56020D01*
X104185Y56109D01*
Y54168D01*
X103185D01*
Y56109D01*
X102561Y55851D01*
X102375Y55665D01*
X102012Y55816D01*
Y56433D01*
X102911D01*
Y59291D01*
X103518D01*
Y60972D01*
X101258D01*
Y61472D01*
X100758D01*
Y63653D01*
X98998D01*
Y62508D01*
X98590D01*
Y63718D01*
X97118D01*
Y65834D01*
X97645Y66362D01*
X97904Y66986D01*
X94023D01*
X94281Y66362D01*
X94839Y65804D01*
X95110Y65692D01*
Y63718D01*
X94071D01*
Y62037D01*
X96330D01*
Y61037D01*
X94071D01*
Y59356D01*
X94677D01*
Y56497D01*
X95455D01*
Y54372D01*
X95516Y54065D01*
X95690Y53804D01*
X97130Y52364D01*
X97130Y52364D01*
X97390Y52190D01*
X97394Y52131D01*
X97032Y51740D01*
X96219D01*
X92230Y55729D01*
X92393Y56123D01*
X92513D01*
X93019Y56332D01*
X93407Y56720D01*
X93616Y57227D01*
Y57775D01*
X93407Y58281D01*
X93019Y58669D01*
X92513Y58879D01*
X91964D01*
X91623Y58737D01*
X91264Y59096D01*
X91159Y59166D01*
X90995Y59330D01*
Y61631D01*
X91867D01*
Y64387D01*
X88717D01*
Y61631D01*
X89590D01*
Y59039D01*
X89618Y58898D01*
X89255Y58704D01*
X87108Y60850D01*
X86880Y61002D01*
X86612Y61056D01*
X80189D01*
Y69440D01*
X77493D01*
Y71112D01*
X77439Y71381D01*
X77287Y71609D01*
X75237Y73659D01*
X75306Y73934D01*
X75388Y74053D01*
X76591D01*
X77931Y72713D01*
X78159Y72561D01*
X78428Y72507D01*
X101014D01*
X113442Y60078D01*
X113202Y59838D01*
X113022Y59404D01*
Y58934D01*
X113202Y58500D01*
X113535Y58168D01*
X113969Y57988D01*
X114438D01*
X114873Y58168D01*
X115205Y58500D01*
X115385Y58934D01*
Y59404D01*
X115205Y59838D01*
X114884Y60159D01*
Y60332D01*
X114831Y60601D01*
X114678Y60829D01*
X101801Y73706D01*
X101573Y73859D01*
X101530Y73867D01*
X101568Y74261D01*
X103962D01*
X113868Y64355D01*
Y64169D01*
X113569Y63871D01*
X113389Y63437D01*
Y62967D01*
X113569Y62533D01*
X113901Y62200D01*
X114335Y62020D01*
X114805D01*
X114924Y62069D01*
X115225Y61768D01*
X115150Y61589D01*
Y61119D01*
X115330Y60685D01*
X115663Y60353D01*
X116097Y60173D01*
X116567D01*
X117001Y60353D01*
X117333Y60685D01*
X117513Y61119D01*
Y61589D01*
X117333Y62023D01*
X117034Y62322D01*
Y65041D01*
X116981Y65310D01*
X116828Y65538D01*
X112976Y69390D01*
X112976Y69390D01*
X105165Y77201D01*
X104937Y77353D01*
X104668Y77407D01*
X80085D01*
X75597Y81894D01*
X75369Y82047D01*
X75100Y82100D01*
X64468D01*
Y82741D01*
X64468Y82771D01*
X64472Y82792D01*
X64537Y83141D01*
X65029Y83345D01*
X65416Y83732D01*
X65626Y84239D01*
Y84787D01*
X65416Y85293D01*
X65029Y85681D01*
X64522Y85891D01*
X63974D01*
X63468Y85681D01*
X63184Y85397D01*
X63033Y85419D01*
X62960Y85661D01*
X62950Y85829D01*
X63307Y86186D01*
X63517Y86693D01*
Y87241D01*
X63307Y87747D01*
X62919Y88135D01*
X62413Y88345D01*
X61905D01*
X58793Y91456D01*
X58531Y91632D01*
X58221Y91693D01*
X58221Y91693D01*
X40097D01*
X40097Y91693D01*
X39787Y91632D01*
X39524Y91456D01*
X39524Y91456D01*
X32265Y84196D01*
X32089Y83934D01*
X32027Y83624D01*
X32027Y83624D01*
Y80294D01*
X31668Y79935D01*
X31459Y79428D01*
Y78880D01*
X31668Y78373D01*
X32056Y77986D01*
X32563Y77776D01*
X33111D01*
X33617Y77986D01*
X34005Y78373D01*
X34215Y78880D01*
Y79428D01*
X34005Y79935D01*
X33646Y80294D01*
Y83289D01*
X36739Y86382D01*
X37133Y86219D01*
Y80427D01*
X36774Y80068D01*
X36564Y79562D01*
Y79014D01*
X36774Y78507D01*
X37162Y78119D01*
X37668Y77910D01*
X38216D01*
X38723Y78119D01*
X39110Y78507D01*
X39320Y79014D01*
Y79562D01*
X39110Y80068D01*
X38751Y80427D01*
Y86198D01*
X40476Y87923D01*
X47065D01*
X47143Y87529D01*
X46938Y87444D01*
X46379Y86885D01*
X46121Y86261D01*
X50002D01*
X49744Y86885D01*
X49185Y87444D01*
X48980Y87529D01*
X49058Y87923D01*
X56336D01*
X60318Y83941D01*
X60581Y83765D01*
X60890Y83704D01*
X60890Y83704D01*
X63109D01*
X63468Y83345D01*
X63891Y83169D01*
X63813Y82776D01*
X53642D01*
Y80020D01*
X53274Y79957D01*
X48348D01*
X48079Y79904D01*
X47851Y79752D01*
X38460Y70361D01*
X38307Y70133D01*
X38254Y69864D01*
Y67525D01*
X37976Y67247D01*
X37579Y67247D01*
X37419Y67575D01*
Y70171D01*
X37343Y70555D01*
X37126Y70881D01*
X30834Y77172D01*
X30508Y77390D01*
X30124Y77466D01*
X16905D01*
X16740Y77631D01*
X16234Y77841D01*
X15686D01*
X15179Y77631D01*
X14792Y77243D01*
X14582Y76737D01*
Y76189D01*
X14792Y75682D01*
X14956Y75518D01*
Y74812D01*
X13146D01*
Y70784D01*
X11429D01*
X11122Y70722D01*
X10862Y70548D01*
X10299Y69986D01*
X5635D01*
X5269Y70351D01*
X4763Y70561D01*
X4215D01*
X3708Y70351D01*
X3544Y70187D01*
X3150Y70350D01*
Y85842D01*
X13315Y96006D01*
X13678Y95979D01*
X13895Y95637D01*
X13796Y95396D01*
X17677D01*
X17545Y95716D01*
X17808Y96110D01*
X18687D01*
X19116Y95932D01*
X19586D01*
X20020Y96112D01*
X20352Y96444D01*
X20532Y96878D01*
Y97348D01*
X20352Y97782D01*
X20020Y98114D01*
X19586Y98294D01*
D02*
G37*
G36*
X17677Y94396D02*
X16236D01*
Y92955D01*
X16860Y93214D01*
X17418Y93772D01*
X17677Y94396D01*
D02*
G37*
G36*
X15236D02*
X13796D01*
X14054Y93772D01*
X14612Y93214D01*
X15236Y92955D01*
Y94396D01*
D02*
G37*
G36*
X69952Y95366D02*
X67457D01*
Y91363D01*
X67733Y91399D01*
X68455Y91698D01*
X69075Y92174D01*
X69551Y92794D01*
X69850Y93516D01*
X69952Y94291D01*
Y95366D01*
D02*
G37*
G36*
X35936D02*
X33442D01*
Y91363D01*
X33717Y91399D01*
X34439Y91698D01*
X35059Y92174D01*
X35535Y92794D01*
X35834Y93516D01*
X35936Y94291D01*
Y95366D01*
D02*
G37*
G36*
X66457D02*
X63963D01*
Y94291D01*
X64065Y93516D01*
X64364Y92794D01*
X64840Y92174D01*
X65460Y91698D01*
X66183Y91399D01*
X66457Y91363D01*
Y95366D01*
D02*
G37*
G36*
X32442D02*
X29948D01*
Y94291D01*
X30050Y93516D01*
X30349Y92794D01*
X30825Y92174D01*
X31445Y91698D01*
X32167Y91399D01*
X32442Y91363D01*
Y95366D01*
D02*
G37*
G36*
X28725Y88899D02*
Y87458D01*
X30165D01*
X29907Y88082D01*
X29349Y88640D01*
X28725Y88899D01*
D02*
G37*
G36*
X27725D02*
X27101Y88640D01*
X26542Y88082D01*
X26284Y87458D01*
X27725D01*
Y88899D01*
D02*
G37*
G36*
X33147Y89912D02*
X32599D01*
X32092Y89702D01*
X31705Y89315D01*
X31495Y88808D01*
Y88260D01*
X31705Y87753D01*
X32092Y87366D01*
X32599Y87156D01*
X33147D01*
X33653Y87366D01*
X34041Y87753D01*
X34251Y88260D01*
Y88808D01*
X34041Y89315D01*
X33653Y89702D01*
X33147Y89912D01*
D02*
G37*
G36*
X114822Y96792D02*
X111672D01*
Y94642D01*
X110547D01*
X110239Y94581D01*
X109979Y94407D01*
X109979Y94407D01*
X108831Y93259D01*
X108315D01*
X107808Y93050D01*
X107421Y92662D01*
X107211Y92155D01*
Y91607D01*
X107421Y91101D01*
X107786Y90736D01*
Y88359D01*
X106884D01*
Y84619D01*
X110033D01*
Y88359D01*
X109392D01*
Y90736D01*
X109757Y91101D01*
X109967Y91607D01*
Y92124D01*
X110879Y93036D01*
X112460D01*
X112537Y93052D01*
X114822D01*
Y96792D01*
D02*
G37*
G36*
X50002Y85261D02*
X48561D01*
Y83821D01*
X49185Y84079D01*
X49744Y84637D01*
X50002Y85261D01*
D02*
G37*
G36*
X47561D02*
X46121D01*
X46379Y84637D01*
X46938Y84079D01*
X47561Y83821D01*
Y85261D01*
D02*
G37*
G36*
X81281Y91083D02*
X77540D01*
Y87933D01*
X78608D01*
Y84184D01*
X78049Y83625D01*
X77852D01*
X77346Y83416D01*
X76958Y83028D01*
X76748Y82522D01*
Y81973D01*
X76958Y81467D01*
X77346Y81079D01*
X77852Y80870D01*
X78400D01*
X78907Y81079D01*
X79295Y81467D01*
X79504Y81973D01*
Y82522D01*
X79420Y82725D01*
X79978Y83284D01*
X79978Y83284D01*
X80152Y83544D01*
X80213Y83851D01*
X80213Y83851D01*
Y87933D01*
X81281D01*
Y91083D01*
D02*
G37*
G36*
X89711Y82441D02*
X88030D01*
Y80681D01*
X89711D01*
Y82441D01*
D02*
G37*
G36*
X30849Y81443D02*
X28577D01*
Y78975D01*
X30849D01*
Y81443D01*
D02*
G37*
G36*
X30165Y86458D02*
X26284D01*
X26542Y85834D01*
X27071Y85305D01*
X27057Y85169D01*
X26951Y84912D01*
X25305D01*
Y84343D01*
X24927Y84305D01*
X24912Y84305D01*
X20597D01*
Y83399D01*
X18609D01*
X18071Y83292D01*
X17615Y82988D01*
X17511Y82883D01*
X17434Y82768D01*
X17336Y82670D01*
X17283Y82543D01*
X17206Y82427D01*
X17179Y82292D01*
X17126Y82164D01*
Y82025D01*
X17099Y81890D01*
X17126Y81754D01*
Y81616D01*
X17179Y81488D01*
X17206Y81352D01*
X17283Y81237D01*
X17336Y81109D01*
X17434Y81011D01*
X17511Y80896D01*
X17626Y80819D01*
X17723Y80722D01*
X17851Y80669D01*
X17966Y80592D01*
X18102Y80565D01*
X18230Y80512D01*
X18368D01*
X18504Y80485D01*
X18640Y80512D01*
X18778D01*
X18906Y80565D01*
X19030Y80589D01*
X20597D01*
Y79581D01*
X24912D01*
X24927Y79581D01*
X25305Y79543D01*
Y78975D01*
X27577D01*
Y81943D01*
X28077D01*
Y82443D01*
X30849D01*
Y84912D01*
X29498D01*
X29393Y85169D01*
X29378Y85305D01*
X29907Y85834D01*
X30165Y86458D01*
D02*
G37*
G36*
X89711Y79681D02*
X88030D01*
Y77921D01*
X89711D01*
Y79681D01*
D02*
G37*
G36*
X85808Y91083D02*
X82068D01*
Y87933D01*
X83362D01*
Y86683D01*
X82997Y86317D01*
X82787Y85811D01*
Y85263D01*
X82997Y84756D01*
X83362Y84391D01*
Y81835D01*
X82491D01*
Y78527D01*
X85349D01*
Y77921D01*
X87030D01*
Y80181D01*
Y82441D01*
X85349D01*
Y82441D01*
X84968Y82472D01*
Y84391D01*
X85333Y84756D01*
X85543Y85263D01*
Y85811D01*
X85333Y86317D01*
X84968Y86683D01*
Y87933D01*
X85808D01*
Y91083D01*
D02*
G37*
G36*
X110033Y83832D02*
X106884D01*
Y80091D01*
X107073D01*
X107236Y79698D01*
X107234Y79696D01*
X107025Y79189D01*
Y78641D01*
X107234Y78135D01*
X107622Y77747D01*
X108128Y77537D01*
X108677D01*
X109183Y77747D01*
X109571Y78135D01*
X109780Y78641D01*
Y79189D01*
X109571Y79696D01*
X109569Y79698D01*
X109732Y80091D01*
X110033D01*
Y83832D01*
D02*
G37*
G36*
X96463Y69427D02*
Y67986D01*
X97904D01*
X97645Y68610D01*
X97087Y69168D01*
X96463Y69427D01*
D02*
G37*
G36*
X95463D02*
X94839Y69168D01*
X94281Y68610D01*
X94023Y67986D01*
X95463D01*
Y69427D01*
D02*
G37*
G36*
X91867Y68324D02*
X88717D01*
Y67748D01*
X85367D01*
X85367Y67748D01*
X85060Y67687D01*
X84799Y67513D01*
X84799Y67513D01*
X84598Y67312D01*
X84470Y67365D01*
X83921D01*
X83415Y67155D01*
X83027Y66768D01*
X82818Y66261D01*
Y65713D01*
X83027Y65207D01*
X83415Y64819D01*
X83921Y64609D01*
X84470D01*
X84976Y64819D01*
X85364Y65207D01*
X85574Y65713D01*
Y66017D01*
X85699Y66143D01*
X88717D01*
Y65568D01*
X91867D01*
Y68324D01*
D02*
G37*
G36*
X103518Y63653D02*
X101758D01*
Y61972D01*
X103518D01*
Y63653D01*
D02*
G37*
G36*
X106097Y61468D02*
X104416D01*
Y59708D01*
X106097D01*
Y61468D01*
D02*
G37*
G36*
X116442Y56515D02*
Y55075D01*
X117883D01*
X117624Y55699D01*
X117066Y56257D01*
X116442Y56515D01*
D02*
G37*
G36*
X117883Y54075D02*
X116442D01*
Y52634D01*
X117066Y52893D01*
X117624Y53451D01*
X117883Y54075D01*
D02*
G37*
G36*
X13323Y30916D02*
X12775D01*
X12268Y30706D01*
X11881Y30319D01*
X11671Y29812D01*
Y29264D01*
X11881Y28758D01*
X12268Y28370D01*
X12775Y28160D01*
X13323D01*
X13829Y28370D01*
X13986Y28526D01*
X27446D01*
X27619Y28354D01*
X28126Y28144D01*
X28674D01*
X29180Y28354D01*
X29568Y28741D01*
X29778Y29248D01*
Y29796D01*
X29568Y30302D01*
X29180Y30690D01*
X28674Y30900D01*
X28126D01*
X27619Y30690D01*
X27463Y30533D01*
X14002D01*
X13829Y30706D01*
X13323Y30916D01*
D02*
G37*
G36*
X69140Y28642D02*
Y27202D01*
X70581D01*
X70322Y27826D01*
X69764Y28384D01*
X69140Y28642D01*
D02*
G37*
G36*
X64379Y30076D02*
X63755Y29818D01*
X63650Y29713D01*
X62069D01*
Y27453D01*
Y25193D01*
X63750D01*
Y26030D01*
X64144Y26292D01*
X64379Y26195D01*
Y28135D01*
Y30076D01*
D02*
G37*
G36*
X87196Y27217D02*
X85755D01*
Y25776D01*
X86379Y26035D01*
X86938Y26593D01*
X87196Y27217D01*
D02*
G37*
G36*
X61069Y29713D02*
X59388D01*
Y29106D01*
X56529D01*
Y27812D01*
X56492Y27720D01*
Y27172D01*
X56529Y27081D01*
Y25799D01*
X59388D01*
Y25193D01*
X61069D01*
Y27453D01*
Y29713D01*
D02*
G37*
G36*
X23055Y26227D02*
Y24787D01*
X24496D01*
X24237Y25411D01*
X23679Y25969D01*
X23055Y26227D01*
D02*
G37*
G36*
X22055D02*
X21431Y25969D01*
X20873Y25411D01*
X20615Y24787D01*
X22055D01*
Y26227D01*
D02*
G37*
G36*
X70581Y26202D02*
X69140D01*
Y24761D01*
X69764Y25020D01*
X70322Y25578D01*
X70581Y26202D01*
D02*
G37*
G36*
X65379Y30076D02*
Y28135D01*
Y26195D01*
X66003Y26453D01*
X66262Y26712D01*
X66656Y26549D01*
Y26307D01*
X66958Y25578D01*
X67516Y25020D01*
X68140Y24761D01*
Y26702D01*
Y28642D01*
X67516Y28384D01*
X67257Y28125D01*
X66864Y28288D01*
Y28530D01*
X66562Y29259D01*
X66003Y29818D01*
X65379Y30076D01*
D02*
G37*
G36*
X24496Y23787D02*
X23055D01*
Y22346D01*
X23679Y22604D01*
X24237Y23163D01*
X24496Y23787D01*
D02*
G37*
G36*
X22055D02*
X20615D01*
X20873Y23163D01*
X21431Y22604D01*
X22055Y22346D01*
Y23787D01*
D02*
G37*
G36*
X34313Y24750D02*
X33764D01*
X33258Y24540D01*
X32870Y24153D01*
X32661Y23646D01*
Y23098D01*
X32870Y22592D01*
X33258Y22204D01*
X33764Y21994D01*
X34313D01*
X34819Y22204D01*
X35207Y22592D01*
X35416Y23098D01*
Y23646D01*
X35207Y24153D01*
X34819Y24540D01*
X34313Y24750D01*
D02*
G37*
G36*
X9181Y21947D02*
X8557Y21689D01*
X8359Y21491D01*
X7991Y21429D01*
X7991Y21429D01*
X7991Y21429D01*
X510D01*
Y16705D01*
X7991D01*
Y18334D01*
X8384Y18497D01*
X8557Y18324D01*
X9181Y18066D01*
Y20007D01*
Y21947D01*
D02*
G37*
G36*
X10181D02*
Y20506D01*
X11622D01*
X11363Y21131D01*
X10805Y21689D01*
X10181Y21947D01*
D02*
G37*
G36*
X42287Y24720D02*
X38546D01*
Y21570D01*
X39565D01*
X39593Y21176D01*
X38287Y19870D01*
X32794D01*
Y21429D01*
X25313D01*
Y16705D01*
X32794D01*
Y18264D01*
X38620D01*
X38927Y18325D01*
X39187Y18499D01*
X40984Y20296D01*
X41158Y20557D01*
X41219Y20864D01*
X41219Y20864D01*
Y21570D01*
X42287D01*
Y24720D01*
D02*
G37*
G36*
X11622Y19507D02*
X10181D01*
Y18066D01*
X10805Y18324D01*
X11363Y18882D01*
X11622Y19507D01*
D02*
G37*
G36*
X75477Y20346D02*
Y17805D01*
X78018D01*
X77835Y18488D01*
X77432Y19188D01*
X76860Y19759D01*
X76161Y20163D01*
X75477Y20346D01*
D02*
G37*
G36*
X113007Y17936D02*
X111407D01*
Y16286D01*
X113007D01*
Y17936D01*
D02*
G37*
G36*
X95605Y17220D02*
X94005D01*
Y15570D01*
X95605D01*
Y17220D01*
D02*
G37*
G36*
X93005D02*
X91405D01*
Y15570D01*
X93005D01*
Y17220D01*
D02*
G37*
G36*
X78018Y16805D02*
X75477D01*
Y14264D01*
X76161Y14447D01*
X76860Y14851D01*
X77432Y15422D01*
X77835Y16121D01*
X78018Y16805D01*
D02*
G37*
G36*
X46658Y13588D02*
X46110D01*
X45603Y13378D01*
X45215Y12991D01*
X45006Y12484D01*
Y11936D01*
X45215Y11430D01*
X45603Y11042D01*
X46110Y10832D01*
X46658D01*
X47164Y11042D01*
X47552Y11430D01*
X47762Y11936D01*
Y12484D01*
X47552Y12991D01*
X47164Y13378D01*
X46658Y13588D01*
D02*
G37*
G36*
X6147Y11533D02*
X5599D01*
X5092Y11324D01*
X4705Y10936D01*
X4495Y10430D01*
Y10158D01*
X4101Y9995D01*
X4073Y10023D01*
X3449Y10282D01*
Y8841D01*
X5161D01*
X5169Y8849D01*
X5288Y8906D01*
X5599Y8777D01*
X6147D01*
X6654Y8987D01*
X7041Y9375D01*
X7251Y9881D01*
Y10430D01*
X7041Y10936D01*
X6654Y11324D01*
X6147Y11533D01*
D02*
G37*
G36*
X2449Y10282D02*
X1825Y10023D01*
X1266Y9465D01*
X1008Y8841D01*
X2449D01*
Y10282D01*
D02*
G37*
G36*
X28062Y10266D02*
Y8825D01*
X29503D01*
X29244Y9449D01*
X28686Y10007D01*
X28062Y10266D01*
D02*
G37*
G36*
X27062D02*
X26438Y10007D01*
X25880Y9449D01*
X25621Y8825D01*
X27062D01*
Y10266D01*
D02*
G37*
G36*
X107059Y10159D02*
Y8718D01*
X108500D01*
X108241Y9342D01*
X107683Y9900D01*
X107059Y10159D01*
D02*
G37*
G36*
X84446Y14281D02*
X80706D01*
Y11131D01*
X81583D01*
Y8665D01*
X80155Y7237D01*
X78939D01*
X78515Y7971D01*
X77883Y8603D01*
X77109Y9050D01*
X76246Y9281D01*
X75352D01*
X74489Y9050D01*
X73715Y8603D01*
X73083Y7971D01*
X72637Y7197D01*
X72549Y6872D01*
X69528D01*
Y7343D01*
X66440Y7343D01*
X66334Y7693D01*
Y7949D01*
X64684D01*
Y5849D01*
Y3749D01*
X66334D01*
Y4006D01*
X66440Y4356D01*
X66728Y4356D01*
X69528D01*
Y4865D01*
X72560D01*
X72637Y4577D01*
X73083Y3804D01*
X73715Y3172D01*
X74489Y2725D01*
X75352Y2494D01*
X76246D01*
X77109Y2725D01*
X77883Y3172D01*
X78515Y3804D01*
X78961Y4577D01*
X79136Y5229D01*
X80571D01*
X80955Y5306D01*
X81280Y5523D01*
X83297Y7540D01*
X83514Y7865D01*
X83590Y8249D01*
Y11131D01*
X84446D01*
Y14281D01*
D02*
G37*
G36*
X63684Y7949D02*
X62034D01*
Y6349D01*
X63684D01*
Y7949D01*
D02*
G37*
G36*
X108500Y7718D02*
X107059D01*
Y6277D01*
X107683Y6536D01*
X108241Y7094D01*
X108500Y7718D01*
D02*
G37*
G36*
X95605Y14570D02*
X93505D01*
X91405D01*
Y12920D01*
X91661D01*
X92011Y12814D01*
Y10858D01*
X91992Y10761D01*
Y10257D01*
X90666Y8931D01*
X90391Y9089D01*
X89528Y9320D01*
X88634D01*
X87771Y9089D01*
X86997Y8642D01*
X86365Y8011D01*
X85918Y7237D01*
X85687Y6374D01*
Y5480D01*
X85918Y4617D01*
X86365Y3843D01*
X86997Y3211D01*
X87771Y2764D01*
X88634Y2533D01*
X89528D01*
X90391Y2764D01*
X91165Y3211D01*
X91797Y3843D01*
X92243Y4617D01*
X92475Y5480D01*
Y6374D01*
X92243Y7237D01*
X92085Y7511D01*
X93705Y9131D01*
X93922Y9457D01*
X93976Y9727D01*
X94546D01*
Y7708D01*
X94506D01*
X93776Y7406D01*
X93218Y6847D01*
X92960Y6223D01*
X96841D01*
X96582Y6847D01*
X96553Y6877D01*
Y12976D01*
X96477Y13360D01*
X96259Y13685D01*
X95605Y14340D01*
Y14570D01*
D02*
G37*
G36*
X51793Y7068D02*
Y5627D01*
X53233D01*
X52975Y6251D01*
X52417Y6810D01*
X51793Y7068D01*
D02*
G37*
G36*
X50793D02*
X50169Y6810D01*
X49610Y6251D01*
X49352Y5627D01*
X50793D01*
Y7068D01*
D02*
G37*
G36*
X96841Y5223D02*
X95400D01*
Y3783D01*
X96024Y4041D01*
X96582Y4599D01*
X96841Y5223D01*
D02*
G37*
G36*
X94400D02*
X92960D01*
X93218Y4599D01*
X93776Y4041D01*
X94400Y3783D01*
Y5223D01*
D02*
G37*
G36*
X63684Y5349D02*
X62034D01*
Y3749D01*
X63684D01*
Y5349D01*
D02*
G37*
G36*
X46566Y5165D02*
Y3724D01*
X48007D01*
X47749Y4348D01*
X47190Y4907D01*
X46566Y5165D01*
D02*
G37*
G36*
X45566D02*
X44942Y4907D01*
X44384Y4348D01*
X44126Y3724D01*
X45566D01*
Y5165D01*
D02*
G37*
G36*
X22832Y6274D02*
X22283D01*
X21777Y6064D01*
X21389Y5677D01*
X21180Y5170D01*
Y4622D01*
X21389Y4116D01*
X21777Y3728D01*
X22283Y3518D01*
X22832D01*
X23338Y3728D01*
X23726Y4116D01*
X23935Y4622D01*
Y5170D01*
X23726Y5677D01*
X23338Y6064D01*
X22832Y6274D01*
D02*
G37*
G36*
X53233Y4627D02*
X51793D01*
Y3187D01*
X52417Y3445D01*
X52975Y4003D01*
X53233Y4627D01*
D02*
G37*
G36*
X50793D02*
X49352D01*
X49610Y4003D01*
X50169Y3445D01*
X50793Y3187D01*
Y4627D01*
D02*
G37*
G36*
X17265Y4495D02*
X16717D01*
X16210Y4285D01*
X15823Y3898D01*
X15613Y3391D01*
Y2843D01*
X15823Y2337D01*
X16210Y1949D01*
X16717Y1739D01*
X17265D01*
X17771Y1949D01*
X18159Y2337D01*
X18369Y2843D01*
Y3391D01*
X18159Y3898D01*
X17771Y4285D01*
X17265Y4495D01*
D02*
G37*
G36*
X48007Y2724D02*
X46566D01*
Y1284D01*
X47190Y1542D01*
X47749Y2100D01*
X48007Y2724D01*
D02*
G37*
G36*
X45566D02*
X44126D01*
X44384Y2100D01*
X44942Y1542D01*
X45566Y1284D01*
Y2724D01*
D02*
G37*
G36*
X28554Y3606D02*
X24707D01*
Y1138D01*
X28554D01*
Y3606D01*
D02*
G37*
G36*
X8597D02*
X4750D01*
Y1138D01*
X8597D01*
Y3606D01*
D02*
G37*
%LPD*%
G36*
X66284Y78159D02*
X66204Y78052D01*
X49878D01*
X49878Y78052D01*
X49570Y77991D01*
X49310Y77816D01*
X49310Y77816D01*
X41473Y69980D01*
X41299Y69719D01*
X41238Y69412D01*
Y55153D01*
X36165Y50080D01*
X35801Y50231D01*
Y51859D01*
X36139Y52142D01*
X36186Y52144D01*
X36690D01*
X37196Y52354D01*
X37584Y52742D01*
X37794Y53248D01*
Y53796D01*
X37584Y54303D01*
X37419Y54467D01*
Y56092D01*
X37579Y56420D01*
X37813Y56420D01*
X40334D01*
Y67247D01*
X39659D01*
Y69573D01*
X48639Y78553D01*
X66086D01*
X66284Y78159D01*
D02*
G37*
G36*
X66675Y76248D02*
X67008Y76110D01*
X67096Y75733D01*
X66831Y75458D01*
X64468D01*
Y75886D01*
X53642D01*
Y75311D01*
X50512D01*
X50512Y75311D01*
X50205Y75250D01*
X49945Y75076D01*
X45279Y70409D01*
X45105Y70149D01*
X45044Y69842D01*
Y67247D01*
X44468D01*
Y56420D01*
X47224D01*
Y57200D01*
X47618Y57363D01*
X47821Y57160D01*
X48327Y56950D01*
X48875D01*
X49299Y57126D01*
X49522Y56792D01*
X47363Y54633D01*
X43207D01*
X43030Y54724D01*
X42843Y54984D01*
Y69079D01*
X50210Y76446D01*
X66476D01*
X66675Y76248D01*
D02*
G37*
G36*
X66737Y73934D02*
X66807Y73659D01*
X63888Y70740D01*
X63736Y70513D01*
X63682Y70244D01*
Y66605D01*
X62727Y65650D01*
X61555D01*
Y65374D01*
X60799D01*
X60768Y65387D01*
X60505D01*
Y67323D01*
X60405Y67563D01*
X60618Y67901D01*
X60770Y67838D01*
Y69278D01*
X59330D01*
X59588Y68654D01*
X60115Y68128D01*
X60078Y67953D01*
X59979Y67749D01*
X58110D01*
X57809Y67624D01*
X57684Y67323D01*
Y65387D01*
X57421D01*
X57389Y65374D01*
X56634D01*
Y65650D01*
X54469D01*
Y63091D01*
X56634D01*
Y63090D01*
X56995Y63012D01*
Y62420D01*
X56601Y62342D01*
X56590Y62368D01*
X56289Y62493D01*
X52837D01*
X52837Y62493D01*
X52616Y62402D01*
X52402D01*
Y59671D01*
X50137Y57407D01*
X49804Y57630D01*
X49979Y58054D01*
Y58602D01*
X49769Y59109D01*
X49382Y59496D01*
X48875Y59706D01*
X48327D01*
X47821Y59496D01*
X47618Y59294D01*
X47224Y59457D01*
Y64302D01*
X47618Y64381D01*
X47844Y63834D01*
X48403Y63276D01*
X49027Y63017D01*
Y64958D01*
Y66899D01*
X48403Y66640D01*
X47844Y66082D01*
X47618Y65536D01*
X47224Y65614D01*
Y67247D01*
X46649D01*
Y69509D01*
X50845Y73705D01*
X53642D01*
Y73130D01*
X64468D01*
Y74053D01*
X66656D01*
X66737Y73934D01*
D02*
G37*
G36*
X35412Y69755D02*
Y67734D01*
X32328D01*
Y65725D01*
X32302Y65685D01*
X32240Y65378D01*
X32302Y65071D01*
X32328Y65031D01*
Y63994D01*
X32009Y63813D01*
X31721D01*
Y61837D01*
X33902D01*
Y60837D01*
X31721D01*
Y58860D01*
X31988D01*
X32151Y58467D01*
X32117Y58432D01*
X31907Y57925D01*
Y57377D01*
X32117Y56871D01*
X32482Y56505D01*
Y54981D01*
X31888D01*
Y52123D01*
X31281D01*
Y50442D01*
X33541D01*
Y49442D01*
X31281D01*
Y47761D01*
X33331D01*
X33482Y47397D01*
X31384Y45299D01*
X31210Y45038D01*
X31148Y44731D01*
Y43843D01*
X30774Y43468D01*
X30564Y42962D01*
Y42414D01*
X30774Y41907D01*
X31161Y41520D01*
X31668Y41310D01*
X32216D01*
X32652Y41491D01*
X33046Y41329D01*
Y36367D01*
X30789D01*
X24588Y42568D01*
X24132Y42872D01*
X23595Y42979D01*
X22532D01*
X22381Y43343D01*
X22382Y43344D01*
X22592Y43851D01*
Y44399D01*
X22665Y44508D01*
X22934D01*
Y45854D01*
X25759D01*
Y44747D01*
X29696D01*
Y48291D01*
X25759D01*
Y47861D01*
X22934D01*
Y48051D01*
X18997D01*
Y47835D01*
X16235D01*
Y48605D01*
X12298D01*
Y47837D01*
X8595D01*
X5492Y50939D01*
Y68238D01*
X5635Y68380D01*
X10632D01*
X10939Y68441D01*
X11199Y68615D01*
X11762Y69178D01*
X12540D01*
Y67832D01*
X18477D01*
Y69178D01*
X19095D01*
X19403Y69239D01*
X19663Y69413D01*
X20124Y69874D01*
X20124Y69874D01*
X20298Y70135D01*
X20359Y70442D01*
X20359Y70442D01*
Y71303D01*
X21146Y72090D01*
X21581D01*
X22088Y72300D01*
X22475Y72688D01*
X22685Y73194D01*
Y73742D01*
X22475Y74249D01*
X22088Y74636D01*
X21581Y74846D01*
X21033D01*
X20527Y74636D01*
X20139Y74249D01*
X19929Y73742D01*
Y73194D01*
X19944Y73159D01*
X18989Y72204D01*
X18815Y71943D01*
X18754Y71636D01*
Y70784D01*
X17870D01*
Y74812D01*
X16963D01*
Y75459D01*
X29708D01*
X35412Y69755D01*
D02*
G37*
G36*
X60079Y64961D02*
X60768D01*
Y60827D01*
X57421D01*
Y64961D01*
X58110D01*
Y67323D01*
X60079D01*
Y64961D01*
D02*
G37*
G36*
X64704Y62103D02*
X64704Y60029D01*
X64692Y60041D01*
X62642D01*
X60964Y58363D01*
Y56901D01*
X60940Y56877D01*
X60079D01*
Y54724D01*
X58110D01*
Y56877D01*
X57260D01*
X57248Y56889D01*
Y58651D01*
X56025Y59873D01*
X52849D01*
Y62055D01*
X52837Y62067D01*
X56289D01*
Y61012D01*
X57596Y59706D01*
X60712D01*
X62019Y61012D01*
Y62115D01*
X64692D01*
X64704Y62103D01*
D02*
G37*
G36*
X81071Y46260D02*
X83433D01*
Y44291D01*
X81071D01*
Y43602D01*
X76937D01*
Y46949D01*
X81071D01*
Y46260D01*
D02*
G37*
G36*
X3562Y50139D02*
X3779Y49814D01*
X7470Y46123D01*
X7795Y45906D01*
X8179Y45829D01*
X12298D01*
Y45061D01*
X16235D01*
Y45828D01*
X18997D01*
Y44508D01*
X19763D01*
X19836Y44399D01*
Y43851D01*
X20046Y43344D01*
X20047Y43343D01*
X19896Y42979D01*
X18142D01*
X16981Y44140D01*
X16525Y44445D01*
X15988Y44552D01*
X4734D01*
X4196Y44445D01*
X3885Y44237D01*
X3868Y44230D01*
X3856Y44217D01*
X3740Y44140D01*
X3655Y44055D01*
X3578Y43940D01*
X3544Y43906D01*
X3244Y43974D01*
X3150Y44027D01*
Y50189D01*
X3544Y50228D01*
X3562Y50139D01*
D02*
G37*
G36*
X78191Y48196D02*
X77136D01*
X75830Y46890D01*
Y43773D01*
X77136Y42467D01*
X78239D01*
Y39794D01*
X78227Y39781D01*
X76153Y39781D01*
X76165Y39793D01*
Y41843D01*
X74487Y43521D01*
X73025D01*
X73001Y43545D01*
Y44291D01*
X70835D01*
Y46260D01*
X73001D01*
Y47225D01*
X73013Y47237D01*
X74775D01*
X75998Y48460D01*
Y51637D01*
X78179D01*
X78191Y51649D01*
Y48196D01*
D02*
G37*
G36*
X54469Y57818D02*
Y56476D01*
X54849D01*
Y54213D01*
X54902Y53944D01*
X55054Y53716D01*
X56676Y52094D01*
X56904Y51942D01*
X57173Y51889D01*
X65622D01*
X65668Y51837D01*
X65810Y51520D01*
X65211Y50921D01*
X64862Y50787D01*
Y50787D01*
X64862Y50787D01*
X54035D01*
Y48031D01*
X59333D01*
X59484Y47668D01*
X59478Y47662D01*
X59219Y47038D01*
X61160D01*
Y46038D01*
X59219D01*
X59478Y45414D01*
X60036Y44855D01*
X60765Y44553D01*
X61263D01*
X61348Y44537D01*
X61528Y44115D01*
X61412Y43898D01*
X54035D01*
Y41142D01*
X64797D01*
Y41016D01*
X65099Y40286D01*
X65657Y39728D01*
X66281Y39470D01*
Y41410D01*
X66781D01*
Y41910D01*
X68722D01*
X68464Y42534D01*
X67905Y43093D01*
X67613Y43214D01*
Y43640D01*
X67807Y43720D01*
X68365Y44278D01*
X68668Y45008D01*
X69054Y44991D01*
Y42906D01*
X69108Y42637D01*
X69260Y42409D01*
X70434Y41236D01*
X70661Y41083D01*
X70930Y41030D01*
X72587D01*
Y40650D01*
X75264D01*
Y41243D01*
X75657Y41453D01*
X75739Y41399D01*
Y40563D01*
X75736Y40550D01*
X71553Y36367D01*
X51954D01*
X51888Y36454D01*
X51780Y36761D01*
X52014Y37111D01*
X52117Y37628D01*
Y38103D01*
X49595D01*
Y38603D01*
X49095D01*
Y40929D01*
X48423D01*
X47906Y40826D01*
X47546Y40585D01*
X46553D01*
Y42550D01*
X43690D01*
Y39582D01*
X42691D01*
Y42550D01*
X39867D01*
X39617Y42856D01*
X41854Y45093D01*
X45946D01*
Y47830D01*
X46970D01*
X47354Y47906D01*
X47680Y48124D01*
X49758Y50202D01*
X49991D01*
X50498Y50412D01*
X50885Y50800D01*
X51095Y51306D01*
Y51854D01*
X50885Y52361D01*
X50498Y52748D01*
X49991Y52958D01*
X49651D01*
X49488Y53352D01*
X54105Y57968D01*
X54469Y57818D01*
D02*
G37*
G36*
X84788Y35384D02*
X84473Y35070D01*
X82452Y37091D01*
X81435Y36073D01*
X81041D01*
X80967Y36148D01*
X80707Y36322D01*
X80399Y36383D01*
X78409D01*
X78044Y36748D01*
X77538Y36958D01*
X76989D01*
X76483Y36748D01*
X76095Y36361D01*
X75885Y35854D01*
Y35306D01*
X76095Y34800D01*
X76183Y34712D01*
X75952Y34414D01*
X75446Y34623D01*
X74898D01*
X74391Y34414D01*
X74004Y34026D01*
X73868Y33698D01*
X73702Y33587D01*
X73702Y33587D01*
X72313Y32198D01*
X41985D01*
Y32298D01*
X41775Y32805D01*
X41417Y33163D01*
X41431Y33299D01*
X41536Y33557D01*
X72135D01*
X72673Y33664D01*
X73129Y33969D01*
X77743Y38583D01*
X78512D01*
Y39434D01*
X80738D01*
X84788Y35384D01*
D02*
G37*
G36*
X102755Y43913D02*
X104186D01*
Y42913D01*
X102778D01*
X102921Y42568D01*
X103341Y42148D01*
X103890Y41921D01*
X104225D01*
X104245Y41911D01*
X104520Y41543D01*
X104501Y41445D01*
Y40833D01*
X102941D01*
Y37093D01*
X106091D01*
Y39672D01*
X106106Y39750D01*
Y40733D01*
X106140Y40755D01*
X106533Y40545D01*
Y40205D01*
X106594Y39898D01*
X106768Y39637D01*
X107673Y38732D01*
X107932Y38559D01*
Y37387D01*
X107613Y37206D01*
X107326D01*
Y35230D01*
X109507D01*
Y34230D01*
X107326D01*
Y34152D01*
X106790Y33616D01*
X106531Y32992D01*
X108472D01*
Y31992D01*
X106531D01*
X106790Y31368D01*
X107293Y30865D01*
X107242Y30606D01*
X107172Y30471D01*
X105826D01*
X105585Y30865D01*
X105710Y31166D01*
Y31714D01*
X105520Y32171D01*
X105670Y32565D01*
X106091D01*
Y36305D01*
X102941D01*
Y32565D01*
X102994D01*
X103143Y32171D01*
X102954Y31714D01*
Y31166D01*
X103079Y30865D01*
X102838Y30471D01*
X101101D01*
Y33114D01*
X100287D01*
Y33647D01*
X101808Y35168D01*
X101960Y35396D01*
X102013Y35664D01*
Y44286D01*
X102506D01*
X102755Y43913D01*
D02*
G37*
G36*
X88599Y34584D02*
X88860Y34410D01*
X89167Y34349D01*
X89167Y34349D01*
X94574D01*
X94940Y33984D01*
X95446Y33774D01*
X95994D01*
X96501Y33984D01*
X96889Y34372D01*
X97098Y34878D01*
Y35426D01*
X96889Y35933D01*
X96501Y36320D01*
X95994Y36530D01*
X95848D01*
X95685Y36924D01*
X95802Y37041D01*
X96012Y37547D01*
Y38010D01*
X96257Y38168D01*
X96375Y38203D01*
X97255Y37324D01*
X97483Y37172D01*
X97653Y37138D01*
X97787Y36814D01*
X98175Y36427D01*
X98681Y36217D01*
X99229D01*
X99736Y36427D01*
X100123Y36814D01*
X100215Y37035D01*
X100609Y36957D01*
Y35955D01*
X99088Y34435D01*
X98935Y34207D01*
X98882Y33938D01*
Y33114D01*
X97951D01*
Y30471D01*
X91972D01*
X81898Y40544D01*
X81893Y40572D01*
X81924Y40703D01*
X82359Y40825D01*
X88599Y34584D01*
D02*
G37*
%LPC*%
G36*
X61770Y71719D02*
Y70278D01*
X63211D01*
X62953Y70902D01*
X62394Y71460D01*
X61770Y71719D01*
D02*
G37*
G36*
X60770D02*
X60146Y71460D01*
X59588Y70902D01*
X59330Y70278D01*
X60770D01*
Y71719D01*
D02*
G37*
G36*
X63211Y69278D02*
X61770D01*
Y67838D01*
X62394Y68096D01*
X62953Y68654D01*
X63211Y69278D01*
D02*
G37*
G36*
X53022Y68239D02*
X52474D01*
X51968Y68029D01*
X51580Y67641D01*
X51370Y67135D01*
Y66587D01*
X51448Y66400D01*
X51114Y66176D01*
X50651Y66640D01*
X50027Y66899D01*
Y65458D01*
X51467D01*
X51341Y65763D01*
X51675Y65986D01*
X51968Y65693D01*
X52474Y65483D01*
X53022D01*
X53529Y65693D01*
X53917Y66080D01*
X54126Y66587D01*
Y67135D01*
X53917Y67641D01*
X53529Y68029D01*
X53022Y68239D01*
D02*
G37*
G36*
X51467Y64458D02*
X50027D01*
Y63017D01*
X50651Y63276D01*
X51209Y63834D01*
X51467Y64458D01*
D02*
G37*
G36*
X30487Y73108D02*
X27337D01*
Y69581D01*
X27337Y69368D01*
X27018Y69187D01*
X26731D01*
Y67211D01*
X31093D01*
Y69187D01*
X30806D01*
X30487Y69368D01*
X30487Y69581D01*
Y73108D01*
D02*
G37*
G36*
X31093Y66211D02*
X29412D01*
Y64234D01*
X31093D01*
Y66211D01*
D02*
G37*
G36*
X28412D02*
X26731D01*
Y64234D01*
X28412D01*
Y66211D01*
D02*
G37*
G36*
X24958Y74664D02*
X24410D01*
X23904Y74454D01*
X23516Y74066D01*
X23306Y73560D01*
Y73011D01*
X23516Y72505D01*
X23540Y72481D01*
Y70557D01*
X20803D01*
Y66242D01*
X20803Y66227D01*
X20765Y65849D01*
X20197D01*
Y65113D01*
X19979Y64967D01*
Y62913D01*
X18979D01*
Y64854D01*
X18804Y64781D01*
X18477Y65000D01*
Y66832D01*
X12540D01*
Y64560D01*
X13882D01*
X14033Y64196D01*
X13918Y64082D01*
X13660Y63458D01*
X15601D01*
Y62458D01*
X13660D01*
X13918Y61834D01*
X14445Y61307D01*
X14462Y60888D01*
X14328Y60833D01*
X13770Y60275D01*
X13511Y59651D01*
X15452D01*
Y58651D01*
X13511D01*
X13770Y58027D01*
X14328Y57468D01*
X14625Y57345D01*
Y56919D01*
X14305Y56787D01*
X13747Y56229D01*
X13445Y55499D01*
Y54920D01*
X11691D01*
Y53042D01*
X14266D01*
X16841D01*
Y53710D01*
X17111Y53980D01*
X17225Y54254D01*
X17651D01*
X17864Y53740D01*
X18391Y53213D01*
Y52488D01*
X20965D01*
X23540D01*
Y52857D01*
X23864D01*
X24594Y53159D01*
X24857Y53422D01*
X25153Y53161D01*
Y52728D01*
X27228D01*
Y54606D01*
X26572D01*
X25671Y55507D01*
X25345Y55725D01*
X25243Y55745D01*
X25152Y55965D01*
X24594Y56523D01*
X24329Y56633D01*
Y57059D01*
X24548Y57150D01*
X25107Y57708D01*
X25365Y58332D01*
X23425D01*
Y59332D01*
X25365D01*
X25125Y59912D01*
X25271Y60305D01*
X26134D01*
Y62577D01*
X23166D01*
Y63577D01*
X26134D01*
Y65849D01*
X25566D01*
X25528Y66227D01*
X25528Y66242D01*
Y69476D01*
X25547Y69573D01*
Y72200D01*
X25853Y72505D01*
X26062Y73011D01*
Y73560D01*
X25853Y74066D01*
X25465Y74454D01*
X24958Y74664D01*
D02*
G37*
G36*
X30303Y54606D02*
X28228D01*
Y52728D01*
X30303D01*
Y54606D01*
D02*
G37*
G36*
X16841Y52042D02*
X14766D01*
Y50164D01*
X16841D01*
Y52042D01*
D02*
G37*
G36*
X13766D02*
X11691D01*
Y50164D01*
X13766D01*
Y52042D01*
D02*
G37*
G36*
X30303Y51728D02*
X28228D01*
Y49850D01*
X30303D01*
Y51728D01*
D02*
G37*
G36*
X27228D02*
X25153D01*
Y49850D01*
X27228D01*
Y51728D01*
D02*
G37*
G36*
X23540Y51488D02*
X21465D01*
Y49610D01*
X23540D01*
Y51488D01*
D02*
G37*
G36*
X20465D02*
X18391D01*
Y49610D01*
X20465D01*
Y51488D01*
D02*
G37*
G36*
X52101Y48600D02*
X51553D01*
X51046Y48390D01*
X50659Y48003D01*
X50449Y47496D01*
Y46980D01*
X49554Y46084D01*
X49380Y45824D01*
X49379Y45823D01*
X48423D01*
X48143Y45767D01*
X47905Y45608D01*
X47746Y45370D01*
X47691Y45090D01*
Y43140D01*
X47746Y42859D01*
X47905Y42622D01*
X48143Y42463D01*
X48423Y42407D01*
X50766D01*
X51046Y42463D01*
X51284Y42622D01*
X51443Y42859D01*
X51498Y43140D01*
Y45090D01*
X51443Y45370D01*
X51309Y45569D01*
X51584Y45844D01*
X52101D01*
X52607Y46054D01*
X52995Y46442D01*
X53205Y46948D01*
Y47496D01*
X52995Y48003D01*
X52607Y48390D01*
X52101Y48600D01*
D02*
G37*
G36*
X68722Y40910D02*
X67281D01*
Y39470D01*
X67905Y39728D01*
X68464Y40286D01*
X68722Y40910D01*
D02*
G37*
G36*
X50766Y40929D02*
X50094D01*
Y39103D01*
X52117D01*
Y39578D01*
X52014Y40095D01*
X51721Y40533D01*
X51283Y40826D01*
X50766Y40929D01*
D02*
G37*
%LPD*%
D11*
X31951Y44731D02*
X42041Y54820D01*
X31951Y42697D02*
Y44731D01*
X42041Y54820D02*
Y69412D01*
X49878Y77249D01*
X67344D01*
X84259Y42276D02*
X88848Y37687D01*
X84259Y42276D02*
Y46548D01*
X88848Y37687D02*
X94499D01*
X112312Y27709D02*
X117286D01*
X117326Y27749D01*
X91639Y29668D02*
X108153D01*
X110387Y31901D02*
X110393D01*
X108153Y29668D02*
X110387Y31901D01*
X107555Y27229D02*
X114703Y34377D01*
X107555Y25925D02*
Y27229D01*
X114703Y34377D02*
Y44960D01*
X112271Y27668D02*
X112312Y27709D01*
X116583Y34494D02*
Y46378D01*
X109744Y25238D02*
Y27654D01*
X116583Y34494D01*
X40927Y32024D02*
X41556Y31395D01*
X72646D02*
X74270Y33019D01*
X40607Y32024D02*
X40927D01*
X41556Y31395D02*
X72646D01*
X44944Y23145D02*
X47788D01*
X53225Y28582D01*
X53299Y26416D02*
Y28508D01*
X53225Y28582D02*
X53299Y28508D01*
Y26416D02*
X56984Y22732D01*
X58098Y27446D02*
X58104Y27453D01*
X57870Y27446D02*
X58098D01*
X74946Y33019D02*
X75172Y33245D01*
X74270Y33019D02*
X74946D01*
X75683Y52436D02*
X80253D01*
X83012Y49677D01*
X73925Y50678D02*
X75683Y52436D01*
X79411Y83851D02*
Y89508D01*
X78126Y82567D02*
X79411Y83851D01*
X78126Y82248D02*
Y82567D01*
X84065Y80181D02*
X84165Y80281D01*
Y89116D02*
X84431Y89383D01*
X84165Y80281D02*
Y89116D01*
X104332Y31440D02*
Y34405D01*
X81070Y40237D02*
X91639Y29668D01*
X104332Y34405D02*
X104507Y34579D01*
X108402Y78915D02*
Y81510D01*
X108422Y81530D01*
X83012Y47795D02*
X84259Y46548D01*
X83012Y47795D02*
Y49677D01*
X110393Y31901D02*
X112576Y34084D01*
Y43537D01*
X106817Y22311D02*
X109744Y25238D01*
X103434Y22311D02*
X106817D01*
X96521Y25054D02*
X106684D01*
X107555Y25925D01*
X84409Y65987D02*
X85367Y66946D01*
X84196Y65987D02*
X84409D01*
X85367Y66946D02*
X90292D01*
X93565Y22097D02*
X96521Y25054D01*
X103773Y27413D02*
X103986D01*
X103413Y27773D02*
X103773Y27413D01*
X99552Y27773D02*
X103413D01*
X115824Y50580D02*
X115843Y50599D01*
X112701Y50580D02*
X115824D01*
X101209Y54421D02*
Y58079D01*
X99645Y53145D02*
X99933D01*
X98816Y52775D02*
X99275D01*
X99933Y53145D02*
X101209Y54421D01*
X99275Y52775D02*
X99645Y53145D01*
X96257Y54372D02*
X97698Y52931D01*
X96257Y54372D02*
Y58251D01*
X98660Y52931D02*
X98886Y52706D01*
X97698Y52931D02*
X98660D01*
X31942Y42688D02*
X31951Y42697D01*
X45846Y69842D02*
X50512Y74508D01*
X59055D01*
X82440Y22071D02*
X87500D01*
X87790Y21781D01*
X88105Y22097D01*
X93565D01*
X113101Y46563D02*
X114703Y44960D01*
X108911Y46563D02*
X113101D01*
X107336Y40205D02*
X108241Y39300D01*
X107336Y40205D02*
Y43360D01*
X71752Y56326D02*
Y61024D01*
X45846Y61833D02*
Y69842D01*
X69622Y67222D02*
X71331D01*
X71921Y66632D01*
Y64027D02*
Y66632D01*
X59802Y49763D02*
X65188D01*
X71752Y56326D01*
X59449Y49409D02*
X59802Y49763D01*
X33285Y53663D02*
Y57651D01*
Y53663D02*
X33541Y53407D01*
X106551Y54089D02*
X106651D01*
X108411Y55849D01*
X108968D02*
X110062Y56943D01*
X108411Y55849D02*
X108968D01*
X110062Y56943D02*
Y59208D01*
X108422Y86057D02*
X108589Y86224D01*
Y91881D02*
X110547Y93839D01*
X108589Y86224D02*
Y91881D01*
X110547Y93839D02*
X112460D01*
X113247Y94626D02*
Y94922D01*
X112460Y93839D02*
X113247Y94626D01*
X99526Y27799D02*
X99552Y27773D01*
X103434Y20213D02*
X104333Y19313D01*
Y17196D02*
Y19313D01*
X114824Y48138D02*
X116583Y46378D01*
X108911Y48138D02*
X114824D01*
X103434Y20213D02*
Y22311D01*
X82636Y41683D02*
Y45155D01*
Y41683D02*
X89167Y35152D01*
X95720D01*
X105724Y41865D02*
Y43376D01*
X105761Y43413D01*
X105304Y41445D02*
X105724Y41865D01*
X105304Y39750D02*
Y41445D01*
X104516Y38963D02*
X105304Y39750D01*
X73925Y48819D02*
Y50678D01*
X94499Y37687D02*
X94634Y37822D01*
X78231Y40237D02*
X81070D01*
X108911Y44988D02*
X111125D01*
X112576Y43537D01*
X102261Y13259D02*
X104333D01*
X101625Y13895D02*
X102261Y13259D01*
X101625Y13895D02*
Y15661D01*
X101164Y16122D02*
X101625Y15661D01*
X100039Y16122D02*
X101164D01*
X99251Y16909D02*
X100039Y16122D01*
X99251Y16909D02*
Y17012D01*
X19095Y69981D02*
X19557Y70442D01*
Y71636D01*
X21307Y73387D01*
X11429Y69981D02*
X19095D01*
X21307Y73387D02*
Y73468D01*
X33734Y66073D02*
X33810D01*
X33115Y65378D02*
X33986Y66249D01*
X33043Y65378D02*
X33115D01*
X33810Y66073D02*
X33986Y66249D01*
X28912Y71249D02*
X28956Y71293D01*
X28912Y71238D02*
Y71249D01*
X40416Y20864D02*
Y23145D01*
X38620Y19067D02*
X40416Y20864D01*
X29054Y19067D02*
X38620D01*
X103685Y54168D02*
X105810Y56293D01*
Y58421D01*
X106597Y59208D01*
X75172Y33245D02*
X75398Y33019D01*
X77107D02*
X78904Y31223D01*
X75398Y33019D02*
X77107D01*
X78904Y31223D02*
X78918D01*
X82341Y34752D02*
X82397Y34808D01*
X81227Y34752D02*
X82341D01*
X80399Y35580D02*
X81227Y34752D01*
X77263Y35580D02*
X80399D01*
X50121Y45517D02*
X51827Y47222D01*
X50121Y43281D02*
Y45517D01*
X113315Y99518D02*
Y103879D01*
X113247Y99449D02*
X113315Y99518D01*
X56984Y22732D02*
X68238D01*
X69977Y20993D01*
Y17305D02*
Y20993D01*
X10632Y69183D02*
X11429Y69981D01*
X4489Y69183D02*
X10632D01*
D16*
X74063Y53696D02*
X81291D01*
X69757Y49390D02*
X74063Y53696D01*
X81291D02*
X84329Y50658D01*
X85859Y43027D02*
Y46859D01*
X84329Y48388D02*
Y50658D01*
Y48388D02*
X85859Y46859D01*
Y43027D02*
X88674Y40211D01*
X87023Y58188D02*
X90998Y54213D01*
X77728Y58188D02*
X87023D01*
X76790Y59125D02*
X77728Y58188D01*
X90998Y46936D02*
Y54213D01*
X89808Y46447D02*
Y53774D01*
X77103Y57045D02*
X86536D01*
X89808Y53774D01*
X74089Y58213D02*
X76357Y55945D01*
X85661D01*
X88717Y52890D01*
X72668Y54798D02*
X84235D01*
X62350Y44480D02*
X72668Y54798D01*
X84235D02*
X86091Y52943D01*
X88717Y45560D02*
X94287Y39990D01*
X88717Y45560D02*
Y52890D01*
X89808Y46447D02*
X94841Y41414D01*
X75380Y58768D02*
X77103Y57045D01*
X76790Y59125D02*
Y71112D01*
X75380Y58768D02*
Y70509D01*
X74089Y58213D02*
Y69156D01*
X72804Y70440D02*
X74089Y69156D01*
X73902Y71988D02*
X75380Y70509D01*
X68097Y71988D02*
X73902D01*
X66257Y70148D02*
X68097Y71988D01*
X67374Y73233D02*
X74669D01*
X76790Y71112D01*
X66257Y59859D02*
Y70148D01*
X64385Y70244D02*
X67374Y73233D01*
X62638Y64567D02*
X64385Y66314D01*
Y70244D01*
X114182Y59191D02*
X114204Y59169D01*
X101304Y73210D02*
X114182Y60332D01*
Y59191D02*
Y60332D01*
X78428Y73210D02*
X101304D01*
X76882Y74756D02*
X78428Y73210D01*
X67882Y74756D02*
X76882D01*
X48348Y79255D02*
X74846D01*
X79137Y74963D02*
X104253D01*
X74846Y79255D02*
X79137Y74963D01*
X59303Y74756D02*
X67882D01*
X114570Y63202D02*
Y64646D01*
X104253Y74963D02*
X114570Y64646D01*
X38956Y69864D02*
X48348Y79255D01*
X79794Y76704D02*
X104668D01*
X112479Y68894D01*
X75100Y81398D02*
X79794Y76704D01*
X59055Y81398D02*
X75100D01*
X116332Y61354D02*
Y65041D01*
X59055Y74508D02*
X59303Y74756D01*
X90292Y59039D02*
X90732Y58600D01*
X90767D02*
X91866Y57501D01*
X92238D01*
X90732Y58600D02*
X90767D01*
X90292Y59039D02*
Y63009D01*
X95928Y51037D02*
X98188D01*
X79500Y60353D02*
X86612D01*
X95928Y51037D01*
X90998Y46936D02*
X94358Y43576D01*
X92989Y46734D02*
X94735Y44988D01*
X92989Y46734D02*
Y49654D01*
X101744Y49712D02*
X105761D01*
X101704Y49753D02*
X101744Y49712D01*
X97430Y49753D02*
X101704D01*
X95168Y47491D02*
X97430Y49753D01*
X67506Y54453D02*
Y68827D01*
X65645Y52591D02*
X67506Y54453D01*
X57173Y52591D02*
X65645D01*
X104091Y46563D02*
X104186D01*
X102180Y48473D02*
X104091Y46563D01*
X98768Y48473D02*
X102180D01*
X98756Y48461D02*
X98768Y48473D01*
X59449Y42520D02*
X61760D01*
X62350Y43110D01*
Y44480D01*
X70930Y41732D02*
X73925D01*
X69757Y42906D02*
X70930Y41732D01*
X69757Y42906D02*
Y49390D01*
X91251Y40211D02*
X91256Y40206D01*
X88674Y40211D02*
X91251D01*
X38956Y61833D02*
Y69864D01*
X99526Y31736D02*
X99584Y31795D01*
Y33938D01*
X101311Y35664D01*
Y44859D01*
X94735Y44988D02*
X101181D01*
X101311Y44859D01*
X101181Y44988D02*
X104186D01*
X112479Y68894D02*
X116332Y65041D01*
X112479Y68894D02*
Y68894D01*
X62638Y64370D02*
Y64567D01*
X94358Y43576D02*
X95869D01*
X96031Y43413D01*
X55551Y54213D02*
Y57815D01*
Y54213D02*
X57173Y52591D01*
X67506Y68827D02*
X69119Y70440D01*
X72804D01*
X94287Y39990D02*
X95583D01*
X97751Y37821D01*
X98729D02*
X98955Y37595D01*
X97751Y37821D02*
X98729D01*
X107336Y49712D02*
Y49808D01*
X78906Y60947D02*
X79500Y60353D01*
X78906Y60947D02*
Y61700D01*
X106107Y51037D02*
X107336Y49808D01*
X98188Y51037D02*
X98193Y51032D01*
X99579D02*
X99584Y51037D01*
X106107D01*
X98193Y51032D02*
X99579D01*
X62638Y57815D02*
X64213D01*
X66257Y59859D01*
X94841Y41414D02*
X98605D01*
D26*
X58104Y27453D02*
D03*
X110062Y59208D02*
D03*
X84065Y80181D02*
D03*
X103434Y22232D02*
D03*
X99969D02*
D03*
X61569Y27453D02*
D03*
X87530Y80181D02*
D03*
X106597Y59208D02*
D03*
D27*
X83938Y89508D02*
D03*
X87104Y12706D02*
D03*
X82576D02*
D03*
X40416Y23145D02*
D03*
X44944D02*
D03*
X79411Y89508D02*
D03*
D28*
X87790Y21781D02*
D03*
X33541Y53407D02*
D03*
X112701Y50580D02*
D03*
X101258Y58008D02*
D03*
X96330Y58072D02*
D03*
X87790Y18317D02*
D03*
X101258Y61472D02*
D03*
X112701Y54045D02*
D03*
X96330Y61537D02*
D03*
X33541Y49942D02*
D03*
D29*
X109507Y39257D02*
D03*
X104516Y34435D02*
D03*
X108458Y86489D02*
D03*
X113247Y94922D02*
D03*
X104516Y38963D02*
D03*
X99251Y17012D02*
D03*
Y12485D02*
D03*
X109507Y34730D02*
D03*
X28912Y66711D02*
D03*
X33902Y61337D02*
D03*
X28912Y71238D02*
D03*
X33902Y65864D02*
D03*
X108458Y81962D02*
D03*
X113247Y99449D02*
D03*
D31*
X36791Y3618D02*
D03*
X40728D02*
D03*
D35*
X84846Y32358D02*
D03*
X82397Y34808D02*
D03*
X81368Y28773D02*
D03*
X78918Y31223D02*
D03*
D37*
X82440Y22071D02*
D03*
X99526Y31736D02*
D03*
X90292Y66946D02*
D03*
X99526Y27799D02*
D03*
X104333Y17196D02*
D03*
X90292Y63009D02*
D03*
X104333Y13259D02*
D03*
X82440Y18134D02*
D03*
D39*
X27728Y52228D02*
D03*
X20965Y51988D02*
D03*
X14266Y52542D02*
D03*
Y46833D02*
D03*
X27728Y46519D02*
D03*
X20965Y46280D02*
D03*
D40*
X64184Y5849D02*
D03*
X67984D02*
D03*
D74*
X66957Y95866D02*
D03*
X32942D02*
D03*
D75*
X66957Y111614D02*
D03*
X32942D02*
D03*
D82*
X14151Y83197D02*
Y84970D01*
X29948Y100767D01*
X10681Y84210D02*
X29292Y102822D01*
X44374D01*
X10681Y80919D02*
Y84210D01*
X29948Y100767D02*
X47528D01*
X47547Y100787D02*
X48357D01*
X48580Y101011D01*
X47528Y100767D02*
X47547Y100787D01*
X44374Y102822D02*
X44446Y102893D01*
X40097Y90884D02*
X58221D01*
X32837Y83624D02*
X40097Y90884D01*
X32837Y79154D02*
Y83624D01*
X34308Y3714D02*
X34357Y3666D01*
X36743D01*
X36791Y3618D01*
X60890Y84513D02*
X64248D01*
X56671Y88732D02*
X60890Y84513D01*
X40141Y88732D02*
X56671D01*
X37942Y86533D02*
X40141Y88732D01*
X37942Y79288D02*
Y86533D01*
X58221Y90884D02*
X62139Y86967D01*
D83*
X108472Y32705D02*
X108916Y33149D01*
X108472Y32492D02*
Y32705D01*
X108916Y33149D02*
Y33875D01*
X24961Y54797D02*
X27531Y52228D01*
X23513Y54797D02*
X24961D01*
X23470Y54841D02*
X23513Y54797D01*
X27531Y52228D02*
X27728D01*
X19546Y54864D02*
X19697Y54713D01*
Y53257D02*
Y54713D01*
Y53257D02*
X19981Y52973D01*
Y52776D02*
Y52973D01*
Y52776D02*
X20768Y51988D01*
X20965D01*
X15429Y54892D02*
Y55105D01*
X15250Y54713D02*
X15429Y54892D01*
X15250Y53329D02*
Y54713D01*
X14463Y52542D02*
X15250Y53329D01*
X14266Y52542D02*
X14463D01*
X108916Y33875D02*
X109140Y34098D01*
X2949Y5408D02*
X4250Y4106D01*
X2949Y5408D02*
Y8341D01*
X28940Y4106D02*
X29054D01*
X27562Y5484D02*
X28940Y4106D01*
X27562Y5484D02*
Y8325D01*
X113081Y54424D02*
X115791D01*
X115913Y54604D02*
X115942Y54575D01*
X115791Y54424D02*
X115942Y54575D01*
X2147Y86257D02*
X13003Y97113D01*
X2147Y40358D02*
X3546Y38959D01*
X2147Y40358D02*
Y86257D01*
X93505Y15020D02*
Y15070D01*
Y15020D02*
X95549Y12976D01*
Y6586D02*
Y12976D01*
X94900Y5936D02*
X95549Y6586D01*
X94900Y5723D02*
Y5936D01*
X20965Y46830D02*
X21090Y46706D01*
Y44249D02*
Y46706D01*
Y44249D02*
X21214Y44125D01*
X28077Y81943D02*
X28225Y82091D01*
Y86958D01*
X101226Y61505D02*
X101258Y61472D01*
X96363Y61505D02*
X101226D01*
X96330Y61537D02*
X96363Y61505D01*
X96114Y61753D02*
X96330Y61537D01*
X96114Y61753D02*
Y67335D01*
X95963Y67486D02*
X96114Y67335D01*
X37726Y42908D02*
X38249D01*
X44175Y48834D02*
X46970D01*
X38249Y42908D02*
X44175Y48834D01*
X37576Y42757D02*
X37726Y42908D01*
X64729Y27985D02*
X64879Y28135D01*
X61569Y27453D02*
X62101Y27985D01*
X64729D01*
X80398Y41732D02*
X80480D01*
X80300Y41831D02*
X80398Y41732D01*
X80300Y41831D02*
Y47566D01*
Y48720D02*
X80398Y48819D01*
X80480D01*
X80300Y47566D02*
Y48720D01*
Y47566D02*
Y47606D01*
X55551Y64370D02*
X62638D01*
X112701Y54045D02*
X113081Y54424D01*
X75780Y5868D02*
X75799Y5887D01*
X68003Y5868D02*
X75780D01*
X67984Y5849D02*
X68003Y5868D01*
X15960Y76463D02*
X30124D01*
X15960Y73098D02*
Y76463D01*
X15508Y72647D02*
X15960Y73098D01*
X87698Y18225D02*
X87790Y18317D01*
X82531Y18225D02*
X87698D01*
X82440Y18134D02*
X82531Y18225D01*
X87104Y12706D02*
Y17631D01*
X82576Y12706D02*
X82587Y12696D01*
Y8249D02*
Y12696D01*
X80571Y6233D02*
X82587Y8249D01*
X76145Y6233D02*
X80571D01*
X75799Y5887D02*
X76145Y6233D01*
X92995Y10761D02*
X93505Y11270D01*
X92995Y9841D02*
Y10761D01*
X89081Y5927D02*
X92995Y9841D01*
X99835Y22097D02*
X99969Y22232D01*
X99835Y17596D02*
Y22097D01*
X99251Y17012D02*
X99835Y17596D01*
X101297Y6153D02*
Y7191D01*
X99251Y9237D02*
X101297Y7191D01*
X99251Y9237D02*
Y12485D01*
X28392Y29530D02*
X28400Y29522D01*
X13049Y29538D02*
X13057Y29530D01*
X28392D01*
X36416Y53522D02*
Y70171D01*
X30124Y76463D02*
X36416Y70171D01*
X24543Y73145D02*
X24684Y73286D01*
X7138Y38959D02*
X9795Y36301D01*
Y26046D02*
Y36301D01*
Y26046D02*
X24063Y11778D01*
X32765D01*
X3546Y38959D02*
X7138D01*
X13003Y97113D02*
X19351D01*
X24543Y69573D02*
Y73145D01*
X23362Y68392D02*
X24543Y69573D01*
X23166Y68392D02*
X23362D01*
X115915Y15786D02*
X117342Y14359D01*
X113507Y15786D02*
X115915D01*
X117342Y9919D02*
Y14359D01*
X117191Y9768D02*
X117342Y9919D01*
X49398Y38603D02*
X49595D01*
X48420Y39582D02*
X49398Y38603D01*
X43191Y39582D02*
X48420D01*
X42951Y39342D02*
X43191Y39582D01*
X38185Y39342D02*
X42951D01*
X46970Y48834D02*
X49717Y51580D01*
X81368Y28773D02*
X82139D01*
X83195Y27717D02*
X85255D01*
X82139Y28773D02*
X83195Y27717D01*
X32765Y11778D02*
X40728Y3814D01*
Y3618D02*
Y3814D01*
X4489Y50523D02*
Y69183D01*
Y50523D02*
X8179Y46833D01*
X14266D01*
X14268Y46831D01*
X20964D01*
X20965Y46830D01*
X20993Y46858D02*
X27637D01*
X20965Y46830D02*
X20993Y46858D01*
D84*
X34250Y34962D02*
X72135D01*
X77134Y39961D01*
X17560Y41574D02*
X23595D01*
X15988Y43147D02*
X17560Y41574D01*
X23595D02*
X30207Y34962D01*
X4734Y43147D02*
X15988D01*
X77134Y39961D02*
Y40512D01*
X4649Y43062D02*
X4734Y43147D01*
X30207Y34962D02*
X34108D01*
X18504Y81890D02*
X18609Y81994D01*
X22026Y81943D02*
X22762D01*
X18609Y81994D02*
X21975D01*
X22026Y81943D01*
D85*
X15167Y55105D02*
X15429D01*
D88*
X54977Y17305D02*
D03*
D89*
X75799Y5887D02*
D03*
X101297Y6153D02*
D03*
X113552Y6299D02*
D03*
X89081Y5927D02*
D03*
D90*
X74977Y17305D02*
D03*
X59977D02*
D03*
X64977D02*
D03*
X69977D02*
D03*
D91*
X117326Y27749D02*
D03*
X108472Y32492D02*
D03*
X112271Y27668D02*
D03*
X50156Y29047D02*
D03*
X53225Y28582D02*
D03*
X57870Y27446D02*
D03*
X86917Y48397D02*
D03*
X84165Y85537D02*
D03*
X78126Y82248D02*
D03*
X104332Y31440D02*
D03*
X61160Y46538D02*
D03*
X61270Y69778D02*
D03*
X108402Y78915D02*
D03*
X48601Y58328D02*
D03*
X84196Y65987D02*
D03*
X103986Y27413D02*
D03*
X115843Y50599D02*
D03*
X115942Y54575D02*
D03*
X106559Y8218D02*
D03*
X94900Y5723D02*
D03*
X22558Y4896D02*
D03*
X12678Y40052D02*
D03*
X21214Y44125D02*
D03*
X28225Y86958D02*
D03*
X92238Y57501D02*
D03*
X92989Y49654D02*
D03*
X52748Y66861D02*
D03*
X40607Y32024D02*
D03*
X31942Y42688D02*
D03*
X37576Y42757D02*
D03*
X64879Y28135D02*
D03*
X66781Y41410D02*
D03*
X66683Y45402D02*
D03*
X65244Y54761D02*
D03*
X95168Y47491D02*
D03*
X86091Y52943D02*
D03*
X91256Y40206D02*
D03*
X5873Y10155D02*
D03*
X46384Y12210D02*
D03*
X34038Y23372D02*
D03*
X12655Y37186D02*
D03*
X12756Y34489D02*
D03*
X32873Y88534D02*
D03*
X33285Y57651D02*
D03*
X98886Y52706D02*
D03*
X106551Y54089D02*
D03*
X69323Y64413D02*
D03*
X108589Y91881D02*
D03*
X95720Y35152D02*
D03*
X94634Y37822D02*
D03*
X98955Y37595D02*
D03*
X4649Y43062D02*
D03*
X14151Y83197D02*
D03*
X15960Y76463D02*
D03*
X10681Y80919D02*
D03*
X48580Y101011D02*
D03*
X44446Y102893D02*
D03*
X28400Y29522D02*
D03*
X36416Y53522D02*
D03*
X33734Y66073D02*
D03*
X28956Y71293D02*
D03*
X49527Y64958D02*
D03*
X95963Y67486D02*
D03*
X15736Y94896D02*
D03*
X21307Y73468D02*
D03*
X24684Y73286D02*
D03*
X103685Y54168D02*
D03*
X117191Y9768D02*
D03*
X68640Y26702D02*
D03*
X88895Y42768D02*
D03*
X75172Y33245D02*
D03*
X38185Y39342D02*
D03*
X77263Y35580D02*
D03*
X18504Y81890D02*
D03*
X108414Y103473D02*
D03*
X85255Y27717D02*
D03*
X48061Y85761D02*
D03*
X23402Y62935D02*
D03*
X23425Y58832D02*
D03*
X23470Y54841D02*
D03*
X19479Y62913D02*
D03*
X15452Y59151D02*
D03*
X15601Y62958D02*
D03*
X15429Y55105D02*
D03*
X19546Y54864D02*
D03*
X22555Y24286D02*
D03*
X27562Y8325D02*
D03*
X51293Y5127D02*
D03*
X46066Y3224D02*
D03*
X9681Y20007D02*
D03*
X2949Y8341D02*
D03*
X13049Y29538D02*
D03*
X16991Y3117D02*
D03*
X113315Y103879D02*
D03*
X34308Y3714D02*
D03*
X62139Y86967D02*
D03*
X64248Y84513D02*
D03*
X37942Y79288D02*
D03*
X32837Y79154D02*
D03*
X4489Y69183D02*
D03*
X49717Y51580D02*
D03*
X51827Y47222D02*
D03*
D92*
X116332Y61354D02*
D03*
X114570Y63202D02*
D03*
X67882Y74756D02*
D03*
X67344Y77249D02*
D03*
X69622Y67222D02*
D03*
X114204Y59169D02*
D03*
X96031Y43413D02*
D03*
X98605Y41414D02*
D03*
X99643Y46513D02*
D03*
X19351Y97113D02*
D03*
D93*
X79134Y45276D02*
D03*
X59095Y63024D02*
D03*
X74134Y45276D02*
D03*
X59095Y58024D02*
D03*
X105761Y49712D02*
D03*
X108911Y43413D02*
D03*
Y46563D02*
D03*
X104186D02*
D03*
X107336Y43413D02*
D03*
X104186Y44988D02*
D03*
Y48138D02*
D03*
X108911D02*
D03*
X105761Y43413D02*
D03*
X108911Y44988D02*
D03*
X107336Y49712D02*
D03*
X108911D02*
D03*
X104186Y43413D02*
D03*
D94*
X98756Y48461D02*
D03*
D95*
X59449Y42520D02*
D03*
X59055Y74508D02*
D03*
X59449Y49409D02*
D03*
X59055Y81398D02*
D03*
D96*
X73925Y41732D02*
D03*
Y48819D02*
D03*
D97*
X38956Y61833D02*
D03*
X45846D02*
D03*
X71921Y64027D02*
D03*
X78811D02*
D03*
D98*
X80480Y41732D02*
D03*
Y48819D02*
D03*
D99*
X55551Y64370D02*
D03*
X62638D02*
D03*
D100*
X55551Y57815D02*
D03*
X62638D02*
D03*
D101*
X77134Y40512D02*
D03*
Y50039D02*
D03*
D102*
X54331Y61024D02*
D03*
X63858D02*
D03*
D103*
X93505Y11270D02*
D03*
Y15070D02*
D03*
X113507Y15786D02*
D03*
Y11986D02*
D03*
D104*
X28077Y81943D02*
D03*
X22762D02*
D03*
D105*
X23166Y63077D02*
D03*
X15508Y67332D02*
D03*
X23166Y68392D02*
D03*
X15508Y72647D02*
D03*
D106*
X49595Y38603D02*
D03*
Y44115D02*
D03*
D107*
X43191Y39582D02*
D03*
Y47456D02*
D03*
D108*
X29054Y4106D02*
D03*
X4250D02*
D03*
X29054Y19067D02*
D03*
X4250D02*
D03*
D109*
X43096Y53428D02*
X47862D01*
X34250Y34820D02*
Y44582D01*
X43096Y53428D01*
X54030Y60827D02*
X54227Y61024D01*
X47862Y53428D02*
X54030Y59597D01*
X54227Y61024D02*
X54331D01*
X54030Y59597D02*
Y60827D01*
X113530Y6304D02*
X113552Y6282D01*
X113530Y6304D02*
Y11964D01*
X113507Y11986D02*
X113530Y11964D01*
M02*
