G04*
G04 #@! TF.GenerationSoftware,Altium Limited,Altium Designer,25.8.1 (18)*
G04*
G04 Layer_Color=65535*
%FSLAX25Y25*%
%MOIN*%
G70*
G04*
G04 #@! TF.SameCoordinates,7F66DBA8-FC42-4FC2-AADA-9854A9E9CDB9*
G04*
G04*
G04 #@! TF.FilePolarity,Positive*
G04*
G01*
G75*
%ADD10C,0.00394*%
%ADD11C,0.00787*%
%ADD12C,0.00984*%
%ADD13C,0.02362*%
%ADD14C,0.00600*%
%ADD15C,0.00500*%
%ADD16C,0.00591*%
G36*
X63393Y33550D02*
X62333Y34611D01*
X61625Y33904D01*
X62686Y32843D01*
X63393Y33550D01*
D02*
G37*
G36*
X53371Y51908D02*
X52664Y52615D01*
X51604Y51555D01*
X52311Y50848D01*
X53371Y51908D01*
D02*
G37*
G36*
X80691Y44633D02*
X81398Y43926D01*
X80337Y42865D01*
X79630Y43572D01*
X80691Y44633D01*
D02*
G37*
G36*
X70669Y60869D02*
X69608Y61930D01*
X70315Y62637D01*
X71376Y61577D01*
X70669Y60869D01*
D02*
G37*
D10*
X112179Y40598D02*
G03*
X112179Y40598I-197J0D01*
G01*
X78576Y36218D02*
G03*
X78576Y36218I-197J0D01*
G01*
D11*
X13013Y45600D02*
G03*
X13013Y45600I-394J0D01*
G01*
X50391Y17305D02*
G03*
X50391Y17305I-394J0D01*
G01*
X100873Y15662D02*
X104968D01*
X100873Y10347D02*
X104968D01*
X54134Y76181D02*
Y77362D01*
X41929Y76181D02*
Y77362D01*
X54134D01*
X41929Y76181D02*
X54134D01*
X7034Y7225D02*
X17467D01*
X7034D02*
Y17658D01*
X17467D01*
Y7225D02*
Y17658D01*
X75124Y77522D02*
X116463D01*
X75124Y104294D02*
X116463D01*
X75124Y77522D02*
Y104294D01*
X116463Y77522D02*
Y104294D01*
X14085Y108247D02*
X22156D01*
X9853Y90924D02*
Y102440D01*
X23140Y90924D02*
X26388D01*
X9853D02*
X13101D01*
X26388D02*
Y102440D01*
X31958Y117421D02*
Y120276D01*
Y100886D02*
Y105807D01*
Y120276D02*
X67942D01*
Y117421D02*
Y120276D01*
Y100886D02*
Y105807D01*
X25183Y26072D02*
Y27647D01*
X14947Y26072D02*
X25183D01*
X14947D02*
Y27647D01*
X25183Y30009D02*
Y31584D01*
X14947D02*
X25183D01*
X14947Y30009D02*
Y31584D01*
X20065Y26072D02*
Y31584D01*
X5152Y56148D02*
X6727D01*
Y45911D02*
Y56148D01*
X5152Y45911D02*
X6727D01*
X1215Y56148D02*
X2790D01*
X1215Y45911D02*
Y56148D01*
Y45911D02*
X2790D01*
X1215Y51029D02*
X6727D01*
X50675Y60160D02*
Y62522D01*
X48418Y54840D02*
Y57202D01*
X79493Y35661D02*
X87288Y27866D01*
X79493Y35661D02*
Y36775D01*
X86174Y43456D01*
X87288Y27866D02*
X94526Y35104D01*
X86174Y43456D02*
X94526Y35104D01*
X27874Y8039D02*
Y13945D01*
X43425Y8039D02*
Y13945D01*
D12*
X55610Y81299D02*
G03*
X55610Y81299I-492J0D01*
G01*
X19436Y9391D02*
G03*
X19436Y9391I-492J0D01*
G01*
X75439Y72207D02*
G03*
X75439Y72207I-492J0D01*
G01*
X20975Y87381D02*
G03*
X20975Y87381I-492J0D01*
G01*
X63020Y89075D02*
G03*
X63020Y89075I-492J0D01*
G01*
X41457Y17095D02*
G03*
X41457Y17095I-492J0D01*
G01*
D13*
X80242Y81459D02*
G03*
X80242Y81459I-1181J0D01*
G01*
D14*
X5320Y43813D02*
G03*
X5320Y43813I-300J0D01*
G01*
X12243Y36647D02*
G03*
X12243Y36647I-300J0D01*
G01*
X51581Y47740D02*
X52819Y46501D01*
X66501Y32820D02*
X67739Y34059D01*
X80182Y48979D02*
X81421Y47740D01*
X65262Y61421D02*
X66501Y62660D01*
X51581Y47740D02*
X52819Y48979D01*
X65262Y34059D02*
X66501Y32820D01*
X80182Y46501D02*
X81421Y47740D01*
X66501Y62660D02*
X67739Y61421D01*
D15*
X9667Y67470D02*
Y68632D01*
X10828D01*
X28191D02*
X29352D01*
Y67470D02*
Y68632D01*
Y48947D02*
Y50108D01*
X28191Y48947D02*
X29352D01*
X9667D02*
X10828D01*
X9667D02*
Y50108D01*
X52477Y20631D02*
Y21439D01*
Y13171D02*
Y13978D01*
X77477Y20631D02*
Y21439D01*
Y13171D02*
Y13978D01*
X52477Y13171D02*
X77477D01*
X52477Y21439D02*
X77477D01*
D16*
X92665Y14514D02*
X96665D01*
X96165Y18451D02*
X96665D01*
Y10577D02*
Y18451D01*
X96165Y10577D02*
X96665D01*
X92665D02*
X93165D01*
X92665D02*
Y18451D01*
X93165D01*
X87240Y19545D02*
X87740D01*
X87240Y10545D02*
Y19545D01*
Y10545D02*
X87740D01*
X90740D02*
X91240D01*
Y19545D01*
X90740D02*
X91240D01*
X87240Y15045D02*
X91240D01*
X104396Y19956D02*
Y20744D01*
X96522Y19956D02*
X104396D01*
X96522D02*
Y20744D01*
Y23106D02*
Y23893D01*
X104396D01*
Y23106D02*
Y23893D01*
X88984Y43259D02*
X89541Y43816D01*
X83416Y48827D02*
X88984Y43259D01*
X83416Y48827D02*
X83973Y49384D01*
X85643Y51054D02*
X86200Y51611D01*
X91768Y46043D01*
X91211Y45486D02*
X91768Y46043D01*
X67651Y72529D02*
X68439D01*
Y64655D02*
Y72529D01*
X67651Y64655D02*
X68439D01*
X64502D02*
X65289D01*
X64502D02*
Y72529D01*
X65289D01*
X19275Y4750D02*
Y5250D01*
X10275D02*
X19275D01*
X10275Y4750D02*
Y5250D01*
Y1250D02*
Y1750D01*
Y1250D02*
X19275D01*
Y1750D01*
X14775Y1250D02*
Y5250D01*
X9100Y4366D02*
Y5154D01*
X1226D02*
X9100D01*
X1226Y4366D02*
Y5154D01*
Y1217D02*
Y2004D01*
Y1217D02*
X9100D01*
Y2004D01*
X24123Y2840D02*
X24623D01*
Y11840D01*
X24123D02*
X24623D01*
X20623D02*
X21123D01*
X20623Y2840D02*
Y11840D01*
Y2840D02*
X21123D01*
X20623Y7340D02*
X24623D01*
X20623Y17723D02*
X24623D01*
X20623Y13223D02*
X21123D01*
X20623D02*
Y22223D01*
X21123D01*
X24123D02*
X24623D01*
Y13223D02*
Y22223D01*
X24123Y13223D02*
X24623D01*
X4146Y6144D02*
X4933D01*
Y14018D01*
X4146D02*
X4933D01*
X996D02*
X1784D01*
X996Y6144D02*
Y14018D01*
Y6144D02*
X1784D01*
X1122Y22883D02*
X1910D01*
X1122Y15009D02*
Y22883D01*
Y15009D02*
X1910D01*
X4272D02*
X5059D01*
Y22883D01*
X4272D02*
X5059D01*
X25880Y4785D02*
Y5573D01*
X33754D01*
Y4785D02*
Y5573D01*
Y1636D02*
Y2423D01*
X25880Y1636D02*
X33754D01*
X25880D02*
Y2423D01*
X43493Y1636D02*
Y2423D01*
X35619Y1636D02*
X43493D01*
X35619D02*
Y2423D01*
Y4785D02*
Y5573D01*
X43493D01*
Y4785D02*
Y5573D01*
X108319Y15677D02*
X112319D01*
X111819Y20177D02*
X112319D01*
Y11177D02*
Y20177D01*
X111819Y11177D02*
X112319D01*
X108319D02*
X108819D01*
X108319D02*
Y20177D01*
X108819D01*
X44028Y24116D02*
Y24616D01*
Y24116D02*
X51902D01*
Y24616D01*
Y27616D02*
Y28116D01*
X44028D02*
X51902D01*
X44028Y27616D02*
Y28116D01*
X47965Y24116D02*
Y28116D01*
X43038Y27993D02*
Y28493D01*
X35163D02*
X43038D01*
X35163Y27993D02*
Y28493D01*
Y24493D02*
Y24993D01*
Y24493D02*
X43038D01*
Y24993D01*
X39101Y24493D02*
Y28493D01*
X117208Y24507D02*
Y25295D01*
X109334D02*
X117208D01*
X109334Y24507D02*
Y25295D01*
Y21358D02*
Y22145D01*
Y21358D02*
X117208D01*
Y22145D01*
X113749Y20296D02*
X114249D01*
X113749Y12422D02*
Y20296D01*
Y12422D02*
X114249D01*
X117249D02*
X117749D01*
Y20296D01*
X117249D02*
X117749D01*
X113749Y16359D02*
X117749D01*
X30962Y81564D02*
X34962D01*
X34462Y86064D02*
X34962D01*
Y77064D02*
Y86064D01*
X34462Y77064D02*
X34962D01*
X30962D02*
X31462D01*
X30962D02*
Y86064D01*
X31462D01*
X36054Y81570D02*
X40054D01*
X39554Y86070D02*
X40054D01*
Y77070D02*
Y86070D01*
X39554Y77070D02*
X40054D01*
X36054D02*
X36554D01*
X36054D02*
Y86070D01*
X36554D01*
X2463Y62236D02*
X6463D01*
X5963Y66737D02*
X6463D01*
Y57736D02*
Y66737D01*
X4963Y57736D02*
X6463D01*
X2463D02*
X3963D01*
X2463D02*
Y66737D01*
X2963D01*
X6463Y57236D02*
Y57736D01*
X4963Y57236D02*
X6463D01*
X4963D02*
Y57736D01*
X2463Y57236D02*
Y57736D01*
Y57236D02*
X3963D01*
Y57736D01*
X2489Y75955D02*
X6489D01*
X2489Y71455D02*
X2989D01*
X2489D02*
Y80455D01*
X3989D01*
X4989D02*
X6489D01*
Y71455D02*
Y80455D01*
X5989Y71455D02*
X6489D01*
X2489Y80455D02*
Y80955D01*
X3989D01*
Y80455D02*
Y80955D01*
X6489Y80455D02*
Y80955D01*
X4989D02*
X6489D01*
X4989Y80455D02*
Y80955D01*
X59194Y72169D02*
X59982D01*
X59194Y64295D02*
Y72169D01*
Y64295D02*
X59982D01*
X62344D02*
X63131D01*
Y72169D01*
X62344D02*
X63131D01*
X90239Y24823D02*
X90796Y24266D01*
X96364Y29834D01*
X95807Y30391D02*
X96364Y29834D01*
X93580Y32618D02*
X94137Y32061D01*
X88012Y27050D02*
X93580Y32618D01*
X88012Y27050D02*
X88569Y26493D01*
X84272Y27672D02*
X84829Y28228D01*
X79261Y33796D02*
X84829Y28228D01*
X78704Y33239D02*
X79261Y33796D01*
X76477Y31012D02*
X77034Y31569D01*
X76477Y31012D02*
X82045Y25444D01*
X82602Y26001D01*
X49014Y6385D02*
Y10385D01*
X53514Y6385D02*
Y6886D01*
X44514Y6385D02*
X53514D01*
X44514D02*
Y6886D01*
Y9886D02*
Y10385D01*
X53514D01*
Y9886D02*
Y10385D01*
X44514Y18548D02*
X48514D01*
X44514Y14048D02*
X45014D01*
X44514D02*
Y23048D01*
X45014D01*
X48014D02*
X48514D01*
Y14048D02*
Y23048D01*
X48014Y14048D02*
X48514D01*
M02*
