M48
;Layer_Color=9474304
;FILE_FORMAT=2:5
INCH
;TYPE=PLATED
T01F00S00C0.00591
T02F00S00C0.00787
T03F00S00C0.01181
T05F00S00C0.02559
T06F00S00C0.03937
%
T01
X0204186Y0143413
X0205761
X0207336
X0208911
Y0144988
Y0146563
Y0148138
Y0149712
X0207336
X0205761
X0204186Y0148138
Y0146563
Y0144988
T02
X0196031Y0143413
X0198605Y0141413
X0199643Y0146513
X0198756Y0148461
X0192238Y0157501
X0214204Y0159169
X0216332Y0161354
X0214570Y0163202
X0169622Y0167222
X0167882Y0174756
X0167344Y0177249
X0119351Y0197113
T03
X0102949Y0108341
X0105873Y0110155
X0109681Y0120007
X0113049Y0129538
X0112756Y0134489
X0112655Y0137186
X0112678Y0140052
X0104649Y0143062
X0121214Y0144125
X0131942Y0142688
X0137576Y0142757
X0138185Y0139342
X0140607Y0132024
X0150156Y0129047
X0153225Y0128582
X0151827Y0147222
X0149717Y0151580
X0136416Y0153522
X0123470Y0154841
X0119546Y0154864
X0115429Y0155104
X0122555Y0124287
X0128400Y0129522
X0134039Y0123372
X0134309Y0103714
X0127562Y0108325
X0122557Y0104896
X0116991Y0103117
X0146066Y0103224
X0151293Y0105127
X0146384Y0112210
X0157870Y0127446
X0164879Y0128136
X0168640Y0126702
X0175172Y0133245
X0177263Y0135580
X0185255Y0127717
X0195720Y0135152
X0194634Y0137822
X0198955Y0137595
X0191256Y0140206
X0188895Y0142768
X0186917Y0148398
X0186091Y0152943
X0192989Y0149654
X0195168Y0147491
X0198886Y0152706
X0203685Y0154168
X0206551Y0154089
X0215942Y0154575
X0215843Y0150599
X0217326Y0127749
X0212271Y0127668
X0203986Y0127413
X0204332Y0131440
X0208472Y0132492
X0206559Y0108218
X0217191Y0109768
X0194900Y0105723
X0166781Y0141410
X0166683Y0145402
X0161160Y0146538
X0165243Y0154761
X0169323Y0164413
X0161270Y0169778
X0164248Y0184513
X0162139Y0186967
X0178126Y0182247
X0184165Y0185537
X0184196Y0165987
X0195963Y0167486
X0208402Y0178915
X0208589Y0191881
X0208414Y0203473
X0213315Y0203879
X0148580Y0201011
X0144446Y0202893
X0148062Y0185761
X0137942Y0179288
X0132837Y0179154
X0132873Y0188534
X0128225Y0186958
X0118504Y0181890
X0114151Y0183196
X0110681Y0180919
X0115960Y0176463
X0121307Y0173468
X0124684Y0173286
X0128955Y0171293
X0133734Y0166073
X0133285Y0157651
X0123424Y0158832
X0123402Y0162935
X0119479Y0162913
X0115601Y0162958
X0115452Y0159151
X0104489Y0169183
X0115736Y0194896
X0149527Y0164958
X0152748Y0166861
X0148601Y0158328
T05
X0154977Y0117305
X0159977
X0164977
X0169977
X0174977
T06
X0175799Y0105887
X0189081Y0105927
X0201297Y0106153
X0213552Y0106299
M30
