G04*
G04 #@! TF.GenerationSoftware,Altium Limited,Altium Designer,25.8.1 (18)*
G04*
G04 Layer_Color=128*
%FSLAX25Y25*%
%MOIN*%
G70*
G04*
G04 #@! TF.SameCoordinates,7F66DBA8-FC42-4FC2-AADA-9854A9E9CDB9*
G04*
G04*
G04 #@! TF.FilePolarity,Positive*
G04*
G01*
G75*
%ADD26R,0.02362X0.02520*%
%ADD27R,0.02953X0.02362*%
%ADD28R,0.02520X0.02362*%
%ADD29R,0.02362X0.02953*%
%ADD31R,0.01968X0.02362*%
G04:AMPARAMS|DCode=35|XSize=25.2mil|YSize=23.62mil|CornerRadius=0mil|HoleSize=0mil|Usage=FLASHONLY|Rotation=225.000|XOffset=0mil|YOffset=0mil|HoleType=Round|Shape=Rectangle|*
%AMROTATEDRECTD35*
4,1,4,0.00056,0.01726,0.01726,0.00056,-0.00056,-0.01726,-0.01726,-0.00056,0.00056,0.01726,0.0*
%
%ADD35ROTATEDRECTD35*%

%ADD37R,0.02362X0.01968*%
%ADD39R,0.03150X0.02756*%
%ADD40R,0.02300X0.02200*%
%ADD93C,0.00984*%
%ADD95R,0.10039X0.01968*%
%ADD96R,0.01890X0.01378*%
%ADD97R,0.01968X0.10039*%
%ADD98R,0.01772X0.01378*%
%ADD99R,0.01378X0.01772*%
%ADD100R,0.01378X0.01890*%
%ADD101R,0.01968X0.03071*%
%ADD102R,0.03071X0.01968*%
%ADD103R,0.02200X0.02300*%
%ADD104R,0.03543X0.03937*%
%ADD105R,0.03937X0.03543*%
G04:AMPARAMS|DCode=106|XSize=29.92mil|YSize=26mil|CornerRadius=3.25mil|HoleSize=0mil|Usage=FLASHONLY|Rotation=0.000|XOffset=0mil|YOffset=0mil|HoleType=Round|Shape=RoundedRectangle|*
%AMROUNDEDRECTD106*
21,1,0.02992,0.01950,0,0,0.0*
21,1,0.02342,0.02600,0,0,0.0*
1,1,0.00650,0.01171,-0.00975*
1,1,0.00650,-0.01171,-0.00975*
1,1,0.00650,-0.01171,0.00975*
1,1,0.00650,0.01171,0.00975*
%
%ADD106ROUNDEDRECTD106*%
%ADD107R,0.04724X0.03937*%
%ADD108R,0.06693X0.03937*%
G36*
X60768Y57087D02*
X60079D01*
Y54724D01*
X58110D01*
Y57087D01*
X57421D01*
Y59370D01*
X60768D01*
Y57087D01*
D02*
G37*
G36*
X60079Y64961D02*
X60768D01*
Y60827D01*
X57421D01*
Y64961D01*
X58110D01*
Y67323D01*
X60079D01*
Y64961D01*
D02*
G37*
G36*
X75480Y43602D02*
X73197D01*
Y44291D01*
X70835D01*
Y46260D01*
X73197D01*
Y46949D01*
X75480D01*
Y43602D01*
D02*
G37*
G36*
X81071Y46260D02*
X83433D01*
Y44291D01*
X81071D01*
Y43602D01*
X76937D01*
Y46949D01*
X81071D01*
Y46260D01*
D02*
G37*
D26*
X58104Y27453D02*
D03*
X110062Y59208D02*
D03*
X84065Y80181D02*
D03*
X103434Y22232D02*
D03*
X99969D02*
D03*
X61569Y27453D02*
D03*
X87530Y80181D02*
D03*
X106597Y59208D02*
D03*
D27*
X83938Y89508D02*
D03*
X87104Y12706D02*
D03*
X82576D02*
D03*
X40416Y23145D02*
D03*
X44944D02*
D03*
X79411Y89508D02*
D03*
D28*
X87790Y21781D02*
D03*
X33541Y53407D02*
D03*
X112701Y50580D02*
D03*
X101258Y58008D02*
D03*
X96330Y58072D02*
D03*
X87790Y18317D02*
D03*
X101258Y61472D02*
D03*
X112701Y54045D02*
D03*
X96330Y61537D02*
D03*
X33541Y49942D02*
D03*
D29*
X109507Y39257D02*
D03*
X104516Y34435D02*
D03*
X108458Y86489D02*
D03*
X113247Y94922D02*
D03*
X104516Y38963D02*
D03*
X99251Y17012D02*
D03*
Y12485D02*
D03*
X109507Y34730D02*
D03*
X28912Y66711D02*
D03*
X33902Y61337D02*
D03*
X28912Y71238D02*
D03*
X33902Y65864D02*
D03*
X108458Y81962D02*
D03*
X113247Y99449D02*
D03*
D31*
X36791Y3618D02*
D03*
X40728D02*
D03*
D35*
X84846Y32358D02*
D03*
X82397Y34808D02*
D03*
X81368Y28773D02*
D03*
X78918Y31223D02*
D03*
D37*
X82440Y22071D02*
D03*
X99526Y31736D02*
D03*
X90292Y66946D02*
D03*
X99526Y27799D02*
D03*
X104333Y17196D02*
D03*
X90292Y63009D02*
D03*
X104333Y13259D02*
D03*
X82440Y18134D02*
D03*
D39*
X27728Y52228D02*
D03*
X20965Y51988D02*
D03*
X14266Y52542D02*
D03*
Y46833D02*
D03*
X27728Y46519D02*
D03*
X20965Y46280D02*
D03*
D40*
X64184Y5849D02*
D03*
X67984D02*
D03*
D93*
X79134Y45276D02*
D03*
X59095Y63024D02*
D03*
X74134Y45276D02*
D03*
X59095Y58024D02*
D03*
D95*
X59449Y42520D02*
D03*
X59055Y74508D02*
D03*
X59449Y49409D02*
D03*
X59055Y81398D02*
D03*
D96*
X73925Y41732D02*
D03*
Y48819D02*
D03*
D97*
X38956Y61833D02*
D03*
X45846D02*
D03*
X71921Y64027D02*
D03*
X78811D02*
D03*
D98*
X80480Y41732D02*
D03*
Y48819D02*
D03*
D99*
X55551Y64370D02*
D03*
X62638D02*
D03*
D100*
X55551Y57815D02*
D03*
X62638D02*
D03*
D101*
X77134Y40512D02*
D03*
Y50039D02*
D03*
D102*
X54331Y61024D02*
D03*
X63858D02*
D03*
D103*
X93505Y11270D02*
D03*
Y15070D02*
D03*
X113507Y15786D02*
D03*
Y11986D02*
D03*
D104*
X28077Y81943D02*
D03*
X22762D02*
D03*
D105*
X23166Y63077D02*
D03*
X15508Y67332D02*
D03*
X23166Y68392D02*
D03*
X15508Y72647D02*
D03*
D106*
X49595Y38603D02*
D03*
Y44115D02*
D03*
D107*
X43191Y39582D02*
D03*
Y47456D02*
D03*
D108*
X29054Y4106D02*
D03*
X4250D02*
D03*
X29054Y19067D02*
D03*
X4250D02*
D03*
M02*
